<svg width="108" height="25" viewBox="0 0 108 25" fill="none" xmlns="http://www.w3.org/2000/svg">
    <path d="M24.992 12.057C25.0534 13.7721 24.7608 15.4816 24.1325 17.0787C23.5042 18.6758 22.5536 20.1264 21.34 21.34C20.1264 22.5536 18.6758 23.5042 17.0787 24.1325C15.4816 24.7608 13.7721 25.0534 12.057 24.992C5.30236 24.7607 0 19.0817 0 12.3271V9.6253H8.78097V12.496C8.7977 13.2066 9.02264 13.8966 9.4279 14.4806C9.83317 15.0645 10.4009 15.5166 11.0608 15.7809C11.7206 16.0452 12.4435 16.1099 13.1398 15.9672C13.8361 15.8244 14.4752 15.4804 14.9778 14.9778C15.4804 14.4752 15.8244 13.8361 15.9672 13.1398C16.1099 12.4435 16.0452 11.7206 15.7809 11.0608C15.5166 10.4009 15.0645 9.83317 14.4806 9.4279C13.8966 9.02264 13.2066 8.7977 12.496 8.78097H9.6253V0H12.317C19.0817 0 24.7539 5.29898 24.992 12.057Z" fill="url(#paint0_linear)"/>
    <mask id="mask0" mask-type="alpha" maskUnits="userSpaceOnUse" x="0" y="0" width="25" height="25">
        <path d="M24.992 12.057C25.0534 13.7721 24.7608 15.4816 24.1325 17.0787C23.5042 18.6758 22.5536 20.1264 21.34 21.34C20.1264 22.5536 18.6758 23.5042 17.0787 24.1325C15.4816 24.7608 13.7721 25.0534 12.057 24.992C5.30236 24.7607 0 19.0817 0 12.3271V9.6253H8.78097V12.496C8.7977 13.2066 9.02264 13.8966 9.4279 14.4806C9.83317 15.0645 10.4009 15.5166 11.0608 15.7809C11.7206 16.0452 12.4435 16.1099 13.1398 15.9672C13.8361 15.8244 14.4752 15.4804 14.9778 14.9778C15.4804 14.4752 15.8244 13.8361 15.9672 13.1398C16.1099 12.4435 16.0452 11.7206 15.7809 11.0608C15.5166 10.4009 15.0645 9.83317 14.4806 9.4279C13.8966 9.02264 13.2066 8.7977 12.496 8.78097H9.6253V0H12.317C19.0817 0 24.7539 5.29898 24.992 12.057Z" fill="url(#paint1_linear)"/>
    </mask>
    <g mask="url(#mask0)">
        <path opacity="0.3" d="M-14.488 -2V-4.848H-15.008L-15.588 -4.344V-3.784L-15.008 -4.288V-2H-14.488ZM-11.8761 -2.824V-4.024C-11.8761 -4.568 -12.2761 -4.872 -12.7401 -4.872C-13.2041 -4.872 -13.6081 -4.568 -13.6081 -4.024V-2.824C-13.6081 -2.28 -13.2041 -1.976 -12.7401 -1.976C-12.2761 -1.976 -11.8761 -2.28 -11.8761 -2.824ZM-12.3961 -2.828C-12.3961 -2.588 -12.5361 -2.444 -12.7401 -2.444C-12.9441 -2.444 -13.0881 -2.588 -13.0881 -2.828V-4.016C-13.0881 -4.256 -12.9441 -4.404 -12.7401 -4.404C-12.5361 -4.404 -12.3961 -4.256 -12.3961 -4.016V-2.828ZM-10.1442 -2V-4.848H-10.6642L-11.2442 -4.344V-3.784L-10.6642 -4.288V-2H-10.1442ZM-7.53237 -2.824V-4.024C-7.53237 -4.568 -7.93237 -4.872 -8.39637 -4.872C-8.86037 -4.872 -9.26437 -4.568 -9.26437 -4.024V-2.824C-9.26437 -2.28 -8.86037 -1.976 -8.39637 -1.976C-7.93237 -1.976 -7.53237 -2.28 -7.53237 -2.824ZM-8.05237 -2.828C-8.05237 -2.588 -8.19237 -2.444 -8.39637 -2.444C-8.60037 -2.444 -8.74437 -2.588 -8.74437 -2.828V-4.016C-8.74437 -4.256 -8.60037 -4.404 -8.39637 -4.404C-8.19237 -4.404 -8.05237 -4.256 -8.05237 -4.016V-2.828ZM-5.8005 -2V-4.848H-6.3205L-6.9005 -4.344V-3.784L-6.3205 -4.288V-2H-5.8005ZM-3.18862 -2.824V-4.024C-3.18862 -4.568 -3.58862 -4.872 -4.05262 -4.872C-4.51662 -4.872 -4.92062 -4.568 -4.92062 -4.024V-2.824C-4.92062 -2.28 -4.51662 -1.976 -4.05262 -1.976C-3.58862 -1.976 -3.18862 -2.28 -3.18862 -2.824ZM-3.70862 -2.828C-3.70862 -2.588 -3.84862 -2.444 -4.05262 -2.444C-4.25662 -2.444 -4.40062 -2.588 -4.40062 -2.828V-4.016C-4.40062 -4.256 -4.25662 -4.404 -4.05262 -4.404C-3.84862 -4.404 -3.70862 -4.256 -3.70862 -4.016V-2.828ZM-1.45675 -2V-4.848H-1.97675L-2.55675 -4.344V-3.784L-1.97675 -4.288V-2H-1.45675ZM1.15513 -2.824V-4.024C1.15513 -4.568 0.755125 -4.872 0.291125 -4.872C-0.172875 -4.872 -0.576875 -4.568 -0.576875 -4.024V-2.824C-0.576875 -2.28 -0.172875 -1.976 0.291125 -1.976C0.755125 -1.976 1.15513 -2.28 1.15513 -2.824ZM0.635125 -2.828C0.635125 -2.588 0.495125 -2.444 0.291125 -2.444C0.0871251 -2.444 -0.056875 -2.588 -0.056875 -2.828V-4.016C-0.056875 -4.256 0.0871251 -4.404 0.291125 -4.404C0.495125 -4.404 0.635125 -4.256 0.635125 -4.016V-2.828ZM2.887 -2V-4.848H2.367L1.787 -4.344V-3.784L2.367 -4.288V-2H2.887ZM5.49888 -2.824V-4.024C5.49888 -4.568 5.09888 -4.872 4.63488 -4.872C4.17088 -4.872 3.76688 -4.568 3.76688 -4.024V-2.824C3.76688 -2.28 4.17088 -1.976 4.63488 -1.976C5.09888 -1.976 5.49888 -2.28 5.49888 -2.824ZM4.97888 -2.828C4.97888 -2.588 4.83888 -2.444 4.63488 -2.444C4.43088 -2.444 4.28688 -2.588 4.28688 -2.828V-4.016C4.28688 -4.256 4.43088 -4.404 4.63488 -4.404C4.83888 -4.404 4.97888 -4.256 4.97888 -4.016V-2.828ZM7.23075 -2V-4.848H6.71075L6.13075 -4.344V-3.784L6.71075 -4.288V-2H7.23075ZM9.84263 -2.824V-4.024C9.84263 -4.568 9.44263 -4.872 8.97863 -4.872C8.51463 -4.872 8.11063 -4.568 8.11063 -4.024V-2.824C8.11063 -2.28 8.51463 -1.976 8.97863 -1.976C9.44263 -1.976 9.84263 -2.28 9.84263 -2.824ZM9.32263 -2.828C9.32263 -2.588 9.18263 -2.444 8.97863 -2.444C8.77463 -2.444 8.63063 -2.588 8.63063 -2.828V-4.016C8.63063 -4.256 8.77463 -4.404 8.97863 -4.404C9.18263 -4.404 9.32263 -4.256 9.32263 -4.016V-2.828ZM11.5745 -2V-4.848H11.0545L10.4745 -4.344V-3.784L11.0545 -4.288V-2H11.5745ZM14.1864 -2.824V-4.024C14.1864 -4.568 13.7864 -4.872 13.3224 -4.872C12.8584 -4.872 12.4544 -4.568 12.4544 -4.024V-2.824C12.4544 -2.28 12.8584 -1.976 13.3224 -1.976C13.7864 -1.976 14.1864 -2.28 14.1864 -2.824ZM13.6664 -2.828C13.6664 -2.588 13.5264 -2.444 13.3224 -2.444C13.1184 -2.444 12.9744 -2.588 12.9744 -2.828V-4.016C12.9744 -4.256 13.1184 -4.404 13.3224 -4.404C13.5264 -4.404 13.6664 -4.256 13.6664 -4.016V-2.828ZM15.9183 -2V-4.848H15.3983L14.8183 -4.344V-3.784L15.3983 -4.288V-2H15.9183ZM18.5301 -2.824V-4.024C18.5301 -4.568 18.1301 -4.872 17.6661 -4.872C17.2021 -4.872 16.7981 -4.568 16.7981 -4.024V-2.824C16.7981 -2.28 17.2021 -1.976 17.6661 -1.976C18.1301 -1.976 18.5301 -2.28 18.5301 -2.824ZM18.0101 -2.828C18.0101 -2.588 17.8701 -2.444 17.6661 -2.444C17.4621 -2.444 17.3181 -2.588 17.3181 -2.828V-4.016C17.3181 -4.256 17.4621 -4.404 17.6661 -4.404C17.8701 -4.404 18.0101 -4.256 18.0101 -4.016V-2.828ZM20.262 -2V-4.848H19.742L19.162 -4.344V-3.784L19.742 -4.288V-2H20.262ZM22.8739 -2.824V-4.024C22.8739 -4.568 22.4739 -4.872 22.0099 -4.872C21.5459 -4.872 21.1419 -4.568 21.1419 -4.024V-2.824C21.1419 -2.28 21.5459 -1.976 22.0099 -1.976C22.4739 -1.976 22.8739 -2.28 22.8739 -2.824ZM22.3539 -2.828C22.3539 -2.588 22.2139 -2.444 22.0099 -2.444C21.8059 -2.444 21.6619 -2.588 21.6619 -2.828V-4.016C21.6619 -4.256 21.8059 -4.404 22.0099 -4.404C22.2139 -4.404 22.3539 -4.256 22.3539 -4.016V-2.828ZM24.6058 -2V-4.848H24.0858L23.5058 -4.344V-3.784L24.0858 -4.288V-2H24.6058ZM27.2176 -2.824V-4.024C27.2176 -4.568 26.8176 -4.872 26.3536 -4.872C25.8896 -4.872 25.4856 -4.568 25.4856 -4.024V-2.824C25.4856 -2.28 25.8896 -1.976 26.3536 -1.976C26.8176 -1.976 27.2176 -2.28 27.2176 -2.824ZM26.6976 -2.828C26.6976 -2.588 26.5576 -2.444 26.3536 -2.444C26.1496 -2.444 26.0056 -2.588 26.0056 -2.828V-4.016C26.0056 -4.256 26.1496 -4.404 26.3536 -4.404C26.5576 -4.404 26.6976 -4.256 26.6976 -4.016V-2.828ZM28.9495 -2V-4.848H28.4295L27.8495 -4.344V-3.784L28.4295 -4.288V-2H28.9495ZM31.5614 -2.824V-4.024C31.5614 -4.568 31.1614 -4.872 30.6974 -4.872C30.2334 -4.872 29.8294 -4.568 29.8294 -4.024V-2.824C29.8294 -2.28 30.2334 -1.976 30.6974 -1.976C31.1614 -1.976 31.5614 -2.28 31.5614 -2.824ZM31.0414 -2.828C31.0414 -2.588 30.9014 -2.444 30.6974 -2.444C30.4934 -2.444 30.3494 -2.588 30.3494 -2.828V-4.016C30.3494 -4.256 30.4934 -4.404 30.6974 -4.404C30.9014 -4.404 31.0414 -4.256 31.0414 -4.016V-2.828ZM-14.488 2V-0.848H-15.008L-15.588 -0.344V0.216L-15.008 -0.288V2H-14.488ZM-11.8761 1.176V-0.0240002C-11.8761 -0.568 -12.2761 -0.872 -12.7401 -0.872C-13.2041 -0.872 -13.6081 -0.568 -13.6081 -0.0240002V1.176C-13.6081 1.72 -13.2041 2.024 -12.7401 2.024C-12.2761 2.024 -11.8761 1.72 -11.8761 1.176ZM-12.3961 1.172C-12.3961 1.412 -12.5361 1.556 -12.7401 1.556C-12.9441 1.556 -13.0881 1.412 -13.0881 1.172V-0.016C-13.0881 -0.256 -12.9441 -0.404 -12.7401 -0.404C-12.5361 -0.404 -12.3961 -0.256 -12.3961 -0.016V1.172ZM-10.1442 2V-0.848H-10.6642L-11.2442 -0.344V0.216L-10.6642 -0.288V2H-10.1442ZM-7.53237 1.176V-0.0240002C-7.53237 -0.568 -7.93237 -0.872 -8.39637 -0.872C-8.86037 -0.872 -9.26437 -0.568 -9.26437 -0.0240002V1.176C-9.26437 1.72 -8.86037 2.024 -8.39637 2.024C-7.93237 2.024 -7.53237 1.72 -7.53237 1.176ZM-8.05237 1.172C-8.05237 1.412 -8.19237 1.556 -8.39637 1.556C-8.60037 1.556 -8.74437 1.412 -8.74437 1.172V-0.016C-8.74437 -0.256 -8.60037 -0.404 -8.39637 -0.404C-8.19237 -0.404 -8.05237 -0.256 -8.05237 -0.016V1.172ZM-5.8005 2V-0.848H-6.3205L-6.9005 -0.344V0.216L-6.3205 -0.288V2H-5.8005ZM-3.18862 1.176V-0.0240002C-3.18862 -0.568 -3.58862 -0.872 -4.05262 -0.872C-4.51662 -0.872 -4.92062 -0.568 -4.92062 -0.0240002V1.176C-4.92062 1.72 -4.51662 2.024 -4.05262 2.024C-3.58862 2.024 -3.18862 1.72 -3.18862 1.176ZM-3.70862 1.172C-3.70862 1.412 -3.84862 1.556 -4.05262 1.556C-4.25662 1.556 -4.40062 1.412 -4.40062 1.172V-0.016C-4.40062 -0.256 -4.25662 -0.404 -4.05262 -0.404C-3.84862 -0.404 -3.70862 -0.256 -3.70862 -0.016V1.172ZM-1.45675 2V-0.848H-1.97675L-2.55675 -0.344V0.216L-1.97675 -0.288V2H-1.45675ZM1.15513 1.176V-0.0240002C1.15513 -0.568 0.755125 -0.872 0.291125 -0.872C-0.172875 -0.872 -0.576875 -0.568 -0.576875 -0.0240002V1.176C-0.576875 1.72 -0.172875 2.024 0.291125 2.024C0.755125 2.024 1.15513 1.72 1.15513 1.176ZM0.635125 1.172C0.635125 1.412 0.495125 1.556 0.291125 1.556C0.0871251 1.556 -0.056875 1.412 -0.056875 1.172V-0.016C-0.056875 -0.256 0.0871251 -0.404 0.291125 -0.404C0.495125 -0.404 0.635125 -0.256 0.635125 -0.016V1.172ZM2.887 2V-0.848H2.367L1.787 -0.344V0.216L2.367 -0.288V2H2.887ZM5.49888 1.176V-0.0240002C5.49888 -0.568 5.09888 -0.872 4.63488 -0.872C4.17088 -0.872 3.76688 -0.568 3.76688 -0.0240002V1.176C3.76688 1.72 4.17088 2.024 4.63488 2.024C5.09888 2.024 5.49888 1.72 5.49888 1.176ZM4.97888 1.172C4.97888 1.412 4.83888 1.556 4.63488 1.556C4.43088 1.556 4.28688 1.412 4.28688 1.172V-0.016C4.28688 -0.256 4.43088 -0.404 4.63488 -0.404C4.83888 -0.404 4.97888 -0.256 4.97888 -0.016V1.172ZM7.23075 2V-0.848H6.71075L6.13075 -0.344V0.216L6.71075 -0.288V2H7.23075ZM9.84263 1.176V-0.0240002C9.84263 -0.568 9.44263 -0.872 8.97863 -0.872C8.51463 -0.872 8.11063 -0.568 8.11063 -0.0240002V1.176C8.11063 1.72 8.51463 2.024 8.97863 2.024C9.44263 2.024 9.84263 1.72 9.84263 1.176ZM9.32263 1.172C9.32263 1.412 9.18263 1.556 8.97863 1.556C8.77463 1.556 8.63063 1.412 8.63063 1.172V-0.016C8.63063 -0.256 8.77463 -0.404 8.97863 -0.404C9.18263 -0.404 9.32263 -0.256 9.32263 -0.016V1.172ZM11.5745 2V-0.848H11.0545L10.4745 -0.344V0.216L11.0545 -0.288V2H11.5745ZM14.1864 1.176V-0.0240002C14.1864 -0.568 13.7864 -0.872 13.3224 -0.872C12.8584 -0.872 12.4544 -0.568 12.4544 -0.0240002V1.176C12.4544 1.72 12.8584 2.024 13.3224 2.024C13.7864 2.024 14.1864 1.72 14.1864 1.176ZM13.6664 1.172C13.6664 1.412 13.5264 1.556 13.3224 1.556C13.1184 1.556 12.9744 1.412 12.9744 1.172V-0.016C12.9744 -0.256 13.1184 -0.404 13.3224 -0.404C13.5264 -0.404 13.6664 -0.256 13.6664 -0.016V1.172ZM15.9183 2V-0.848H15.3983L14.8183 -0.344V0.216L15.3983 -0.288V2H15.9183ZM18.5301 1.176V-0.0240002C18.5301 -0.568 18.1301 -0.872 17.6661 -0.872C17.2021 -0.872 16.7981 -0.568 16.7981 -0.0240002V1.176C16.7981 1.72 17.2021 2.024 17.6661 2.024C18.1301 2.024 18.5301 1.72 18.5301 1.176ZM18.0101 1.172C18.0101 1.412 17.8701 1.556 17.6661 1.556C17.4621 1.556 17.3181 1.412 17.3181 1.172V-0.016C17.3181 -0.256 17.4621 -0.404 17.6661 -0.404C17.8701 -0.404 18.0101 -0.256 18.0101 -0.016V1.172ZM20.262 2V-0.848H19.742L19.162 -0.344V0.216L19.742 -0.288V2H20.262ZM22.8739 1.176V-0.0240002C22.8739 -0.568 22.4739 -0.872 22.0099 -0.872C21.5459 -0.872 21.1419 -0.568 21.1419 -0.0240002V1.176C21.1419 1.72 21.5459 2.024 22.0099 2.024C22.4739 2.024 22.8739 1.72 22.8739 1.176ZM22.3539 1.172C22.3539 1.412 22.2139 1.556 22.0099 1.556C21.8059 1.556 21.6619 1.412 21.6619 1.172V-0.016C21.6619 -0.256 21.8059 -0.404 22.0099 -0.404C22.2139 -0.404 22.3539 -0.256 22.3539 -0.016V1.172ZM24.6058 2V-0.848H24.0858L23.5058 -0.344V0.216L24.0858 -0.288V2H24.6058ZM27.2176 1.176V-0.0240002C27.2176 -0.568 26.8176 -0.872 26.3536 -0.872C25.8896 -0.872 25.4856 -0.568 25.4856 -0.0240002V1.176C25.4856 1.72 25.8896 2.024 26.3536 2.024C26.8176 2.024 27.2176 1.72 27.2176 1.176ZM26.6976 1.172C26.6976 1.412 26.5576 1.556 26.3536 1.556C26.1496 1.556 26.0056 1.412 26.0056 1.172V-0.016C26.0056 -0.256 26.1496 -0.404 26.3536 -0.404C26.5576 -0.404 26.6976 -0.256 26.6976 -0.016V1.172ZM28.9495 2V-0.848H28.4295L27.8495 -0.344V0.216L28.4295 -0.288V2H28.9495ZM31.5614 1.176V-0.0240002C31.5614 -0.568 31.1614 -0.872 30.6974 -0.872C30.2334 -0.872 29.8294 -0.568 29.8294 -0.0240002V1.176C29.8294 1.72 30.2334 2.024 30.6974 2.024C31.1614 2.024 31.5614 1.72 31.5614 1.176ZM31.0414 1.172C31.0414 1.412 30.9014 1.556 30.6974 1.556C30.4934 1.556 30.3494 1.412 30.3494 1.172V-0.016C30.3494 -0.256 30.4934 -0.404 30.6974 -0.404C30.9014 -0.404 31.0414 -0.256 31.0414 -0.016V1.172ZM-14.488 6V3.152H-15.008L-15.588 3.656V4.216L-15.008 3.712V6H-14.488ZM-11.8761 5.176V3.976C-11.8761 3.432 -12.2761 3.128 -12.7401 3.128C-13.2041 3.128 -13.6081 3.432 -13.6081 3.976V5.176C-13.6081 5.72 -13.2041 6.024 -12.7401 6.024C-12.2761 6.024 -11.8761 5.72 -11.8761 5.176ZM-12.3961 5.172C-12.3961 5.412 -12.5361 5.556 -12.7401 5.556C-12.9441 5.556 -13.0881 5.412 -13.0881 5.172V3.984C-13.0881 3.744 -12.9441 3.596 -12.7401 3.596C-12.5361 3.596 -12.3961 3.744 -12.3961 3.984V5.172ZM-10.1442 6V3.152H-10.6642L-11.2442 3.656V4.216L-10.6642 3.712V6H-10.1442ZM-7.53237 5.176V3.976C-7.53237 3.432 -7.93237 3.128 -8.39637 3.128C-8.86037 3.128 -9.26437 3.432 -9.26437 3.976V5.176C-9.26437 5.72 -8.86037 6.024 -8.39637 6.024C-7.93237 6.024 -7.53237 5.72 -7.53237 5.176ZM-8.05237 5.172C-8.05237 5.412 -8.19237 5.556 -8.39637 5.556C-8.60037 5.556 -8.74437 5.412 -8.74437 5.172V3.984C-8.74437 3.744 -8.60037 3.596 -8.39637 3.596C-8.19237 3.596 -8.05237 3.744 -8.05237 3.984V5.172ZM-5.8005 6V3.152H-6.3205L-6.9005 3.656V4.216L-6.3205 3.712V6H-5.8005ZM-3.18862 5.176V3.976C-3.18862 3.432 -3.58862 3.128 -4.05262 3.128C-4.51662 3.128 -4.92062 3.432 -4.92062 3.976V5.176C-4.92062 5.72 -4.51662 6.024 -4.05262 6.024C-3.58862 6.024 -3.18862 5.72 -3.18862 5.176ZM-3.70862 5.172C-3.70862 5.412 -3.84862 5.556 -4.05262 5.556C-4.25662 5.556 -4.40062 5.412 -4.40062 5.172V3.984C-4.40062 3.744 -4.25662 3.596 -4.05262 3.596C-3.84862 3.596 -3.70862 3.744 -3.70862 3.984V5.172ZM-1.45675 6V3.152H-1.97675L-2.55675 3.656V4.216L-1.97675 3.712V6H-1.45675ZM1.15513 5.176V3.976C1.15513 3.432 0.755125 3.128 0.291125 3.128C-0.172875 3.128 -0.576875 3.432 -0.576875 3.976V5.176C-0.576875 5.72 -0.172875 6.024 0.291125 6.024C0.755125 6.024 1.15513 5.72 1.15513 5.176ZM0.635125 5.172C0.635125 5.412 0.495125 5.556 0.291125 5.556C0.0871251 5.556 -0.056875 5.412 -0.056875 5.172V3.984C-0.056875 3.744 0.0871251 3.596 0.291125 3.596C0.495125 3.596 0.635125 3.744 0.635125 3.984V5.172ZM2.887 6V3.152H2.367L1.787 3.656V4.216L2.367 3.712V6H2.887ZM5.49888 5.176V3.976C5.49888 3.432 5.09888 3.128 4.63488 3.128C4.17088 3.128 3.76688 3.432 3.76688 3.976V5.176C3.76688 5.72 4.17088 6.024 4.63488 6.024C5.09888 6.024 5.49888 5.72 5.49888 5.176ZM4.97888 5.172C4.97888 5.412 4.83888 5.556 4.63488 5.556C4.43088 5.556 4.28688 5.412 4.28688 5.172V3.984C4.28688 3.744 4.43088 3.596 4.63488 3.596C4.83888 3.596 4.97888 3.744 4.97888 3.984V5.172ZM7.23075 6V3.152H6.71075L6.13075 3.656V4.216L6.71075 3.712V6H7.23075ZM9.84263 5.176V3.976C9.84263 3.432 9.44263 3.128 8.97863 3.128C8.51463 3.128 8.11063 3.432 8.11063 3.976V5.176C8.11063 5.72 8.51463 6.024 8.97863 6.024C9.44263 6.024 9.84263 5.72 9.84263 5.176ZM9.32263 5.172C9.32263 5.412 9.18263 5.556 8.97863 5.556C8.77463 5.556 8.63063 5.412 8.63063 5.172V3.984C8.63063 3.744 8.77463 3.596 8.97863 3.596C9.18263 3.596 9.32263 3.744 9.32263 3.984V5.172ZM11.5745 6V3.152H11.0545L10.4745 3.656V4.216L11.0545 3.712V6H11.5745ZM14.1864 5.176V3.976C14.1864 3.432 13.7864 3.128 13.3224 3.128C12.8584 3.128 12.4544 3.432 12.4544 3.976V5.176C12.4544 5.72 12.8584 6.024 13.3224 6.024C13.7864 6.024 14.1864 5.72 14.1864 5.176ZM13.6664 5.172C13.6664 5.412 13.5264 5.556 13.3224 5.556C13.1184 5.556 12.9744 5.412 12.9744 5.172V3.984C12.9744 3.744 13.1184 3.596 13.3224 3.596C13.5264 3.596 13.6664 3.744 13.6664 3.984V5.172ZM15.9183 6V3.152H15.3983L14.8183 3.656V4.216L15.3983 3.712V6H15.9183ZM18.5301 5.176V3.976C18.5301 3.432 18.1301 3.128 17.6661 3.128C17.2021 3.128 16.7981 3.432 16.7981 3.976V5.176C16.7981 5.72 17.2021 6.024 17.6661 6.024C18.1301 6.024 18.5301 5.72 18.5301 5.176ZM18.0101 5.172C18.0101 5.412 17.8701 5.556 17.6661 5.556C17.4621 5.556 17.3181 5.412 17.3181 5.172V3.984C17.3181 3.744 17.4621 3.596 17.6661 3.596C17.8701 3.596 18.0101 3.744 18.0101 3.984V5.172ZM20.262 6V3.152H19.742L19.162 3.656V4.216L19.742 3.712V6H20.262ZM22.8739 5.176V3.976C22.8739 3.432 22.4739 3.128 22.0099 3.128C21.5459 3.128 21.1419 3.432 21.1419 3.976V5.176C21.1419 5.72 21.5459 6.024 22.0099 6.024C22.4739 6.024 22.8739 5.72 22.8739 5.176ZM22.3539 5.172C22.3539 5.412 22.2139 5.556 22.0099 5.556C21.8059 5.556 21.6619 5.412 21.6619 5.172V3.984C21.6619 3.744 21.8059 3.596 22.0099 3.596C22.2139 3.596 22.3539 3.744 22.3539 3.984V5.172ZM24.6058 6V3.152H24.0858L23.5058 3.656V4.216L24.0858 3.712V6H24.6058ZM27.2176 5.176V3.976C27.2176 3.432 26.8176 3.128 26.3536 3.128C25.8896 3.128 25.4856 3.432 25.4856 3.976V5.176C25.4856 5.72 25.8896 6.024 26.3536 6.024C26.8176 6.024 27.2176 5.72 27.2176 5.176ZM26.6976 5.172C26.6976 5.412 26.5576 5.556 26.3536 5.556C26.1496 5.556 26.0056 5.412 26.0056 5.172V3.984C26.0056 3.744 26.1496 3.596 26.3536 3.596C26.5576 3.596 26.6976 3.744 26.6976 3.984V5.172ZM28.9495 6V3.152H28.4295L27.8495 3.656V4.216L28.4295 3.712V6H28.9495ZM31.5614 5.176V3.976C31.5614 3.432 31.1614 3.128 30.6974 3.128C30.2334 3.128 29.8294 3.432 29.8294 3.976V5.176C29.8294 5.72 30.2334 6.024 30.6974 6.024C31.1614 6.024 31.5614 5.72 31.5614 5.176ZM31.0414 5.172C31.0414 5.412 30.9014 5.556 30.6974 5.556C30.4934 5.556 30.3494 5.412 30.3494 5.172V3.984C30.3494 3.744 30.4934 3.596 30.6974 3.596C30.9014 3.596 31.0414 3.744 31.0414 3.984V5.172ZM-14.488 10V7.152H-15.008L-15.588 7.656V8.216L-15.008 7.712V10H-14.488ZM-11.8761 9.176V7.976C-11.8761 7.432 -12.2761 7.128 -12.7401 7.128C-13.2041 7.128 -13.6081 7.432 -13.6081 7.976V9.176C-13.6081 9.72 -13.2041 10.024 -12.7401 10.024C-12.2761 10.024 -11.8761 9.72 -11.8761 9.176ZM-12.3961 9.172C-12.3961 9.412 -12.5361 9.556 -12.7401 9.556C-12.9441 9.556 -13.0881 9.412 -13.0881 9.172V7.984C-13.0881 7.744 -12.9441 7.596 -12.7401 7.596C-12.5361 7.596 -12.3961 7.744 -12.3961 7.984V9.172ZM-10.1442 10V7.152H-10.6642L-11.2442 7.656V8.216L-10.6642 7.712V10H-10.1442ZM-7.53237 9.176V7.976C-7.53237 7.432 -7.93237 7.128 -8.39637 7.128C-8.86037 7.128 -9.26437 7.432 -9.26437 7.976V9.176C-9.26437 9.72 -8.86037 10.024 -8.39637 10.024C-7.93237 10.024 -7.53237 9.72 -7.53237 9.176ZM-8.05237 9.172C-8.05237 9.412 -8.19237 9.556 -8.39637 9.556C-8.60037 9.556 -8.74437 9.412 -8.74437 9.172V7.984C-8.74437 7.744 -8.60037 7.596 -8.39637 7.596C-8.19237 7.596 -8.05237 7.744 -8.05237 7.984V9.172ZM-5.8005 10V7.152H-6.3205L-6.9005 7.656V8.216L-6.3205 7.712V10H-5.8005ZM-3.18862 9.176V7.976C-3.18862 7.432 -3.58862 7.128 -4.05262 7.128C-4.51662 7.128 -4.92062 7.432 -4.92062 7.976V9.176C-4.92062 9.72 -4.51662 10.024 -4.05262 10.024C-3.58862 10.024 -3.18862 9.72 -3.18862 9.176ZM-3.70862 9.172C-3.70862 9.412 -3.84862 9.556 -4.05262 9.556C-4.25662 9.556 -4.40062 9.412 -4.40062 9.172V7.984C-4.40062 7.744 -4.25662 7.596 -4.05262 7.596C-3.84862 7.596 -3.70862 7.744 -3.70862 7.984V9.172ZM-1.45675 10V7.152H-1.97675L-2.55675 7.656V8.216L-1.97675 7.712V10H-1.45675ZM1.15513 9.176V7.976C1.15513 7.432 0.755125 7.128 0.291125 7.128C-0.172875 7.128 -0.576875 7.432 -0.576875 7.976V9.176C-0.576875 9.72 -0.172875 10.024 0.291125 10.024C0.755125 10.024 1.15513 9.72 1.15513 9.176ZM0.635125 9.172C0.635125 9.412 0.495125 9.556 0.291125 9.556C0.0871251 9.556 -0.056875 9.412 -0.056875 9.172V7.984C-0.056875 7.744 0.0871251 7.596 0.291125 7.596C0.495125 7.596 0.635125 7.744 0.635125 7.984V9.172ZM2.887 10V7.152H2.367L1.787 7.656V8.216L2.367 7.712V10H2.887ZM5.49888 9.176V7.976C5.49888 7.432 5.09888 7.128 4.63488 7.128C4.17088 7.128 3.76688 7.432 3.76688 7.976V9.176C3.76688 9.72 4.17088 10.024 4.63488 10.024C5.09888 10.024 5.49888 9.72 5.49888 9.176ZM4.97888 9.172C4.97888 9.412 4.83888 9.556 4.63488 9.556C4.43088 9.556 4.28688 9.412 4.28688 9.172V7.984C4.28688 7.744 4.43088 7.596 4.63488 7.596C4.83888 7.596 4.97888 7.744 4.97888 7.984V9.172ZM7.23075 10V7.152H6.71075L6.13075 7.656V8.216L6.71075 7.712V10H7.23075ZM9.84263 9.176V7.976C9.84263 7.432 9.44263 7.128 8.97863 7.128C8.51463 7.128 8.11063 7.432 8.11063 7.976V9.176C8.11063 9.72 8.51463 10.024 8.97863 10.024C9.44263 10.024 9.84263 9.72 9.84263 9.176ZM9.32263 9.172C9.32263 9.412 9.18263 9.556 8.97863 9.556C8.77463 9.556 8.63063 9.412 8.63063 9.172V7.984C8.63063 7.744 8.77463 7.596 8.97863 7.596C9.18263 7.596 9.32263 7.744 9.32263 7.984V9.172ZM11.5745 10V7.152H11.0545L10.4745 7.656V8.216L11.0545 7.712V10H11.5745ZM14.1864 9.176V7.976C14.1864 7.432 13.7864 7.128 13.3224 7.128C12.8584 7.128 12.4544 7.432 12.4544 7.976V9.176C12.4544 9.72 12.8584 10.024 13.3224 10.024C13.7864 10.024 14.1864 9.72 14.1864 9.176ZM13.6664 9.172C13.6664 9.412 13.5264 9.556 13.3224 9.556C13.1184 9.556 12.9744 9.412 12.9744 9.172V7.984C12.9744 7.744 13.1184 7.596 13.3224 7.596C13.5264 7.596 13.6664 7.744 13.6664 7.984V9.172ZM15.9183 10V7.152H15.3983L14.8183 7.656V8.216L15.3983 7.712V10H15.9183ZM18.5301 9.176V7.976C18.5301 7.432 18.1301 7.128 17.6661 7.128C17.2021 7.128 16.7981 7.432 16.7981 7.976V9.176C16.7981 9.72 17.2021 10.024 17.6661 10.024C18.1301 10.024 18.5301 9.72 18.5301 9.176ZM18.0101 9.172C18.0101 9.412 17.8701 9.556 17.6661 9.556C17.4621 9.556 17.3181 9.412 17.3181 9.172V7.984C17.3181 7.744 17.4621 7.596 17.6661 7.596C17.8701 7.596 18.0101 7.744 18.0101 7.984V9.172ZM20.262 10V7.152H19.742L19.162 7.656V8.216L19.742 7.712V10H20.262ZM22.8739 9.176V7.976C22.8739 7.432 22.4739 7.128 22.0099 7.128C21.5459 7.128 21.1419 7.432 21.1419 7.976V9.176C21.1419 9.72 21.5459 10.024 22.0099 10.024C22.4739 10.024 22.8739 9.72 22.8739 9.176ZM22.3539 9.172C22.3539 9.412 22.2139 9.556 22.0099 9.556C21.8059 9.556 21.6619 9.412 21.6619 9.172V7.984C21.6619 7.744 21.8059 7.596 22.0099 7.596C22.2139 7.596 22.3539 7.744 22.3539 7.984V9.172ZM24.6058 10V7.152H24.0858L23.5058 7.656V8.216L24.0858 7.712V10H24.6058ZM27.2176 9.176V7.976C27.2176 7.432 26.8176 7.128 26.3536 7.128C25.8896 7.128 25.4856 7.432 25.4856 7.976V9.176C25.4856 9.72 25.8896 10.024 26.3536 10.024C26.8176 10.024 27.2176 9.72 27.2176 9.176ZM26.6976 9.172C26.6976 9.412 26.5576 9.556 26.3536 9.556C26.1496 9.556 26.0056 9.412 26.0056 9.172V7.984C26.0056 7.744 26.1496 7.596 26.3536 7.596C26.5576 7.596 26.6976 7.744 26.6976 7.984V9.172ZM28.9495 10V7.152H28.4295L27.8495 7.656V8.216L28.4295 7.712V10H28.9495ZM31.5614 9.176V7.976C31.5614 7.432 31.1614 7.128 30.6974 7.128C30.2334 7.128 29.8294 7.432 29.8294 7.976V9.176C29.8294 9.72 30.2334 10.024 30.6974 10.024C31.1614 10.024 31.5614 9.72 31.5614 9.176ZM31.0414 9.172C31.0414 9.412 30.9014 9.556 30.6974 9.556C30.4934 9.556 30.3494 9.412 30.3494 9.172V7.984C30.3494 7.744 30.4934 7.596 30.6974 7.596C30.9014 7.596 31.0414 7.744 31.0414 7.984V9.172ZM-14.488 14V11.152H-15.008L-15.588 11.656V12.216L-15.008 11.712V14H-14.488ZM-11.8761 13.176V11.976C-11.8761 11.432 -12.2761 11.128 -12.7401 11.128C-13.2041 11.128 -13.6081 11.432 -13.6081 11.976V13.176C-13.6081 13.72 -13.2041 14.024 -12.7401 14.024C-12.2761 14.024 -11.8761 13.72 -11.8761 13.176ZM-12.3961 13.172C-12.3961 13.412 -12.5361 13.556 -12.7401 13.556C-12.9441 13.556 -13.0881 13.412 -13.0881 13.172V11.984C-13.0881 11.744 -12.9441 11.596 -12.7401 11.596C-12.5361 11.596 -12.3961 11.744 -12.3961 11.984V13.172ZM-10.1442 14V11.152H-10.6642L-11.2442 11.656V12.216L-10.6642 11.712V14H-10.1442ZM-7.53237 13.176V11.976C-7.53237 11.432 -7.93237 11.128 -8.39637 11.128C-8.86037 11.128 -9.26437 11.432 -9.26437 11.976V13.176C-9.26437 13.72 -8.86037 14.024 -8.39637 14.024C-7.93237 14.024 -7.53237 13.72 -7.53237 13.176ZM-8.05237 13.172C-8.05237 13.412 -8.19237 13.556 -8.39637 13.556C-8.60037 13.556 -8.74437 13.412 -8.74437 13.172V11.984C-8.74437 11.744 -8.60037 11.596 -8.39637 11.596C-8.19237 11.596 -8.05237 11.744 -8.05237 11.984V13.172ZM-5.8005 14V11.152H-6.3205L-6.9005 11.656V12.216L-6.3205 11.712V14H-5.8005ZM-3.18862 13.176V11.976C-3.18862 11.432 -3.58862 11.128 -4.05262 11.128C-4.51662 11.128 -4.92062 11.432 -4.92062 11.976V13.176C-4.92062 13.72 -4.51662 14.024 -4.05262 14.024C-3.58862 14.024 -3.18862 13.72 -3.18862 13.176ZM-3.70862 13.172C-3.70862 13.412 -3.84862 13.556 -4.05262 13.556C-4.25662 13.556 -4.40062 13.412 -4.40062 13.172V11.984C-4.40062 11.744 -4.25662 11.596 -4.05262 11.596C-3.84862 11.596 -3.70862 11.744 -3.70862 11.984V13.172ZM-1.45675 14V11.152H-1.97675L-2.55675 11.656V12.216L-1.97675 11.712V14H-1.45675ZM1.15513 13.176V11.976C1.15513 11.432 0.755125 11.128 0.291125 11.128C-0.172875 11.128 -0.576875 11.432 -0.576875 11.976V13.176C-0.576875 13.72 -0.172875 14.024 0.291125 14.024C0.755125 14.024 1.15513 13.72 1.15513 13.176ZM0.635125 13.172C0.635125 13.412 0.495125 13.556 0.291125 13.556C0.0871251 13.556 -0.056875 13.412 -0.056875 13.172V11.984C-0.056875 11.744 0.0871251 11.596 0.291125 11.596C0.495125 11.596 0.635125 11.744 0.635125 11.984V13.172ZM2.887 14V11.152H2.367L1.787 11.656V12.216L2.367 11.712V14H2.887ZM5.49888 13.176V11.976C5.49888 11.432 5.09888 11.128 4.63488 11.128C4.17088 11.128 3.76688 11.432 3.76688 11.976V13.176C3.76688 13.72 4.17088 14.024 4.63488 14.024C5.09888 14.024 5.49888 13.72 5.49888 13.176ZM4.97888 13.172C4.97888 13.412 4.83888 13.556 4.63488 13.556C4.43088 13.556 4.28688 13.412 4.28688 13.172V11.984C4.28688 11.744 4.43088 11.596 4.63488 11.596C4.83888 11.596 4.97888 11.744 4.97888 11.984V13.172ZM7.23075 14V11.152H6.71075L6.13075 11.656V12.216L6.71075 11.712V14H7.23075ZM9.84263 13.176V11.976C9.84263 11.432 9.44263 11.128 8.97863 11.128C8.51463 11.128 8.11063 11.432 8.11063 11.976V13.176C8.11063 13.72 8.51463 14.024 8.97863 14.024C9.44263 14.024 9.84263 13.72 9.84263 13.176ZM9.32263 13.172C9.32263 13.412 9.18263 13.556 8.97863 13.556C8.77463 13.556 8.63063 13.412 8.63063 13.172V11.984C8.63063 11.744 8.77463 11.596 8.97863 11.596C9.18263 11.596 9.32263 11.744 9.32263 11.984V13.172ZM11.5745 14V11.152H11.0545L10.4745 11.656V12.216L11.0545 11.712V14H11.5745ZM14.1864 13.176V11.976C14.1864 11.432 13.7864 11.128 13.3224 11.128C12.8584 11.128 12.4544 11.432 12.4544 11.976V13.176C12.4544 13.72 12.8584 14.024 13.3224 14.024C13.7864 14.024 14.1864 13.72 14.1864 13.176ZM13.6664 13.172C13.6664 13.412 13.5264 13.556 13.3224 13.556C13.1184 13.556 12.9744 13.412 12.9744 13.172V11.984C12.9744 11.744 13.1184 11.596 13.3224 11.596C13.5264 11.596 13.6664 11.744 13.6664 11.984V13.172ZM15.9183 14V11.152H15.3983L14.8183 11.656V12.216L15.3983 11.712V14H15.9183ZM18.5301 13.176V11.976C18.5301 11.432 18.1301 11.128 17.6661 11.128C17.2021 11.128 16.7981 11.432 16.7981 11.976V13.176C16.7981 13.72 17.2021 14.024 17.6661 14.024C18.1301 14.024 18.5301 13.72 18.5301 13.176ZM18.0101 13.172C18.0101 13.412 17.8701 13.556 17.6661 13.556C17.4621 13.556 17.3181 13.412 17.3181 13.172V11.984C17.3181 11.744 17.4621 11.596 17.6661 11.596C17.8701 11.596 18.0101 11.744 18.0101 11.984V13.172ZM20.262 14V11.152H19.742L19.162 11.656V12.216L19.742 11.712V14H20.262ZM22.8739 13.176V11.976C22.8739 11.432 22.4739 11.128 22.0099 11.128C21.5459 11.128 21.1419 11.432 21.1419 11.976V13.176C21.1419 13.72 21.5459 14.024 22.0099 14.024C22.4739 14.024 22.8739 13.72 22.8739 13.176ZM22.3539 13.172C22.3539 13.412 22.2139 13.556 22.0099 13.556C21.8059 13.556 21.6619 13.412 21.6619 13.172V11.984C21.6619 11.744 21.8059 11.596 22.0099 11.596C22.2139 11.596 22.3539 11.744 22.3539 11.984V13.172ZM24.6058 14V11.152H24.0858L23.5058 11.656V12.216L24.0858 11.712V14H24.6058ZM27.2176 13.176V11.976C27.2176 11.432 26.8176 11.128 26.3536 11.128C25.8896 11.128 25.4856 11.432 25.4856 11.976V13.176C25.4856 13.72 25.8896 14.024 26.3536 14.024C26.8176 14.024 27.2176 13.72 27.2176 13.176ZM26.6976 13.172C26.6976 13.412 26.5576 13.556 26.3536 13.556C26.1496 13.556 26.0056 13.412 26.0056 13.172V11.984C26.0056 11.744 26.1496 11.596 26.3536 11.596C26.5576 11.596 26.6976 11.744 26.6976 11.984V13.172ZM28.9495 14V11.152H28.4295L27.8495 11.656V12.216L28.4295 11.712V14H28.9495ZM31.5614 13.176V11.976C31.5614 11.432 31.1614 11.128 30.6974 11.128C30.2334 11.128 29.8294 11.432 29.8294 11.976V13.176C29.8294 13.72 30.2334 14.024 30.6974 14.024C31.1614 14.024 31.5614 13.72 31.5614 13.176ZM31.0414 13.172C31.0414 13.412 30.9014 13.556 30.6974 13.556C30.4934 13.556 30.3494 13.412 30.3494 13.172V11.984C30.3494 11.744 30.4934 11.596 30.6974 11.596C30.9014 11.596 31.0414 11.744 31.0414 11.984V13.172ZM-14.488 18V15.152H-15.008L-15.588 15.656V16.216L-15.008 15.712V18H-14.488ZM-11.8761 17.176V15.976C-11.8761 15.432 -12.2761 15.128 -12.7401 15.128C-13.2041 15.128 -13.6081 15.432 -13.6081 15.976V17.176C-13.6081 17.72 -13.2041 18.024 -12.7401 18.024C-12.2761 18.024 -11.8761 17.72 -11.8761 17.176ZM-12.3961 17.172C-12.3961 17.412 -12.5361 17.556 -12.7401 17.556C-12.9441 17.556 -13.0881 17.412 -13.0881 17.172V15.984C-13.0881 15.744 -12.9441 15.596 -12.7401 15.596C-12.5361 15.596 -12.3961 15.744 -12.3961 15.984V17.172ZM-10.1442 18V15.152H-10.6642L-11.2442 15.656V16.216L-10.6642 15.712V18H-10.1442ZM-7.53237 17.176V15.976C-7.53237 15.432 -7.93237 15.128 -8.39637 15.128C-8.86037 15.128 -9.26437 15.432 -9.26437 15.976V17.176C-9.26437 17.72 -8.86037 18.024 -8.39637 18.024C-7.93237 18.024 -7.53237 17.72 -7.53237 17.176ZM-8.05237 17.172C-8.05237 17.412 -8.19237 17.556 -8.39637 17.556C-8.60037 17.556 -8.74437 17.412 -8.74437 17.172V15.984C-8.74437 15.744 -8.60037 15.596 -8.39637 15.596C-8.19237 15.596 -8.05237 15.744 -8.05237 15.984V17.172ZM-5.8005 18V15.152H-6.3205L-6.9005 15.656V16.216L-6.3205 15.712V18H-5.8005ZM-3.18862 17.176V15.976C-3.18862 15.432 -3.58862 15.128 -4.05262 15.128C-4.51662 15.128 -4.92062 15.432 -4.92062 15.976V17.176C-4.92062 17.72 -4.51662 18.024 -4.05262 18.024C-3.58862 18.024 -3.18862 17.72 -3.18862 17.176ZM-3.70862 17.172C-3.70862 17.412 -3.84862 17.556 -4.05262 17.556C-4.25662 17.556 -4.40062 17.412 -4.40062 17.172V15.984C-4.40062 15.744 -4.25662 15.596 -4.05262 15.596C-3.84862 15.596 -3.70862 15.744 -3.70862 15.984V17.172ZM-1.45675 18V15.152H-1.97675L-2.55675 15.656V16.216L-1.97675 15.712V18H-1.45675ZM1.15513 17.176V15.976C1.15513 15.432 0.755125 15.128 0.291125 15.128C-0.172875 15.128 -0.576875 15.432 -0.576875 15.976V17.176C-0.576875 17.72 -0.172875 18.024 0.291125 18.024C0.755125 18.024 1.15513 17.72 1.15513 17.176ZM0.635125 17.172C0.635125 17.412 0.495125 17.556 0.291125 17.556C0.0871251 17.556 -0.056875 17.412 -0.056875 17.172V15.984C-0.056875 15.744 0.0871251 15.596 0.291125 15.596C0.495125 15.596 0.635125 15.744 0.635125 15.984V17.172ZM2.887 18V15.152H2.367L1.787 15.656V16.216L2.367 15.712V18H2.887ZM5.49888 17.176V15.976C5.49888 15.432 5.09888 15.128 4.63488 15.128C4.17088 15.128 3.76688 15.432 3.76688 15.976V17.176C3.76688 17.72 4.17088 18.024 4.63488 18.024C5.09888 18.024 5.49888 17.72 5.49888 17.176ZM4.97888 17.172C4.97888 17.412 4.83888 17.556 4.63488 17.556C4.43088 17.556 4.28688 17.412 4.28688 17.172V15.984C4.28688 15.744 4.43088 15.596 4.63488 15.596C4.83888 15.596 4.97888 15.744 4.97888 15.984V17.172ZM7.23075 18V15.152H6.71075L6.13075 15.656V16.216L6.71075 15.712V18H7.23075ZM9.84263 17.176V15.976C9.84263 15.432 9.44263 15.128 8.97863 15.128C8.51463 15.128 8.11063 15.432 8.11063 15.976V17.176C8.11063 17.72 8.51463 18.024 8.97863 18.024C9.44263 18.024 9.84263 17.72 9.84263 17.176ZM9.32263 17.172C9.32263 17.412 9.18263 17.556 8.97863 17.556C8.77463 17.556 8.63063 17.412 8.63063 17.172V15.984C8.63063 15.744 8.77463 15.596 8.97863 15.596C9.18263 15.596 9.32263 15.744 9.32263 15.984V17.172ZM11.5745 18V15.152H11.0545L10.4745 15.656V16.216L11.0545 15.712V18H11.5745ZM14.1864 17.176V15.976C14.1864 15.432 13.7864 15.128 13.3224 15.128C12.8584 15.128 12.4544 15.432 12.4544 15.976V17.176C12.4544 17.72 12.8584 18.024 13.3224 18.024C13.7864 18.024 14.1864 17.72 14.1864 17.176ZM13.6664 17.172C13.6664 17.412 13.5264 17.556 13.3224 17.556C13.1184 17.556 12.9744 17.412 12.9744 17.172V15.984C12.9744 15.744 13.1184 15.596 13.3224 15.596C13.5264 15.596 13.6664 15.744 13.6664 15.984V17.172ZM15.9183 18V15.152H15.3983L14.8183 15.656V16.216L15.3983 15.712V18H15.9183ZM18.5301 17.176V15.976C18.5301 15.432 18.1301 15.128 17.6661 15.128C17.2021 15.128 16.7981 15.432 16.7981 15.976V17.176C16.7981 17.72 17.2021 18.024 17.6661 18.024C18.1301 18.024 18.5301 17.72 18.5301 17.176ZM18.0101 17.172C18.0101 17.412 17.8701 17.556 17.6661 17.556C17.4621 17.556 17.3181 17.412 17.3181 17.172V15.984C17.3181 15.744 17.4621 15.596 17.6661 15.596C17.8701 15.596 18.0101 15.744 18.0101 15.984V17.172ZM20.262 18V15.152H19.742L19.162 15.656V16.216L19.742 15.712V18H20.262ZM22.8739 17.176V15.976C22.8739 15.432 22.4739 15.128 22.0099 15.128C21.5459 15.128 21.1419 15.432 21.1419 15.976V17.176C21.1419 17.72 21.5459 18.024 22.0099 18.024C22.4739 18.024 22.8739 17.72 22.8739 17.176ZM22.3539 17.172C22.3539 17.412 22.2139 17.556 22.0099 17.556C21.8059 17.556 21.6619 17.412 21.6619 17.172V15.984C21.6619 15.744 21.8059 15.596 22.0099 15.596C22.2139 15.596 22.3539 15.744 22.3539 15.984V17.172ZM24.6058 18V15.152H24.0858L23.5058 15.656V16.216L24.0858 15.712V18H24.6058ZM27.2176 17.176V15.976C27.2176 15.432 26.8176 15.128 26.3536 15.128C25.8896 15.128 25.4856 15.432 25.4856 15.976V17.176C25.4856 17.72 25.8896 18.024 26.3536 18.024C26.8176 18.024 27.2176 17.72 27.2176 17.176ZM26.6976 17.172C26.6976 17.412 26.5576 17.556 26.3536 17.556C26.1496 17.556 26.0056 17.412 26.0056 17.172V15.984C26.0056 15.744 26.1496 15.596 26.3536 15.596C26.5576 15.596 26.6976 15.744 26.6976 15.984V17.172ZM28.9495 18V15.152H28.4295L27.8495 15.656V16.216L28.4295 15.712V18H28.9495ZM31.5614 17.176V15.976C31.5614 15.432 31.1614 15.128 30.6974 15.128C30.2334 15.128 29.8294 15.432 29.8294 15.976V17.176C29.8294 17.72 30.2334 18.024 30.6974 18.024C31.1614 18.024 31.5614 17.72 31.5614 17.176ZM31.0414 17.172C31.0414 17.412 30.9014 17.556 30.6974 17.556C30.4934 17.556 30.3494 17.412 30.3494 17.172V15.984C30.3494 15.744 30.4934 15.596 30.6974 15.596C30.9014 15.596 31.0414 15.744 31.0414 15.984V17.172ZM-14.488 22V19.152H-15.008L-15.588 19.656V20.216L-15.008 19.712V22H-14.488ZM-11.8761 21.176V19.976C-11.8761 19.432 -12.2761 19.128 -12.7401 19.128C-13.2041 19.128 -13.6081 19.432 -13.6081 19.976V21.176C-13.6081 21.72 -13.2041 22.024 -12.7401 22.024C-12.2761 22.024 -11.8761 21.72 -11.8761 21.176ZM-12.3961 21.172C-12.3961 21.412 -12.5361 21.556 -12.7401 21.556C-12.9441 21.556 -13.0881 21.412 -13.0881 21.172V19.984C-13.0881 19.744 -12.9441 19.596 -12.7401 19.596C-12.5361 19.596 -12.3961 19.744 -12.3961 19.984V21.172ZM-10.1442 22V19.152H-10.6642L-11.2442 19.656V20.216L-10.6642 19.712V22H-10.1442ZM-7.53237 21.176V19.976C-7.53237 19.432 -7.93237 19.128 -8.39637 19.128C-8.86037 19.128 -9.26437 19.432 -9.26437 19.976V21.176C-9.26437 21.72 -8.86037 22.024 -8.39637 22.024C-7.93237 22.024 -7.53237 21.72 -7.53237 21.176ZM-8.05237 21.172C-8.05237 21.412 -8.19237 21.556 -8.39637 21.556C-8.60037 21.556 -8.74437 21.412 -8.74437 21.172V19.984C-8.74437 19.744 -8.60037 19.596 -8.39637 19.596C-8.19237 19.596 -8.05237 19.744 -8.05237 19.984V21.172ZM-5.8005 22V19.152H-6.3205L-6.9005 19.656V20.216L-6.3205 19.712V22H-5.8005ZM-3.18862 21.176V19.976C-3.18862 19.432 -3.58862 19.128 -4.05262 19.128C-4.51662 19.128 -4.92062 19.432 -4.92062 19.976V21.176C-4.92062 21.72 -4.51662 22.024 -4.05262 22.024C-3.58862 22.024 -3.18862 21.72 -3.18862 21.176ZM-3.70862 21.172C-3.70862 21.412 -3.84862 21.556 -4.05262 21.556C-4.25662 21.556 -4.40062 21.412 -4.40062 21.172V19.984C-4.40062 19.744 -4.25662 19.596 -4.05262 19.596C-3.84862 19.596 -3.70862 19.744 -3.70862 19.984V21.172ZM-1.45675 22V19.152H-1.97675L-2.55675 19.656V20.216L-1.97675 19.712V22H-1.45675ZM1.15513 21.176V19.976C1.15513 19.432 0.755125 19.128 0.291125 19.128C-0.172875 19.128 -0.576875 19.432 -0.576875 19.976V21.176C-0.576875 21.72 -0.172875 22.024 0.291125 22.024C0.755125 22.024 1.15513 21.72 1.15513 21.176ZM0.635125 21.172C0.635125 21.412 0.495125 21.556 0.291125 21.556C0.0871251 21.556 -0.056875 21.412 -0.056875 21.172V19.984C-0.056875 19.744 0.0871251 19.596 0.291125 19.596C0.495125 19.596 0.635125 19.744 0.635125 19.984V21.172ZM2.887 22V19.152H2.367L1.787 19.656V20.216L2.367 19.712V22H2.887ZM5.49888 21.176V19.976C5.49888 19.432 5.09888 19.128 4.63488 19.128C4.17088 19.128 3.76688 19.432 3.76688 19.976V21.176C3.76688 21.72 4.17088 22.024 4.63488 22.024C5.09888 22.024 5.49888 21.72 5.49888 21.176ZM4.97888 21.172C4.97888 21.412 4.83888 21.556 4.63488 21.556C4.43088 21.556 4.28688 21.412 4.28688 21.172V19.984C4.28688 19.744 4.43088 19.596 4.63488 19.596C4.83888 19.596 4.97888 19.744 4.97888 19.984V21.172ZM7.23075 22V19.152H6.71075L6.13075 19.656V20.216L6.71075 19.712V22H7.23075ZM9.84263 21.176V19.976C9.84263 19.432 9.44263 19.128 8.97863 19.128C8.51463 19.128 8.11063 19.432 8.11063 19.976V21.176C8.11063 21.72 8.51463 22.024 8.97863 22.024C9.44263 22.024 9.84263 21.72 9.84263 21.176ZM9.32263 21.172C9.32263 21.412 9.18263 21.556 8.97863 21.556C8.77463 21.556 8.63063 21.412 8.63063 21.172V19.984C8.63063 19.744 8.77463 19.596 8.97863 19.596C9.18263 19.596 9.32263 19.744 9.32263 19.984V21.172ZM11.5745 22V19.152H11.0545L10.4745 19.656V20.216L11.0545 19.712V22H11.5745ZM14.1864 21.176V19.976C14.1864 19.432 13.7864 19.128 13.3224 19.128C12.8584 19.128 12.4544 19.432 12.4544 19.976V21.176C12.4544 21.72 12.8584 22.024 13.3224 22.024C13.7864 22.024 14.1864 21.72 14.1864 21.176ZM13.6664 21.172C13.6664 21.412 13.5264 21.556 13.3224 21.556C13.1184 21.556 12.9744 21.412 12.9744 21.172V19.984C12.9744 19.744 13.1184 19.596 13.3224 19.596C13.5264 19.596 13.6664 19.744 13.6664 19.984V21.172ZM15.9183 22V19.152H15.3983L14.8183 19.656V20.216L15.3983 19.712V22H15.9183ZM18.5301 21.176V19.976C18.5301 19.432 18.1301 19.128 17.6661 19.128C17.2021 19.128 16.7981 19.432 16.7981 19.976V21.176C16.7981 21.72 17.2021 22.024 17.6661 22.024C18.1301 22.024 18.5301 21.72 18.5301 21.176ZM18.0101 21.172C18.0101 21.412 17.8701 21.556 17.6661 21.556C17.4621 21.556 17.3181 21.412 17.3181 21.172V19.984C17.3181 19.744 17.4621 19.596 17.6661 19.596C17.8701 19.596 18.0101 19.744 18.0101 19.984V21.172ZM20.262 22V19.152H19.742L19.162 19.656V20.216L19.742 19.712V22H20.262ZM22.8739 21.176V19.976C22.8739 19.432 22.4739 19.128 22.0099 19.128C21.5459 19.128 21.1419 19.432 21.1419 19.976V21.176C21.1419 21.72 21.5459 22.024 22.0099 22.024C22.4739 22.024 22.8739 21.72 22.8739 21.176ZM22.3539 21.172C22.3539 21.412 22.2139 21.556 22.0099 21.556C21.8059 21.556 21.6619 21.412 21.6619 21.172V19.984C21.6619 19.744 21.8059 19.596 22.0099 19.596C22.2139 19.596 22.3539 19.744 22.3539 19.984V21.172ZM24.6058 22V19.152H24.0858L23.5058 19.656V20.216L24.0858 19.712V22H24.6058ZM27.2176 21.176V19.976C27.2176 19.432 26.8176 19.128 26.3536 19.128C25.8896 19.128 25.4856 19.432 25.4856 19.976V21.176C25.4856 21.72 25.8896 22.024 26.3536 22.024C26.8176 22.024 27.2176 21.72 27.2176 21.176ZM26.6976 21.172C26.6976 21.412 26.5576 21.556 26.3536 21.556C26.1496 21.556 26.0056 21.412 26.0056 21.172V19.984C26.0056 19.744 26.1496 19.596 26.3536 19.596C26.5576 19.596 26.6976 19.744 26.6976 19.984V21.172ZM28.9495 22V19.152H28.4295L27.8495 19.656V20.216L28.4295 19.712V22H28.9495ZM31.5614 21.176V19.976C31.5614 19.432 31.1614 19.128 30.6974 19.128C30.2334 19.128 29.8294 19.432 29.8294 19.976V21.176C29.8294 21.72 30.2334 22.024 30.6974 22.024C31.1614 22.024 31.5614 21.72 31.5614 21.176ZM31.0414 21.172C31.0414 21.412 30.9014 21.556 30.6974 21.556C30.4934 21.556 30.3494 21.412 30.3494 21.172V19.984C30.3494 19.744 30.4934 19.596 30.6974 19.596C30.9014 19.596 31.0414 19.744 31.0414 19.984V21.172ZM-14.488 26V23.152H-15.008L-15.588 23.656V24.216L-15.008 23.712V26H-14.488ZM-11.8761 25.176V23.976C-11.8761 23.432 -12.2761 23.128 -12.7401 23.128C-13.2041 23.128 -13.6081 23.432 -13.6081 23.976V25.176C-13.6081 25.72 -13.2041 26.024 -12.7401 26.024C-12.2761 26.024 -11.8761 25.72 -11.8761 25.176ZM-12.3961 25.172C-12.3961 25.412 -12.5361 25.556 -12.7401 25.556C-12.9441 25.556 -13.0881 25.412 -13.0881 25.172V23.984C-13.0881 23.744 -12.9441 23.596 -12.7401 23.596C-12.5361 23.596 -12.3961 23.744 -12.3961 23.984V25.172ZM-10.1442 26V23.152H-10.6642L-11.2442 23.656V24.216L-10.6642 23.712V26H-10.1442ZM-7.53237 25.176V23.976C-7.53237 23.432 -7.93237 23.128 -8.39637 23.128C-8.86037 23.128 -9.26437 23.432 -9.26437 23.976V25.176C-9.26437 25.72 -8.86037 26.024 -8.39637 26.024C-7.93237 26.024 -7.53237 25.72 -7.53237 25.176ZM-8.05237 25.172C-8.05237 25.412 -8.19237 25.556 -8.39637 25.556C-8.60037 25.556 -8.74437 25.412 -8.74437 25.172V23.984C-8.74437 23.744 -8.60037 23.596 -8.39637 23.596C-8.19237 23.596 -8.05237 23.744 -8.05237 23.984V25.172ZM-5.8005 26V23.152H-6.3205L-6.9005 23.656V24.216L-6.3205 23.712V26H-5.8005ZM-3.18862 25.176V23.976C-3.18862 23.432 -3.58862 23.128 -4.05262 23.128C-4.51662 23.128 -4.92062 23.432 -4.92062 23.976V25.176C-4.92062 25.72 -4.51662 26.024 -4.05262 26.024C-3.58862 26.024 -3.18862 25.72 -3.18862 25.176ZM-3.70862 25.172C-3.70862 25.412 -3.84862 25.556 -4.05262 25.556C-4.25662 25.556 -4.40062 25.412 -4.40062 25.172V23.984C-4.40062 23.744 -4.25662 23.596 -4.05262 23.596C-3.84862 23.596 -3.70862 23.744 -3.70862 23.984V25.172ZM-1.45675 26V23.152H-1.97675L-2.55675 23.656V24.216L-1.97675 23.712V26H-1.45675ZM1.15513 25.176V23.976C1.15513 23.432 0.755125 23.128 0.291125 23.128C-0.172875 23.128 -0.576875 23.432 -0.576875 23.976V25.176C-0.576875 25.72 -0.172875 26.024 0.291125 26.024C0.755125 26.024 1.15513 25.72 1.15513 25.176ZM0.635125 25.172C0.635125 25.412 0.495125 25.556 0.291125 25.556C0.0871251 25.556 -0.056875 25.412 -0.056875 25.172V23.984C-0.056875 23.744 0.0871251 23.596 0.291125 23.596C0.495125 23.596 0.635125 23.744 0.635125 23.984V25.172ZM2.887 26V23.152H2.367L1.787 23.656V24.216L2.367 23.712V26H2.887ZM5.49888 25.176V23.976C5.49888 23.432 5.09888 23.128 4.63488 23.128C4.17088 23.128 3.76688 23.432 3.76688 23.976V25.176C3.76688 25.72 4.17088 26.024 4.63488 26.024C5.09888 26.024 5.49888 25.72 5.49888 25.176ZM4.97888 25.172C4.97888 25.412 4.83888 25.556 4.63488 25.556C4.43088 25.556 4.28688 25.412 4.28688 25.172V23.984C4.28688 23.744 4.43088 23.596 4.63488 23.596C4.83888 23.596 4.97888 23.744 4.97888 23.984V25.172ZM7.23075 26V23.152H6.71075L6.13075 23.656V24.216L6.71075 23.712V26H7.23075ZM9.84263 25.176V23.976C9.84263 23.432 9.44263 23.128 8.97863 23.128C8.51463 23.128 8.11063 23.432 8.11063 23.976V25.176C8.11063 25.72 8.51463 26.024 8.97863 26.024C9.44263 26.024 9.84263 25.72 9.84263 25.176ZM9.32263 25.172C9.32263 25.412 9.18263 25.556 8.97863 25.556C8.77463 25.556 8.63063 25.412 8.63063 25.172V23.984C8.63063 23.744 8.77463 23.596 8.97863 23.596C9.18263 23.596 9.32263 23.744 9.32263 23.984V25.172ZM11.5745 26V23.152H11.0545L10.4745 23.656V24.216L11.0545 23.712V26H11.5745ZM14.1864 25.176V23.976C14.1864 23.432 13.7864 23.128 13.3224 23.128C12.8584 23.128 12.4544 23.432 12.4544 23.976V25.176C12.4544 25.72 12.8584 26.024 13.3224 26.024C13.7864 26.024 14.1864 25.72 14.1864 25.176ZM13.6664 25.172C13.6664 25.412 13.5264 25.556 13.3224 25.556C13.1184 25.556 12.9744 25.412 12.9744 25.172V23.984C12.9744 23.744 13.1184 23.596 13.3224 23.596C13.5264 23.596 13.6664 23.744 13.6664 23.984V25.172ZM15.9183 26V23.152H15.3983L14.8183 23.656V24.216L15.3983 23.712V26H15.9183ZM18.5301 25.176V23.976C18.5301 23.432 18.1301 23.128 17.6661 23.128C17.2021 23.128 16.7981 23.432 16.7981 23.976V25.176C16.7981 25.72 17.2021 26.024 17.6661 26.024C18.1301 26.024 18.5301 25.72 18.5301 25.176ZM18.0101 25.172C18.0101 25.412 17.8701 25.556 17.6661 25.556C17.4621 25.556 17.3181 25.412 17.3181 25.172V23.984C17.3181 23.744 17.4621 23.596 17.6661 23.596C17.8701 23.596 18.0101 23.744 18.0101 23.984V25.172ZM20.262 26V23.152H19.742L19.162 23.656V24.216L19.742 23.712V26H20.262ZM22.8739 25.176V23.976C22.8739 23.432 22.4739 23.128 22.0099 23.128C21.5459 23.128 21.1419 23.432 21.1419 23.976V25.176C21.1419 25.72 21.5459 26.024 22.0099 26.024C22.4739 26.024 22.8739 25.72 22.8739 25.176ZM22.3539 25.172C22.3539 25.412 22.2139 25.556 22.0099 25.556C21.8059 25.556 21.6619 25.412 21.6619 25.172V23.984C21.6619 23.744 21.8059 23.596 22.0099 23.596C22.2139 23.596 22.3539 23.744 22.3539 23.984V25.172ZM24.6058 26V23.152H24.0858L23.5058 23.656V24.216L24.0858 23.712V26H24.6058ZM27.2176 25.176V23.976C27.2176 23.432 26.8176 23.128 26.3536 23.128C25.8896 23.128 25.4856 23.432 25.4856 23.976V25.176C25.4856 25.72 25.8896 26.024 26.3536 26.024C26.8176 26.024 27.2176 25.72 27.2176 25.176ZM26.6976 25.172C26.6976 25.412 26.5576 25.556 26.3536 25.556C26.1496 25.556 26.0056 25.412 26.0056 25.172V23.984C26.0056 23.744 26.1496 23.596 26.3536 23.596C26.5576 23.596 26.6976 23.744 26.6976 23.984V25.172ZM28.9495 26V23.152H28.4295L27.8495 23.656V24.216L28.4295 23.712V26H28.9495ZM31.5614 25.176V23.976C31.5614 23.432 31.1614 23.128 30.6974 23.128C30.2334 23.128 29.8294 23.432 29.8294 23.976V25.176C29.8294 25.72 30.2334 26.024 30.6974 26.024C31.1614 26.024 31.5614 25.72 31.5614 25.176ZM31.0414 25.172C31.0414 25.412 30.9014 25.556 30.6974 25.556C30.4934 25.556 30.3494 25.412 30.3494 25.172V23.984C30.3494 23.744 30.4934 23.596 30.6974 23.596C30.9014 23.596 31.0414 23.744 31.0414 23.984V25.172ZM-14.488 30V27.152H-15.008L-15.588 27.656V28.216L-15.008 27.712V30H-14.488ZM-11.8761 29.176V27.976C-11.8761 27.432 -12.2761 27.128 -12.7401 27.128C-13.2041 27.128 -13.6081 27.432 -13.6081 27.976V29.176C-13.6081 29.72 -13.2041 30.024 -12.7401 30.024C-12.2761 30.024 -11.8761 29.72 -11.8761 29.176ZM-12.3961 29.172C-12.3961 29.412 -12.5361 29.556 -12.7401 29.556C-12.9441 29.556 -13.0881 29.412 -13.0881 29.172V27.984C-13.0881 27.744 -12.9441 27.596 -12.7401 27.596C-12.5361 27.596 -12.3961 27.744 -12.3961 27.984V29.172ZM-10.1442 30V27.152H-10.6642L-11.2442 27.656V28.216L-10.6642 27.712V30H-10.1442ZM-7.53237 29.176V27.976C-7.53237 27.432 -7.93237 27.128 -8.39637 27.128C-8.86037 27.128 -9.26437 27.432 -9.26437 27.976V29.176C-9.26437 29.72 -8.86037 30.024 -8.39637 30.024C-7.93237 30.024 -7.53237 29.72 -7.53237 29.176ZM-8.05237 29.172C-8.05237 29.412 -8.19237 29.556 -8.39637 29.556C-8.60037 29.556 -8.74437 29.412 -8.74437 29.172V27.984C-8.74437 27.744 -8.60037 27.596 -8.39637 27.596C-8.19237 27.596 -8.05237 27.744 -8.05237 27.984V29.172ZM-5.8005 30V27.152H-6.3205L-6.9005 27.656V28.216L-6.3205 27.712V30H-5.8005ZM-3.18862 29.176V27.976C-3.18862 27.432 -3.58862 27.128 -4.05262 27.128C-4.51662 27.128 -4.92062 27.432 -4.92062 27.976V29.176C-4.92062 29.72 -4.51662 30.024 -4.05262 30.024C-3.58862 30.024 -3.18862 29.72 -3.18862 29.176ZM-3.70862 29.172C-3.70862 29.412 -3.84862 29.556 -4.05262 29.556C-4.25662 29.556 -4.40062 29.412 -4.40062 29.172V27.984C-4.40062 27.744 -4.25662 27.596 -4.05262 27.596C-3.84862 27.596 -3.70862 27.744 -3.70862 27.984V29.172ZM-1.45675 30V27.152H-1.97675L-2.55675 27.656V28.216L-1.97675 27.712V30H-1.45675ZM1.15513 29.176V27.976C1.15513 27.432 0.755125 27.128 0.291125 27.128C-0.172875 27.128 -0.576875 27.432 -0.576875 27.976V29.176C-0.576875 29.72 -0.172875 30.024 0.291125 30.024C0.755125 30.024 1.15513 29.72 1.15513 29.176ZM0.635125 29.172C0.635125 29.412 0.495125 29.556 0.291125 29.556C0.0871251 29.556 -0.056875 29.412 -0.056875 29.172V27.984C-0.056875 27.744 0.0871251 27.596 0.291125 27.596C0.495125 27.596 0.635125 27.744 0.635125 27.984V29.172ZM2.887 30V27.152H2.367L1.787 27.656V28.216L2.367 27.712V30H2.887ZM5.49888 29.176V27.976C5.49888 27.432 5.09888 27.128 4.63488 27.128C4.17088 27.128 3.76688 27.432 3.76688 27.976V29.176C3.76688 29.72 4.17088 30.024 4.63488 30.024C5.09888 30.024 5.49888 29.72 5.49888 29.176ZM4.97888 29.172C4.97888 29.412 4.83888 29.556 4.63488 29.556C4.43088 29.556 4.28688 29.412 4.28688 29.172V27.984C4.28688 27.744 4.43088 27.596 4.63488 27.596C4.83888 27.596 4.97888 27.744 4.97888 27.984V29.172ZM7.23075 30V27.152H6.71075L6.13075 27.656V28.216L6.71075 27.712V30H7.23075ZM9.84263 29.176V27.976C9.84263 27.432 9.44263 27.128 8.97863 27.128C8.51463 27.128 8.11063 27.432 8.11063 27.976V29.176C8.11063 29.72 8.51463 30.024 8.97863 30.024C9.44263 30.024 9.84263 29.72 9.84263 29.176ZM9.32263 29.172C9.32263 29.412 9.18263 29.556 8.97863 29.556C8.77463 29.556 8.63063 29.412 8.63063 29.172V27.984C8.63063 27.744 8.77463 27.596 8.97863 27.596C9.18263 27.596 9.32263 27.744 9.32263 27.984V29.172ZM11.5745 30V27.152H11.0545L10.4745 27.656V28.216L11.0545 27.712V30H11.5745ZM14.1864 29.176V27.976C14.1864 27.432 13.7864 27.128 13.3224 27.128C12.8584 27.128 12.4544 27.432 12.4544 27.976V29.176C12.4544 29.72 12.8584 30.024 13.3224 30.024C13.7864 30.024 14.1864 29.72 14.1864 29.176ZM13.6664 29.172C13.6664 29.412 13.5264 29.556 13.3224 29.556C13.1184 29.556 12.9744 29.412 12.9744 29.172V27.984C12.9744 27.744 13.1184 27.596 13.3224 27.596C13.5264 27.596 13.6664 27.744 13.6664 27.984V29.172ZM15.9183 30V27.152H15.3983L14.8183 27.656V28.216L15.3983 27.712V30H15.9183ZM18.5301 29.176V27.976C18.5301 27.432 18.1301 27.128 17.6661 27.128C17.2021 27.128 16.7981 27.432 16.7981 27.976V29.176C16.7981 29.72 17.2021 30.024 17.6661 30.024C18.1301 30.024 18.5301 29.72 18.5301 29.176ZM18.0101 29.172C18.0101 29.412 17.8701 29.556 17.6661 29.556C17.4621 29.556 17.3181 29.412 17.3181 29.172V27.984C17.3181 27.744 17.4621 27.596 17.6661 27.596C17.8701 27.596 18.0101 27.744 18.0101 27.984V29.172ZM20.262 30V27.152H19.742L19.162 27.656V28.216L19.742 27.712V30H20.262ZM22.8739 29.176V27.976C22.8739 27.432 22.4739 27.128 22.0099 27.128C21.5459 27.128 21.1419 27.432 21.1419 27.976V29.176C21.1419 29.72 21.5459 30.024 22.0099 30.024C22.4739 30.024 22.8739 29.72 22.8739 29.176ZM22.3539 29.172C22.3539 29.412 22.2139 29.556 22.0099 29.556C21.8059 29.556 21.6619 29.412 21.6619 29.172V27.984C21.6619 27.744 21.8059 27.596 22.0099 27.596C22.2139 27.596 22.3539 27.744 22.3539 27.984V29.172ZM24.6058 30V27.152H24.0858L23.5058 27.656V28.216L24.0858 27.712V30H24.6058ZM27.2176 29.176V27.976C27.2176 27.432 26.8176 27.128 26.3536 27.128C25.8896 27.128 25.4856 27.432 25.4856 27.976V29.176C25.4856 29.72 25.8896 30.024 26.3536 30.024C26.8176 30.024 27.2176 29.72 27.2176 29.176ZM26.6976 29.172C26.6976 29.412 26.5576 29.556 26.3536 29.556C26.1496 29.556 26.0056 29.412 26.0056 29.172V27.984C26.0056 27.744 26.1496 27.596 26.3536 27.596C26.5576 27.596 26.6976 27.744 26.6976 27.984V29.172ZM28.9495 30V27.152H28.4295L27.8495 27.656V28.216L28.4295 27.712V30H28.9495ZM31.5614 29.176V27.976C31.5614 27.432 31.1614 27.128 30.6974 27.128C30.2334 27.128 29.8294 27.432 29.8294 27.976V29.176C29.8294 29.72 30.2334 30.024 30.6974 30.024C31.1614 30.024 31.5614 29.72 31.5614 29.176ZM31.0414 29.172C31.0414 29.412 30.9014 29.556 30.6974 29.556C30.4934 29.556 30.3494 29.412 30.3494 29.172V27.984C30.3494 27.744 30.4934 27.596 30.6974 27.596C30.9014 27.596 31.0414 27.744 31.0414 27.984V29.172Z" fill="white"/>
    </g>
    <path d="M4 8C6.20914 8 8 6.20914 8 4C8 1.79086 6.20914 0 4 0C1.79086 0 0 1.79086 0 4C0 6.20914 1.79086 8 4 8Z" fill="url(#paint2_linear)"/>
    <path d="M60.4855 8.80198C60.4855 9.13931 60.5881 9.43265 60.7935 9.68198C60.9988 9.93131 61.2481 10.1513 61.5415 10.342C61.8495 10.5326 62.1648 10.694 62.4875 10.826C62.8248 10.958 63.1255 11.0826 63.3895 11.2C64.0495 11.4933 64.6215 11.7866 65.1055 12.08C65.5895 12.3733 65.9855 12.6886 66.2935 13.026C66.6161 13.3633 66.8435 13.7446 66.9755 14.17C67.1221 14.5953 67.1881 15.0793 67.1735 15.622C67.1441 17.074 66.6895 18.2473 65.8095 19.142C64.9295 20.022 63.5875 20.4913 61.7835 20.55C61.1235 20.5793 60.5001 20.4986 59.9135 20.308C59.3415 20.132 58.8428 19.934 58.4175 19.714C58.0361 19.5233 57.7281 19.3106 57.4935 19.076C57.2735 18.8266 57.1121 18.5773 57.0095 18.328C56.9068 18.0786 56.8555 17.8366 56.8555 17.602C56.8701 17.3673 56.9361 17.1693 57.0535 17.008C57.2588 16.6853 57.5008 16.5093 57.7795 16.48C58.0728 16.436 58.3441 16.4946 58.5935 16.656C58.8135 16.8026 59.0408 16.964 59.2755 17.14C59.5248 17.3013 59.7815 17.4553 60.0455 17.602C60.3241 17.734 60.6101 17.844 60.9035 17.932C61.2115 18.02 61.5415 18.064 61.8935 18.064C62.1868 18.064 62.4728 18.0126 62.7515 17.91C63.0448 17.8073 63.3015 17.6606 63.5215 17.47C63.7415 17.2793 63.9175 17.0446 64.0495 16.766C64.1815 16.4726 64.2475 16.1426 64.2475 15.776C64.2475 15.424 64.1668 15.116 64.0055 14.852C63.8441 14.588 63.6461 14.3606 63.4115 14.17C63.1915 13.9646 62.9421 13.796 62.6635 13.664C62.3995 13.532 62.1575 13.4293 61.9375 13.356C61.3215 13.136 60.7421 12.9013 60.1995 12.652C59.6715 12.388 59.2095 12.08 58.8135 11.728C58.4175 11.376 58.1021 10.958 57.8675 10.474C57.6328 9.98998 57.5155 9.41798 57.5155 8.75798C57.5155 8.05398 57.6548 7.43798 57.9335 6.90998C58.2268 6.36731 58.6081 5.91998 59.0775 5.56798C59.5468 5.21598 60.0748 4.95198 60.6615 4.77598C61.2628 4.59998 61.8715 4.51931 62.4875 4.53398C63.1768 4.54865 63.8148 4.65865 64.4015 4.86398C64.9881 5.06931 65.4721 5.32598 65.8535 5.63398C66.2495 5.94198 66.5135 6.27931 66.6455 6.64598C66.7921 6.99798 66.7701 7.33531 66.5795 7.65798C66.4768 7.81931 66.3448 7.95131 66.1835 8.05398C66.0368 8.14198 65.8755 8.20798 65.6995 8.25198C65.5381 8.28131 65.3768 8.28131 65.2155 8.25198C65.0541 8.22265 64.9221 8.16398 64.8195 8.07598C64.6728 7.97331 64.5041 7.86331 64.3135 7.74598C64.1228 7.61398 63.9175 7.49665 63.6975 7.39398C63.4921 7.29131 63.2648 7.20331 63.0155 7.12998C62.7808 7.05665 62.5388 7.01998 62.2895 7.01998C62.0108 7.01998 61.7615 7.07865 61.5415 7.19598C61.3215 7.29865 61.1308 7.43798 60.9695 7.61398C60.8228 7.77531 60.7055 7.96598 60.6175 8.18598C60.5295 8.39131 60.4855 8.59665 60.4855 8.80198Z" fill="#FFFFFF"/>
    <path d="M72.1266 16.282L74.2606 9.41798C74.3632 9.10998 74.5319 8.85331 74.7666 8.64798C75.0159 8.44265 75.2872 8.33998 75.5806 8.33998C75.8739 8.33998 76.1379 8.44265 76.3726 8.64798C76.6219 8.83865 76.7979 9.09531 76.9006 9.41798L79.0346 16.26L81.0806 9.30798C81.1686 9.01465 81.3299 8.77998 81.5646 8.60398C81.7992 8.42798 82.0632 8.33998 82.3566 8.33998C82.5766 8.33998 82.7599 8.36931 82.9066 8.42798C83.0532 8.48665 83.1706 8.55998 83.2586 8.64798C83.3466 8.73598 83.4052 8.83131 83.4346 8.93398C83.4786 9.03665 83.5079 9.13198 83.5226 9.21998C83.5519 9.33731 83.5372 9.51331 83.4786 9.74798C83.4199 9.98265 83.3612 10.1806 83.3026 10.342L80.3546 19.164C80.2372 19.5453 80.0612 19.8533 79.8266 20.088C79.5919 20.3226 79.3132 20.44 78.9906 20.44C78.5506 20.44 78.2059 20.2786 77.9566 19.956C77.7219 19.6333 77.5459 19.2813 77.4286 18.9L75.5806 12.674L73.6446 18.9C73.5126 19.3106 73.3292 19.67 73.0946 19.978C72.8599 20.286 72.5372 20.44 72.1266 20.44C71.8479 20.44 71.5839 20.33 71.3346 20.11C71.0852 19.89 70.8872 19.5673 70.7406 19.142L67.8366 10.342C67.7779 10.1806 67.7192 9.98265 67.6606 9.74798C67.6019 9.51331 67.5872 9.33731 67.6166 9.21998C67.6312 9.13198 67.6532 9.03665 67.6826 8.93398C67.7266 8.83131 67.7926 8.73598 67.8806 8.64798C67.9686 8.55998 68.0859 8.48665 68.2326 8.42798C68.3792 8.36931 68.5626 8.33998 68.7826 8.33998C69.0759 8.33998 69.3399 8.42798 69.5746 8.60398C69.8092 8.77998 69.9706 9.01465 70.0586 9.30798L72.1266 16.282Z" fill="#FFFFFF"/>
    <path d="M87.0713 14.456C87.0859 15.7906 87.3279 16.7513 87.7973 17.338C88.2813 17.9246 88.9486 18.218 89.7993 18.218C90.6499 18.218 91.2733 17.888 91.6693 17.228C92.0653 16.5533 92.2559 15.6366 92.2413 14.478C92.2266 13.29 92.0139 12.3513 91.6033 11.662C91.2073 10.958 90.5913 10.5913 89.7553 10.562C88.9193 10.5473 88.2593 10.8626 87.7753 11.508C87.2913 12.1386 87.0566 13.1213 87.0713 14.456ZM92.1753 18.592C91.8379 19.34 91.4199 19.8533 90.9213 20.132C90.4226 20.4106 89.8139 20.55 89.0953 20.55C88.3766 20.55 87.7166 20.4106 87.1153 20.132C86.5286 19.868 86.0226 19.4793 85.5973 18.966C85.1719 18.438 84.8419 17.8 84.6073 17.052C84.3726 16.2893 84.2553 15.424 84.2553 14.456C84.2553 13.268 84.3873 12.2706 84.6513 11.464C84.9299 10.6573 85.2893 10.0046 85.7293 9.50598C86.1839 9.00731 86.7046 8.65531 87.2913 8.44998C87.8779 8.22998 88.4866 8.11998 89.1173 8.11998C89.8213 8.11998 90.4446 8.31798 90.9873 8.71398C91.5299 9.09531 91.9406 9.65998 92.2193 10.408V9.48398C92.2193 9.24931 92.3293 8.99998 92.5493 8.73598C92.7839 8.47198 93.1359 8.33998 93.6053 8.33998C94.0746 8.35465 94.4193 8.49398 94.6393 8.75798C94.8739 9.00731 94.9913 9.24931 94.9913 9.48398V19.274C94.9913 19.5086 94.8959 19.7506 94.7053 20C94.5293 20.264 94.1553 20.4033 93.5833 20.418C93.2899 20.418 93.0553 20.3813 92.8793 20.308C92.7033 20.2346 92.5566 20.1393 92.4393 20.022C92.3366 19.9046 92.2633 19.78 92.2193 19.648C92.1899 19.516 92.1753 19.3913 92.1753 19.274V18.592Z" fill="#FFFFFF"/>
    <path d="M104.453 14.478C104.467 13.1873 104.225 12.212 103.727 11.552C103.243 10.8773 102.605 10.5473 101.813 10.562C101.021 10.5766 100.419 10.9433 100.009 11.662C99.598 12.366 99.3853 13.312 99.3706 14.5C99.356 15.644 99.5393 16.5533 99.9206 17.228C100.317 17.888 100.933 18.218 101.769 18.218C102.605 18.218 103.257 17.9246 103.727 17.338C104.196 16.7513 104.438 15.798 104.453 14.478ZM99.3926 22.574C99.3926 22.6913 99.3706 22.816 99.3266 22.948C99.2973 23.08 99.224 23.2046 99.1066 23.322C99.004 23.4393 98.8573 23.5346 98.6666 23.608C98.4906 23.6813 98.2633 23.718 97.9846 23.718C97.4126 23.7033 97.0313 23.564 96.8406 23.3C96.6646 23.0506 96.5766 22.8086 96.5766 22.574V9.48398C96.5766 9.24931 96.6866 9.00731 96.9066 8.75798C97.1413 8.49398 97.4933 8.35465 97.9626 8.33998C98.432 8.33998 98.7766 8.47198 98.9966 8.73598C99.2313 8.99998 99.3486 9.24931 99.3486 9.48398V10.408C99.6273 9.65998 100.038 9.09531 100.581 8.71398C101.123 8.31798 101.747 8.11998 102.451 8.11998C103.081 8.11998 103.69 8.22998 104.277 8.44998C104.863 8.65531 105.377 9.00731 105.817 9.50598C106.271 10.0046 106.631 10.6573 106.895 11.464C107.173 12.2706 107.313 13.268 107.313 14.456C107.313 15.424 107.195 16.2893 106.961 17.052C106.726 17.8 106.396 18.438 105.971 18.966C105.545 19.4793 105.032 19.868 104.431 20.132C103.844 20.4106 103.191 20.55 102.473 20.55C101.754 20.55 101.145 20.4106 100.647 20.132C100.148 19.8533 99.73 19.34 99.3926 18.592V22.574Z" fill="#FFFFFF"/>
    <path d="M39.882 19.296C39.882 19.5746 39.7573 19.8313 39.508 20.066C39.2587 20.3153 38.9213 20.44 38.496 20.44C38.0707 20.44 37.7333 20.3226 37.484 20.088C37.2347 19.8533 37.11 19.5893 37.11 19.296V9.61598C37.11 9.17598 37.2567 8.85331 37.55 8.64798C37.8433 8.44265 38.1587 8.33998 38.496 8.33998C38.8333 8.33998 39.1487 8.44265 39.442 8.64798C39.7353 8.83865 39.882 9.16131 39.882 9.61598V19.296ZM37 5.69998C37 5.27465 37.1393 4.92265 37.418 4.64398C37.7113 4.35065 38.0707 4.20398 38.496 4.20398C38.9213 4.20398 39.2733 4.35065 39.552 4.64398C39.8453 4.92265 39.992 5.27465 39.992 5.69998C39.992 6.12531 39.8453 6.48465 39.552 6.77798C39.2733 7.05665 38.9213 7.19598 38.496 7.19598C38.0707 7.19598 37.7113 7.05665 37.418 6.77798C37.1393 6.48465 37 6.12531 37 5.69998Z" fill="url(#paint3_linear)"/>
    <path d="M48.7526 4.44598C49.9406 4.44598 50.9673 4.65865 51.8326 5.08398C52.7126 5.49465 53.4386 6.06665 54.0106 6.79998C54.5826 7.51865 55.008 8.36931 55.2866 9.35198C55.5653 10.3346 55.7046 11.398 55.7046 12.542C55.7046 13.686 55.5653 14.7566 55.2866 15.754C55.008 16.7366 54.5826 17.5946 54.0106 18.328C53.4386 19.0466 52.7126 19.6113 51.8326 20.022C50.9673 20.4473 49.9406 20.66 48.7526 20.66C47.6086 20.66 46.604 20.4546 45.7386 20.044C44.8733 19.648 44.1473 19.0906 43.5606 18.372C42.974 17.6533 42.534 16.7953 42.2406 15.798C41.9473 14.8006 41.8006 13.7153 41.8006 12.542C41.8006 11.4126 41.9326 10.3566 42.1966 9.37398C42.4606 8.37665 42.8713 7.51865 43.4286 6.79998C44.0006 6.06665 44.7193 5.49465 45.5846 5.08398C46.4646 4.65865 47.5206 4.44598 48.7526 4.44598ZM48.7526 18.152C49.53 18.152 50.1753 18.0126 50.6886 17.734C51.2166 17.4406 51.642 17.0446 51.9646 16.546C52.2873 16.0473 52.5146 15.4606 52.6466 14.786C52.7786 14.1113 52.8446 13.3853 52.8446 12.608C52.8446 11.8306 52.7713 11.0973 52.6246 10.408C52.478 9.71865 52.2433 9.11731 51.9206 8.60398C51.598 8.09065 51.1726 7.68731 50.6446 7.39398C50.1313 7.10065 49.5006 6.95398 48.7526 6.95398C48.0046 6.95398 47.3666 7.10798 46.8386 7.41598C46.3253 7.70931 45.9073 8.11265 45.5846 8.62598C45.262 9.12465 45.0273 9.71131 44.8806 10.386C44.734 11.0606 44.6606 11.7793 44.6606 12.542C44.6606 13.2313 44.7266 13.9133 44.8586 14.588C44.9906 15.2626 45.218 15.864 45.5406 16.392C45.8633 16.92 46.2813 17.3453 46.7946 17.668C47.3226 17.9906 47.9753 18.152 48.7526 18.152Z" fill="url(#paint4_linear)"/>
    <defs>
        <linearGradient id="paint0_linear" x1="0" y1="12.5" x2="25" y2="12.5" gradientUnits="userSpaceOnUse">
            <stop stop-color="#0ACFFE"/>
            <stop offset="1" stop-color="#495AFF"/>
        </linearGradient>
        <linearGradient id="paint1_linear" x1="0" y1="12.5" x2="25" y2="12.5" gradientUnits="userSpaceOnUse">
            <stop stop-color="#0ACFFE"/>
            <stop offset="1" stop-color="#495AFF"/>
        </linearGradient>
        <linearGradient id="paint2_linear" x1="0" y1="4" x2="8" y2="4" gradientUnits="userSpaceOnUse">
            <stop stop-color="#0ACFFE"/>
            <stop offset="1" stop-color="#495AFF"/>
        </linearGradient>
        <linearGradient id="paint3_linear" x1="37" y1="12.432" x2="55.7046" y2="12.432" gradientUnits="userSpaceOnUse">
            <stop stop-color="#0ACFFE"/>
            <stop offset="1" stop-color="#495AFF"/>
        </linearGradient>
        <linearGradient id="paint4_linear" x1="37" y1="12.432" x2="55.7046" y2="12.432" gradientUnits="userSpaceOnUse">
            <stop stop-color="#0ACFFE"/>
            <stop offset="1" stop-color="#495AFF"/>
        </linearGradient>
    </defs>
</svg>