<svg width="26" height="26" viewBox="0 0 26 26" fill="none" xmlns="http://www.w3.org/2000/svg">
    <path d="M25.9917 12.5392C26.0555 14.323 25.7513 16.1008 25.0978 17.7619C24.4443 19.4229 23.4557 20.9315 22.1936 22.1936C20.9315 23.4557 19.4229 24.4443 17.7619 25.0978C16.1008 25.7513 14.323 26.0555 12.5392 25.9917C5.51445 25.7511 0 19.845 0 12.8202V10.0103H9.13221V12.9958C9.14961 13.7349 9.38355 14.4525 9.80502 15.0598C10.2265 15.6671 10.817 16.1373 11.5032 16.4121C12.1894 16.687 12.9412 16.7543 13.6654 16.6059C14.3895 16.4574 15.0542 16.0996 15.5769 15.5769C16.0996 15.0542 16.4574 14.3895 16.6059 13.6654C16.7543 12.9412 16.687 12.1894 16.4121 11.5032C16.1373 10.817 15.6671 10.2265 15.0598 9.80502C14.4525 9.38355 13.7349 9.14961 12.9958 9.13221H10.0103V0H12.8097C19.845 0 25.7441 5.51094 25.9917 12.5392Z" fill="url(#paint0_linear)"/>
    <mask id="mask0" mask-type="alpha" maskUnits="userSpaceOnUse" x="0" y="0" width="26" height="26">
        <path d="M25.9917 12.5392C26.0555 14.323 25.7513 16.1008 25.0978 17.7619C24.4444 19.4229 23.4557 20.9315 22.1936 22.1936C20.9315 23.4557 19.4229 24.4444 17.7619 25.0978C16.1008 25.7513 14.323 26.0555 12.5392 25.9917C5.51445 25.7511 0 19.845 0 12.8202V10.0103H9.13221V12.9958C9.14961 13.7349 9.38355 14.4525 9.80502 15.0598C10.2265 15.6671 10.817 16.1373 11.5032 16.4121C12.1894 16.687 12.9412 16.7543 13.6654 16.6059C14.3895 16.4574 15.0542 16.0996 15.5769 15.5769C16.0996 15.0542 16.4574 14.3895 16.6059 13.6654C16.7543 12.9412 16.687 12.1894 16.4121 11.5032C16.1373 10.817 15.6671 10.2265 15.0598 9.80502C14.4525 9.38355 13.7349 9.14961 12.9958 9.13221H10.0103V0H12.8097C19.845 0 25.7441 5.51094 25.9917 12.5392Z" fill="url(#paint1_linear)"/>
    </mask>
    <g mask="url(#mask0)">
        <g opacity="0.3">
            <path d="M-15.0676 -2.08044V-5.04236H-15.6084L-16.2116 -4.5182V-3.9358L-15.6084 -4.45996V-2.08044H-15.0676Z" fill="white"/>
            <path d="M-12.3513 -2.9374V-4.1854C-12.3513 -4.75116 -12.7673 -5.06732 -13.2498 -5.06732C-13.7324 -5.06732 -14.1525 -4.75116 -14.1525 -4.1854V-2.9374C-14.1525 -2.37164 -13.7324 -2.05548 -13.2498 -2.05548C-12.7673 -2.05548 -12.3513 -2.37164 -12.3513 -2.9374ZM-12.8921 -2.94156C-12.8921 -2.69196 -13.0377 -2.5422 -13.2498 -2.5422C-13.462 -2.5422 -13.6117 -2.69196 -13.6117 -2.94156V-4.17708C-13.6117 -4.42668 -13.462 -4.5806 -13.2498 -4.5806C-13.0377 -4.5806 -12.8921 -4.42668 -12.8921 -4.17708V-2.94156Z" fill="white"/>
            <path d="M-10.5501 -2.08044V-5.04236H-11.0909L-11.6941 -4.5182V-3.9358L-11.0909 -4.45996V-2.08044H-10.5501Z" fill="white"/>
            <path d="M-7.83376 -2.9374V-4.1854C-7.83376 -4.75116 -8.24976 -5.06732 -8.73232 -5.06732C-9.21488 -5.06732 -9.63504 -4.75116 -9.63504 -4.1854V-2.9374C-9.63504 -2.37164 -9.21488 -2.05548 -8.73232 -2.05548C-8.24976 -2.05548 -7.83376 -2.37164 -7.83376 -2.9374ZM-8.37456 -2.94156C-8.37456 -2.69196 -8.52016 -2.5422 -8.73232 -2.5422C-8.94448 -2.5422 -9.09424 -2.69196 -9.09424 -2.94156V-4.17708C-9.09424 -4.42668 -8.94448 -4.5806 -8.73232 -4.5806C-8.52016 -4.5806 -8.37456 -4.42668 -8.37456 -4.17708V-2.94156Z" fill="white"/>
            <path d="M-6.03261 -2.08044V-5.04236H-6.57341L-7.17661 -4.5182V-3.9358L-6.57341 -4.45996V-2.08044H-6.03261Z" fill="white"/>
            <path d="M-3.31626 -2.9374V-4.1854C-3.31626 -4.75116 -3.73226 -5.06732 -4.21482 -5.06732C-4.69738 -5.06732 -5.11754 -4.75116 -5.11754 -4.1854V-2.9374C-5.11754 -2.37164 -4.69738 -2.05548 -4.21482 -2.05548C-3.73226 -2.05548 -3.31626 -2.37164 -3.31626 -2.9374ZM-3.85706 -2.94156C-3.85706 -2.69196 -4.00266 -2.5422 -4.21482 -2.5422C-4.42698 -2.5422 -4.57674 -2.69196 -4.57674 -2.94156V-4.17708C-4.57674 -4.42668 -4.42698 -4.5806 -4.21482 -4.5806C-4.00266 -4.5806 -3.85706 -4.42668 -3.85706 -4.17708V-2.94156Z" fill="white"/>
            <path d="M-1.51511 -2.08044V-5.04236H-2.05591L-2.65911 -4.5182V-3.9358L-2.05591 -4.45996V-2.08044H-1.51511Z" fill="white"/>
            <path d="M1.20124 -2.9374V-4.1854C1.20124 -4.75116 0.785238 -5.06732 0.302679 -5.06732C-0.179882 -5.06732 -0.60004 -4.75116 -0.60004 -4.1854V-2.9374C-0.60004 -2.37164 -0.179882 -2.05548 0.302679 -2.05548C0.785238 -2.05548 1.20124 -2.37164 1.20124 -2.9374ZM0.660437 -2.94156C0.660437 -2.69196 0.514837 -2.5422 0.302679 -2.5422C0.090519 -2.5422 -0.0592403 -2.69196 -0.0592403 -2.94156V-4.17708C-0.0592403 -4.42668 0.090519 -4.5806 0.302679 -4.5806C0.514837 -4.5806 0.660437 -4.42668 0.660437 -4.17708V-2.94156Z" fill="white"/>
            <path d="M3.00239 -2.08044V-5.04236H2.46159L1.85839 -4.5182V-3.9358L2.46159 -4.45996V-2.08044H3.00239Z" fill="white"/>
            <path d="M5.71874 -2.9374V-4.1854C5.71874 -4.75116 5.30274 -5.06732 4.82018 -5.06732C4.33762 -5.06732 3.91746 -4.75116 3.91746 -4.1854V-2.9374C3.91746 -2.37164 4.33762 -2.05548 4.82018 -2.05548C5.30274 -2.05548 5.71874 -2.37164 5.71874 -2.9374ZM5.17794 -2.94156C5.17794 -2.69196 5.03234 -2.5422 4.82018 -2.5422C4.60802 -2.5422 4.45826 -2.69196 4.45826 -2.94156V-4.17708C4.45826 -4.42668 4.60802 -4.5806 4.82018 -4.5806C5.03234 -4.5806 5.17794 -4.42668 5.17794 -4.17708V-2.94156Z" fill="white"/>
            <path d="M7.51989 -2.08044V-5.04236H6.97909L6.37589 -4.5182V-3.9358L6.97909 -4.45996V-2.08044H7.51989Z" fill="white"/>
            <path d="M10.2362 -2.9374V-4.1854C10.2362 -4.75116 9.82024 -5.06732 9.33768 -5.06732C8.85512 -5.06732 8.43496 -4.75116 8.43496 -4.1854V-2.9374C8.43496 -2.37164 8.85512 -2.05548 9.33768 -2.05548C9.82024 -2.05548 10.2362 -2.37164 10.2362 -2.9374ZM9.69544 -2.94156C9.69544 -2.69196 9.54984 -2.5422 9.33768 -2.5422C9.12551 -2.5422 8.97576 -2.69196 8.97576 -2.94156V-4.17708C8.97576 -4.42668 9.12551 -4.5806 9.33768 -4.5806C9.54984 -4.5806 9.69544 -4.42668 9.69544 -4.17708V-2.94156Z" fill="white"/>
            <path d="M12.0374 -2.08044V-5.04236H11.4966L10.8934 -4.5182V-3.9358L11.4966 -4.45996V-2.08044H12.0374Z" fill="white"/>
            <path d="M14.7537 -2.9374V-4.1854C14.7537 -4.75116 14.3377 -5.06732 13.8552 -5.06732C13.3726 -5.06732 12.9525 -4.75116 12.9525 -4.1854V-2.9374C12.9525 -2.37164 13.3726 -2.05548 13.8552 -2.05548C14.3377 -2.05548 14.7537 -2.37164 14.7537 -2.9374ZM14.2129 -2.94156C14.2129 -2.69196 14.0673 -2.5422 13.8552 -2.5422C13.643 -2.5422 13.4933 -2.69196 13.4933 -2.94156V-4.17708C13.4933 -4.42668 13.643 -4.5806 13.8552 -4.5806C14.0673 -4.5806 14.2129 -4.42668 14.2129 -4.17708V-2.94156Z" fill="white"/>
            <path d="M16.5549 -2.08044V-5.04236H16.0141L15.4109 -4.5182V-3.9358L16.0141 -4.45996V-2.08044H16.5549Z" fill="white"/>
            <path d="M19.2712 -2.9374V-4.1854C19.2712 -4.75116 18.8552 -5.06732 18.3727 -5.06732C17.8901 -5.06732 17.47 -4.75116 17.47 -4.1854V-2.9374C17.47 -2.37164 17.8901 -2.05548 18.3727 -2.05548C18.8552 -2.05548 19.2712 -2.37164 19.2712 -2.9374ZM18.7304 -2.94156C18.7304 -2.69196 18.5848 -2.5422 18.3727 -2.5422C18.1605 -2.5422 18.0108 -2.69196 18.0108 -2.94156V-4.17708C18.0108 -4.42668 18.1605 -4.5806 18.3727 -4.5806C18.5848 -4.5806 18.7304 -4.42668 18.7304 -4.17708V-2.94156Z" fill="white"/>
            <path d="M21.0724 -2.08044V-5.04236H20.5316L19.9284 -4.5182V-3.9358L20.5316 -4.45996V-2.08044H21.0724Z" fill="white"/>
            <path d="M23.7887 -2.9374V-4.1854C23.7887 -4.75116 23.3727 -5.06732 22.8902 -5.06732C22.4076 -5.06732 21.9875 -4.75116 21.9875 -4.1854V-2.9374C21.9875 -2.37164 22.4076 -2.05548 22.8902 -2.05548C23.3727 -2.05548 23.7887 -2.37164 23.7887 -2.9374ZM23.2479 -2.94156C23.2479 -2.69196 23.1023 -2.5422 22.8902 -2.5422C22.678 -2.5422 22.5283 -2.69196 22.5283 -2.94156V-4.17708C22.5283 -4.42668 22.678 -4.5806 22.8902 -4.5806C23.1023 -4.5806 23.2479 -4.42668 23.2479 -4.17708V-2.94156Z" fill="white"/>
            <path d="M25.5899 -2.08044V-5.04236H25.0491L24.4459 -4.5182V-3.9358L25.0491 -4.45996V-2.08044H25.5899Z" fill="white"/>
            <path d="M28.3062 -2.9374V-4.1854C28.3062 -4.75116 27.8902 -5.06732 27.4077 -5.06732C26.9251 -5.06732 26.505 -4.75116 26.505 -4.1854V-2.9374C26.505 -2.37164 26.9251 -2.05548 27.4077 -2.05548C27.8902 -2.05548 28.3062 -2.37164 28.3062 -2.9374ZM27.7654 -2.94156C27.7654 -2.69196 27.6198 -2.5422 27.4077 -2.5422C27.1955 -2.5422 27.0458 -2.69196 27.0458 -2.94156V-4.17708C27.0458 -4.42668 27.1955 -4.5806 27.4077 -4.5806C27.6198 -4.5806 27.7654 -4.42668 27.7654 -4.17708V-2.94156Z" fill="white"/>
            <path d="M30.1074 -2.08044V-5.04236H29.5666L28.9634 -4.5182V-3.9358L29.5666 -4.45996V-2.08044H30.1074Z" fill="white"/>
            <path d="M32.8237 -2.9374V-4.1854C32.8237 -4.75116 32.4077 -5.06732 31.9252 -5.06732C31.4426 -5.06732 31.0225 -4.75116 31.0225 -4.1854V-2.9374C31.0225 -2.37164 31.4426 -2.05548 31.9252 -2.05548C32.4077 -2.05548 32.8237 -2.37164 32.8237 -2.9374ZM32.2829 -2.94156C32.2829 -2.69196 32.1373 -2.5422 31.9252 -2.5422C31.713 -2.5422 31.5633 -2.69196 31.5633 -2.94156V-4.17708C31.5633 -4.42668 31.713 -4.5806 31.9252 -4.5806C32.1373 -4.5806 32.2829 -4.42668 32.2829 -4.17708V-2.94156Z" fill="white"/>
            <path d="M-15.0676 2.07956V-0.882362H-15.6084L-16.2116 -0.358202V0.224198L-15.6084 -0.299962V2.07956H-15.0676Z" fill="white"/>
            <path d="M-12.3513 1.2226V-0.0254021C-12.3513 -0.591162 -12.7673 -0.907322 -13.2498 -0.907322C-13.7324 -0.907322 -14.1525 -0.591162 -14.1525 -0.0254021V1.2226C-14.1525 1.78836 -13.7324 2.10452 -13.2498 2.10452C-12.7673 2.10452 -12.3513 1.78836 -12.3513 1.2226ZM-12.8921 1.21844C-12.8921 1.46804 -13.0377 1.6178 -13.2498 1.6178C-13.462 1.6178 -13.6117 1.46804 -13.6117 1.21844V-0.0170817C-13.6117 -0.266682 -13.462 -0.420602 -13.2498 -0.420602C-13.0377 -0.420602 -12.8921 -0.266682 -12.8921 -0.0170817V1.21844Z" fill="white"/>
            <path d="M-10.5501 2.07956V-0.882362H-11.0909L-11.6941 -0.358202V0.224198L-11.0909 -0.299962V2.07956H-10.5501Z" fill="white"/>
            <path d="M-7.83376 1.2226V-0.0254021C-7.83376 -0.591162 -8.24976 -0.907322 -8.73232 -0.907322C-9.21488 -0.907322 -9.63504 -0.591162 -9.63504 -0.0254021V1.2226C-9.63504 1.78836 -9.21488 2.10452 -8.73232 2.10452C-8.24976 2.10452 -7.83376 1.78836 -7.83376 1.2226ZM-8.37456 1.21844C-8.37456 1.46804 -8.52016 1.6178 -8.73232 1.6178C-8.94448 1.6178 -9.09424 1.46804 -9.09424 1.21844V-0.0170817C-9.09424 -0.266682 -8.94448 -0.420602 -8.73232 -0.420602C-8.52016 -0.420602 -8.37456 -0.266682 -8.37456 -0.0170817V1.21844Z" fill="white"/>
            <path d="M-6.03261 2.07956V-0.882362H-6.57341L-7.17661 -0.358202V0.224198L-6.57341 -0.299962V2.07956H-6.03261Z" fill="white"/>
            <path d="M-3.31626 1.2226V-0.0254021C-3.31626 -0.591162 -3.73226 -0.907322 -4.21482 -0.907322C-4.69738 -0.907322 -5.11754 -0.591162 -5.11754 -0.0254021V1.2226C-5.11754 1.78836 -4.69738 2.10452 -4.21482 2.10452C-3.73226 2.10452 -3.31626 1.78836 -3.31626 1.2226ZM-3.85706 1.21844C-3.85706 1.46804 -4.00266 1.6178 -4.21482 1.6178C-4.42698 1.6178 -4.57674 1.46804 -4.57674 1.21844V-0.0170817C-4.57674 -0.266682 -4.42698 -0.420602 -4.21482 -0.420602C-4.00266 -0.420602 -3.85706 -0.266682 -3.85706 -0.0170817V1.21844Z" fill="white"/>
            <path d="M-1.51511 2.07956V-0.882362H-2.05591L-2.65911 -0.358202V0.224198L-2.05591 -0.299962V2.07956H-1.51511Z" fill="white"/>
            <path d="M1.20124 1.2226V-0.0254021C1.20124 -0.591162 0.785238 -0.907322 0.302679 -0.907322C-0.179882 -0.907322 -0.60004 -0.591162 -0.60004 -0.0254021V1.2226C-0.60004 1.78836 -0.179882 2.10452 0.302679 2.10452C0.785238 2.10452 1.20124 1.78836 1.20124 1.2226ZM0.660437 1.21844C0.660437 1.46804 0.514837 1.6178 0.302679 1.6178C0.090519 1.6178 -0.0592403 1.46804 -0.0592403 1.21844V-0.0170817C-0.0592403 -0.266682 0.090519 -0.420602 0.302679 -0.420602C0.514837 -0.420602 0.660437 -0.266682 0.660437 -0.0170817V1.21844Z" fill="white"/>
            <path d="M3.00239 2.07956V-0.882362H2.46159L1.85839 -0.358202V0.224198L2.46159 -0.299962V2.07956H3.00239Z" fill="white"/>
            <path d="M5.71874 1.2226V-0.0254021C5.71874 -0.591162 5.30274 -0.907322 4.82018 -0.907322C4.33762 -0.907322 3.91746 -0.591162 3.91746 -0.0254021V1.2226C3.91746 1.78836 4.33762 2.10452 4.82018 2.10452C5.30274 2.10452 5.71874 1.78836 5.71874 1.2226ZM5.17794 1.21844C5.17794 1.46804 5.03234 1.6178 4.82018 1.6178C4.60802 1.6178 4.45826 1.46804 4.45826 1.21844V-0.0170817C4.45826 -0.266682 4.60802 -0.420602 4.82018 -0.420602C5.03234 -0.420602 5.17794 -0.266682 5.17794 -0.0170817V1.21844Z" fill="white"/>
            <path d="M7.51989 2.07956V-0.882362H6.97909L6.37589 -0.358202V0.224198L6.97909 -0.299962V2.07956H7.51989Z" fill="white"/>
            <path d="M10.2362 1.2226V-0.0254021C10.2362 -0.591162 9.82024 -0.907322 9.33768 -0.907322C8.85512 -0.907322 8.43496 -0.591162 8.43496 -0.0254021V1.2226C8.43496 1.78836 8.85512 2.10452 9.33768 2.10452C9.82024 2.10452 10.2362 1.78836 10.2362 1.2226ZM9.69544 1.21844C9.69544 1.46804 9.54984 1.6178 9.33768 1.6178C9.12551 1.6178 8.97576 1.46804 8.97576 1.21844V-0.0170817C8.97576 -0.266682 9.12551 -0.420602 9.33768 -0.420602C9.54984 -0.420602 9.69544 -0.266682 9.69544 -0.0170817V1.21844Z" fill="white"/>
            <path d="M12.0374 2.07956V-0.882362H11.4966L10.8934 -0.358202V0.224198L11.4966 -0.299962V2.07956H12.0374Z" fill="white"/>
            <path d="M14.7537 1.2226V-0.0254021C14.7537 -0.591162 14.3377 -0.907322 13.8552 -0.907322C13.3726 -0.907322 12.9525 -0.591162 12.9525 -0.0254021V1.2226C12.9525 1.78836 13.3726 2.10452 13.8552 2.10452C14.3377 2.10452 14.7537 1.78836 14.7537 1.2226ZM14.2129 1.21844C14.2129 1.46804 14.0673 1.6178 13.8552 1.6178C13.643 1.6178 13.4933 1.46804 13.4933 1.21844V-0.0170817C13.4933 -0.266682 13.643 -0.420602 13.8552 -0.420602C14.0673 -0.420602 14.2129 -0.266682 14.2129 -0.0170817V1.21844Z" fill="white"/>
            <path d="M16.5549 2.07956V-0.882362H16.0141L15.4109 -0.358202V0.224198L16.0141 -0.299962V2.07956H16.5549Z" fill="white"/>
            <path d="M19.2712 1.2226V-0.0254021C19.2712 -0.591162 18.8552 -0.907322 18.3727 -0.907322C17.8901 -0.907322 17.47 -0.591162 17.47 -0.0254021V1.2226C17.47 1.78836 17.8901 2.10452 18.3727 2.10452C18.8552 2.10452 19.2712 1.78836 19.2712 1.2226ZM18.7304 1.21844C18.7304 1.46804 18.5848 1.6178 18.3727 1.6178C18.1605 1.6178 18.0108 1.46804 18.0108 1.21844V-0.0170817C18.0108 -0.266682 18.1605 -0.420602 18.3727 -0.420602C18.5848 -0.420602 18.7304 -0.266682 18.7304 -0.0170817V1.21844Z" fill="white"/>
            <path d="M21.0724 2.07956V-0.882362H20.5316L19.9284 -0.358202V0.224198L20.5316 -0.299962V2.07956H21.0724Z" fill="white"/>
            <path d="M23.7887 1.2226V-0.0254021C23.7887 -0.591162 23.3727 -0.907322 22.8902 -0.907322C22.4076 -0.907322 21.9875 -0.591162 21.9875 -0.0254021V1.2226C21.9875 1.78836 22.4076 2.10452 22.8902 2.10452C23.3727 2.10452 23.7887 1.78836 23.7887 1.2226ZM23.2479 1.21844C23.2479 1.46804 23.1023 1.6178 22.8902 1.6178C22.678 1.6178 22.5283 1.46804 22.5283 1.21844V-0.0170817C22.5283 -0.266682 22.678 -0.420602 22.8902 -0.420602C23.1023 -0.420602 23.2479 -0.266682 23.2479 -0.0170817V1.21844Z" fill="white"/>
            <path d="M25.5899 2.07956V-0.882362H25.0491L24.4459 -0.358202V0.224198L25.0491 -0.299962V2.07956H25.5899Z" fill="white"/>
            <path d="M28.3062 1.2226V-0.0254021C28.3062 -0.591162 27.8902 -0.907322 27.4077 -0.907322C26.9251 -0.907322 26.505 -0.591162 26.505 -0.0254021V1.2226C26.505 1.78836 26.9251 2.10452 27.4077 2.10452C27.8902 2.10452 28.3062 1.78836 28.3062 1.2226ZM27.7654 1.21844C27.7654 1.46804 27.6198 1.6178 27.4077 1.6178C27.1955 1.6178 27.0458 1.46804 27.0458 1.21844V-0.0170817C27.0458 -0.266682 27.1955 -0.420602 27.4077 -0.420602C27.6198 -0.420602 27.7654 -0.266682 27.7654 -0.0170817V1.21844Z" fill="white"/>
            <path d="M30.1074 2.07956V-0.882362H29.5666L28.9634 -0.358202V0.224198L29.5666 -0.299962V2.07956H30.1074Z" fill="white"/>
            <path d="M32.8237 1.2226V-0.0254021C32.8237 -0.591162 32.4077 -0.907322 31.9252 -0.907322C31.4426 -0.907322 31.0225 -0.591162 31.0225 -0.0254021V1.2226C31.0225 1.78836 31.4426 2.10452 31.9252 2.10452C32.4077 2.10452 32.8237 1.78836 32.8237 1.2226ZM32.2829 1.21844C32.2829 1.46804 32.1373 1.6178 31.9252 1.6178C31.713 1.6178 31.5633 1.46804 31.5633 1.21844V-0.0170817C31.5633 -0.266682 31.713 -0.420602 31.9252 -0.420602C32.1373 -0.420602 32.2829 -0.266682 32.2829 -0.0170817V1.21844Z" fill="white"/>
            <path d="M-15.0676 6.23956V3.27764H-15.6084L-16.2116 3.8018V4.3842L-15.6084 3.86004V6.23956H-15.0676Z" fill="white"/>
            <path d="M-12.3513 5.3826V4.1346C-12.3513 3.56884 -12.7673 3.25268 -13.2498 3.25268C-13.7324 3.25268 -14.1525 3.56884 -14.1525 4.1346V5.3826C-14.1525 5.94836 -13.7324 6.26452 -13.2498 6.26452C-12.7673 6.26452 -12.3513 5.94836 -12.3513 5.3826ZM-12.8921 5.37844C-12.8921 5.62804 -13.0377 5.7778 -13.2498 5.7778C-13.462 5.7778 -13.6117 5.62804 -13.6117 5.37844V4.14292C-13.6117 3.89332 -13.462 3.7394 -13.2498 3.7394C-13.0377 3.7394 -12.8921 3.89332 -12.8921 4.14292V5.37844Z" fill="white"/>
            <path d="M-10.5501 6.23956V3.27764H-11.0909L-11.6941 3.8018V4.3842L-11.0909 3.86004V6.23956H-10.5501Z" fill="white"/>
            <path d="M-7.83376 5.3826V4.1346C-7.83376 3.56884 -8.24976 3.25268 -8.73232 3.25268C-9.21488 3.25268 -9.63504 3.56884 -9.63504 4.1346V5.3826C-9.63504 5.94836 -9.21488 6.26452 -8.73232 6.26452C-8.24976 6.26452 -7.83376 5.94836 -7.83376 5.3826ZM-8.37456 5.37844C-8.37456 5.62804 -8.52016 5.7778 -8.73232 5.7778C-8.94448 5.7778 -9.09424 5.62804 -9.09424 5.37844V4.14292C-9.09424 3.89332 -8.94448 3.7394 -8.73232 3.7394C-8.52016 3.7394 -8.37456 3.89332 -8.37456 4.14292V5.37844Z" fill="white"/>
            <path d="M-6.03261 6.23956V3.27764H-6.57341L-7.17661 3.8018V4.3842L-6.57341 3.86004V6.23956H-6.03261Z" fill="white"/>
            <path d="M-3.31626 5.3826V4.1346C-3.31626 3.56884 -3.73226 3.25268 -4.21482 3.25268C-4.69738 3.25268 -5.11754 3.56884 -5.11754 4.1346V5.3826C-5.11754 5.94836 -4.69738 6.26452 -4.21482 6.26452C-3.73226 6.26452 -3.31626 5.94836 -3.31626 5.3826ZM-3.85706 5.37844C-3.85706 5.62804 -4.00266 5.7778 -4.21482 5.7778C-4.42698 5.7778 -4.57674 5.62804 -4.57674 5.37844V4.14292C-4.57674 3.89332 -4.42698 3.7394 -4.21482 3.7394C-4.00266 3.7394 -3.85706 3.89332 -3.85706 4.14292V5.37844Z" fill="white"/>
            <path d="M-1.51511 6.23956V3.27764H-2.05591L-2.65911 3.8018V4.3842L-2.05591 3.86004V6.23956H-1.51511Z" fill="white"/>
            <path d="M1.20124 5.3826V4.1346C1.20124 3.56884 0.785238 3.25268 0.302679 3.25268C-0.179882 3.25268 -0.60004 3.56884 -0.60004 4.1346V5.3826C-0.60004 5.94836 -0.179882 6.26452 0.302679 6.26452C0.785238 6.26452 1.20124 5.94836 1.20124 5.3826ZM0.660437 5.37844C0.660437 5.62804 0.514837 5.7778 0.302679 5.7778C0.090519 5.7778 -0.0592403 5.62804 -0.0592403 5.37844V4.14292C-0.0592403 3.89332 0.090519 3.7394 0.302679 3.7394C0.514837 3.7394 0.660437 3.89332 0.660437 4.14292V5.37844Z" fill="white"/>
            <path d="M3.00239 6.23956V3.27764H2.46159L1.85839 3.8018V4.3842L2.46159 3.86004V6.23956H3.00239Z" fill="white"/>
            <path d="M5.71874 5.3826V4.1346C5.71874 3.56884 5.30274 3.25268 4.82018 3.25268C4.33762 3.25268 3.91746 3.56884 3.91746 4.1346V5.3826C3.91746 5.94836 4.33762 6.26452 4.82018 6.26452C5.30274 6.26452 5.71874 5.94836 5.71874 5.3826ZM5.17794 5.37844C5.17794 5.62804 5.03234 5.7778 4.82018 5.7778C4.60802 5.7778 4.45826 5.62804 4.45826 5.37844V4.14292C4.45826 3.89332 4.60802 3.7394 4.82018 3.7394C5.03234 3.7394 5.17794 3.89332 5.17794 4.14292V5.37844Z" fill="white"/>
            <path d="M7.51989 6.23956V3.27764H6.97909L6.37589 3.8018V4.3842L6.97909 3.86004V6.23956H7.51989Z" fill="white"/>
            <path d="M10.2362 5.3826V4.1346C10.2362 3.56884 9.82024 3.25268 9.33768 3.25268C8.85512 3.25268 8.43496 3.56884 8.43496 4.1346V5.3826C8.43496 5.94836 8.85512 6.26452 9.33768 6.26452C9.82024 6.26452 10.2362 5.94836 10.2362 5.3826ZM9.69544 5.37844C9.69544 5.62804 9.54984 5.7778 9.33768 5.7778C9.12551 5.7778 8.97576 5.62804 8.97576 5.37844V4.14292C8.97576 3.89332 9.12551 3.7394 9.33768 3.7394C9.54984 3.7394 9.69544 3.89332 9.69544 4.14292V5.37844Z" fill="white"/>
            <path d="M12.0374 6.23956V3.27764H11.4966L10.8934 3.8018V4.3842L11.4966 3.86004V6.23956H12.0374Z" fill="white"/>
            <path d="M14.7537 5.3826V4.1346C14.7537 3.56884 14.3377 3.25268 13.8552 3.25268C13.3726 3.25268 12.9525 3.56884 12.9525 4.1346V5.3826C12.9525 5.94836 13.3726 6.26452 13.8552 6.26452C14.3377 6.26452 14.7537 5.94836 14.7537 5.3826ZM14.2129 5.37844C14.2129 5.62804 14.0673 5.7778 13.8552 5.7778C13.643 5.7778 13.4933 5.62804 13.4933 5.37844V4.14292C13.4933 3.89332 13.643 3.7394 13.8552 3.7394C14.0673 3.7394 14.2129 3.89332 14.2129 4.14292V5.37844Z" fill="white"/>
            <path d="M16.5549 6.23956V3.27764H16.0141L15.4109 3.8018V4.3842L16.0141 3.86004V6.23956H16.5549Z" fill="white"/>
            <path d="M19.2712 5.3826V4.1346C19.2712 3.56884 18.8552 3.25268 18.3727 3.25268C17.8901 3.25268 17.47 3.56884 17.47 4.1346V5.3826C17.47 5.94836 17.8901 6.26452 18.3727 6.26452C18.8552 6.26452 19.2712 5.94836 19.2712 5.3826ZM18.7304 5.37844C18.7304 5.62804 18.5848 5.7778 18.3727 5.7778C18.1605 5.7778 18.0108 5.62804 18.0108 5.37844V4.14292C18.0108 3.89332 18.1605 3.7394 18.3727 3.7394C18.5848 3.7394 18.7304 3.89332 18.7304 4.14292V5.37844Z" fill="white"/>
            <path d="M21.0724 6.23956V3.27764H20.5316L19.9284 3.8018V4.3842L20.5316 3.86004V6.23956H21.0724Z" fill="white"/>
            <path d="M23.7887 5.3826V4.1346C23.7887 3.56884 23.3727 3.25268 22.8902 3.25268C22.4076 3.25268 21.9875 3.56884 21.9875 4.1346V5.3826C21.9875 5.94836 22.4076 6.26452 22.8902 6.26452C23.3727 6.26452 23.7887 5.94836 23.7887 5.3826ZM23.2479 5.37844C23.2479 5.62804 23.1023 5.7778 22.8902 5.7778C22.678 5.7778 22.5283 5.62804 22.5283 5.37844V4.14292C22.5283 3.89332 22.678 3.7394 22.8902 3.7394C23.1023 3.7394 23.2479 3.89332 23.2479 4.14292V5.37844Z" fill="white"/>
            <path d="M25.5899 6.23956V3.27764H25.0491L24.4459 3.8018V4.3842L25.0491 3.86004V6.23956H25.5899Z" fill="white"/>
            <path d="M28.3062 5.3826V4.1346C28.3062 3.56884 27.8902 3.25268 27.4077 3.25268C26.9251 3.25268 26.505 3.56884 26.505 4.1346V5.3826C26.505 5.94836 26.9251 6.26452 27.4077 6.26452C27.8902 6.26452 28.3062 5.94836 28.3062 5.3826ZM27.7654 5.37844C27.7654 5.62804 27.6198 5.7778 27.4077 5.7778C27.1955 5.7778 27.0458 5.62804 27.0458 5.37844V4.14292C27.0458 3.89332 27.1955 3.7394 27.4077 3.7394C27.6198 3.7394 27.7654 3.89332 27.7654 4.14292V5.37844Z" fill="white"/>
            <path d="M30.1074 6.23956V3.27764H29.5666L28.9634 3.8018V4.3842L29.5666 3.86004V6.23956H30.1074Z" fill="white"/>
            <path d="M32.8237 5.3826V4.1346C32.8237 3.56884 32.4077 3.25268 31.9252 3.25268C31.4426 3.25268 31.0225 3.56884 31.0225 4.1346V5.3826C31.0225 5.94836 31.4426 6.26452 31.9252 6.26452C32.4077 6.26452 32.8237 5.94836 32.8237 5.3826ZM32.2829 5.37844C32.2829 5.62804 32.1373 5.7778 31.9252 5.7778C31.713 5.7778 31.5633 5.62804 31.5633 5.37844V4.14292C31.5633 3.89332 31.713 3.7394 31.9252 3.7394C32.1373 3.7394 32.2829 3.89332 32.2829 4.14292V5.37844Z" fill="white"/>
            <path d="M-15.0676 10.3996V7.43764H-15.6084L-16.2116 7.9618V8.5442L-15.6084 8.02004V10.3996H-15.0676Z" fill="white"/>
            <path d="M-12.3513 9.5426V8.2946C-12.3513 7.72884 -12.7673 7.41268 -13.2498 7.41268C-13.7324 7.41268 -14.1525 7.72884 -14.1525 8.2946V9.5426C-14.1525 10.1084 -13.7324 10.4245 -13.2498 10.4245C-12.7673 10.4245 -12.3513 10.1084 -12.3513 9.5426ZM-12.8921 9.53844C-12.8921 9.78804 -13.0377 9.9378 -13.2498 9.9378C-13.462 9.9378 -13.6117 9.78804 -13.6117 9.53844V8.30292C-13.6117 8.05332 -13.462 7.8994 -13.2498 7.8994C-13.0377 7.8994 -12.8921 8.05332 -12.8921 8.30292V9.53844Z" fill="white"/>
            <path d="M-10.5501 10.3996V7.43764H-11.0909L-11.6941 7.9618V8.5442L-11.0909 8.02004V10.3996H-10.5501Z" fill="white"/>
            <path d="M-7.83376 9.5426V8.2946C-7.83376 7.72884 -8.24976 7.41268 -8.73232 7.41268C-9.21488 7.41268 -9.63504 7.72884 -9.63504 8.2946V9.5426C-9.63504 10.1084 -9.21488 10.4245 -8.73232 10.4245C-8.24976 10.4245 -7.83376 10.1084 -7.83376 9.5426ZM-8.37456 9.53844C-8.37456 9.78804 -8.52016 9.9378 -8.73232 9.9378C-8.94448 9.9378 -9.09424 9.78804 -9.09424 9.53844V8.30292C-9.09424 8.05332 -8.94448 7.8994 -8.73232 7.8994C-8.52016 7.8994 -8.37456 8.05332 -8.37456 8.30292V9.53844Z" fill="white"/>
            <path d="M-6.03261 10.3996V7.43764H-6.57341L-7.17661 7.9618V8.5442L-6.57341 8.02004V10.3996H-6.03261Z" fill="white"/>
            <path d="M-3.31626 9.5426V8.2946C-3.31626 7.72884 -3.73226 7.41268 -4.21482 7.41268C-4.69738 7.41268 -5.11754 7.72884 -5.11754 8.2946V9.5426C-5.11754 10.1084 -4.69738 10.4245 -4.21482 10.4245C-3.73226 10.4245 -3.31626 10.1084 -3.31626 9.5426ZM-3.85706 9.53844C-3.85706 9.78804 -4.00266 9.9378 -4.21482 9.9378C-4.42698 9.9378 -4.57674 9.78804 -4.57674 9.53844V8.30292C-4.57674 8.05332 -4.42698 7.8994 -4.21482 7.8994C-4.00266 7.8994 -3.85706 8.05332 -3.85706 8.30292V9.53844Z" fill="white"/>
            <path d="M-1.51511 10.3996V7.43764H-2.05591L-2.65911 7.9618V8.5442L-2.05591 8.02004V10.3996H-1.51511Z" fill="white"/>
            <path d="M1.20124 9.5426V8.2946C1.20124 7.72884 0.785238 7.41268 0.302679 7.41268C-0.179882 7.41268 -0.60004 7.72884 -0.60004 8.2946V9.5426C-0.60004 10.1084 -0.179882 10.4245 0.302679 10.4245C0.785238 10.4245 1.20124 10.1084 1.20124 9.5426ZM0.660437 9.53844C0.660437 9.78804 0.514837 9.9378 0.302679 9.9378C0.090519 9.9378 -0.0592403 9.78804 -0.0592403 9.53844V8.30292C-0.0592403 8.05332 0.090519 7.8994 0.302679 7.8994C0.514837 7.8994 0.660437 8.05332 0.660437 8.30292V9.53844Z" fill="white"/>
            <path d="M3.00239 10.3996V7.43764H2.46159L1.85839 7.9618V8.5442L2.46159 8.02004V10.3996H3.00239Z" fill="white"/>
            <path d="M5.71874 9.5426V8.2946C5.71874 7.72884 5.30274 7.41268 4.82018 7.41268C4.33762 7.41268 3.91746 7.72884 3.91746 8.2946V9.5426C3.91746 10.1084 4.33762 10.4245 4.82018 10.4245C5.30274 10.4245 5.71874 10.1084 5.71874 9.5426ZM5.17794 9.53844C5.17794 9.78804 5.03234 9.9378 4.82018 9.9378C4.60802 9.9378 4.45826 9.78804 4.45826 9.53844V8.30292C4.45826 8.05332 4.60802 7.8994 4.82018 7.8994C5.03234 7.8994 5.17794 8.05332 5.17794 8.30292V9.53844Z" fill="white"/>
            <path d="M7.51989 10.3996V7.43764H6.97909L6.37589 7.9618V8.5442L6.97909 8.02004V10.3996H7.51989Z" fill="white"/>
            <path d="M10.2362 9.5426V8.2946C10.2362 7.72884 9.82024 7.41268 9.33768 7.41268C8.85512 7.41268 8.43496 7.72884 8.43496 8.2946V9.5426C8.43496 10.1084 8.85512 10.4245 9.33768 10.4245C9.82024 10.4245 10.2362 10.1084 10.2362 9.5426ZM9.69544 9.53844C9.69544 9.78804 9.54984 9.9378 9.33768 9.9378C9.12551 9.9378 8.97576 9.78804 8.97576 9.53844V8.30292C8.97576 8.05332 9.12551 7.8994 9.33768 7.8994C9.54984 7.8994 9.69544 8.05332 9.69544 8.30292V9.53844Z" fill="white"/>
            <path d="M12.0374 10.3996V7.43764H11.4966L10.8934 7.9618V8.5442L11.4966 8.02004V10.3996H12.0374Z" fill="white"/>
            <path d="M14.7537 9.5426V8.2946C14.7537 7.72884 14.3377 7.41268 13.8552 7.41268C13.3726 7.41268 12.9525 7.72884 12.9525 8.2946V9.5426C12.9525 10.1084 13.3726 10.4245 13.8552 10.4245C14.3377 10.4245 14.7537 10.1084 14.7537 9.5426ZM14.2129 9.53844C14.2129 9.78804 14.0673 9.9378 13.8552 9.9378C13.643 9.9378 13.4933 9.78804 13.4933 9.53844V8.30292C13.4933 8.05332 13.643 7.8994 13.8552 7.8994C14.0673 7.8994 14.2129 8.05332 14.2129 8.30292V9.53844Z" fill="white"/>
            <path d="M16.5549 10.3996V7.43764H16.0141L15.4109 7.9618V8.5442L16.0141 8.02004V10.3996H16.5549Z" fill="white"/>
            <path d="M19.2712 9.5426V8.2946C19.2712 7.72884 18.8552 7.41268 18.3727 7.41268C17.8901 7.41268 17.47 7.72884 17.47 8.2946V9.5426C17.47 10.1084 17.8901 10.4245 18.3727 10.4245C18.8552 10.4245 19.2712 10.1084 19.2712 9.5426ZM18.7304 9.53844C18.7304 9.78804 18.5848 9.9378 18.3727 9.9378C18.1605 9.9378 18.0108 9.78804 18.0108 9.53844V8.30292C18.0108 8.05332 18.1605 7.8994 18.3727 7.8994C18.5848 7.8994 18.7304 8.05332 18.7304 8.30292V9.53844Z" fill="white"/>
            <path d="M21.0724 10.3996V7.43764H20.5316L19.9284 7.9618V8.5442L20.5316 8.02004V10.3996H21.0724Z" fill="white"/>
            <path d="M23.7887 9.5426V8.2946C23.7887 7.72884 23.3727 7.41268 22.8902 7.41268C22.4076 7.41268 21.9875 7.72884 21.9875 8.2946V9.5426C21.9875 10.1084 22.4076 10.4245 22.8902 10.4245C23.3727 10.4245 23.7887 10.1084 23.7887 9.5426ZM23.2479 9.53844C23.2479 9.78804 23.1023 9.9378 22.8902 9.9378C22.678 9.9378 22.5283 9.78804 22.5283 9.53844V8.30292C22.5283 8.05332 22.678 7.8994 22.8902 7.8994C23.1023 7.8994 23.2479 8.05332 23.2479 8.30292V9.53844Z" fill="white"/>
            <path d="M25.5899 10.3996V7.43764H25.0491L24.4459 7.9618V8.5442L25.0491 8.02004V10.3996H25.5899Z" fill="white"/>
            <path d="M28.3062 9.5426V8.2946C28.3062 7.72884 27.8902 7.41268 27.4077 7.41268C26.9251 7.41268 26.505 7.72884 26.505 8.2946V9.5426C26.505 10.1084 26.9251 10.4245 27.4077 10.4245C27.8902 10.4245 28.3062 10.1084 28.3062 9.5426ZM27.7654 9.53844C27.7654 9.78804 27.6198 9.9378 27.4077 9.9378C27.1955 9.9378 27.0458 9.78804 27.0458 9.53844V8.30292C27.0458 8.05332 27.1955 7.8994 27.4077 7.8994C27.6198 7.8994 27.7654 8.05332 27.7654 8.30292V9.53844Z" fill="white"/>
            <path d="M30.1074 10.3996V7.43764H29.5666L28.9634 7.9618V8.5442L29.5666 8.02004V10.3996H30.1074Z" fill="white"/>
            <path d="M32.8237 9.5426V8.2946C32.8237 7.72884 32.4077 7.41268 31.9252 7.41268C31.4426 7.41268 31.0225 7.72884 31.0225 8.2946V9.5426C31.0225 10.1084 31.4426 10.4245 31.9252 10.4245C32.4077 10.4245 32.8237 10.1084 32.8237 9.5426ZM32.2829 9.53844C32.2829 9.78804 32.1373 9.9378 31.9252 9.9378C31.713 9.9378 31.5633 9.78804 31.5633 9.53844V8.30292C31.5633 8.05332 31.713 7.8994 31.9252 7.8994C32.1373 7.8994 32.2829 8.05332 32.2829 8.30292V9.53844Z" fill="white"/>
            <path d="M-15.0676 14.5596V11.5976H-15.6084L-16.2116 12.1218V12.7042L-15.6084 12.18V14.5596H-15.0676Z" fill="white"/>
            <path d="M-12.3513 13.7026V12.4546C-12.3513 11.8888 -12.7673 11.5727 -13.2498 11.5727C-13.7324 11.5727 -14.1525 11.8888 -14.1525 12.4546V13.7026C-14.1525 14.2684 -13.7324 14.5845 -13.2498 14.5845C-12.7673 14.5845 -12.3513 14.2684 -12.3513 13.7026ZM-12.8921 13.6984C-12.8921 13.948 -13.0377 14.0978 -13.2498 14.0978C-13.462 14.0978 -13.6117 13.948 -13.6117 13.6984V12.4629C-13.6117 12.2133 -13.462 12.0594 -13.2498 12.0594C-13.0377 12.0594 -12.8921 12.2133 -12.8921 12.4629V13.6984Z" fill="white"/>
            <path d="M-10.5501 14.5596V11.5976H-11.0909L-11.6941 12.1218V12.7042L-11.0909 12.18V14.5596H-10.5501Z" fill="white"/>
            <path d="M-7.83376 13.7026V12.4546C-7.83376 11.8888 -8.24976 11.5727 -8.73232 11.5727C-9.21488 11.5727 -9.63504 11.8888 -9.63504 12.4546V13.7026C-9.63504 14.2684 -9.21488 14.5845 -8.73232 14.5845C-8.24976 14.5845 -7.83376 14.2684 -7.83376 13.7026ZM-8.37456 13.6984C-8.37456 13.948 -8.52016 14.0978 -8.73232 14.0978C-8.94448 14.0978 -9.09424 13.948 -9.09424 13.6984V12.4629C-9.09424 12.2133 -8.94448 12.0594 -8.73232 12.0594C-8.52016 12.0594 -8.37456 12.2133 -8.37456 12.4629V13.6984Z" fill="white"/>
            <path d="M-6.03261 14.5596V11.5976H-6.57341L-7.17661 12.1218V12.7042L-6.57341 12.18V14.5596H-6.03261Z" fill="white"/>
            <path d="M-3.31626 13.7026V12.4546C-3.31626 11.8888 -3.73226 11.5727 -4.21482 11.5727C-4.69738 11.5727 -5.11754 11.8888 -5.11754 12.4546V13.7026C-5.11754 14.2684 -4.69738 14.5845 -4.21482 14.5845C-3.73226 14.5845 -3.31626 14.2684 -3.31626 13.7026ZM-3.85706 13.6984C-3.85706 13.948 -4.00266 14.0978 -4.21482 14.0978C-4.42698 14.0978 -4.57674 13.948 -4.57674 13.6984V12.4629C-4.57674 12.2133 -4.42698 12.0594 -4.21482 12.0594C-4.00266 12.0594 -3.85706 12.2133 -3.85706 12.4629V13.6984Z" fill="white"/>
            <path d="M-1.51511 14.5596V11.5976H-2.05591L-2.65911 12.1218V12.7042L-2.05591 12.18V14.5596H-1.51511Z" fill="white"/>
            <path d="M1.20124 13.7026V12.4546C1.20124 11.8888 0.785238 11.5727 0.302679 11.5727C-0.179882 11.5727 -0.60004 11.8888 -0.60004 12.4546V13.7026C-0.60004 14.2684 -0.179882 14.5845 0.302679 14.5845C0.785238 14.5845 1.20124 14.2684 1.20124 13.7026ZM0.660437 13.6984C0.660437 13.948 0.514837 14.0978 0.302679 14.0978C0.090519 14.0978 -0.0592403 13.948 -0.0592403 13.6984V12.4629C-0.0592403 12.2133 0.090519 12.0594 0.302679 12.0594C0.514837 12.0594 0.660437 12.2133 0.660437 12.4629V13.6984Z" fill="white"/>
            <path d="M3.00239 14.5596V11.5976H2.46159L1.85839 12.1218V12.7042L2.46159 12.18V14.5596H3.00239Z" fill="white"/>
            <path d="M5.71874 13.7026V12.4546C5.71874 11.8888 5.30274 11.5727 4.82018 11.5727C4.33762 11.5727 3.91746 11.8888 3.91746 12.4546V13.7026C3.91746 14.2684 4.33762 14.5845 4.82018 14.5845C5.30274 14.5845 5.71874 14.2684 5.71874 13.7026ZM5.17794 13.6984C5.17794 13.948 5.03234 14.0978 4.82018 14.0978C4.60802 14.0978 4.45826 13.948 4.45826 13.6984V12.4629C4.45826 12.2133 4.60802 12.0594 4.82018 12.0594C5.03234 12.0594 5.17794 12.2133 5.17794 12.4629V13.6984Z" fill="white"/>
            <path d="M7.51989 14.5596V11.5976H6.97909L6.37589 12.1218V12.7042L6.97909 12.18V14.5596H7.51989Z" fill="white"/>
            <path d="M10.2362 13.7026V12.4546C10.2362 11.8888 9.82024 11.5727 9.33768 11.5727C8.85512 11.5727 8.43496 11.8888 8.43496 12.4546V13.7026C8.43496 14.2684 8.85512 14.5845 9.33768 14.5845C9.82024 14.5845 10.2362 14.2684 10.2362 13.7026ZM9.69544 13.6984C9.69544 13.948 9.54984 14.0978 9.33768 14.0978C9.12551 14.0978 8.97576 13.948 8.97576 13.6984V12.4629C8.97576 12.2133 9.12551 12.0594 9.33768 12.0594C9.54984 12.0594 9.69544 12.2133 9.69544 12.4629V13.6984Z" fill="white"/>
            <path d="M12.0374 14.5596V11.5976H11.4966L10.8934 12.1218V12.7042L11.4966 12.18V14.5596H12.0374Z" fill="white"/>
            <path d="M14.7537 13.7026V12.4546C14.7537 11.8888 14.3377 11.5727 13.8552 11.5727C13.3726 11.5727 12.9525 11.8888 12.9525 12.4546V13.7026C12.9525 14.2684 13.3726 14.5845 13.8552 14.5845C14.3377 14.5845 14.7537 14.2684 14.7537 13.7026ZM14.2129 13.6984C14.2129 13.948 14.0673 14.0978 13.8552 14.0978C13.643 14.0978 13.4933 13.948 13.4933 13.6984V12.4629C13.4933 12.2133 13.643 12.0594 13.8552 12.0594C14.0673 12.0594 14.2129 12.2133 14.2129 12.4629V13.6984Z" fill="white"/>
            <path d="M16.5549 14.5596V11.5976H16.0141L15.4109 12.1218V12.7042L16.0141 12.18V14.5596H16.5549Z" fill="white"/>
            <path d="M19.2712 13.7026V12.4546C19.2712 11.8888 18.8552 11.5727 18.3727 11.5727C17.8901 11.5727 17.47 11.8888 17.47 12.4546V13.7026C17.47 14.2684 17.8901 14.5845 18.3727 14.5845C18.8552 14.5845 19.2712 14.2684 19.2712 13.7026ZM18.7304 13.6984C18.7304 13.948 18.5848 14.0978 18.3727 14.0978C18.1605 14.0978 18.0108 13.948 18.0108 13.6984V12.4629C18.0108 12.2133 18.1605 12.0594 18.3727 12.0594C18.5848 12.0594 18.7304 12.2133 18.7304 12.4629V13.6984Z" fill="white"/>
            <path d="M21.0724 14.5596V11.5976H20.5316L19.9284 12.1218V12.7042L20.5316 12.18V14.5596H21.0724Z" fill="white"/>
            <path d="M23.7887 13.7026V12.4546C23.7887 11.8888 23.3727 11.5727 22.8902 11.5727C22.4076 11.5727 21.9875 11.8888 21.9875 12.4546V13.7026C21.9875 14.2684 22.4076 14.5845 22.8902 14.5845C23.3727 14.5845 23.7887 14.2684 23.7887 13.7026ZM23.2479 13.6984C23.2479 13.948 23.1023 14.0978 22.8902 14.0978C22.678 14.0978 22.5283 13.948 22.5283 13.6984V12.4629C22.5283 12.2133 22.678 12.0594 22.8902 12.0594C23.1023 12.0594 23.2479 12.2133 23.2479 12.4629V13.6984Z" fill="white"/>
            <path d="M25.5899 14.5596V11.5976H25.0491L24.4459 12.1218V12.7042L25.0491 12.18V14.5596H25.5899Z" fill="white"/>
            <path d="M28.3062 13.7026V12.4546C28.3062 11.8888 27.8902 11.5727 27.4077 11.5727C26.9251 11.5727 26.505 11.8888 26.505 12.4546V13.7026C26.505 14.2684 26.9251 14.5845 27.4077 14.5845C27.8902 14.5845 28.3062 14.2684 28.3062 13.7026ZM27.7654 13.6984C27.7654 13.948 27.6198 14.0978 27.4077 14.0978C27.1955 14.0978 27.0458 13.948 27.0458 13.6984V12.4629C27.0458 12.2133 27.1955 12.0594 27.4077 12.0594C27.6198 12.0594 27.7654 12.2133 27.7654 12.4629V13.6984Z" fill="white"/>
            <path d="M30.1074 14.5596V11.5976H29.5666L28.9634 12.1218V12.7042L29.5666 12.18V14.5596H30.1074Z" fill="white"/>
            <path d="M32.8237 13.7026V12.4546C32.8237 11.8888 32.4077 11.5727 31.9252 11.5727C31.4426 11.5727 31.0225 11.8888 31.0225 12.4546V13.7026C31.0225 14.2684 31.4426 14.5845 31.9252 14.5845C32.4077 14.5845 32.8237 14.2684 32.8237 13.7026ZM32.2829 13.6984C32.2829 13.948 32.1373 14.0978 31.9252 14.0978C31.713 14.0978 31.5633 13.948 31.5633 13.6984V12.4629C31.5633 12.2133 31.713 12.0594 31.9252 12.0594C32.1373 12.0594 32.2829 12.2133 32.2829 12.4629V13.6984Z" fill="white"/>
            <path d="M-15.0676 18.7196V15.7576H-15.6084L-16.2116 16.2818V16.8642L-15.6084 16.34V18.7196H-15.0676Z" fill="white"/>
            <path d="M-12.3513 17.8626V16.6146C-12.3513 16.0488 -12.7673 15.7327 -13.2498 15.7327C-13.7324 15.7327 -14.1525 16.0488 -14.1525 16.6146V17.8626C-14.1525 18.4284 -13.7324 18.7445 -13.2498 18.7445C-12.7673 18.7445 -12.3513 18.4284 -12.3513 17.8626ZM-12.8921 17.8584C-12.8921 18.108 -13.0377 18.2578 -13.2498 18.2578C-13.462 18.2578 -13.6117 18.108 -13.6117 17.8584V16.6229C-13.6117 16.3733 -13.462 16.2194 -13.2498 16.2194C-13.0377 16.2194 -12.8921 16.3733 -12.8921 16.6229V17.8584Z" fill="white"/>
            <path d="M-10.5501 18.7196V15.7576H-11.0909L-11.6941 16.2818V16.8642L-11.0909 16.34V18.7196H-10.5501Z" fill="white"/>
            <path d="M-7.83376 17.8626V16.6146C-7.83376 16.0488 -8.24976 15.7327 -8.73232 15.7327C-9.21488 15.7327 -9.63504 16.0488 -9.63504 16.6146V17.8626C-9.63504 18.4284 -9.21488 18.7445 -8.73232 18.7445C-8.24976 18.7445 -7.83376 18.4284 -7.83376 17.8626ZM-8.37456 17.8584C-8.37456 18.108 -8.52016 18.2578 -8.73232 18.2578C-8.94448 18.2578 -9.09424 18.108 -9.09424 17.8584V16.6229C-9.09424 16.3733 -8.94448 16.2194 -8.73232 16.2194C-8.52016 16.2194 -8.37456 16.3733 -8.37456 16.6229V17.8584Z" fill="white"/>
            <path d="M-6.03261 18.7196V15.7576H-6.57341L-7.17661 16.2818V16.8642L-6.57341 16.34V18.7196H-6.03261Z" fill="white"/>
            <path d="M-3.31626 17.8626V16.6146C-3.31626 16.0488 -3.73226 15.7327 -4.21482 15.7327C-4.69738 15.7327 -5.11754 16.0488 -5.11754 16.6146V17.8626C-5.11754 18.4284 -4.69738 18.7445 -4.21482 18.7445C-3.73226 18.7445 -3.31626 18.4284 -3.31626 17.8626ZM-3.85706 17.8584C-3.85706 18.108 -4.00266 18.2578 -4.21482 18.2578C-4.42698 18.2578 -4.57674 18.108 -4.57674 17.8584V16.6229C-4.57674 16.3733 -4.42698 16.2194 -4.21482 16.2194C-4.00266 16.2194 -3.85706 16.3733 -3.85706 16.6229V17.8584Z" fill="white"/>
            <path d="M-1.51511 18.7196V15.7576H-2.05591L-2.65911 16.2818V16.8642L-2.05591 16.34V18.7196H-1.51511Z" fill="white"/>
            <path d="M1.20124 17.8626V16.6146C1.20124 16.0488 0.785238 15.7327 0.302679 15.7327C-0.179882 15.7327 -0.60004 16.0488 -0.60004 16.6146V17.8626C-0.60004 18.4284 -0.179882 18.7445 0.302679 18.7445C0.785238 18.7445 1.20124 18.4284 1.20124 17.8626ZM0.660437 17.8584C0.660437 18.108 0.514837 18.2578 0.302679 18.2578C0.090519 18.2578 -0.0592403 18.108 -0.0592403 17.8584V16.6229C-0.0592403 16.3733 0.090519 16.2194 0.302679 16.2194C0.514837 16.2194 0.660437 16.3733 0.660437 16.6229V17.8584Z" fill="white"/>
            <path d="M3.00239 18.7196V15.7576H2.46159L1.85839 16.2818V16.8642L2.46159 16.34V18.7196H3.00239Z" fill="white"/>
            <path d="M5.71874 17.8626V16.6146C5.71874 16.0488 5.30274 15.7327 4.82018 15.7327C4.33762 15.7327 3.91746 16.0488 3.91746 16.6146V17.8626C3.91746 18.4284 4.33762 18.7445 4.82018 18.7445C5.30274 18.7445 5.71874 18.4284 5.71874 17.8626ZM5.17794 17.8584C5.17794 18.108 5.03234 18.2578 4.82018 18.2578C4.60802 18.2578 4.45826 18.108 4.45826 17.8584V16.6229C4.45826 16.3733 4.60802 16.2194 4.82018 16.2194C5.03234 16.2194 5.17794 16.3733 5.17794 16.6229V17.8584Z" fill="white"/>
            <path d="M7.51989 18.7196V15.7576H6.97909L6.37589 16.2818V16.8642L6.97909 16.34V18.7196H7.51989Z" fill="white"/>
            <path d="M10.2362 17.8626V16.6146C10.2362 16.0488 9.82024 15.7327 9.33768 15.7327C8.85512 15.7327 8.43496 16.0488 8.43496 16.6146V17.8626C8.43496 18.4284 8.85512 18.7445 9.33768 18.7445C9.82024 18.7445 10.2362 18.4284 10.2362 17.8626ZM9.69544 17.8584C9.69544 18.108 9.54984 18.2578 9.33768 18.2578C9.12551 18.2578 8.97576 18.108 8.97576 17.8584V16.6229C8.97576 16.3733 9.12551 16.2194 9.33768 16.2194C9.54984 16.2194 9.69544 16.3733 9.69544 16.6229V17.8584Z" fill="white"/>
            <path d="M12.0374 18.7196V15.7576H11.4966L10.8934 16.2818V16.8642L11.4966 16.34V18.7196H12.0374Z" fill="white"/>
            <path d="M14.7537 17.8626V16.6146C14.7537 16.0488 14.3377 15.7327 13.8552 15.7327C13.3726 15.7327 12.9525 16.0488 12.9525 16.6146V17.8626C12.9525 18.4284 13.3726 18.7445 13.8552 18.7445C14.3377 18.7445 14.7537 18.4284 14.7537 17.8626ZM14.2129 17.8584C14.2129 18.108 14.0673 18.2578 13.8552 18.2578C13.643 18.2578 13.4933 18.108 13.4933 17.8584V16.6229C13.4933 16.3733 13.643 16.2194 13.8552 16.2194C14.0673 16.2194 14.2129 16.3733 14.2129 16.6229V17.8584Z" fill="white"/>
            <path d="M16.5549 18.7196V15.7576H16.0141L15.4109 16.2818V16.8642L16.0141 16.34V18.7196H16.5549Z" fill="white"/>
            <path d="M19.2712 17.8626V16.6146C19.2712 16.0488 18.8552 15.7327 18.3727 15.7327C17.8901 15.7327 17.47 16.0488 17.47 16.6146V17.8626C17.47 18.4284 17.8901 18.7445 18.3727 18.7445C18.8552 18.7445 19.2712 18.4284 19.2712 17.8626ZM18.7304 17.8584C18.7304 18.108 18.5848 18.2578 18.3727 18.2578C18.1605 18.2578 18.0108 18.108 18.0108 17.8584V16.6229C18.0108 16.3733 18.1605 16.2194 18.3727 16.2194C18.5848 16.2194 18.7304 16.3733 18.7304 16.6229V17.8584Z" fill="white"/>
            <path d="M21.0724 18.7196V15.7576H20.5316L19.9284 16.2818V16.8642L20.5316 16.34V18.7196H21.0724Z" fill="white"/>
            <path d="M23.7887 17.8626V16.6146C23.7887 16.0488 23.3727 15.7327 22.8902 15.7327C22.4076 15.7327 21.9875 16.0488 21.9875 16.6146V17.8626C21.9875 18.4284 22.4076 18.7445 22.8902 18.7445C23.3727 18.7445 23.7887 18.4284 23.7887 17.8626ZM23.2479 17.8584C23.2479 18.108 23.1023 18.2578 22.8902 18.2578C22.678 18.2578 22.5283 18.108 22.5283 17.8584V16.6229C22.5283 16.3733 22.678 16.2194 22.8902 16.2194C23.1023 16.2194 23.2479 16.3733 23.2479 16.6229V17.8584Z" fill="white"/>
            <path d="M25.5899 18.7196V15.7576H25.0491L24.4459 16.2818V16.8642L25.0491 16.34V18.7196H25.5899Z" fill="white"/>
            <path d="M28.3062 17.8626V16.6146C28.3062 16.0488 27.8902 15.7327 27.4077 15.7327C26.9251 15.7327 26.505 16.0488 26.505 16.6146V17.8626C26.505 18.4284 26.9251 18.7445 27.4077 18.7445C27.8902 18.7445 28.3062 18.4284 28.3062 17.8626ZM27.7654 17.8584C27.7654 18.108 27.6198 18.2578 27.4077 18.2578C27.1955 18.2578 27.0458 18.108 27.0458 17.8584V16.6229C27.0458 16.3733 27.1955 16.2194 27.4077 16.2194C27.6198 16.2194 27.7654 16.3733 27.7654 16.6229V17.8584Z" fill="white"/>
            <path d="M30.1074 18.7196V15.7576H29.5666L28.9634 16.2818V16.8642L29.5666 16.34V18.7196H30.1074Z" fill="white"/>
            <path d="M32.8237 17.8626V16.6146C32.8237 16.0488 32.4077 15.7327 31.9252 15.7327C31.4426 15.7327 31.0225 16.0488 31.0225 16.6146V17.8626C31.0225 18.4284 31.4426 18.7445 31.9252 18.7445C32.4077 18.7445 32.8237 18.4284 32.8237 17.8626ZM32.2829 17.8584C32.2829 18.108 32.1373 18.2578 31.9252 18.2578C31.713 18.2578 31.5633 18.108 31.5633 17.8584V16.6229C31.5633 16.3733 31.713 16.2194 31.9252 16.2194C32.1373 16.2194 32.2829 16.3733 32.2829 16.6229V17.8584Z" fill="white"/>
            <path d="M-15.0676 22.8796V19.9176H-15.6084L-16.2116 20.4418V21.0242L-15.6084 20.5V22.8796H-15.0676Z" fill="white"/>
            <path d="M-12.3513 22.0226V20.7746C-12.3513 20.2088 -12.7673 19.8927 -13.2498 19.8927C-13.7324 19.8927 -14.1525 20.2088 -14.1525 20.7746V22.0226C-14.1525 22.5884 -13.7324 22.9045 -13.2498 22.9045C-12.7673 22.9045 -12.3513 22.5884 -12.3513 22.0226ZM-12.8921 22.0184C-12.8921 22.268 -13.0377 22.4178 -13.2498 22.4178C-13.462 22.4178 -13.6117 22.268 -13.6117 22.0184V20.7829C-13.6117 20.5333 -13.462 20.3794 -13.2498 20.3794C-13.0377 20.3794 -12.8921 20.5333 -12.8921 20.7829V22.0184Z" fill="white"/>
            <path d="M-10.5501 22.8796V19.9176H-11.0909L-11.6941 20.4418V21.0242L-11.0909 20.5V22.8796H-10.5501Z" fill="white"/>
            <path d="M-7.83376 22.0226V20.7746C-7.83376 20.2088 -8.24976 19.8927 -8.73232 19.8927C-9.21488 19.8927 -9.63504 20.2088 -9.63504 20.7746V22.0226C-9.63504 22.5884 -9.21488 22.9045 -8.73232 22.9045C-8.24976 22.9045 -7.83376 22.5884 -7.83376 22.0226ZM-8.37456 22.0184C-8.37456 22.268 -8.52016 22.4178 -8.73232 22.4178C-8.94448 22.4178 -9.09424 22.268 -9.09424 22.0184V20.7829C-9.09424 20.5333 -8.94448 20.3794 -8.73232 20.3794C-8.52016 20.3794 -8.37456 20.5333 -8.37456 20.7829V22.0184Z" fill="white"/>
            <path d="M-6.03261 22.8796V19.9176H-6.57341L-7.17661 20.4418V21.0242L-6.57341 20.5V22.8796H-6.03261Z" fill="white"/>
            <path d="M-3.31626 22.0226V20.7746C-3.31626 20.2088 -3.73226 19.8927 -4.21482 19.8927C-4.69738 19.8927 -5.11754 20.2088 -5.11754 20.7746V22.0226C-5.11754 22.5884 -4.69738 22.9045 -4.21482 22.9045C-3.73226 22.9045 -3.31626 22.5884 -3.31626 22.0226ZM-3.85706 22.0184C-3.85706 22.268 -4.00266 22.4178 -4.21482 22.4178C-4.42698 22.4178 -4.57674 22.268 -4.57674 22.0184V20.7829C-4.57674 20.5333 -4.42698 20.3794 -4.21482 20.3794C-4.00266 20.3794 -3.85706 20.5333 -3.85706 20.7829V22.0184Z" fill="white"/>
            <path d="M-1.51511 22.8796V19.9176H-2.05591L-2.65911 20.4418V21.0242L-2.05591 20.5V22.8796H-1.51511Z" fill="white"/>
            <path d="M1.20124 22.0226V20.7746C1.20124 20.2088 0.785238 19.8927 0.302679 19.8927C-0.179882 19.8927 -0.60004 20.2088 -0.60004 20.7746V22.0226C-0.60004 22.5884 -0.179882 22.9045 0.302679 22.9045C0.785238 22.9045 1.20124 22.5884 1.20124 22.0226ZM0.660437 22.0184C0.660437 22.268 0.514837 22.4178 0.302679 22.4178C0.090519 22.4178 -0.0592403 22.268 -0.0592403 22.0184V20.7829C-0.0592403 20.5333 0.090519 20.3794 0.302679 20.3794C0.514837 20.3794 0.660437 20.5333 0.660437 20.7829V22.0184Z" fill="white"/>
            <path d="M3.00239 22.8796V19.9176H2.46159L1.85839 20.4418V21.0242L2.46159 20.5V22.8796H3.00239Z" fill="white"/>
            <path d="M5.71874 22.0226V20.7746C5.71874 20.2088 5.30274 19.8927 4.82018 19.8927C4.33762 19.8927 3.91746 20.2088 3.91746 20.7746V22.0226C3.91746 22.5884 4.33762 22.9045 4.82018 22.9045C5.30274 22.9045 5.71874 22.5884 5.71874 22.0226ZM5.17794 22.0184C5.17794 22.268 5.03234 22.4178 4.82018 22.4178C4.60802 22.4178 4.45826 22.268 4.45826 22.0184V20.7829C4.45826 20.5333 4.60802 20.3794 4.82018 20.3794C5.03234 20.3794 5.17794 20.5333 5.17794 20.7829V22.0184Z" fill="white"/>
            <path d="M7.51989 22.8796V19.9176H6.97909L6.37589 20.4418V21.0242L6.97909 20.5V22.8796H7.51989Z" fill="white"/>
            <path d="M10.2362 22.0226V20.7746C10.2362 20.2088 9.82024 19.8927 9.33768 19.8927C8.85512 19.8927 8.43496 20.2088 8.43496 20.7746V22.0226C8.43496 22.5884 8.85512 22.9045 9.33768 22.9045C9.82024 22.9045 10.2362 22.5884 10.2362 22.0226ZM9.69544 22.0184C9.69544 22.268 9.54984 22.4178 9.33768 22.4178C9.12551 22.4178 8.97576 22.268 8.97576 22.0184V20.7829C8.97576 20.5333 9.12551 20.3794 9.33768 20.3794C9.54984 20.3794 9.69544 20.5333 9.69544 20.7829V22.0184Z" fill="white"/>
            <path d="M12.0374 22.8796V19.9176H11.4966L10.8934 20.4418V21.0242L11.4966 20.5V22.8796H12.0374Z" fill="white"/>
            <path d="M14.7537 22.0226V20.7746C14.7537 20.2088 14.3377 19.8927 13.8552 19.8927C13.3726 19.8927 12.9525 20.2088 12.9525 20.7746V22.0226C12.9525 22.5884 13.3726 22.9045 13.8552 22.9045C14.3377 22.9045 14.7537 22.5884 14.7537 22.0226ZM14.2129 22.0184C14.2129 22.268 14.0673 22.4178 13.8552 22.4178C13.643 22.4178 13.4933 22.268 13.4933 22.0184V20.7829C13.4933 20.5333 13.643 20.3794 13.8552 20.3794C14.0673 20.3794 14.2129 20.5333 14.2129 20.7829V22.0184Z" fill="white"/>
            <path d="M16.5549 22.8796V19.9176H16.0141L15.4109 20.4418V21.0242L16.0141 20.5V22.8796H16.5549Z" fill="white"/>
            <path d="M19.2712 22.0226V20.7746C19.2712 20.2088 18.8552 19.8927 18.3727 19.8927C17.8901 19.8927 17.47 20.2088 17.47 20.7746V22.0226C17.47 22.5884 17.8901 22.9045 18.3727 22.9045C18.8552 22.9045 19.2712 22.5884 19.2712 22.0226ZM18.7304 22.0184C18.7304 22.268 18.5848 22.4178 18.3727 22.4178C18.1605 22.4178 18.0108 22.268 18.0108 22.0184V20.7829C18.0108 20.5333 18.1605 20.3794 18.3727 20.3794C18.5848 20.3794 18.7304 20.5333 18.7304 20.7829V22.0184Z" fill="white"/>
            <path d="M21.0724 22.8796V19.9176H20.5316L19.9284 20.4418V21.0242L20.5316 20.5V22.8796H21.0724Z" fill="white"/>
            <path d="M23.7887 22.0226V20.7746C23.7887 20.2088 23.3727 19.8927 22.8902 19.8927C22.4076 19.8927 21.9875 20.2088 21.9875 20.7746V22.0226C21.9875 22.5884 22.4076 22.9045 22.8902 22.9045C23.3727 22.9045 23.7887 22.5884 23.7887 22.0226ZM23.2479 22.0184C23.2479 22.268 23.1023 22.4178 22.8902 22.4178C22.678 22.4178 22.5283 22.268 22.5283 22.0184V20.7829C22.5283 20.5333 22.678 20.3794 22.8902 20.3794C23.1023 20.3794 23.2479 20.5333 23.2479 20.7829V22.0184Z" fill="white"/>
            <path d="M25.5899 22.8796V19.9176H25.0491L24.4459 20.4418V21.0242L25.0491 20.5V22.8796H25.5899Z" fill="white"/>
            <path d="M28.3062 22.0226V20.7746C28.3062 20.2088 27.8902 19.8927 27.4077 19.8927C26.9251 19.8927 26.505 20.2088 26.505 20.7746V22.0226C26.505 22.5884 26.9251 22.9045 27.4077 22.9045C27.8902 22.9045 28.3062 22.5884 28.3062 22.0226ZM27.7654 22.0184C27.7654 22.268 27.6198 22.4178 27.4077 22.4178C27.1955 22.4178 27.0458 22.268 27.0458 22.0184V20.7829C27.0458 20.5333 27.1955 20.3794 27.4077 20.3794C27.6198 20.3794 27.7654 20.5333 27.7654 20.7829V22.0184Z" fill="white"/>
            <path d="M30.1074 22.8796V19.9176H29.5666L28.9634 20.4418V21.0242L29.5666 20.5V22.8796H30.1074Z" fill="white"/>
            <path d="M32.8237 22.0226V20.7746C32.8237 20.2088 32.4077 19.8927 31.9252 19.8927C31.4426 19.8927 31.0225 20.2088 31.0225 20.7746V22.0226C31.0225 22.5884 31.4426 22.9045 31.9252 22.9045C32.4077 22.9045 32.8237 22.5884 32.8237 22.0226ZM32.2829 22.0184C32.2829 22.268 32.1373 22.4178 31.9252 22.4178C31.713 22.4178 31.5633 22.268 31.5633 22.0184V20.7829C31.5633 20.5333 31.713 20.3794 31.9252 20.3794C32.1373 20.3794 32.2829 20.5333 32.2829 20.7829V22.0184Z" fill="white"/>
            <path d="M-15.0676 27.0396V24.0776H-15.6084L-16.2116 24.6018V25.1842L-15.6084 24.66V27.0396H-15.0676Z" fill="white"/>
            <path d="M-12.3513 26.1826V24.9346C-12.3513 24.3688 -12.7673 24.0527 -13.2498 24.0527C-13.7324 24.0527 -14.1525 24.3688 -14.1525 24.9346V26.1826C-14.1525 26.7484 -13.7324 27.0645 -13.2498 27.0645C-12.7673 27.0645 -12.3513 26.7484 -12.3513 26.1826ZM-12.8921 26.1784C-12.8921 26.428 -13.0377 26.5778 -13.2498 26.5778C-13.462 26.5778 -13.6117 26.428 -13.6117 26.1784V24.9429C-13.6117 24.6933 -13.462 24.5394 -13.2498 24.5394C-13.0377 24.5394 -12.8921 24.6933 -12.8921 24.9429V26.1784Z" fill="white"/>
            <path d="M-10.5501 27.0396V24.0776H-11.0909L-11.6941 24.6018V25.1842L-11.0909 24.66V27.0396H-10.5501Z" fill="white"/>
            <path d="M-7.83376 26.1826V24.9346C-7.83376 24.3688 -8.24976 24.0527 -8.73232 24.0527C-9.21488 24.0527 -9.63504 24.3688 -9.63504 24.9346V26.1826C-9.63504 26.7484 -9.21488 27.0645 -8.73232 27.0645C-8.24976 27.0645 -7.83376 26.7484 -7.83376 26.1826ZM-8.37456 26.1784C-8.37456 26.428 -8.52016 26.5778 -8.73232 26.5778C-8.94448 26.5778 -9.09424 26.428 -9.09424 26.1784V24.9429C-9.09424 24.6933 -8.94448 24.5394 -8.73232 24.5394C-8.52016 24.5394 -8.37456 24.6933 -8.37456 24.9429V26.1784Z" fill="white"/>
            <path d="M-6.03261 27.0396V24.0776H-6.57341L-7.17661 24.6018V25.1842L-6.57341 24.66V27.0396H-6.03261Z" fill="white"/>
            <path d="M-3.31626 26.1826V24.9346C-3.31626 24.3688 -3.73226 24.0527 -4.21482 24.0527C-4.69738 24.0527 -5.11754 24.3688 -5.11754 24.9346V26.1826C-5.11754 26.7484 -4.69738 27.0645 -4.21482 27.0645C-3.73226 27.0645 -3.31626 26.7484 -3.31626 26.1826ZM-3.85706 26.1784C-3.85706 26.428 -4.00266 26.5778 -4.21482 26.5778C-4.42698 26.5778 -4.57674 26.428 -4.57674 26.1784V24.9429C-4.57674 24.6933 -4.42698 24.5394 -4.21482 24.5394C-4.00266 24.5394 -3.85706 24.6933 -3.85706 24.9429V26.1784Z" fill="white"/>
            <path d="M-1.51511 27.0396V24.0776H-2.05591L-2.65911 24.6018V25.1842L-2.05591 24.66V27.0396H-1.51511Z" fill="white"/>
            <path d="M1.20124 26.1826V24.9346C1.20124 24.3688 0.785238 24.0527 0.302679 24.0527C-0.179882 24.0527 -0.60004 24.3688 -0.60004 24.9346V26.1826C-0.60004 26.7484 -0.179882 27.0645 0.302679 27.0645C0.785238 27.0645 1.20124 26.7484 1.20124 26.1826ZM0.660437 26.1784C0.660437 26.428 0.514837 26.5778 0.302679 26.5778C0.090519 26.5778 -0.0592403 26.428 -0.0592403 26.1784V24.9429C-0.0592403 24.6933 0.090519 24.5394 0.302679 24.5394C0.514837 24.5394 0.660437 24.6933 0.660437 24.9429V26.1784Z" fill="white"/>
            <path d="M3.00239 27.0396V24.0776H2.46159L1.85839 24.6018V25.1842L2.46159 24.66V27.0396H3.00239Z" fill="white"/>
            <path d="M5.71874 26.1826V24.9346C5.71874 24.3688 5.30274 24.0527 4.82018 24.0527C4.33762 24.0527 3.91746 24.3688 3.91746 24.9346V26.1826C3.91746 26.7484 4.33762 27.0645 4.82018 27.0645C5.30274 27.0645 5.71874 26.7484 5.71874 26.1826ZM5.17794 26.1784C5.17794 26.428 5.03234 26.5778 4.82018 26.5778C4.60802 26.5778 4.45826 26.428 4.45826 26.1784V24.9429C4.45826 24.6933 4.60802 24.5394 4.82018 24.5394C5.03234 24.5394 5.17794 24.6933 5.17794 24.9429V26.1784Z" fill="white"/>
            <path d="M7.51989 27.0396V24.0776H6.97909L6.37589 24.6018V25.1842L6.97909 24.66V27.0396H7.51989Z" fill="white"/>
            <path d="M10.2362 26.1826V24.9346C10.2362 24.3688 9.82024 24.0527 9.33768 24.0527C8.85512 24.0527 8.43496 24.3688 8.43496 24.9346V26.1826C8.43496 26.7484 8.85512 27.0645 9.33768 27.0645C9.82024 27.0645 10.2362 26.7484 10.2362 26.1826ZM9.69544 26.1784C9.69544 26.428 9.54984 26.5778 9.33768 26.5778C9.12551 26.5778 8.97576 26.428 8.97576 26.1784V24.9429C8.97576 24.6933 9.12551 24.5394 9.33768 24.5394C9.54984 24.5394 9.69544 24.6933 9.69544 24.9429V26.1784Z" fill="white"/>
            <path d="M12.0374 27.0396V24.0776H11.4966L10.8934 24.6018V25.1842L11.4966 24.66V27.0396H12.0374Z" fill="white"/>
            <path d="M14.7537 26.1826V24.9346C14.7537 24.3688 14.3377 24.0527 13.8552 24.0527C13.3726 24.0527 12.9525 24.3688 12.9525 24.9346V26.1826C12.9525 26.7484 13.3726 27.0645 13.8552 27.0645C14.3377 27.0645 14.7537 26.7484 14.7537 26.1826ZM14.2129 26.1784C14.2129 26.428 14.0673 26.5778 13.8552 26.5778C13.643 26.5778 13.4933 26.428 13.4933 26.1784V24.9429C13.4933 24.6933 13.643 24.5394 13.8552 24.5394C14.0673 24.5394 14.2129 24.6933 14.2129 24.9429V26.1784Z" fill="white"/>
            <path d="M16.5549 27.0396V24.0776H16.0141L15.4109 24.6018V25.1842L16.0141 24.66V27.0396H16.5549Z" fill="white"/>
            <path d="M19.2712 26.1826V24.9346C19.2712 24.3688 18.8552 24.0527 18.3727 24.0527C17.8901 24.0527 17.47 24.3688 17.47 24.9346V26.1826C17.47 26.7484 17.8901 27.0645 18.3727 27.0645C18.8552 27.0645 19.2712 26.7484 19.2712 26.1826ZM18.7304 26.1784C18.7304 26.428 18.5848 26.5778 18.3727 26.5778C18.1605 26.5778 18.0108 26.428 18.0108 26.1784V24.9429C18.0108 24.6933 18.1605 24.5394 18.3727 24.5394C18.5848 24.5394 18.7304 24.6933 18.7304 24.9429V26.1784Z" fill="white"/>
            <path d="M21.0724 27.0396V24.0776H20.5316L19.9284 24.6018V25.1842L20.5316 24.66V27.0396H21.0724Z" fill="white"/>
            <path d="M23.7887 26.1826V24.9346C23.7887 24.3688 23.3727 24.0527 22.8902 24.0527C22.4076 24.0527 21.9875 24.3688 21.9875 24.9346V26.1826C21.9875 26.7484 22.4076 27.0645 22.8902 27.0645C23.3727 27.0645 23.7887 26.7484 23.7887 26.1826ZM23.2479 26.1784C23.2479 26.428 23.1023 26.5778 22.8902 26.5778C22.678 26.5778 22.5283 26.428 22.5283 26.1784V24.9429C22.5283 24.6933 22.678 24.5394 22.8902 24.5394C23.1023 24.5394 23.2479 24.6933 23.2479 24.9429V26.1784Z" fill="white"/>
            <path d="M25.5899 27.0396V24.0776H25.0491L24.4459 24.6018V25.1842L25.0491 24.66V27.0396H25.5899Z" fill="white"/>
            <path d="M28.3062 26.1826V24.9346C28.3062 24.3688 27.8902 24.0527 27.4077 24.0527C26.9251 24.0527 26.505 24.3688 26.505 24.9346V26.1826C26.505 26.7484 26.9251 27.0645 27.4077 27.0645C27.8902 27.0645 28.3062 26.7484 28.3062 26.1826ZM27.7654 26.1784C27.7654 26.428 27.6198 26.5778 27.4077 26.5778C27.1955 26.5778 27.0458 26.428 27.0458 26.1784V24.9429C27.0458 24.6933 27.1955 24.5394 27.4077 24.5394C27.6198 24.5394 27.7654 24.6933 27.7654 24.9429V26.1784Z" fill="white"/>
            <path d="M30.1074 27.0396V24.0776H29.5666L28.9634 24.6018V25.1842L29.5666 24.66V27.0396H30.1074Z" fill="white"/>
            <path d="M32.8237 26.1826V24.9346C32.8237 24.3688 32.4077 24.0527 31.9252 24.0527C31.4426 24.0527 31.0225 24.3688 31.0225 24.9346V26.1826C31.0225 26.7484 31.4426 27.0645 31.9252 27.0645C32.4077 27.0645 32.8237 26.7484 32.8237 26.1826ZM32.2829 26.1784C32.2829 26.428 32.1373 26.5778 31.9252 26.5778C31.713 26.5778 31.5633 26.428 31.5633 26.1784V24.9429C31.5633 24.6933 31.713 24.5394 31.9252 24.5394C32.1373 24.5394 32.2829 24.6933 32.2829 24.9429V26.1784Z" fill="white"/>
            <path d="M-15.0676 31.1996V28.2376H-15.6084L-16.2116 28.7618V29.3442L-15.6084 28.82V31.1996H-15.0676Z" fill="white"/>
            <path d="M-12.3513 30.3426V29.0946C-12.3513 28.5288 -12.7673 28.2127 -13.2498 28.2127C-13.7324 28.2127 -14.1525 28.5288 -14.1525 29.0946V30.3426C-14.1525 30.9084 -13.7324 31.2245 -13.2498 31.2245C-12.7673 31.2245 -12.3513 30.9084 -12.3513 30.3426ZM-12.8921 30.3384C-12.8921 30.588 -13.0377 30.7378 -13.2498 30.7378C-13.462 30.7378 -13.6117 30.588 -13.6117 30.3384V29.1029C-13.6117 28.8533 -13.462 28.6994 -13.2498 28.6994C-13.0377 28.6994 -12.8921 28.8533 -12.8921 29.1029V30.3384Z" fill="white"/>
            <path d="M-10.5501 31.1996V28.2376H-11.0909L-11.6941 28.7618V29.3442L-11.0909 28.82V31.1996H-10.5501Z" fill="white"/>
            <path d="M-7.83376 30.3426V29.0946C-7.83376 28.5288 -8.24976 28.2127 -8.73232 28.2127C-9.21488 28.2127 -9.63504 28.5288 -9.63504 29.0946V30.3426C-9.63504 30.9084 -9.21488 31.2245 -8.73232 31.2245C-8.24976 31.2245 -7.83376 30.9084 -7.83376 30.3426ZM-8.37456 30.3384C-8.37456 30.588 -8.52016 30.7378 -8.73232 30.7378C-8.94448 30.7378 -9.09424 30.588 -9.09424 30.3384V29.1029C-9.09424 28.8533 -8.94448 28.6994 -8.73232 28.6994C-8.52016 28.6994 -8.37456 28.8533 -8.37456 29.1029V30.3384Z" fill="white"/>
            <path d="M-6.03261 31.1996V28.2376H-6.57341L-7.17661 28.7618V29.3442L-6.57341 28.82V31.1996H-6.03261Z" fill="white"/>
            <path d="M-3.31626 30.3426V29.0946C-3.31626 28.5288 -3.73226 28.2127 -4.21482 28.2127C-4.69738 28.2127 -5.11754 28.5288 -5.11754 29.0946V30.3426C-5.11754 30.9084 -4.69738 31.2245 -4.21482 31.2245C-3.73226 31.2245 -3.31626 30.9084 -3.31626 30.3426ZM-3.85706 30.3384C-3.85706 30.588 -4.00266 30.7378 -4.21482 30.7378C-4.42698 30.7378 -4.57674 30.588 -4.57674 30.3384V29.1029C-4.57674 28.8533 -4.42698 28.6994 -4.21482 28.6994C-4.00266 28.6994 -3.85706 28.8533 -3.85706 29.1029V30.3384Z" fill="white"/>
            <path d="M-1.51511 31.1996V28.2376H-2.05591L-2.65911 28.7618V29.3442L-2.05591 28.82V31.1996H-1.51511Z" fill="white"/>
            <path d="M1.20124 30.3426V29.0946C1.20124 28.5288 0.785238 28.2127 0.302679 28.2127C-0.179882 28.2127 -0.60004 28.5288 -0.60004 29.0946V30.3426C-0.60004 30.9084 -0.179882 31.2245 0.302679 31.2245C0.785238 31.2245 1.20124 30.9084 1.20124 30.3426ZM0.660437 30.3384C0.660437 30.588 0.514837 30.7378 0.302679 30.7378C0.090519 30.7378 -0.0592403 30.588 -0.0592403 30.3384V29.1029C-0.0592403 28.8533 0.090519 28.6994 0.302679 28.6994C0.514837 28.6994 0.660437 28.8533 0.660437 29.1029V30.3384Z" fill="white"/>
            <path d="M3.00239 31.1996V28.2376H2.46159L1.85839 28.7618V29.3442L2.46159 28.82V31.1996H3.00239Z" fill="white"/>
            <path d="M5.71874 30.3426V29.0946C5.71874 28.5288 5.30274 28.2127 4.82018 28.2127C4.33762 28.2127 3.91746 28.5288 3.91746 29.0946V30.3426C3.91746 30.9084 4.33762 31.2245 4.82018 31.2245C5.30274 31.2245 5.71874 30.9084 5.71874 30.3426ZM5.17794 30.3384C5.17794 30.588 5.03234 30.7378 4.82018 30.7378C4.60802 30.7378 4.45826 30.588 4.45826 30.3384V29.1029C4.45826 28.8533 4.60802 28.6994 4.82018 28.6994C5.03234 28.6994 5.17794 28.8533 5.17794 29.1029V30.3384Z" fill="white"/>
            <path d="M7.51989 31.1996V28.2376H6.97909L6.37589 28.7618V29.3442L6.97909 28.82V31.1996H7.51989Z" fill="white"/>
            <path d="M10.2362 30.3426V29.0946C10.2362 28.5288 9.82024 28.2127 9.33768 28.2127C8.85512 28.2127 8.43496 28.5288 8.43496 29.0946V30.3426C8.43496 30.9084 8.85512 31.2245 9.33768 31.2245C9.82024 31.2245 10.2362 30.9084 10.2362 30.3426ZM9.69544 30.3384C9.69544 30.588 9.54984 30.7378 9.33768 30.7378C9.12551 30.7378 8.97576 30.588 8.97576 30.3384V29.1029C8.97576 28.8533 9.12551 28.6994 9.33768 28.6994C9.54984 28.6994 9.69544 28.8533 9.69544 29.1029V30.3384Z" fill="white"/>
            <path d="M12.0374 31.1996V28.2376H11.4966L10.8934 28.7618V29.3442L11.4966 28.82V31.1996H12.0374Z" fill="white"/>
            <path d="M14.7537 30.3426V29.0946C14.7537 28.5288 14.3377 28.2127 13.8552 28.2127C13.3726 28.2127 12.9525 28.5288 12.9525 29.0946V30.3426C12.9525 30.9084 13.3726 31.2245 13.8552 31.2245C14.3377 31.2245 14.7537 30.9084 14.7537 30.3426ZM14.2129 30.3384C14.2129 30.588 14.0673 30.7378 13.8552 30.7378C13.643 30.7378 13.4933 30.588 13.4933 30.3384V29.1029C13.4933 28.8533 13.643 28.6994 13.8552 28.6994C14.0673 28.6994 14.2129 28.8533 14.2129 29.1029V30.3384Z" fill="white"/>
            <path d="M16.5549 31.1996V28.2376H16.0141L15.4109 28.7618V29.3442L16.0141 28.82V31.1996H16.5549Z" fill="white"/>
            <path d="M19.2712 30.3426V29.0946C19.2712 28.5288 18.8552 28.2127 18.3727 28.2127C17.8901 28.2127 17.47 28.5288 17.47 29.0946V30.3426C17.47 30.9084 17.8901 31.2245 18.3727 31.2245C18.8552 31.2245 19.2712 30.9084 19.2712 30.3426ZM18.7304 30.3384C18.7304 30.588 18.5848 30.7378 18.3727 30.7378C18.1605 30.7378 18.0108 30.588 18.0108 30.3384V29.1029C18.0108 28.8533 18.1605 28.6994 18.3727 28.6994C18.5848 28.6994 18.7304 28.8533 18.7304 29.1029V30.3384Z" fill="white"/>
            <path d="M21.0724 31.1996V28.2376H20.5316L19.9284 28.7618V29.3442L20.5316 28.82V31.1996H21.0724Z" fill="white"/>
            <path d="M23.7887 30.3426V29.0946C23.7887 28.5288 23.3727 28.2127 22.8902 28.2127C22.4076 28.2127 21.9875 28.5288 21.9875 29.0946V30.3426C21.9875 30.9084 22.4076 31.2245 22.8902 31.2245C23.3727 31.2245 23.7887 30.9084 23.7887 30.3426ZM23.2479 30.3384C23.2479 30.588 23.1023 30.7378 22.8902 30.7378C22.678 30.7378 22.5283 30.588 22.5283 30.3384V29.1029C22.5283 28.8533 22.678 28.6994 22.8902 28.6994C23.1023 28.6994 23.2479 28.8533 23.2479 29.1029V30.3384Z" fill="white"/>
            <path d="M25.5899 31.1996V28.2376H25.0491L24.4459 28.7618V29.3442L25.0491 28.82V31.1996H25.5899Z" fill="white"/>
            <path d="M28.3062 30.3426V29.0946C28.3062 28.5288 27.8902 28.2127 27.4077 28.2127C26.9251 28.2127 26.505 28.5288 26.505 29.0946V30.3426C26.505 30.9084 26.9251 31.2245 27.4077 31.2245C27.8902 31.2245 28.3062 30.9084 28.3062 30.3426ZM27.7654 30.3384C27.7654 30.588 27.6198 30.7378 27.4077 30.7378C27.1955 30.7378 27.0458 30.588 27.0458 30.3384V29.1029C27.0458 28.8533 27.1955 28.6994 27.4077 28.6994C27.6198 28.6994 27.7654 28.8533 27.7654 29.1029V30.3384Z" fill="white"/>
            <path d="M30.1074 31.1996V28.2376H29.5666L28.9634 28.7618V29.3442L29.5666 28.82V31.1996H30.1074Z" fill="white"/>
            <path d="M32.8237 30.3426V29.0946C32.8237 28.5288 32.4077 28.2127 31.9252 28.2127C31.4426 28.2127 31.0225 28.5288 31.0225 29.0946V30.3426C31.0225 30.9084 31.4426 31.2245 31.9252 31.2245C32.4077 31.2245 32.8237 30.9084 32.8237 30.3426ZM32.2829 30.3384C32.2829 30.588 32.1373 30.7378 31.9252 30.7378C31.713 30.7378 31.5633 30.588 31.5633 30.3384V29.1029C31.5633 28.8533 31.713 28.6994 31.9252 28.6994C32.1373 28.6994 32.2829 28.8533 32.2829 29.1029V30.3384Z" fill="white"/>
        </g>
    </g>
    <path d="M4.16 8.32C6.4575 8.32 8.32 6.45751 8.32 4.16C8.32 1.8625 6.4575 0 4.16 0C1.8625 0 0 1.8625 0 4.16C0 6.45751 1.8625 8.32 4.16 8.32Z" fill="url(#paint2_linear)"/>
    <defs>
        <linearGradient id="paint0_linear" x1="0" y1="13" x2="26" y2="13" gradientUnits="userSpaceOnUse">
            <stop stop-color="#0ACFFE"/>
            <stop offset="1" stop-color="#495AFF"/>
        </linearGradient>
        <linearGradient id="paint1_linear" x1="0" y1="13" x2="26" y2="13" gradientUnits="userSpaceOnUse">
            <stop stop-color="#0ACFFE"/>
            <stop offset="1" stop-color="#495AFF"/>
        </linearGradient>
        <linearGradient id="paint2_linear" x1="0" y1="4.16" x2="8.32" y2="4.16" gradientUnits="userSpaceOnUse">
            <stop stop-color="#0ACFFE"/>
            <stop offset="1" stop-color="#495AFF"/>
        </linearGradient>
    </defs>
</svg>
