<svg width="64" height="64" viewBox="0 0 64 64" fill="none" xmlns="http://www.w3.org/2000/svg">
    <circle cx="32" cy="32" r="31.75" fill="white" stroke="white" stroke-width="0.5"/>
    <path d="M28.8422 28.8274C30.917 29.3349 33.0836 29.3349 35.1584 28.8274C35.7381 26.4698 36.9521 24.3159 38.6689 22.5991C40.3856 20.8824 42.5396 19.6684 44.8972 19.0887C45.3751 17.1343 45.4026 15.0968 44.9776 13.1303C44.5526 11.1637 43.6863 9.31941 42.444 7.73676C41.2017 6.15411 39.616 4.87448 37.8066 3.99454C35.9973 3.11459 34.0116 2.65735 31.9997 2.65735C29.9877 2.65735 28.002 3.11459 26.1927 3.99454C24.3834 4.87448 22.7976 6.15411 21.5554 7.73676C20.3131 9.31941 19.4467 11.1637 19.0218 13.1303C18.5968 15.0968 18.6243 17.1343 19.1022 19.0887C21.4602 19.6678 23.6146 20.8816 25.3316 22.5984C27.0487 24.3152 28.2628 26.4695 28.8422 28.8274Z" fill="#7ABDF7"/>
    <path d="M35.159 35.1401C33.0842 34.6327 30.9176 34.6327 28.8428 35.1401C28.2627 37.4972 27.0485 39.6505 25.3318 41.3665C23.615 43.0826 21.4613 44.296 19.104 44.8751C18.6261 46.8295 18.5986 48.867 19.0236 50.8335C19.4486 52.8001 20.3149 54.6444 21.5572 56.227C22.7995 57.8097 24.3852 59.0893 26.1945 59.9693C28.0039 60.8492 29.9895 61.3064 32.0015 61.3064C34.0135 61.3064 35.9991 60.8492 37.8085 59.9693C39.6178 59.0893 41.2035 57.8097 42.4458 56.227C43.6881 54.6444 44.5544 52.8001 44.9794 50.8335C45.4044 48.867 45.3769 46.8295 44.899 44.8751C42.541 44.296 40.3866 43.0822 38.6695 41.3654C36.9525 39.6486 35.7384 37.4943 35.159 35.1364V35.1401Z" fill="#0D74F5"/>
    <path d="M48.0556 18.7063C46.9923 18.7041 45.9326 18.83 44.8994 19.0813C44.3201 21.4388 43.1063 23.5926 41.3897 25.3092C39.6732 27.0258 37.5193 28.2395 35.1619 28.8188C34.6544 30.8932 34.6544 33.0594 35.1619 35.1338C37.5198 35.7134 39.674 36.9277 41.3906 38.645C43.1072 40.3623 44.3207 42.5169 44.8994 44.8751C46.7232 45.3211 48.6209 45.3751 50.4672 45.0338C52.3135 44.6924 54.0664 43.9633 55.6102 42.8947C57.154 41.826 58.4536 40.4421 59.4232 38.8342C60.3928 37.2264 61.0104 35.4312 61.2352 33.5671C61.46 31.703 61.2868 29.8124 60.7272 28.0202C60.1676 26.2279 59.2342 24.5748 57.9887 23.1698C56.7432 21.7648 55.2138 20.6399 53.5016 19.8694C51.7894 19.099 49.9332 18.7004 48.0556 18.7001V18.7063Z" fill="#4494F7"/>
    <path d="M28.8419 35.14C29.3509 33.0657 29.3509 30.8992 28.8419 28.825C26.4844 28.2455 24.3305 27.0317 22.6138 25.3152C20.897 23.5986 19.683 21.4449 19.1032 19.0875C17.1488 18.6096 15.1114 18.5821 13.1448 19.007C11.1782 19.432 9.33393 20.2984 7.75129 21.5407C6.16864 22.7829 4.88901 24.3686 4.00906 26.178C3.12912 27.9873 2.67187 29.973 2.67188 31.985C2.67187 33.9969 3.12912 35.9826 4.00906 37.7919C4.88901 39.6013 6.16864 41.187 7.75129 42.4293C9.33393 43.6715 11.1782 44.5379 13.1448 44.9629C15.1114 45.3879 17.1488 45.3604 19.1032 44.8825C19.6821 42.5241 20.8959 40.3693 22.6127 38.6518C24.3295 36.9344 26.4838 35.7198 28.8419 35.14Z" fill="#005CF4"/>
    <path d="M35.1588 28.8273C37.5164 28.2476 39.6704 27.0336 41.3871 25.3168C43.1038 23.6001 44.3179 21.4462 44.8976 19.0886C42.54 19.6683 40.386 20.8823 38.6693 22.599C36.9525 24.3158 35.7385 26.4697 35.1588 28.8273Z" fill="#186EF9"/>
    <path d="M35.1588 35.14C35.7385 37.4973 36.9526 39.6508 38.6694 41.3669C40.3862 43.083 42.5401 44.2963 44.8976 44.875C44.3176 42.5176 43.1035 40.3637 41.3868 38.6471C39.6701 36.9304 37.5163 35.7162 35.1588 35.1363V35.14Z" fill="#0246F2"/>
    <path d="M28.8429 28.8273C28.2632 26.4697 27.0492 24.3158 25.3324 22.599C23.6157 20.8823 21.4617 19.6683 19.1041 19.0886C19.6838 21.4462 20.8979 23.6001 22.6146 25.3168C24.3313 27.0336 26.4853 28.2476 28.8429 28.8273Z" fill="#0046F8"/>
    <path d="M28.8429 35.14C26.4859 35.7197 24.3324 36.9332 22.6157 38.6492C20.8991 40.3652 19.6847 42.5182 19.1041 44.875C21.4619 44.2956 23.6159 43.0817 25.3327 41.3649C27.0495 39.6481 28.2634 37.494 28.8429 35.1363V35.14Z" fill="#0729F1"/>
    <path d="M28.8422 28.8274C30.917 29.3349 33.0836 29.3349 35.1584 28.8274C35.7381 26.4698 36.9521 24.3159 38.6689 22.5991C40.3856 20.8824 42.5396 19.6684 44.8972 19.0887C45.3751 17.1343 45.4026 15.0968 44.9776 13.1303C44.5526 11.1637 43.6863 9.31941 42.444 7.73676C41.2017 6.15411 39.616 4.87448 37.8066 3.99454C35.9973 3.11459 34.0116 2.65735 31.9997 2.65735C29.9877 2.65735 28.002 3.11459 26.1927 3.99454C24.3834 4.87448 22.7976 6.15411 21.5554 7.73676C20.3131 9.31941 19.4467 11.1637 19.0218 13.1303C18.5968 15.0968 18.6243 17.1343 19.1022 19.0887C21.4602 19.6678 23.6146 20.8816 25.3316 22.5984C27.0487 24.3152 28.2628 26.4695 28.8422 28.8274Z" fill="#7ABDF7"/>
    <path d="M35.159 35.1401C33.0842 34.6327 30.9176 34.6327 28.8428 35.1401C28.2627 37.4972 27.0485 39.6505 25.3318 41.3665C23.615 43.0826 21.4613 44.296 19.104 44.8751C18.6261 46.8295 18.5986 48.867 19.0236 50.8335C19.4486 52.8001 20.3149 54.6444 21.5572 56.227C22.7995 57.8097 24.3852 59.0893 26.1945 59.9693C28.0039 60.8492 29.9895 61.3064 32.0015 61.3064C34.0135 61.3064 35.9991 60.8492 37.8085 59.9693C39.6178 59.0893 41.2035 57.8097 42.4458 56.227C43.6881 54.6444 44.5544 52.8001 44.9794 50.8335C45.4044 48.867 45.3769 46.8295 44.899 44.8751C42.541 44.296 40.3866 43.0822 38.6695 41.3654C36.9525 39.6486 35.7384 37.4943 35.159 35.1364V35.1401Z" fill="#0D74F5"/>
    <path d="M48.0556 18.7063C46.9923 18.7041 45.9326 18.83 44.8994 19.0813C44.3201 21.4388 43.1063 23.5926 41.3897 25.3092C39.6732 27.0258 37.5193 28.2395 35.1619 28.8188C34.6544 30.8932 34.6544 33.0594 35.1619 35.1338C37.5198 35.7134 39.674 36.9277 41.3906 38.645C43.1072 40.3623 44.3207 42.5169 44.8994 44.8751C46.7232 45.3211 48.6209 45.3751 50.4672 45.0338C52.3135 44.6924 54.0664 43.9633 55.6102 42.8947C57.154 41.826 58.4536 40.4421 59.4232 38.8342C60.3928 37.2264 61.0104 35.4312 61.2352 33.5671C61.46 31.703 61.2868 29.8124 60.7272 28.0202C60.1676 26.2279 59.2342 24.5748 57.9887 23.1698C56.7432 21.7648 55.2138 20.6399 53.5016 19.8694C51.7894 19.099 49.9332 18.7004 48.0556 18.7001V18.7063Z" fill="#4494F7"/>
    <path d="M28.8419 35.14C29.3509 33.0657 29.3509 30.8992 28.8419 28.825C26.4844 28.2455 24.3305 27.0317 22.6138 25.3152C20.897 23.5986 19.683 21.4449 19.1032 19.0875C17.1488 18.6096 15.1114 18.5821 13.1448 19.007C11.1782 19.432 9.33393 20.2984 7.75129 21.5407C6.16864 22.7829 4.88901 24.3686 4.00906 26.178C3.12912 27.9873 2.67187 29.973 2.67188 31.985C2.67187 33.9969 3.12912 35.9826 4.00906 37.7919C4.88901 39.6013 6.16864 41.187 7.75129 42.4293C9.33393 43.6715 11.1782 44.5379 13.1448 44.9629C15.1114 45.3879 17.1488 45.3604 19.1032 44.8825C19.6821 42.5241 20.8959 40.3693 22.6127 38.6518C24.3295 36.9344 26.4838 35.7198 28.8419 35.14Z" fill="#005CF4"/>
    <path d="M35.1588 28.8273C37.5164 28.2476 39.6704 27.0336 41.3871 25.3168C43.1038 23.6001 44.3179 21.4462 44.8976 19.0886C42.54 19.6683 40.386 20.8823 38.6693 22.599C36.9525 24.3158 35.7385 26.4697 35.1588 28.8273Z" fill="#186EF9"/>
    <path d="M35.1588 35.14C35.7385 37.4973 36.9526 39.6508 38.6694 41.3669C40.3862 43.083 42.5401 44.2963 44.8976 44.875C44.3176 42.5176 43.1035 40.3637 41.3868 38.6471C39.6701 36.9304 37.5163 35.7162 35.1588 35.1363V35.14Z" fill="#0246F2"/>
    <path d="M28.8429 28.8273C28.2632 26.4697 27.0492 24.3158 25.3324 22.599C23.6157 20.8823 21.4617 19.6683 19.1041 19.0886C19.6838 21.4462 20.8979 23.6001 22.6146 25.3168C24.3313 27.0336 26.4853 28.2476 28.8429 28.8273Z" fill="#0046F8"/>
    <path d="M28.8429 35.14C26.4859 35.7197 24.3324 36.9332 22.6157 38.6492C20.8991 40.3652 19.6847 42.5182 19.1041 44.875C21.4619 44.2956 23.6159 43.0817 25.3327 41.3649C27.0495 39.6481 28.2634 37.494 28.8429 35.1363V35.14Z" fill="#0729F1"/>
</svg>
