<?xml version="1.0" encoding="UTF-8"?>
<svg width="24px" height="24px" viewBox="0 0 24 24" version="1.1" xmlns="http://www.w3.org/2000/svg" xmlns:xlink="http://www.w3.org/1999/xlink">
    <g id="页面-1" stroke="none" stroke-width="1" fill="none" fill-rule="evenodd">
        <g id="totoro-swap" transform="translate(-16.000000, -144.000000)">
            <g id="celan备份" transform="translate(0.000000, 132.000000)">
                <g id="celan_icon" transform="translate(16.000000, 12.000000)">
                    <rect id="矩形" x="0" y="0" width="24" height="24"></rect>
                    <path d="M17,13.0532842 C17.1250958,13.0532842 17.2456474,13.1001768 17.3378623,13.1847071 L20.0979159,15.7147563 C20.3014754,15.9013525 20.3152269,16.2176362 20.1286307,16.4211956 L20.0979159,16.4519104 L17.3378623,18.9819595 C17.1343028,19.1685557 16.8180191,19.1548043 16.6314229,18.9512448 C16.5468926,18.8590299 16.5,18.7384783 16.5,18.6133825 L16.4999434,16.9992842 L5,17 C4.44771525,17 4,16.5522847 4,16 C4,15.4477153 4.44771525,15 5,15 L16.4999434,14.9992842 L16.5,13.5532842 C16.5,13.2771418 16.7238576,13.0532842 17,13.0532842 Z M7,5.05328419 C7.27614237,5.05328419 7.5,5.27714182 7.5,5.55328419 L7.5,5.55328419 L7.49994345,6.99928419 L19,7 C19.5128358,7 19.9355072,7.38604019 19.9932723,7.88337887 L20,8 C20,8.55228475 19.5522847,9 19,9 L19,9 L7.49994345,8.99928419 L7.5,10.6133825 C7.5,10.7072044 7.47362292,10.7984701 7.42477314,10.8771422 L7.36857707,10.9512448 C7.18198087,11.1548043 6.86569718,11.1685557 6.66213769,10.9819595 L6.66213769,10.9819595 L3.90208408,8.4519104 L3.87136932,8.42119565 C3.68477312,8.21763615 3.69852458,7.90135247 3.90208408,7.71475626 L3.90208408,7.71475626 L6.66213769,5.18470712 C6.7543526,5.10017678 6.87490416,5.05328419 7,5.05328419 Z" id="形状结合" fill="#135658"></path>
                </g>
            </g>
        </g>
    </g>
</svg>
