<?xml version="1.0" encoding="UTF-8"?>
<svg width="24px" height="24px" viewBox="0 0 24 24" version="1.1" xmlns="http://www.w3.org/2000/svg" xmlns:xlink="http://www.w3.org/1999/xlink">
    <title>切片</title>
    <g id="页面-1" stroke="none" stroke-width="1" fill="none" fill-rule="evenodd">
        <g id="totoro-swap" transform="translate(-16.000000, -240.000000)" fill-rule="nonzero">
            <g id="celan备份-3" transform="translate(0.000000, 228.000000)">
                <g id="编组" transform="translate(16.000000, 12.000000)">
                    <rect id="矩形" x="0" y="0" width="24" height="24"></rect>
                    <path d="M10.0472755,4 C10.393454,4 10.7116405,4.17864852 10.8931089,4.46650616 L10.9545386,4.57943634 L12.639,8.212 L14.3454137,8.211 L14.3455963,5 C14.3455963,4.48716416 14.7316365,4.06449284 15.2289752,4.00672773 L15.3455963,4 L18.1016541,4 C18.6539388,4 19.1016541,4.44771525 19.1016541,5 C19.1016541,5.51283584 18.7156139,5.93550716 18.2182752,5.99327227 L18.1016541,6 L16.345,6 L16.3454137,8.212 L18.7180176,8.21252441 C19.2308534,8.21252441 19.6535247,8.5985646 19.7112898,9.09590329 L19.7180176,9.21252441 L19.7186101,13.78279 C21.0507995,14.277624 22,15.5603671 22,17.0648079 C22,18.9978045 20.4329966,20.5648079 18.5,20.5648079 C16.5837829,20.5648079 15.0272325,19.0248914 15.0003534,17.1150628 L11.7550105,17.1150938 C11.1025525,19.1176333 9.22027913,20.5648079 7,20.5648079 C4.23857625,20.5648079 2,18.3262316 2,15.5648079 C2,13.7704739 2.94517522,12.1968975 4.36480931,11.3147949 L4.36541367,5 C4.36541367,4.48716416 4.75145386,4.06449284 5.24879254,4.00672773 L5.36541367,4 L10.0472755,4 Z M7,12.5648079 C5.34314575,12.5648079 4,13.9079536 4,15.5648079 C4,17.2216621 5.34314575,18.5648079 7,18.5648079 C8.65685425,18.5648079 10,17.2216621 10,15.5648079 C10,13.9079536 8.65685425,12.5648079 7,12.5648079 Z M18.5,15.5648079 C17.6715729,15.5648079 17,16.2363808 17,17.0648079 C17,17.893235 17.6715729,18.5648079 18.5,18.5648079 C19.3284271,18.5648079 20,17.893235 20,17.0648079 C20,16.2363808 19.3284271,15.5648079 18.5,15.5648079 Z M6.98762512,14.036747 C7.81605225,14.036747 8.48762512,14.7083199 8.48762512,15.536747 C8.48762512,16.3651741 7.81605225,17.036747 6.98762512,17.036747 C6.159198,17.036747 5.48762512,16.3651741 5.48762512,15.536747 C5.48762512,14.7083199 6.159198,14.036747 6.98762512,14.036747 Z M9.409,6 L6.365,6 L6.36554401,10.6046798 C6.57332291,10.5783682 6.78507787,10.5648079 7,10.5648079 C9.60957287,10.5648079 11.75222,12.5639545 11.9799776,15.1142837 L15.5936713,15.113968 C16.0825763,14.387041 16.836997,13.8535674 17.7179782,13.6525023 L17.718,10.212 L12,10.2125244 C11.6538215,10.2125244 11.3356351,10.0338759 11.1541666,9.74601825 L11.092737,9.63308808 L9.409,6 Z" id="形状结合" fill="#135658"></path>
                </g>
            </g>
        </g>
    </g>
</svg>