<?xml version="1.0" encoding="UTF-8"?>
<svg width="24px" height="24px" viewBox="0 0 24 24" version="1.1" xmlns="http://www.w3.org/2000/svg" xmlns:xlink="http://www.w3.org/1999/xlink">
    <defs>
        <filter id="filter-1">
            <feColorMatrix in="SourceGraphic" type="matrix" values="0 0 0 0 0.074510 0 0 0 0 0.337255 0 0 0 0 0.345098 0 0 0 1.000000 0"></feColorMatrix>
        </filter>
    </defs>
    <g id="页面-1" stroke="none" stroke-width="1" fill="none" fill-rule="evenodd">
        <g id="totoro-swap" transform="translate(-16.000000, -1040.000000)">
            <g id="06-icon/minor/globe" transform="translate(0.000000, 970.000000)" filter="url(#filter-1)">
                <g transform="translate(16.000000, 70.000000)" id="global-line">
                    <polygon id="路径" points="0 0 24 0 24 24 0 24"></polygon>
                    <path d="M12,22 C6.477,22 2,17.523 2,12 C2,6.477 6.477,2 12,2 C17.523,2 22,6.477 22,12 C22,17.523 17.523,22 12,22 Z M9.71,19.667 C8.72341462,17.5743143 8.15187122,15.3102146 8.027,13 L4.062,13 C4.45956317,16.1441544 6.67395185,18.7580583 9.71,19.667 L9.71,19.667 Z M10.03,13 C10.181,15.439 10.878,17.73 12,19.752 C13.1523197,17.6765509 13.8254433,15.3694795 13.97,13 L10.03,13 L10.03,13 Z M19.938,13 L15.973,13 C15.8481288,15.3102146 15.2765854,17.5743143 14.29,19.667 C17.3260481,18.7580583 19.5404368,16.1441544 19.938,13 Z M4.062,11 L8.027,11 C8.15187122,8.68978545 8.72341462,6.42568569 9.71,4.333 C6.67395185,5.24194168 4.45956317,7.8558456 4.062,11 Z M10.031,11 L13.969,11 C13.8247512,8.63059884 13.1519707,6.32353203 12,4.248 C10.8476803,6.3234491 10.1745567,8.63052051 10.03,11 L10.031,11 Z M14.29,4.333 C15.2765854,6.42568569 15.8481288,8.68978545 15.973,11 L19.938,11 C19.5404368,7.8558456 17.3260481,5.24194168 14.29,4.333 L14.29,4.333 Z" id="形状" fill="#17173A" fill-rule="nonzero"></path>
                </g>
            </g>
        </g>
    </g>
</svg>
