<?xml version="1.0" encoding="UTF-8"?>
<svg width="24px" height="24px" viewBox="0 0 24 24" version="1.1" xmlns="http://www.w3.org/2000/svg" xmlns:xlink="http://www.w3.org/1999/xlink">
    <g id="页面-1" stroke="none" stroke-width="1" fill="none" fill-rule="evenodd">
        <g id="totoro-swap" transform="translate(-16.000000, -432.000000)" fill-rule="nonzero">
            <g id="celan备份-7" transform="translate(0.000000, 420.000000)">
                <g id="编组" transform="translate(16.000000, 12.000000)">
                    <rect id="矩形" x="0" y="0" width="24" height="24"></rect>
                    <path d="M8,5 C9.1045695,5 10,5.8954305 10,7 L10,9.333 L13,9.33333333 C14.1045695,9.33333333 15,10.2287638 15,11.3333333 L15,12.583 L18,12.5833333 C19.1045695,12.5833333 20,13.4787638 20,14.5833333 L20,18 C20,19.1045695 19.1045695,20 18,20 L15,19.999 L15,20 L6,20 C4.8954305,20 4,19.1045695 4,18 L4,7 C4,5.8954305 4.8954305,5 6,5 L8,5 Z M8,7 L6,7 L6,18 L8,18 L8,7 Z M13,11.3333333 L11,11.333 L11,18 L13,18 L13,11.3333333 Z M18,14.5833333 L16,14.583 L16,17.999 L18,18 L18,14.5833333 Z" id="形状结合" fill="#135658"></path>
                </g>
            </g>
        </g>
    </g>
</svg>
