<?xml version="1.0" encoding="UTF-8"?>
<svg width="24px" height="24px" viewBox="0 0 24 24" version="1.1" xmlns="http://www.w3.org/2000/svg" xmlns:xlink="http://www.w3.org/1999/xlink">
    <title>切片</title>
    <g id="页面-1" stroke="none" stroke-width="1" fill="none" fill-rule="evenodd">
        <g id="totoro-swap" transform="translate(-16.000000, -192.000000)" fill-rule="nonzero">
            <g id="celan备份-2" transform="translate(0.000000, 180.000000)">
                <g id="编组" transform="translate(16.000000, 12.000000)">
                    <rect id="矩形" x="0" y="0" width="24" height="24"></rect>
                    <path d="M11.8846817,2.92955208 C13.5726208,2.92955208 14.9814827,4.12442385 15.3115735,5.71447361 C18.0767878,6.97402736 20,9.76241854 20,13 L19.994004,13.3339742 C21.1797091,13.8944759 22,15.1014433 22,16.5 C22,18.4329966 20.4329966,20 18.5,20 C17.8333478,20 17.2102277,19.813617 16.6799061,19.4901173 C15.3643143,20.4396385 13.7475969,21 12,21 C10.2528173,21 8.63645211,20.4399041 7.32066001,19.4894679 C6.79134679,19.8131457 6.16749448,20 5.5,20 C3.56700338,20 2,18.4329966 2,16.5 C2,15.101048 2.82075463,13.8937936 4.00700148,13.3334991 C4.00229366,13.2230795 4,13.1118076 4,13 C4,9.86254842 5.80609197,7.14693222 8.43530517,5.83612215 C8.71693947,4.1855019 10.1541392,2.92955208 11.8846817,2.92955208 Z M15.0828241,7.85149474 L15.0731624,7.87509611 C14.5229204,9.08685249 13.3022126,9.92955208 11.8846817,9.92955208 C10.5023322,9.92955208 9.30715712,9.12816289 8.7384017,7.96462968 C7.0905246,9.03205201 6,10.8886732 6,13 L6.00194949,13.0357238 C7.69714603,13.2791771 9,14.7374396 9,16.5 C9,17.0328588 8.88092187,17.5379054 8.66792441,17.989981 C9.6202714,18.6278858 10.7666797,19 12,19 C13.2337379,19 14.380505,18.6276337 15.3340448,17.9891577 C15.1190781,17.5379054 15,17.0328588 15,16.5 C15,14.7370932 16.3033661,13.2786039 17.9990501,13.0355804 C17.9999623,13.0248205 18,13.0124146 18,13 C18,10.813516 16.8304545,8.90019407 15.0828241,7.85149474 Z M18.5,15 C17.6715729,15 17,15.6715729 17,16.5 C17,17.3284271 17.6715729,18 18.5,18 C19.3284271,18 20,17.3284271 20,16.5 C20,15.6715729 19.3284271,15 18.5,15 Z M5.5,15 C4.67157288,15 4,15.6715729 4,16.5 C4,17.3284271 4.67157288,18 5.5,18 C6.32842712,18 7,17.3284271 7,16.5 C7,15.6715729 6.32842712,15 5.5,15 Z M11.8846817,4.92955208 C11.0562546,4.92955208 10.3846817,5.60112495 10.3846817,6.42955208 C10.3846817,7.2579792 11.0562546,7.92955208 11.8846817,7.92955208 C12.7131088,7.92955208 13.3846817,7.2579792 13.3846817,6.42955208 C13.3846817,5.60112495 12.7131088,4.92955208 11.8846817,4.92955208 Z" id="形状结合" fill="#135658"></path>
                </g>
            </g>
        </g>
    </g>
</svg>