<?xml version="1.0" encoding="UTF-8"?>
<svg width="24px" height="24px" viewBox="0 0 24 24" version="1.1" xmlns="http://www.w3.org/2000/svg" xmlns:xlink="http://www.w3.org/1999/xlink">
    <title>切片</title>
    <g id="页面-1" stroke="none" stroke-width="1" fill="none" fill-rule="evenodd">
        <g id="totoro-swap" transform="translate(-16.000000, -288.000000)" fill-rule="nonzero">
            <g id="celan备份-4" transform="translate(0.000000, 276.000000)">
                <g id="编组" transform="translate(16.000000, 12.000000)">
                    <rect id="矩形" x="0" y="0" width="24" height="24"></rect>
                    <path d="M18.4350468,3.95404816 C19.3154385,3.95404816 20.0851496,4.5283868 20.3438468,5.35679754 L20.3862664,5.51502377 L21.4768488,10.362057 C21.7724001,11.6754107 21.1504495,12.981316 20.0349062,13.6097366 L20.0350468,19.0790482 C20.0350468,20.0652709 19.2736264,20.8736544 18.306577,20.948407 L18.1600468,20.9540482 L5.91004685,20.9540482 C4.92382408,20.9540482 4.1154406,20.1926277 4.04068803,19.2255783 L4.03504685,19.0790482 L4.03446771,13.7110748 C3.28418901,13.3460949 2.70620358,12.648356 2.52687191,11.767631 C2.46429178,11.4602905 2.45435906,11.1451274 2.49694181,10.8354223 L2.53872347,10.6043743 L3.68382733,5.51502377 C3.87708404,4.65610506 4.60637538,4.03124179 5.47136818,3.9607005 L5.63504685,3.95404816 L18.4350468,3.95404816 Z M7.78204685,13.1910482 L7.42979973,13.3702162 C7.20728854,13.4768689 6.98582037,13.5713249 6.76469632,13.6536287 L6.43318096,13.7679761 L6.10165759,13.8641288 L6.03405408,13.8790482 L6.03504685,18.9540482 L18.0350468,18.9540482 L18.0340541,13.9420482 L17.9849849,13.9344019 C17.4766747,13.8321298 17.0080402,13.678586 16.5815642,13.4732339 L16.3307574,13.3438013 L16.1490468,13.2360482 L16.0780065,13.2890098 C15.5842497,13.6320726 15.0673953,13.8472392 14.5304258,13.9231935 L14.2990731,13.9471892 L14.0914008,13.9540482 C13.4773243,13.9540482 12.88233,13.7751671 12.3091943,13.4329702 L12.0952984,13.2970213 L12.0070468,13.2340482 L11.8171917,13.3557995 C11.3115793,13.6613528 10.8062594,13.8535045 10.3000753,13.9238162 L10.083083,13.9464656 L9.86596459,13.9540482 C9.24944967,13.9540482 8.66149806,13.7702977 8.1071691,13.4201205 L7.90088169,13.2810366 L7.78204685,13.1910482 Z M7.36105408,5.95404816 L5.63504685,5.95404816 L4.48997754,11.043245 C4.46591298,11.1502773 4.46478392,11.2611571 4.48665776,11.3685828 C4.5650433,11.7535461 4.9158923,12.0134458 5.2758063,11.9929203 L5.37399153,11.9802531 L5.61988144,11.9232212 C6.00237269,11.8226267 6.4098806,11.657775 6.84130106,11.4269368 L7.36105408,5.95404816 Z M18.4350468,5.95404816 L16.7970541,5.95404816 L17.3335277,11.6135219 C17.5657528,11.7385324 17.8237324,11.8385238 18.105318,11.9123267 L18.3380846,11.9662678 L18.460659,11.986503 C18.5695199,11.9990146 18.6797624,11.9931337 18.7867644,11.9690582 C19.275715,11.8590444 19.595877,11.4003214 19.5442443,10.9137487 L19.5256367,10.8011144 L18.4350468,5.95404816 Z M11.0340541,5.95404816 L9.37005408,5.95404816 L8.84719638,11.4808349 C9.17389601,11.7703872 9.47326126,11.9169661 9.75324854,11.9478149 L9.86596459,11.9540482 C10.1881546,11.9540482 10.5789361,11.8046294 11.0344993,11.4779991 L11.0340541,5.95404816 Z M14.7880541,5.95404816 L13.0340541,5.95404816 L13.0347712,11.5090884 C13.3765311,11.7774486 13.6873668,11.9167209 13.9709445,11.9474594 L14.0914008,11.9540482 C14.4420595,11.9540482 14.8251373,11.7825661 15.2528516,11.3932515 L15.3000541,11.3480482 L14.7880541,5.95404816 Z" id="形状结合" fill="#135658"></path>
                </g>
            </g>
        </g>
    </g>
</svg>