<?xml version="1.0" encoding="UTF-8"?>
<svg width="24px" height="24px" viewBox="0 0 24 24" version="1.1" xmlns="http://www.w3.org/2000/svg" xmlns:xlink="http://www.w3.org/1999/xlink">
    <title>切片</title>
    <g id="页面-1" stroke="none" stroke-width="1" fill="none" fill-rule="evenodd">
        <g id="totoro-swap" transform="translate(-16.000000, -384.000000)" fill-rule="nonzero">
            <g id="celan备份-6" transform="translate(0.000000, 372.000000)">
                <g id="编组" transform="translate(16.000000, 12.000000)">
                    <rect id="矩形" x="0" y="0" width="24" height="24"></rect>
                    <path d="M12,2 C15.8659932,2 19,5.13400675 19,9 C19,10.906483 18.2378445,12.6349549 17.0015996,13.8973499 L17,19.0204325 C17,20.125002 16.1045695,21.0204325 15,21.0204325 C14.6339108,21.0204325 14.2760623,20.9199794 13.9647978,20.7316789 L13.8132251,20.6302664 L12.5447872,19.6951698 C12.2227708,19.4577782 11.7945118,19.4373394 11.4544875,19.6322329 L11.3446808,19.7051704 L10.2134379,20.5685901 C9.33539753,21.2387534 8.08033046,21.0702357 7.41016719,20.1921953 C7.18212375,19.8934153 7.0436646,19.5374927 7.00875879,19.1657536 L7,18.9787573 L6.99937371,13.8983435 C5.76255555,12.635862 5,10.9069832 5,9 C5,5.13400675 8.13400675,2 12,2 Z M15.0007361,15.3260191 C14.0912936,15.7581785 13.073887,16 12,16 C10.9265078,16 9.90945451,15.7583563 9.00026701,15.3264957 L9,18.9787573 L10.1312429,18.1153376 C11.1355027,17.3488375 12.5048926,17.2975246 13.5589265,17.9670695 L13.7315622,18.0853359 L15,19.0204325 L15.0007361,15.3260191 Z M12,4 C9.23857625,4 7,6.23857625 7,9 C7,11.7614237 9.23857625,14 12,14 C14.7614237,14 17,11.7614237 17,9 C17,6.23857625 14.7614237,4 12,4 Z M12.217567,6.66996534 C12.3145175,6.71781326 12.392991,6.79628677 12.4408389,6.89323725 L12.6490073,7.31503245 C12.7946693,7.61017593 13.0762349,7.8147453 13.4019451,7.86207376 L13.8674237,7.92971176 C14.1361073,7.96875377 14.3222686,8.21821465 14.2832266,8.48689823 C14.2676798,8.59388944 14.2172967,8.69277183 14.1398772,8.76823725 L13.8030537,9.09655903 C13.5673676,9.32629618 13.4598191,9.65729638 13.515457,9.98169045 L13.5949703,10.4452882 C13.6408669,10.7128861 13.4611425,10.9670237 13.1935446,11.0129203 C13.0869857,11.0311966 12.9773737,11.0138358 12.8816779,10.9635255 L12.4653411,10.7446443 C12.1740171,10.5914862 11.8259829,10.5914862 11.5346589,10.7446443 L11.1183221,10.9635255 C10.8780042,11.0898681 10.5807672,10.9974728 10.4544246,10.757155 C10.4041143,10.6614591 10.3867535,10.5518471 10.4050297,10.4452882 L10.484543,9.98169045 C10.5401809,9.65729638 10.4326324,9.32629618 10.1969463,9.09655903 L9.86012284,8.76823725 C9.66570157,8.57872336 9.66172337,8.26748242 9.85123726,8.07306116 C9.92670269,7.99564159 10.0255851,7.9452585 10.1325763,7.92971176 L10.5980549,7.86207376 C10.9237651,7.8147453 11.2053307,7.61017593 11.3509927,7.31503245 L11.5591611,6.89323725 C11.67932,6.64976863 11.9740984,6.54980639 12.217567,6.66996534 Z" id="形状结合" fill="#135658"></path>
                </g>
            </g>
        </g>
    </g>
</svg>