<?xml version="1.0" encoding="UTF-8"?>
<svg width="24px" height="24px" viewBox="0 0 24 24" version="1.1" xmlns="http://www.w3.org/2000/svg" xmlns:xlink="http://www.w3.org/1999/xlink">
    <defs>
        <filter id="filter-1">
            <feColorMatrix in="SourceGraphic" type="matrix" values="0 0 0 0 0.074510 0 0 0 0 0.337255 0 0 0 0 0.345098 0 0 0 1.000000 0"></feColorMatrix>
        </filter>
    </defs>
    <g id="页面-1" stroke="none" stroke-width="1" fill="none" fill-rule="evenodd">
        <g id="indent-increase-2" transform="translate(-16.000000, -22.000000)" filter="url(#filter-1)">
            <g transform="translate(16.000000, 22.000000)" id="indent-increase">
                <polygon id="路径" points="0 0 24 0 24 24 0 24"></polygon>
                <path d="M4,5 L20,5 C20.5522847,5 21,5.44771525 21,6 C21,6.55228475 20.5522847,7 20,7 L4,7 C3.44771525,7 3,6.55228475 3,6 C3,5.44771525 3.44771525,5 4,5 Z M4,18 L20,18 C20.5522847,18 21,18.4477153 21,19 C21,19.5522847 20.5522847,20 20,20 L4,20 C3.44771525,20 3,19.5522847 3,19 C3,18.4477153 3.44771525,18 4,18 Z M10,12 L20,12 C20.5522847,12 21,12.4477153 21,13 C21,13.5522847 20.5522847,14 20,14 L10,14 C9.44771525,14 9,13.5522847 9,13 C9,12.4477153 9.44771525,12 10,12 Z M7.17411762,13.2432941 L4.66896473,15.4979317 C4.25845471,15.8673908 3.62616487,15.8341123 3.25670585,15.4236023 C3.09144362,15.2399776 3,15.0016794 3,14.7546376 L3,10.2453624 C3,9.69307765 3.44771525,9.2453624 4,9.2453624 C4.24704178,9.2453624 4.48534002,9.33680602 4.66896473,9.50206826 L7.17411762,11.7567059 C7.58462764,12.1261649 7.61790605,12.7584547 7.24844703,13.1689647 C7.22499082,13.1950272 7.20018008,13.2198379 7.17411762,13.2432941 Z" id="形状" fill="#17173A" fill-rule="nonzero"></path>
            </g>
        </g>
    </g>
</svg>
