<?xml version="1.0" encoding="UTF-8"?>
<svg width="24px" height="24px" viewBox="0 0 24 24" version="1.1" xmlns="http://www.w3.org/2000/svg" xmlns:xlink="http://www.w3.org/1999/xlink">
    <title>切片</title>
    <g id="页面-1" stroke="none" stroke-width="1" fill="none" fill-rule="evenodd">
        <g id="totoro-swap" transform="translate(-16.000000, -480.000000)" fill-rule="nonzero">
            <g id="celan备份-8" transform="translate(0.000000, 468.000000)">
                <g id="celan_icon" transform="translate(16.000000, 12.000000)">
                    <g id="编组">
                        <rect id="矩形" x="0" y="0" width="24" height="24"></rect>
                    </g>
                    <path d="M12,4 C16.418278,4 20,7.581722 20,12 C20,16.418278 16.418278,20 12,20 C7.581722,20 4,16.418278 4,12 C4,7.581722 7.581722,4 12,4 Z M12,6 C8.6862915,6 6,8.6862915 6,12 C6,15.3137085 8.6862915,18 12,18 C15.3137085,18 18,15.3137085 18,12 C18,8.6862915 15.3137085,6 12,6 Z M9.07407379,10.9516888 C9.62635854,10.9516888 10.0740738,11.399404 10.0740738,11.9516888 C10.0740738,12.5039735 9.62635854,12.9516888 9.07407379,12.9516888 C8.52178904,12.9516888 8.07407379,12.5039735 8.07407379,11.9516888 C8.07407379,11.399404 8.52178904,10.9516888 9.07407379,10.9516888 Z M12.0740738,10.9516888 C12.6263585,10.9516888 13.0740738,11.399404 13.0740738,11.9516888 C13.0740738,12.5039735 12.6263585,12.9516888 12.0740738,12.9516888 C11.521789,12.9516888 11.0740738,12.5039735 11.0740738,11.9516888 C11.0740738,11.399404 11.521789,10.9516888 12.0740738,10.9516888 Z M15.0740738,10.9516888 C15.6263585,10.9516888 16.0740738,11.399404 16.0740738,11.9516888 C16.0740738,12.5039735 15.6263585,12.9516888 15.0740738,12.9516888 C14.521789,12.9516888 14.0740738,12.5039735 14.0740738,11.9516888 C14.0740738,11.399404 14.521789,10.9516888 15.0740738,10.9516888 Z" id="形状结合" fill="#135658"></path>
                </g>
            </g>
        </g>
    </g>
</svg>