<?xml version="1.0" encoding="UTF-8"?>
<svg width="24px" height="24px" viewBox="0 0 24 24" version="1.1" xmlns="http://www.w3.org/2000/svg" xmlns:xlink="http://www.w3.org/1999/xlink">
    <title>切片</title>
    <g id="页面-1" stroke="none" stroke-width="1" fill="none" fill-rule="evenodd">
        <g id="totoro-swap" transform="translate(-16.000000, -336.000000)" fill-rule="nonzero">
            <g id="celan备份-5" transform="translate(0.000000, 324.000000)">
                <g id="编组" transform="translate(16.000000, 12.000000)">
                    <rect id="矩形" x="0" y="0" width="24" height="24"></rect>
                    <path d="M18,4 C19.1045695,4 20,4.8954305 20,6 L20,6 L20,18 C20,19.1045695 19.1045695,20 18,20 L18,20 L6,20 C4.8954305,20 4,19.1045695 4,18 L4,18 L4,6 C4,4.8954305 4.8954305,4 6,4 L6,4 Z M18,6 L6,6 L6,18 L18,18 L18,6 Z M13,12 C13.5522847,12 14,12.4477153 14,13 L14,16 C14,16.5522847 13.5522847,17 13,17 L9,17 C8.44771525,17 8,16.5522847 8,16 L8,13 C8,12.4477153 8.44771525,12 9,12 L13,12 Z" id="形状结合" fill="#135658"></path>
                </g>
            </g>
        </g>
    </g>
</svg>