<?xml version="1.0" encoding="UTF-8"?>
<svg width="24px" height="24px" viewBox="0 0 24 24" version="1.1" xmlns="http://www.w3.org/2000/svg" xmlns:xlink="http://www.w3.org/1999/xlink">
    <defs>
        <filter id="filter-1">
            <feColorMatrix in="SourceGraphic" type="matrix" values="0 0 0 0 0.074510 0 0 0 0 0.337255 0 0 0 0 0.345098 0 0 0 1.000000 0"></feColorMatrix>
        </filter>
    </defs>
    <g id="页面-1" stroke="none" stroke-width="1" fill="none" fill-rule="evenodd">
        <g id="totoro-swap" transform="translate(-200.000000, -996.000000)">
            <g id="telegram-fill" transform="translate(0.000000, 970.000000)" filter="url(#filter-1)">
                <g transform="translate(200.000000, 26.000000)">
                    <polygon id="路径" points="0 0 24 0 24 24 0 24"></polygon>
                    <path d="M12,22 C6.477,22 2,17.523 2,12 C2,6.477 6.477,2 12,2 C17.523,2 22,6.477 22,12 C22,17.523 17.523,22 12,22 Z M8.88977117,12.7663038 L8.90277217,12.759574 L9.77283888,15.5187605 C9.88484747,15.8177525 10.0388593,15.8715903 10.2258736,15.8465942 C10.413888,15.8225595 10.5128956,15.7254592 10.6359051,15.6120153 L11.8239961,14.5083407 L14.3741917,16.3234431 C14.8402274,16.5705201 15.1752531,16.4426554 15.291262,15.9081231 L16.948389,8.38813817 C17.1314031,7.68824696 16.8113785,7.40752137 16.2463352,7.63056362 L6.51258891,11.2453863 C5.848538,11.5011158 5.8525383,11.8587525 6.39257971,12.0173817 L8.88977117,12.7672652 L8.88977117,12.7663038 Z" id="形状" fill="#135658" fill-rule="nonzero"></path>
                </g>
            </g>
        </g>
    </g>
</svg>
