<?xml version="1.0" encoding="UTF-8"?>
<svg width="24px" height="24px" viewBox="0 0 24 24" version="1.1" xmlns="http://www.w3.org/2000/svg" xmlns:xlink="http://www.w3.org/1999/xlink">
    <defs>
        <filter id="filter-1">
            <feColorMatrix in="SourceGraphic" type="matrix" values="0 0 0 0 0.074510 0 0 0 0 0.337255 0 0 0 0 0.345098 0 0 0 1.000000 0"></feColorMatrix>
        </filter>
        <filter id="filter-2">
            <feColorMatrix in="SourceGraphic" type="matrix" values="0 0 0 0 0.090196 0 0 0 0 0.090196 0 0 0 0 0.227451 0 0 0 0.900000 0"></feColorMatrix>
        </filter>
    </defs>
    <g id="页面-1" stroke="none" stroke-width="1" fill="none" fill-rule="evenodd">
        <g id="totoro-swap" transform="translate(-159.000000, -1040.000000)">
            <g id="sun-line-2" transform="translate(0.000000, 970.000000)" filter="url(#filter-1)">
                <g transform="translate(159.000000, 70.000000)" id="sun-line" filter="url(#filter-2)">
                    <g>
                        <polygon id="路径" points="0 0 24 0 24 24 0 24"></polygon>
                        <path d="M12,18 C8.6862915,18 6,15.3137085 6,12 C6,8.6862915 8.6862915,6 12,6 C15.3137085,6 18,8.6862915 18,12 C18,15.3137085 15.3137085,18 12,18 L12,18 Z M12,16 C14.209139,16 16,14.209139 16,12 C16,9.790861 14.209139,8 12,8 C9.790861,8 8,9.790861 8,12 C8,14.209139 9.790861,16 12,16 Z M12,1 C12.5522847,1 13,1.44771525 13,2 L13,3 C13,3.55228475 12.5522847,4 12,4 C11.4477153,4 11,3.55228475 11,3 L11,2 C11,1.44771525 11.4477153,1 12,1 Z M12,20 C12.5522847,20 13,20.4477153 13,21 L13,22 C13,22.5522847 12.5522847,23 12,23 C11.4477153,23 11,22.5522847 11,22 L11,21 C11,20.4477153 11.4477153,20 12,20 Z M5.63625004,4.22225004 L6.343,4.929 C6.73346532,5.31946532 6.73346532,5.95253468 6.343,6.343 C5.95250772,6.73349228 5.31941766,6.73356692 4.92883331,6.34316673 L4.22241679,5.63708326 C3.83170782,5.2465585 3.83152122,4.61325493 4.222,4.2225 C4.61232732,3.83189664 5.24539672,3.83167286 5.63600009,4.22200018 C5.63608342,4.22208345 5.63616674,4.22216674 5.63625004,4.22225004 Z M17.657,17.657 C18.0474653,17.2665347 18.6805347,17.2665347 19.071,17.657 L19.778,18.364 C20.1684653,18.7544653 20.1684653,19.3875347 19.778,19.778 C19.3875347,20.1684653 18.7544653,20.1684653 18.364,19.778 L17.657,19.071 C17.2665347,18.6805347 17.2665347,18.0474653 17.657,17.657 Z M19.778,5.636 L19.071,6.343 C18.6805347,6.73346532 18.0474653,6.73346532 17.657,6.343 C17.2665347,5.95253468 17.2665347,5.31946532 17.657,4.929 L18.364,4.222 C18.7544653,3.83153468 19.3875347,3.83153468 19.778,4.222 C20.1684653,4.61246532 20.1684653,5.24553468 19.778,5.636 Z M6.343,19.071 L5.636,19.778 C5.24553468,20.1684653 4.61246532,20.1684653 4.222,19.778 C3.83153468,19.3875347 3.83153468,18.7544653 4.222,18.364 L4.929,17.657 C5.31946532,17.2665347 5.95253468,17.2665347 6.343,17.657 C6.73346532,18.0474653 6.73346532,18.6805347 6.343,19.071 Z M23,12 C23,12.5522847 22.5522847,13 22,13 L21,13 C20.4477153,13 20,12.5522847 20,12 C20,11.4477153 20.4477153,11 21,11 L22,11 C22.5522847,11 23,11.4477153 23,12 Z M4,12 C4,12.5522847 3.55228475,13 3,13 L2,13 C1.44771525,13 1,12.5522847 1,12 C1,11.4477153 1.44771525,11 2,11 L3,11 C3.55228475,11 4,11.4477153 4,12 Z" id="形状" fill="#17173A" fill-rule="nonzero"></path>
                    </g>
                </g>
            </g>
        </g>
    </g>
</svg>
