<?xml version="1.0" encoding="UTF-8"?>
<svg width="24px" height="24px" viewBox="0 0 24 24" version="1.1" xmlns="http://www.w3.org/2000/svg" xmlns:xlink="http://www.w3.org/1999/xlink">
    <defs>
        <filter id="filter-1">
            <feColorMatrix in="SourceGraphic" type="matrix" values="0 0 0 0 0.074510 0 0 0 0 0.337255 0 0 0 0 0.345098 0 0 0 1.000000 0"></feColorMatrix>
        </filter>
    </defs>
    <g id="页面-1" stroke="none" stroke-width="1" fill="none" fill-rule="evenodd">
        <g id="totoro-swap" transform="translate(-1068.000000, -384.000000)">
            <g id="icon/duihuan" transform="translate(1062.000000, 378.000000)" filter="url(#filter-1)">
                <g transform="translate(6.000000, 6.000000)">
                    <rect id="矩形" x="0" y="0" width="24" height="24"></rect>
                    <path d="M16.6,7.76394103 C16.750115,7.76394103 16.8947769,7.82021214 17.0054348,7.92164855 L21.5174991,12.0577075 C21.7617705,12.281623 21.7782723,12.6611634 21.5543568,12.9054348 C21.5426106,12.9182488 21.5303131,12.9305463 21.5174991,12.9422925 L17.0054348,17.0783515 C16.7611634,17.3022669 16.381623,17.2857651 16.1577075,17.0414937 C16.0562711,16.9308359 16,16.786174 16,16.636059 L16,14 L2.30769231,14 C1.58547379,14 1,13.3284271 1,12.5 C1,11.6715729 1.58547379,11 2.30769231,11 L16,11 L16,8.36394103 C16,8.03257018 16.2686292,7.76394103 16.6,7.76394103 Z" id="形状结合" fill="#135658" transform="translate(11.500000, 12.500000) rotate(90.000000) translate(-11.500000, -12.500000) "></path>
                </g>
            </g>
        </g>
    </g>
</svg>
