<?xml version="1.0" encoding="UTF-8"?>
<svg width="24px" height="24px" viewBox="0 0 24 24" version="1.1" xmlns="http://www.w3.org/2000/svg" xmlns:xlink="http://www.w3.org/1999/xlink">
    <g id="页面-1" stroke="none" stroke-width="1" fill="none" fill-rule="evenodd">
        <g id="totoro1备份-3" transform="translate(-886.000000, -219.000000)">
            <g id="编组" transform="translate(886.000000, 219.000000)">
                <g id="chevron_right备份" transform="translate(12.000000, 12.000000) scale(-1, 1) translate(-12.000000, -12.000000) translate(8.000000, 5.000000)"></g>
                <rect id="矩形" x="0" y="0" width="24" height="24"></rect>
                <path d="M14.7178432,11.3029432 L10.12106,6.70694001 C9.73055183,6.31649812 9.09747502,6.31652498 8.707,6.707 C8.31653553,7.09746447 8.31653553,7.73053246 8.707,8.12099693 C8.70700051,8.12099744 8.70700102,8.12099795 8.70700154,8.12099846 L12.60001,12.01399 L12.60001,12.01399 L8.70753891,15.9005293 C8.31707382,16.2903994 8.31659145,16.922986 8.7064615,17.3134511 C8.70664093,17.3136308 8.70682043,17.3138104 8.707,17.31399 C9.09746541,17.7044554 9.73053485,17.7044557 10.1210006,17.3139906 L14.7179026,12.7170962 C15.1084878,12.3266328 15.1084884,11.6934678 14.7179644,11.3029432 C14.7179442,11.302923 14.717924,11.3029028 14.7178432,11.3029432 Z" id="路径" fill="#135658" fill-rule="nonzero" transform="translate(11.712505, 12.010495) scale(-1, 1) translate(-11.712505, -12.010495) "></path>
            </g>
        </g>
    </g>
</svg>
