<svg width="42" height="42" viewBox="0 0 42 42" fill="none" xmlns="http://www.w3.org/2000/svg">
    <path d="M22.0885 10.9284C21.0086 10.9284 19.953 10.6082 19.0551 10.0082C18.1572 9.40826 17.4573 8.55553 17.0441 7.55784C16.6308 6.56016 16.5227 5.46234 16.7334 4.4032C16.9441 3.34406 17.4641 2.37119 18.2277 1.60759C18.9913 0.843997 19.9641 0.323982 21.0233 0.113307C22.0824 -0.0973681 23.1802 0.0107581 24.1779 0.424012C25.1756 0.837267 26.0283 1.53709 26.6283 2.43498C27.2282 3.33287 27.5485 4.38851 27.5485 5.46839C27.5451 6.91545 26.9688 8.30229 25.9456 9.32552C24.9224 10.3487 23.5355 10.9251 22.0885 10.9284ZM10.4597 15.2659C9.47266 15.2659 8.50777 14.9732 7.68706 14.4249C6.86636 13.8765 6.22669 13.0971 5.84896 12.1851C5.47123 11.2732 5.3724 10.2698 5.56496 9.30166C5.75753 8.33357 6.23284 7.44432 6.9308 6.74637C7.62875 6.04842 8.518 5.5731 9.48609 5.38054C10.4542 5.18797 11.4576 5.2868 12.3696 5.66453C13.2815 6.04226 14.0609 6.68193 14.6093 7.50264C15.1577 8.32334 15.4504 9.28823 15.4504 10.2753C15.4484 11.5983 14.922 12.8666 13.9865 13.8021C13.051 14.7376 11.7827 15.264 10.4597 15.2659ZM5.52577 26.5545C4.65462 26.5545 3.80305 26.2961 3.07877 25.812C2.35449 25.328 1.79006 24.64 1.45688 23.835C1.1237 23.0301 1.03674 22.1445 1.207 21.2901C1.37725 20.4358 1.79708 19.6511 2.41337 19.0354C3.02966 18.4197 3.81472 18.0006 4.66923 17.8312C5.52374 17.6618 6.40931 17.7496 7.21391 18.0835C8.0185 18.4175 8.70598 18.9825 9.18936 19.7073C9.67274 20.432 9.9303 21.2838 9.92947 22.155C9.92669 23.3217 9.46171 24.4397 8.63634 25.2643C7.81096 26.0889 6.69247 26.5528 5.52577 26.5545ZM10.4608 37.7296C9.72271 37.7296 9.00122 37.5108 8.38755 37.1007C7.77387 36.6907 7.29557 36.1079 7.01313 35.426C6.73069 34.7441 6.65679 33.9938 6.80077 33.2699C6.94476 32.546 7.30017 31.8811 7.82206 31.3592C8.34395 30.8373 9.00887 30.4819 9.73275 30.3379C10.4566 30.194 11.207 30.2679 11.8888 30.5503C12.5707 30.8327 13.1535 31.311 13.5636 31.9247C13.9736 32.5384 14.1925 33.2599 14.1925 33.9979C14.1905 34.987 13.7967 35.9351 13.0973 36.6345C12.3979 37.3339 11.4499 37.7277 10.4608 37.7296ZM22.0885 42C21.4447 42 20.8154 41.8091 20.2801 41.4514C19.7448 41.0938 19.3276 40.5854 19.0812 39.9906C18.8349 39.3958 18.7704 38.7414 18.896 38.11C19.0216 37.4786 19.3316 36.8986 19.7868 36.4434C20.2421 35.9881 20.822 35.6781 21.4535 35.5525C22.0849 35.4269 22.7393 35.4914 23.3341 35.7378C23.9289 35.9841 24.4372 36.4013 24.7949 36.9366C25.1526 37.4719 25.3435 38.1012 25.3435 38.745C25.3435 39.1724 25.2593 39.5957 25.0957 39.9906C24.9321 40.3855 24.6924 40.7444 24.3901 41.0466C24.0879 41.3489 23.729 41.5886 23.3341 41.7522C22.9392 41.9158 22.5159 42 22.0885 42ZM33.8884 36.498C33.3677 36.498 32.8588 36.3436 32.4259 36.0544C31.993 35.7651 31.6556 35.354 31.4564 34.873C31.2572 34.392 31.205 33.8627 31.3066 33.3521C31.4082 32.8415 31.6589 32.3724 32.027 32.0043C32.3952 31.6361 32.8642 31.3854 33.3748 31.2839C33.8855 31.1823 34.4147 31.2344 34.8957 31.4337C35.3767 31.6329 35.7878 31.9703 36.0771 32.4032C36.3663 32.8361 36.5207 33.345 36.5207 33.8656C36.5188 34.5632 36.2408 35.2316 35.7476 35.7248C35.2543 36.2181 34.5859 36.496 33.8884 36.498ZM38.7184 24.3285C38.2914 24.3283 37.8742 24.2015 37.5193 23.9642C37.1644 23.7268 36.8879 23.3896 36.7247 22.9951C36.5614 22.6006 36.5188 22.1666 36.6022 21.7479C36.6856 21.3292 36.8913 20.9446 37.1933 20.6428C37.4952 20.341 37.8799 20.1355 38.2986 20.0523C38.7174 19.9691 39.1514 20.0119 39.5458 20.1753C39.9402 20.3387 40.2773 20.6154 40.5145 20.9704C40.7516 21.3254 40.8782 21.7428 40.8782 22.1697C40.8784 22.4532 40.8226 22.734 40.7142 22.996C40.6057 23.258 40.4467 23.496 40.2462 23.6965C40.0457 23.897 39.8077 24.056 39.5457 24.1644C39.2837 24.2729 39.003 24.3286 38.7194 24.3285H38.7184ZM32.2084 10.4359C32.2072 10.0471 32.341 9.66985 32.5869 9.36861C32.8328 9.06736 33.1756 8.86074 33.5568 8.784C33.938 8.70725 34.3341 8.76513 34.6774 8.94776C35.0207 9.13039 35.29 9.42647 35.4394 9.78549C35.5888 10.1445 35.6091 10.5442 35.4967 10.9165C35.3843 11.2888 35.1462 11.6105 34.8231 11.8269C34.5 12.0433 34.1118 12.1408 33.7248 12.103C33.3378 12.0651 32.9759 11.8942 32.7008 11.6193C32.5445 11.4645 32.4205 11.2801 32.3359 11.077C32.2514 10.8739 32.2081 10.656 32.2084 10.4359Z" fill="#F1F5F8"/>
</svg>