<?xml version="1.0" encoding="UTF-8"?>
<svg width="96px" height="28px" viewBox="0 0 96 28" version="1.1" xmlns="http://www.w3.org/2000/svg" xmlns:xlink="http://www.w3.org/1999/xlink">
    <g id="页面-1" stroke="none" stroke-width="1" fill="none" fill-rule="evenodd">
        <g id="totoro-swap" transform="translate(-60.000000, -18.000000)" fill="#522D1D">
            <g id="logo" transform="translate(60.000000, 18.000000)">
                <path d="M27.0117647,9.41978103 C32.8679739,9.41978103 35.0640523,11.0668399 33.6,14.3609575 C34.6980392,16.1910229 35.2470588,17.8380817 35.2470588,19.302134 C35.2470588,23.8471593 31.2567769,27.5374281 27.0117647,27.5374281 C22.7667525,27.5374281 19.3254902,24.2433104 19.3254902,19.302134 C19.3254902,14.3609575 22.7667733,9.41978103 27.0117647,9.41978103 Z M22.0705882,0.635467305 C24.8156863,1.18448691 27.0117647,2.83154574 27.0117647,3.92958495 C27.0117647,5.02762417 25.3647059,7.77272221 18.227451,7.77272221 L18.227451,22.5962516 C18.227451,25.325188 16.0152109,27.5374281 13.2862745,27.5374281 C10.6282075,27.5374281 8.47341836,25.382639 8.47341836,22.7245719 C8.47341836,22.682363 8.47397362,22.640156 8.475084,22.5979617 L8.89411765,6.67468299 C2.30588235,6.67468299 -0.622222222,5.39363724 0.109803922,2.83154574 C1.25997699,-1.19406 19.3254902,0.0864476967 22.0705882,0.635467305 Z M89.6,9.41978103 C92.0671992,9.41978103 93.8555923,10.4379902 94.9651793,12.4744086 L95.0901961,12.7138987 L93.4431373,14.9099771 C95.2732026,16.0080163 96.0052288,18.0210882 95.6392157,20.9491928 C95.2911019,23.7341033 91.7960784,27.5374281 86.854902,27.5374281 C81.9137255,27.5374281 79.1686275,22.047232 80.2666667,17.1060555 C81.3647059,12.1648791 85.7568627,9.41978103 89.6,9.41978103 Z M75.3254902,9.96880064 C78.0373536,9.70650506 79.9939114,10.8011026 80.2666667,12.1648791 C80.8156863,14.9099771 79.7176471,16.0080163 77.5215686,16.0080163 C75.3254902,16.0080163 75.8745098,15.4589967 74.7764706,15.4589967 C73.6784314,15.4589967 73.1294118,20.4001732 73.1294118,24.2433104 C73.1294118,28.0864477 67.6392157,27.5374281 67.6392157,24.79233 L67.6392157,24.79233 L67.6395767,24.0634024 C67.6433671,21.4660392 67.6869565,18.3711877 68.1882353,14.3609575 C68.5542484,11.4328529 70.0183007,10.3348137 72.5803922,11.0668399 C73.7923153,10.3946014 74.707348,10.0285883 75.3254902,9.96880064 Z M60.5019608,8.87076142 C62.3320261,8.87076142 64.345098,9.96880064 66.5411765,12.1648791 C64.7111111,12.8969052 64.1620915,13.4459248 64.8941176,13.8119379 C65.9921569,14.3609575 67.0901961,18.2040948 66.5411765,20.4001732 C65.9921569,22.5962516 63.2470588,26.4393889 58.3058824,25.8903693 C53.3647059,25.3413497 51.1686275,22.047232 51.7176471,16.0080163 C52.2666667,9.96880064 57.7568627,8.87076142 60.5019608,8.87076142 Z M46.227451,13.8119379 L47.6,13.8119379 C49.2676834,13.8119379 50.6196078,15.1638624 50.6196078,16.8315457 C50.6196078,18.4992291 49.2676834,19.8511536 47.6,19.8511536 L47.3254902,19.8511536 L47.3254902,21.4982124 C49.5215686,21.8642255 50.6196078,22.5962516 50.6196078,23.6942908 C50.6196078,25.3413497 48.972549,25.8903693 45.1294118,25.8903693 C42.5673203,25.8903693 40.9202614,23.5112843 40.1882353,18.7531144 C37.9921569,19.4851405 36.5281046,19.302134 35.7960784,18.2040948 C34.6980392,16.5570359 37.4431373,13.2629183 40.7372549,13.2629183 C40.7372549,11.798866 41.2862745,10.8838333 42.3843137,10.5178202 C44.0313725,9.96880064 46.227451,11.6158595 46.227451,13.8119379 Z M25.9137255,15.4589967 C24.4496732,17.2890621 23.9006536,18.9361209 24.2666667,20.4001732 C24.8156863,22.5962516 25.9137255,23.6942908 28.1098039,23.6942908 C30.3058824,23.6942908 31.4039216,20.9491928 30.3058824,18.7531144 C29.5738562,17.2890621 28.1098039,16.1910229 25.9137255,15.4589967 Z M86.3058824,16.0080163 C84.856323,17.991542 84.3735232,19.6481393 84.8574831,20.9778082 C85.583423,22.9723115 87.5577973,24.0847554 89.2673715,23.4625213 C90.9769458,22.8402871 91.7743391,20.7190023 91.0483992,18.724499 C90.5644393,17.3948301 88.9836004,16.4893359 86.3058824,16.0080163 Z M57.7568627,14.9099771 C55.5607843,16.7400425 55.1947712,18.7531144 56.6588235,20.9491928 C58.854902,24.2433104 63.7960784,22.047232 62.6980392,18.7531144 C61.9660131,16.5570359 60.3189542,15.2759902 57.7568627,14.9099771 Z" id="形状结合"></path>
            </g>
        </g>
    </g>
</svg>
