<?xml version="1.0" encoding="UTF-8"?>
<svg width="24px" height="24px" viewBox="0 0 24 24" version="1.1" xmlns="http://www.w3.org/2000/svg" xmlns:xlink="http://www.w3.org/1999/xlink">
    <defs>
        <filter id="filter-1">
            <feColorMatrix in="SourceGraphic" type="matrix" values="0 0 0 0 0.074510 0 0 0 0 0.337255 0 0 0 0 0.345098 0 0 0 1.000000 0"></feColorMatrix>
        </filter>
    </defs>
    <g id="页面-1" stroke="none" stroke-width="1" fill="none" fill-rule="evenodd">
        <g id="icons8-synchronize-48" transform="translate(-1250.000000, -216.000000)" filter="url(#filter-1)">
            <g transform="translate(1250.000000, 216.000000)">
                <rect id="矩形" x="0" y="0" width="24" height="24"></rect>
                <path d="M5.82962335,10.0476533 L7.53139379,10.9570534 C8.018601,11.2171449 8.20271467,11.8229502 7.94262318,12.3101574 C7.70110965,12.7625641 7.16150616,12.9536299 6.6955668,12.770373 L6.58951919,12.7213867 L6.02688709,12.4209853 C5.99470031,14.9102525 7.51168789,17.1917645 9.87808274,18.1001383 C12.4442558,19.0851999 15.3324428,18.1967204 16.9079059,15.9929087 C17.229092,15.5436226 17.853683,15.4397771 18.3029691,15.7609631 C18.7522552,16.0821492 18.8561007,16.7067402 18.5349147,17.1560263 C16.4328346,20.0964879 12.583066,21.2807741 9.16134684,19.9672992 C6.0695539,18.7804711 4.06553138,15.8357953 4.02694959,12.5941879 L3.80488279,12.7127941 C3.31767558,12.9728856 2.71187029,12.788772 2.45177881,12.3015648 C2.21026528,11.8491581 2.35176538,11.2944908 2.76329726,11.009317 L2.86300819,10.9484608 L4.68562138,9.97397411 C4.69648893,9.96768751 4.70746553,9.96161088 4.71854445,9.95574625 L4.73622291,9.94846077 C5.09879572,9.75490431 5.52704967,9.80735439 5.82962335,10.0476533 Z M14.8938892,4.36279612 C17.9856822,5.54962424 19.9897047,8.49430003 20.0282865,11.7359074 L20.2503533,11.6173012 C20.7375605,11.3572097 21.3433658,11.5413233 21.6034573,12.0285305 C21.8449708,12.4809372 21.7034707,13.0356045 21.2919388,13.3207783 L21.1922279,13.3816345 L19.3696147,14.3561212 C19.3587471,14.3624078 19.3477705,14.3684844 19.3366916,14.3743491 L19.3190132,14.3816345 C18.9564404,14.575191 18.5281864,14.5227409 18.2256127,14.282442 L16.5238423,13.3730419 C16.0366351,13.1129504 15.8525214,12.5071452 16.1126129,12.0199379 C16.3541264,11.5675313 16.8937299,11.3764654 17.3596693,11.5597223 L17.4657169,11.6087086 L18.028349,11.90911 C18.0605358,9.41984282 16.5435482,7.13833085 14.1771533,6.22995698 C11.6109803,5.24489544 8.72279329,6.13337487 7.14733015,8.33718663 C6.82614409,8.78647269 6.20155303,8.89031825 5.75226697,8.56913219 C5.30298092,8.24794613 5.19913536,7.62335507 5.52032142,7.17406902 C7.62240151,4.23360745 11.4721701,3.0493212 14.8938892,4.36279612 Z" id="形状结合" fill="#84C459" fill-rule="nonzero"></path>
            </g>
        </g>
    </g>
</svg>
