<?xml version="1.0" encoding="UTF-8"?>
<svg width="24px" height="24px" viewBox="0 0 24 24" version="1.1" xmlns="http://www.w3.org/2000/svg" xmlns:xlink="http://www.w3.org/1999/xlink">
    <defs>
        <filter id="filter-1">
            <feColorMatrix in="SourceGraphic" type="matrix" values="0 0 0 0 0.074510 0 0 0 0 0.337255 0 0 0 0 0.345098 0 0 0 1.000000 0"></feColorMatrix>
        </filter>
    </defs>
    <g id="页面-1" stroke="none" stroke-width="1" fill="none" fill-rule="evenodd">
        <g id="icons8-services-48" transform="translate(-1218.000000, -216.000000)" filter="url(#filter-1)">
            <g transform="translate(1218.000000, 216.000000)" id="编组-2" fill-rule="nonzero">
                <g id="编组">
                    <rect id="矩形" x="0" y="0" width="24" height="24"></rect>
                </g>
                <path d="M15.4226497,4.07179677 C16.082217,4.07179677 16.6955362,4.3966044 17.0669893,4.93327946 L17.1547005,5.07179677 L20.5773503,11 C20.9048437,11.5672353 20.9321348,12.2551291 20.6592236,12.8424741 L20.5773503,13 L17.1547005,18.9282032 C16.8249169,19.4994052 16.2369656,19.8681515 15.5864648,19.9215018 L15.4226497,19.9282032 L8.57735027,19.9282032 C7.91778303,19.9282032 7.30446376,19.6033956 6.93301066,19.0667205 L6.84529946,18.9282032 L3.42264973,13 C3.09515627,12.4327647 3.06786515,11.7448709 3.34077637,11.1575259 L3.42264973,11 L6.84529946,5.07179677 C7.17508308,4.50059478 7.76303438,4.13184853 8.41353516,4.07849824 L8.57735027,4.07179677 L15.4226497,4.07179677 Z M15.4226497,6.07179677 L8.57735027,6.07179677 L5.15470054,12 L8.57735027,17.9282032 L15.4226497,17.9282032 L18.8452995,12 L15.4226497,6.07179677 Z M12,9 C13.6568542,9 15,10.3431458 15,12 C15,13.6568542 13.6568542,15 12,15 C10.3431458,15 9,13.6568542 9,12 C9,10.3431458 10.3431458,9 12,9 Z M12,11 C11.4477153,11 11,11.4477153 11,12 C11,12.5522847 11.4477153,13 12,13 C12.5522847,13 13,12.5522847 13,12 C13,11.4477153 12.5522847,11 12,11 Z" id="形状" fill="#84C459"></path>
            </g>
        </g>
    </g>
</svg>
