<?xml version="1.0" encoding="UTF-8"?>
<svg width="18px" height="18px" viewBox="0 0 18 18" version="1.1" xmlns="http://www.w3.org/2000/svg" xmlns:xlink="http://www.w3.org/1999/xlink">
    <title>next</title>
    <g id="页面-1" stroke="none" stroke-width="1" fill="none" fill-rule="evenodd">
        <g id="totoro1备份-2" transform="translate(-1472.000000, -392.000000)" fill="#FFFFFF">
            <g id="next" transform="translate(1472.000000, 392.000000)">
                <path d="M9,0 C13.9705627,0 18,4.02943725 18,9 C18,13.9705627 13.9705627,18 9,18 C4.02943725,18 0,13.9705627 0,9 C0,4.02943725 4.02943725,0 9,0 Z M10.3117638,5.42055409 C9.94155122,5.08907977 9.37376211,5.07743817 8.989166,5.41207709 C8.57252022,5.77460258 8.52864705,6.4062457 8.89117255,6.82289149 L8.89117255,6.82289149 L10.0582458,8.16446617 L5.14838323,8.16900672 L5.03176796,8.17583509 C4.53447931,8.23402937 4.14880402,8.65703368 4.14924621,9.16986933 C4.1497232,9.72215388 4.59782466,10.1694826 5.1501092,10.1690064 L5.1501092,10.1690064 L10.0572458,10.1644662 L8.89117255,11.5064657 L8.81471169,11.6062109 C8.53760253,12.0186949 8.60456989,12.5826411 8.989166,12.9172801 C9.37376211,13.251919 9.94155122,13.2402774 10.3117638,12.9088031 L10.3117638,12.9088031 L10.3999804,12.8192866 L13.0071581,9.82289149 L13.0786083,9.73053351 C13.1656205,9.60347521 13.2196793,9.46169944 13.2415681,9.31648415 L13.2415681,9.31648415 L13.2445313,9.29093738 C13.2448723,9.28828905 13.2452027,9.28563948 13.2459999,9.2833349 C13.248293,9.26369179 13.2500022,9.24400171 13.2508737,9.22417708 C13.2519178,9.20719203 13.252531,9.19017987 13.2527121,9.17315838 L13.2527542,9.16201314 C13.2527219,9.12458727 13.250634,9.08764337 13.246797,9.05306641 L13.246797,9.05306641 L13.2465974,9.05128814 L13.2404848,9.00585565 C13.2255479,8.91131686 13.1969495,8.81831529 13.1544995,8.73007299 C13.1524203,8.72574884 13.150311,8.72144196 13.1482058,8.7171716 L13.1482058,8.7171716 L13.1305444,8.68343626 L13.1305444,8.68343626 L13.0900908,8.61596715 L13.0900908,8.61596715 L13.05,8.56 L13.0639564,8.57798314 C13.0565377,8.56771202 13.0489287,8.55758744 13.0411347,8.54761458 L13.0172024,8.51815628 L13.037,8.544 L13.0071581,8.50646566 L10.3999804,5.51007055 Z" id="形状结合"></path>
            </g>
        </g>
    </g>
</svg>
