<svg width="16" height="16" viewBox="0 0 16 16" fill="none" xmlns="http://www.w3.org/2000/svg">
    <path fill-rule="evenodd" clip-rule="evenodd" d="M8.27344 -4.37112e-08C8.82572 -1.95702e-08 9.27344 0.447715 9.27344 1L9.27344 15C9.27344 15.5523 8.82572 16 8.27344 16C7.72115 16 7.27344 15.5523 7.27344 15L7.27344 1C7.27344 0.447715 7.72115 -6.78523e-08 8.27344 -4.37112e-08Z" fill="white"/>
    <path fill-rule="evenodd" clip-rule="evenodd" d="M16 8.27277C16 8.82505 15.5523 9.27277 15 9.27277L1 9.27276C0.447715 9.27276 3.91405e-08 8.82505 8.74228e-08 8.27276C1.35705e-07 7.72048 0.447715 7.27276 1 7.27276L15 7.27277C15.5523 7.27277 16 7.72048 16 8.27277Z" fill="white"/>
</svg>