<?xml version="1.0" encoding="UTF-8"?>
<svg width="10" height="10" viewBox="0 0 10 10" fill="none" xmlns="http://www.w3.org/2000/svg">
    <path fill-rule="evenodd" clip-rule="evenodd" d="M0.333008 0.851831C0.333008 0.565462 0.565156 0.333313 0.851526 0.333313H9.14782C9.43419 0.333313 9.66634 0.565462 9.66634 0.851831V9.14813C9.66634 9.4345 9.43419 9.66665 9.14782 9.66665C8.86145 9.66665 8.6293 9.4345 8.6293 9.14813V1.37035H0.851526C0.565156 1.37035 0.333008 1.1382 0.333008 0.851831Z" fill="#4169FF"/>
    <path fill-rule="evenodd" clip-rule="evenodd" d="M9.51447 0.485184C9.71696 0.687678 9.71696 1.01599 9.51447 1.21848L1.21817 9.51478C1.01568 9.71727 0.687372 9.71727 0.484878 9.51478C0.282384 9.31228 0.282384 8.98397 0.484878 8.78148L8.78117 0.485184C8.98367 0.282689 9.31198 0.282689 9.51447 0.485184Z" fill="#4169FF"/>
</svg>
