<svg width="64" height="64" viewBox="0 0 64 64" fill="none" xmlns="http://www.w3.org/2000/svg">
    <g clip-path="url(#clip0)">
        <path d="M63.0436 39.7415C58.7704 56.8837 41.4042 67.3157 24.2572 63.0424C7.11747 58.7692 -3.317 41.4031 0.961156 24.2634C5.23193 7.11383 22.5981 -3.31571 39.7378 0.95752C56.8849 5.23075 67.3169 22.5969 63.0436 39.7415Z" fill="white"/>
        <path d="M46.2652 27.4461C46.9052 23.1581 43.6363 20.8492 39.1612 19.3132L40.6135 13.504L37.0689 12.6203L35.656 18.2794C34.7122 18.0476 33.7661 17.8253 32.8178 17.6123L34.2406 11.9163L30.6984 11.0351L29.2461 16.8443C28.4757 16.6695 27.72 16.4948 26.984 16.3126L26.9889 16.2954L22.1028 15.0769L21.16 18.8554C21.16 18.8554 23.7889 19.456 23.7323 19.4954C25.1674 19.8498 25.4283 20.8 25.384 21.5508L23.7298 28.1723C23.8283 28.1969 23.9588 28.2314 24.0991 28.288L23.7249 28.1969L21.4086 37.472C21.2314 37.9052 20.7858 38.56 19.784 38.3089C19.8184 38.3631 17.2092 37.6689 17.2092 37.6689L15.4492 41.7182L20.0597 42.8652C20.9188 43.0818 21.7581 43.3058 22.5877 43.5175L21.1206 49.3957L24.6603 50.2769L26.1126 44.4603C27.0511 44.7141 27.9923 44.9579 28.936 45.1914L27.4886 50.9809L31.0332 51.8621L32.4978 45.9963C38.5409 47.136 43.0849 46.6757 44.9975 41.2209C46.5384 36.8271 44.9212 34.2941 41.7409 32.6425C44.0548 32.1083 45.8024 30.5895 46.2652 27.4486V27.4461ZM38.1668 38.7815C37.0738 43.1729 29.6646 40.8 27.2621 40.2043L29.2068 32.416C31.6092 33.0142 39.3138 34.2006 38.1668 38.7815ZM39.2646 27.3846C38.2652 31.3797 32.0991 29.3489 30.0978 28.8517L31.8628 21.7871C33.864 22.2868 40.3058 23.2148 39.2646 27.3846Z" fill="#F7931A"/>
    </g>
    <defs>
        <clipPath id="clip0">
            <rect width="64" height="64" fill="white"/>
        </clipPath>
    </defs>
</svg>