<svg width="62" height="37" viewBox="0 0 62 37" fill="none" xmlns="http://www.w3.org/2000/svg">
    <path d="M26 18C26 27.9412 34.0588 36 44 36C53.9412 36 62 27.9412 62 18C62 8.0588 53.9412 0 44 0C34.0588 0 26 8.0588 26 18Z" fill="#627EEA"/>
    <path d="M44.5596 4.5V14.478L52.994 18.2476L44.5596 4.5Z" fill="white" fill-opacity="0.602"/>
    <path d="M44.5598 4.5L36.125 18.2476L44.5598 14.4796V4.5Z" fill="white"/>
    <path d="M44.5596 24.7141V31.4941L53 19.8181L44.5596 24.7141Z" fill="white" fill-opacity="0.602"/>
    <path d="M44.5598 31.4939V24.7139L36.125 19.8159L44.5602 31.4923L44.5598 31.4939Z" fill="white"/>
    <path d="M44.5596 23.1452L52.994 18.2476L44.5596 14.4812V23.1452Z" fill="white" fill-opacity="0.2"/>
    <path d="M36.1254 18.2476L44.5598 23.1452V14.4812L36.125 18.246L36.1254 18.2476Z" fill="white" fill-opacity="0.602"/>
    <path d="M1.02467 14.7692L1.02473 14.769C3.36027 5.3905 12.8572 -0.313131 22.2304 2.02377L22.2305 2.02379C31.6077 4.36068 37.3127 13.8577 34.9758 23.2337C32.6389 32.608 23.1419 38.3132 13.7645 35.9762C4.39137 33.6394 -1.31489 24.1423 1.02467 14.7692Z" fill="#F7931A" stroke="white"/>
    <path d="M26.022 16.4384C26.382 14.0264 24.5432 12.7276 22.026 11.8636L22.8429 8.59592L20.8491 8.09885L20.0543 11.2821C19.5234 11.1517 18.9912 11.0266 18.4578 10.9068L19.2581 7.70285L17.2657 7.20715L16.4488 10.4748C16.0154 10.3765 15.5903 10.2782 15.1763 10.1758L15.1791 10.1661L12.4306 9.48069L11.9003 11.6061C11.9003 11.6061 13.3791 11.9439 13.3472 11.9661C14.1544 12.1655 14.3012 12.6999 14.2763 13.1222L13.3458 16.8468C13.4012 16.8607 13.4746 16.8801 13.5535 16.9119L13.3431 16.8607L12.0401 22.0779C11.9405 22.3216 11.6898 22.6899 11.1263 22.5487C11.1457 22.5792 9.67799 22.1887 9.67799 22.1887L8.68799 24.4664L11.2814 25.1116C11.7646 25.2335 12.2368 25.3595 12.7034 25.4785L11.8781 28.785L13.8692 29.2807L14.6861 26.0088C15.214 26.1516 15.7434 26.2887 16.2743 26.4201L15.4601 29.6767L17.454 30.1724L18.2778 26.8728C21.6771 27.5139 24.2331 27.255 25.3089 24.1867C26.1757 21.7152 25.266 20.2904 23.4771 19.3613C24.7786 19.0608 25.7617 18.2065 26.022 16.4398V16.4384ZM21.4666 22.8145C20.8518 25.2847 16.6841 23.9499 15.3328 23.6148L16.4266 19.2339C17.778 19.5704 22.1118 20.2378 21.4666 22.8145ZM22.0841 16.4038C21.522 18.651 18.0535 17.5087 16.9278 17.229L17.9206 13.2552C19.0463 13.5362 22.6698 14.0582 22.0841 16.4038Z" fill="white"/>
</svg>
