<svg width="64" height="64" viewBox="0 0 64 64" fill="none" xmlns="http://www.w3.org/2000/svg">
    <g clip-path="url(#clip0)">
        <path d="M63.0436 39.7415C58.7704 56.8837 41.4042 67.3157 24.2572 63.0424C7.11747 58.7692 -3.317 41.4031 0.961156 24.2634C5.23193 7.11383 22.5981 -3.3157 39.7378 0.957526C56.8849 5.23076 67.3169 22.5969 63.0436 39.7415Z" fill="#F7931A"/>
        <path d="M46.2642 27.4461C46.9042 23.1581 43.6353 20.8492 39.1602 19.3132L40.6125 13.504L37.0679 12.6203L35.655 18.2794C34.7112 18.0476 33.7651 17.8253 32.8169 17.6123L34.2396 11.9163L30.6975 11.0351L29.2452 16.8443C28.4747 16.6695 27.719 16.4948 26.983 16.3126L26.9879 16.2954L22.1018 15.0769L21.159 18.8554C21.159 18.8554 23.7879 19.456 23.7313 19.4954C25.1664 19.8498 25.4273 20.8 25.383 21.5508L23.7289 28.1723C23.8273 28.1969 23.9578 28.2314 24.0981 28.288L23.7239 28.1969L21.4076 37.472C21.2304 37.9052 20.7849 38.56 19.783 38.3089C19.8175 38.3631 17.2082 37.6689 17.2082 37.6689L15.4482 41.7181L20.0587 42.8652C20.9178 43.0818 21.7572 43.3058 22.5867 43.5175L21.1196 49.3957L24.6593 50.2769L26.1116 44.4603C27.0501 44.7141 27.9913 44.9578 28.935 45.1914L27.4876 50.9809L31.0322 51.8621L32.4969 45.9963C38.5399 47.136 43.0839 46.6757 44.9965 41.2209C46.5375 36.8271 44.9202 34.2941 41.7399 32.6424C44.0538 32.1083 45.8015 30.5895 46.2642 27.4486V27.4461ZM38.1658 38.7815C37.0729 43.1729 29.6636 40.8 27.2612 40.2043L29.2058 32.416C31.6082 33.0141 39.3129 34.2006 38.1658 38.7815ZM39.2636 27.3846C38.2642 31.3797 32.0981 29.3489 30.0969 28.8517L31.8618 21.7871C33.863 22.2868 40.3049 23.2148 39.2636 27.3846Z" fill="white"/>
    </g>
    <defs>
        <clipPath id="clip0">
            <rect width="64" height="64" fill="white"/>
        </clipPath>
    </defs>
</svg>