<svg width="64" height="64" viewBox="0 0 64 64" fill="none" xmlns="http://www.w3.org/2000/svg">
    <path d="M0 32C0 49.6732 14.3268 64 32 64C49.6732 64 64 49.6732 64 32C64 14.3268 49.6732 0 32 0C14.3268 0 0 14.3268 0 32Z" fill="#627EEA"/>
    <path d="M32.9941 8V25.7387L47.9886 32.4402L32.9941 8Z" fill="white" fill-opacity="0.602"/>
    <path d="M32.9952 8L18 32.4402L32.9952 25.7415V8Z" fill="white"/>
    <path d="M32.9941 43.936V55.9893L47.9993 35.232L32.9941 43.936Z" fill="white" fill-opacity="0.602"/>
    <path d="M32.9952 55.9893V43.936L18 35.2285L32.9959 55.9865L32.9952 55.9893Z" fill="white"/>
    <path d="M32.9941 41.147L47.9886 32.4402L32.9941 25.7444V41.147Z" fill="white" fill-opacity="0.2"/>
    <path d="M18.0007 32.4402L32.9952 41.147V25.7444L18 32.4373L18.0007 32.4402Z" fill="white" fill-opacity="0.602"/>
</svg>