<?xml version="1.0" encoding="UTF-8"?>
<svg width="64" height="64" viewBox="0 0 64 64" fill="none" xmlns="http://www.w3.org/2000/svg">
    <path d="M63.9795 30.8658C64.1367 35.2567 63.3877 39.6328 61.7792 43.7215C60.1707 47.8101 57.7372 51.5236 54.6304 54.6304C51.5236 57.7372 47.8101 60.1707 43.7215 61.7792C39.6328 63.3877 35.2567 64.1367 30.8658 63.9795C13.574 63.3873 0 48.8492 0 31.5575V24.6408H22.4793V31.9898C22.5221 33.8089 23.098 35.5754 24.1354 37.0703C25.1729 38.5652 26.6264 39.7226 28.3155 40.3991C30.0047 41.0756 31.8553 41.2414 33.6379 40.8759C35.4204 40.5105 37.0564 39.6298 38.3431 38.3431C39.6298 37.0564 40.5105 35.4204 40.8759 33.6379C41.2414 31.8553 41.0756 30.0047 40.3991 28.3155C39.7226 26.6264 38.5652 25.1729 37.0703 24.1354C35.5754 23.098 33.8089 22.5221 31.9898 22.4793H24.6408V0H31.5315C48.8492 0 63.37 13.5654 63.9795 30.8658Z" fill="url(#paint0_linear)"/>
    <mask id="mask0" mask-type="alpha" maskUnits="userSpaceOnUse" x="0" y="0" width="64" height="64">
        <path d="M63.9795 30.8658C64.1367 35.2567 63.3877 39.6328 61.7792 43.7215C60.1707 47.8101 57.7372 51.5236 54.6304 54.6304C51.5236 57.7372 47.8101 60.1707 43.7215 61.7792C39.6328 63.3877 35.2567 64.1367 30.8658 63.9795C13.574 63.3873 0 48.8492 0 31.5575V24.6408H22.4793V31.9898C22.5221 33.8089 23.098 35.5754 24.1354 37.0703C25.1729 38.5652 26.6264 39.7226 28.3155 40.3991C30.0047 41.0756 31.8553 41.2414 33.6379 40.8759C35.4204 40.5105 37.0564 39.6298 38.3431 38.3431C39.6298 37.0564 40.5105 35.4204 40.8759 33.6379C41.2414 31.8553 41.0756 30.0047 40.3991 28.3155C39.7226 26.6264 38.5652 25.1729 37.0703 24.1354C35.5754 23.098 33.8089 22.5221 31.9898 22.4793H24.6408V0H31.5315C48.8492 0 63.37 13.5654 63.9795 30.8658Z" fill="url(#paint1_linear)"/>
    </mask>
    <g mask="url(#mask0)">
        <g opacity="0.3">
            <path d="M-37.0893 -5.12008V-12.411H-38.4205L-39.9053 -11.1207V-9.68712L-38.4205 -10.9774V-5.12008H-37.0893Z" fill="white"/>
            <path d="M-30.4029 -7.22952V-10.3015C-30.4029 -11.6942 -31.4269 -12.4724 -32.6147 -12.4724C-33.8026 -12.4724 -34.8368 -11.6942 -34.8368 -10.3015V-7.22952C-34.8368 -5.83688 -33.8026 -5.05864 -32.6147 -5.05864C-31.4269 -5.05864 -30.4029 -5.83688 -30.4029 -7.22952ZM-31.7341 -7.23976C-31.7341 -6.62536 -32.0925 -6.25672 -32.6147 -6.25672C-33.137 -6.25672 -33.5056 -6.62536 -33.5056 -7.23976V-10.281C-33.5056 -10.8954 -33.137 -11.2743 -32.6147 -11.2743C-32.0925 -11.2743 -31.7341 -10.8954 -31.7341 -10.281V-7.23976Z" fill="white"/>
            <path d="M-25.9693 -5.12008V-12.411H-27.3005L-28.7853 -11.1207V-9.68712L-27.3005 -10.9774V-5.12008H-25.9693Z" fill="white"/>
            <path d="M-19.2829 -7.22952V-10.3015C-19.2829 -11.6942 -20.3069 -12.4724 -21.4947 -12.4724C-22.6826 -12.4724 -23.7168 -11.6942 -23.7168 -10.3015V-7.22952C-23.7168 -5.83688 -22.6826 -5.05864 -21.4947 -5.05864C-20.3069 -5.05864 -19.2829 -5.83688 -19.2829 -7.22952ZM-20.6141 -7.23976C-20.6141 -6.62536 -20.9725 -6.25672 -21.4947 -6.25672C-22.017 -6.25672 -22.3856 -6.62536 -22.3856 -7.23976V-10.281C-22.3856 -10.8954 -22.017 -11.2743 -21.4947 -11.2743C-20.9725 -11.2743 -20.6141 -10.8954 -20.6141 -10.281V-7.23976Z" fill="white"/>
            <path d="M-14.8493 -5.12008V-12.411H-16.1805L-17.6653 -11.1207V-9.68712L-16.1805 -10.9774V-5.12008H-14.8493Z" fill="white"/>
            <path d="M-8.16287 -7.22952V-10.3015C-8.16287 -11.6942 -9.18687 -12.4724 -10.3747 -12.4724C-11.5625 -12.4724 -12.5968 -11.6942 -12.5968 -10.3015V-7.22952C-12.5968 -5.83688 -11.5625 -5.05864 -10.3747 -5.05864C-9.18687 -5.05864 -8.16287 -5.83688 -8.16287 -7.22952ZM-9.49407 -7.23976C-9.49407 -6.62536 -9.85247 -6.25672 -10.3747 -6.25672C-10.8969 -6.25672 -11.2656 -6.62536 -11.2656 -7.23976V-10.281C-11.2656 -10.8954 -10.8969 -11.2743 -10.3747 -11.2743C-9.85247 -11.2743 -9.49407 -10.8954 -9.49407 -10.281V-7.23976Z" fill="white"/>
            <path d="M-3.72927 -5.12008V-12.411H-5.06047L-6.54527 -11.1207V-9.68712L-5.06047 -10.9774V-5.12008H-3.72927Z" fill="white"/>
            <path d="M2.95713 -7.22952V-10.3015C2.95713 -11.6942 1.93313 -12.4724 0.745289 -12.4724C-0.442551 -12.4724 -1.47679 -11.6942 -1.47679 -10.3015V-7.22952C-1.47679 -5.83688 -0.442551 -5.05864 0.745289 -5.05864C1.93313 -5.05864 2.95713 -5.83688 2.95713 -7.22952ZM1.62593 -7.23976C1.62593 -6.62536 1.26753 -6.25672 0.745289 -6.25672C0.223049 -6.25672 -0.145592 -6.62536 -0.145592 -7.23976V-10.281C-0.145592 -10.8954 0.223049 -11.2743 0.745289 -11.2743C1.26753 -11.2743 1.62593 -10.8954 1.62593 -10.281V-7.23976Z" fill="white"/>
            <path d="M7.39073 -5.12008V-12.411H6.05953L4.57473 -11.1207V-9.68712L6.05953 -10.9774V-5.12008H7.39073Z" fill="white"/>
            <path d="M14.0771 -7.22952V-10.3015C14.0771 -11.6942 13.0531 -12.4724 11.8653 -12.4724C10.6774 -12.4724 9.64321 -11.6942 9.64321 -10.3015V-7.22952C9.64321 -5.83688 10.6774 -5.05864 11.8653 -5.05864C13.0531 -5.05864 14.0771 -5.83688 14.0771 -7.22952ZM12.7459 -7.23976C12.7459 -6.62536 12.3875 -6.25672 11.8653 -6.25672C11.343 -6.25672 10.9744 -6.62536 10.9744 -7.23976V-10.281C10.9744 -10.8954 11.343 -11.2743 11.8653 -11.2743C12.3875 -11.2743 12.7459 -10.8954 12.7459 -10.281V-7.23976Z" fill="white"/>
            <path d="M18.5107 -5.12008V-12.411H17.1795L15.6947 -11.1207V-9.68712L17.1795 -10.9774V-5.12008H18.5107Z" fill="white"/>
            <path d="M25.1971 -7.22952V-10.3015C25.1971 -11.6942 24.1731 -12.4724 22.9853 -12.4724C21.7974 -12.4724 20.7632 -11.6942 20.7632 -10.3015V-7.22952C20.7632 -5.83688 21.7974 -5.05864 22.9853 -5.05864C24.1731 -5.05864 25.1971 -5.83688 25.1971 -7.22952ZM23.8659 -7.23976C23.8659 -6.62536 23.5075 -6.25672 22.9853 -6.25672C22.463 -6.25672 22.0944 -6.62536 22.0944 -7.23976V-10.281C22.0944 -10.8954 22.463 -11.2743 22.9853 -11.2743C23.5075 -11.2743 23.8659 -10.8954 23.8659 -10.281V-7.23976Z" fill="white"/>
            <path d="M29.6307 -5.12008V-12.411H28.2995L26.8147 -11.1207V-9.68712L28.2995 -10.9774V-5.12008H29.6307Z" fill="white"/>
            <path d="M36.3171 -7.22952V-10.3015C36.3171 -11.6942 35.2931 -12.4724 34.1053 -12.4724C32.9174 -12.4724 31.8832 -11.6942 31.8832 -10.3015V-7.22952C31.8832 -5.83688 32.9174 -5.05864 34.1053 -5.05864C35.2931 -5.05864 36.3171 -5.83688 36.3171 -7.22952ZM34.9859 -7.23976C34.9859 -6.62536 34.6275 -6.25672 34.1053 -6.25672C33.583 -6.25672 33.2144 -6.62536 33.2144 -7.23976V-10.281C33.2144 -10.8954 33.583 -11.2743 34.1053 -11.2743C34.6275 -11.2743 34.9859 -10.8954 34.9859 -10.281V-7.23976Z" fill="white"/>
            <path d="M40.7507 -5.12008V-12.411H39.4195L37.9347 -11.1207V-9.68712L39.4195 -10.9774V-5.12008H40.7507Z" fill="white"/>
            <path d="M47.4371 -7.22952V-10.3015C47.4371 -11.6942 46.4131 -12.4724 45.2253 -12.4724C44.0375 -12.4724 43.0032 -11.6942 43.0032 -10.3015V-7.22952C43.0032 -5.83688 44.0375 -5.05864 45.2253 -5.05864C46.4131 -5.05864 47.4371 -5.83688 47.4371 -7.22952ZM46.1059 -7.23976C46.1059 -6.62536 45.7475 -6.25672 45.2253 -6.25672C44.7031 -6.25672 44.3344 -6.62536 44.3344 -7.23976V-10.281C44.3344 -10.8954 44.7031 -11.2743 45.2253 -11.2743C45.7475 -11.2743 46.1059 -10.8954 46.1059 -10.281V-7.23976Z" fill="white"/>
            <path d="M51.8707 -5.12008V-12.411H50.5395L49.0547 -11.1207V-9.68712L50.5395 -10.9774V-5.12008H51.8707Z" fill="white"/>
            <path d="M58.5571 -7.22952V-10.3015C58.5571 -11.6942 57.5331 -12.4724 56.3453 -12.4724C55.1575 -12.4724 54.1232 -11.6942 54.1232 -10.3015V-7.22952C54.1232 -5.83688 55.1575 -5.05864 56.3453 -5.05864C57.5331 -5.05864 58.5571 -5.83688 58.5571 -7.22952ZM57.2259 -7.23976C57.2259 -6.62536 56.8675 -6.25672 56.3453 -6.25672C55.8231 -6.25672 55.4544 -6.62536 55.4544 -7.23976V-10.281C55.4544 -10.8954 55.8231 -11.2743 56.3453 -11.2743C56.8675 -11.2743 57.2259 -10.8954 57.2259 -10.281V-7.23976Z" fill="white"/>
            <path d="M62.9907 -5.12008V-12.411H61.6595L60.1747 -11.1207V-9.68712L61.6595 -10.9774V-5.12008H62.9907Z" fill="white"/>
            <path d="M69.6771 -7.22952V-10.3015C69.6771 -11.6942 68.6531 -12.4724 67.4653 -12.4724C66.2775 -12.4724 65.2432 -11.6942 65.2432 -10.3015V-7.22952C65.2432 -5.83688 66.2775 -5.05864 67.4653 -5.05864C68.6531 -5.05864 69.6771 -5.83688 69.6771 -7.22952ZM68.3459 -7.23976C68.3459 -6.62536 67.9875 -6.25672 67.4653 -6.25672C66.9431 -6.25672 66.5744 -6.62536 66.5744 -7.23976V-10.281C66.5744 -10.8954 66.9431 -11.2743 67.4653 -11.2743C67.9875 -11.2743 68.3459 -10.8954 68.3459 -10.281V-7.23976Z" fill="white"/>
            <path d="M74.1107 -5.12008V-12.411H72.7795L71.2947 -11.1207V-9.68712L72.7795 -10.9774V-5.12008H74.1107Z" fill="white"/>
            <path d="M80.7971 -7.22952V-10.3015C80.7971 -11.6942 79.7731 -12.4724 78.5853 -12.4724C77.3975 -12.4724 76.3632 -11.6942 76.3632 -10.3015V-7.22952C76.3632 -5.83688 77.3975 -5.05864 78.5853 -5.05864C79.7731 -5.05864 80.7971 -5.83688 80.7971 -7.22952ZM79.4659 -7.23976C79.4659 -6.62536 79.1075 -6.25672 78.5853 -6.25672C78.0631 -6.25672 77.6944 -6.62536 77.6944 -7.23976V-10.281C77.6944 -10.8954 78.0631 -11.2743 78.5853 -11.2743C79.1075 -11.2743 79.4659 -10.8954 79.4659 -10.281V-7.23976Z" fill="white"/>
            <path d="M-37.0893 5.11992V-2.17096H-38.4205L-39.9053 -0.880715V0.552885L-38.4205 -0.737356V5.11992H-37.0893Z" fill="white"/>
            <path d="M-30.4029 3.01048V-0.0615158C-30.4029 -1.45416 -31.4269 -2.2324 -32.6147 -2.2324C-33.8026 -2.2324 -34.8368 -1.45416 -34.8368 -0.0615158V3.01048C-34.8368 4.40313 -33.8026 5.18137 -32.6147 5.18137C-31.4269 5.18137 -30.4029 4.40313 -30.4029 3.01048ZM-31.7341 3.00025C-31.7341 3.61465 -32.0925 3.98328 -32.6147 3.98328C-33.137 3.98328 -33.5056 3.61465 -33.5056 3.00025V-0.0410347C-33.5056 -0.655435 -33.137 -1.03432 -32.6147 -1.03432C-32.0925 -1.03432 -31.7341 -0.655435 -31.7341 -0.0410347V3.00025Z" fill="white"/>
            <path d="M-25.9693 5.11992V-2.17096H-27.3005L-28.7853 -0.880715V0.552885L-27.3005 -0.737356V5.11992H-25.9693Z" fill="white"/>
            <path d="M-19.2829 3.01048V-0.0615158C-19.2829 -1.45416 -20.3069 -2.2324 -21.4947 -2.2324C-22.6826 -2.2324 -23.7168 -1.45416 -23.7168 -0.0615158V3.01048C-23.7168 4.40313 -22.6826 5.18137 -21.4947 5.18137C-20.3069 5.18137 -19.2829 4.40313 -19.2829 3.01048ZM-20.6141 3.00025C-20.6141 3.61465 -20.9725 3.98328 -21.4947 3.98328C-22.017 3.98328 -22.3856 3.61465 -22.3856 3.00025V-0.0410347C-22.3856 -0.655435 -22.017 -1.03432 -21.4947 -1.03432C-20.9725 -1.03432 -20.6141 -0.655435 -20.6141 -0.0410347V3.00025Z" fill="white"/>
            <path d="M-14.8493 5.11992V-2.17096H-16.1805L-17.6653 -0.880715V0.552885L-16.1805 -0.737356V5.11992H-14.8493Z" fill="white"/>
            <path d="M-8.16287 3.01048V-0.0615158C-8.16287 -1.45416 -9.18687 -2.2324 -10.3747 -2.2324C-11.5625 -2.2324 -12.5968 -1.45416 -12.5968 -0.0615158V3.01048C-12.5968 4.40313 -11.5625 5.18137 -10.3747 5.18137C-9.18687 5.18137 -8.16287 4.40313 -8.16287 3.01048ZM-9.49407 3.00025C-9.49407 3.61465 -9.85247 3.98328 -10.3747 3.98328C-10.8969 3.98328 -11.2656 3.61465 -11.2656 3.00025V-0.0410347C-11.2656 -0.655435 -10.8969 -1.03432 -10.3747 -1.03432C-9.85247 -1.03432 -9.49407 -0.655435 -9.49407 -0.0410347V3.00025Z" fill="white"/>
            <path d="M-3.72927 5.11992V-2.17096H-5.06047L-6.54527 -0.880715V0.552885L-5.06047 -0.737356V5.11992H-3.72927Z" fill="white"/>
            <path d="M2.95713 3.01048V-0.0615158C2.95713 -1.45416 1.93313 -2.2324 0.745289 -2.2324C-0.442551 -2.2324 -1.47679 -1.45416 -1.47679 -0.0615158V3.01048C-1.47679 4.40313 -0.442551 5.18137 0.745289 5.18137C1.93313 5.18137 2.95713 4.40313 2.95713 3.01048ZM1.62593 3.00025C1.62593 3.61465 1.26753 3.98328 0.745289 3.98328C0.223049 3.98328 -0.145592 3.61465 -0.145592 3.00025V-0.0410347C-0.145592 -0.655435 0.223049 -1.03432 0.745289 -1.03432C1.26753 -1.03432 1.62593 -0.655435 1.62593 -0.0410347V3.00025Z" fill="white"/>
            <path d="M7.39073 5.11992V-2.17096H6.05953L4.57473 -0.880715V0.552885L6.05953 -0.737356V5.11992H7.39073Z" fill="white"/>
            <path d="M14.0771 3.01048V-0.0615158C14.0771 -1.45416 13.0531 -2.2324 11.8653 -2.2324C10.6774 -2.2324 9.64321 -1.45416 9.64321 -0.0615158V3.01048C9.64321 4.40313 10.6774 5.18137 11.8653 5.18137C13.0531 5.18137 14.0771 4.40313 14.0771 3.01048ZM12.7459 3.00025C12.7459 3.61465 12.3875 3.98328 11.8653 3.98328C11.343 3.98328 10.9744 3.61465 10.9744 3.00025V-0.0410347C10.9744 -0.655435 11.343 -1.03432 11.8653 -1.03432C12.3875 -1.03432 12.7459 -0.655435 12.7459 -0.0410347V3.00025Z" fill="white"/>
            <path d="M18.5107 5.11992V-2.17096H17.1795L15.6947 -0.880715V0.552885L17.1795 -0.737356V5.11992H18.5107Z" fill="white"/>
            <path d="M25.1971 3.01048V-0.0615158C25.1971 -1.45416 24.1731 -2.2324 22.9853 -2.2324C21.7974 -2.2324 20.7632 -1.45416 20.7632 -0.0615158V3.01048C20.7632 4.40313 21.7974 5.18137 22.9853 5.18137C24.1731 5.18137 25.1971 4.40313 25.1971 3.01048ZM23.8659 3.00025C23.8659 3.61465 23.5075 3.98328 22.9853 3.98328C22.463 3.98328 22.0944 3.61465 22.0944 3.00025V-0.0410347C22.0944 -0.655435 22.463 -1.03432 22.9853 -1.03432C23.5075 -1.03432 23.8659 -0.655435 23.8659 -0.0410347V3.00025Z" fill="white"/>
            <path d="M29.6307 5.11992V-2.17096H28.2995L26.8147 -0.880715V0.552885L28.2995 -0.737356V5.11992H29.6307Z" fill="white"/>
            <path d="M36.3171 3.01048V-0.0615158C36.3171 -1.45416 35.2931 -2.2324 34.1053 -2.2324C32.9174 -2.2324 31.8832 -1.45416 31.8832 -0.0615158V3.01048C31.8832 4.40313 32.9174 5.18137 34.1053 5.18137C35.2931 5.18137 36.3171 4.40313 36.3171 3.01048ZM34.9859 3.00025C34.9859 3.61465 34.6275 3.98328 34.1053 3.98328C33.583 3.98328 33.2144 3.61465 33.2144 3.00025V-0.0410347C33.2144 -0.655435 33.583 -1.03432 34.1053 -1.03432C34.6275 -1.03432 34.9859 -0.655435 34.9859 -0.0410347V3.00025Z" fill="white"/>
            <path d="M40.7507 5.11992V-2.17096H39.4195L37.9347 -0.880715V0.552885L39.4195 -0.737356V5.11992H40.7507Z" fill="white"/>
            <path d="M47.4371 3.01048V-0.0615158C47.4371 -1.45416 46.4131 -2.2324 45.2253 -2.2324C44.0375 -2.2324 43.0032 -1.45416 43.0032 -0.0615158V3.01048C43.0032 4.40313 44.0375 5.18137 45.2253 5.18137C46.4131 5.18137 47.4371 4.40313 47.4371 3.01048ZM46.1059 3.00025C46.1059 3.61465 45.7475 3.98328 45.2253 3.98328C44.7031 3.98328 44.3344 3.61465 44.3344 3.00025V-0.0410347C44.3344 -0.655435 44.7031 -1.03432 45.2253 -1.03432C45.7475 -1.03432 46.1059 -0.655435 46.1059 -0.0410347V3.00025Z" fill="white"/>
            <path d="M51.8707 5.11992V-2.17096H50.5395L49.0547 -0.880715V0.552885L50.5395 -0.737356V5.11992H51.8707Z" fill="white"/>
            <path d="M58.5571 3.01048V-0.0615158C58.5571 -1.45416 57.5331 -2.2324 56.3453 -2.2324C55.1575 -2.2324 54.1232 -1.45416 54.1232 -0.0615158V3.01048C54.1232 4.40313 55.1575 5.18137 56.3453 5.18137C57.5331 5.18137 58.5571 4.40313 58.5571 3.01048ZM57.2259 3.00025C57.2259 3.61465 56.8675 3.98328 56.3453 3.98328C55.8231 3.98328 55.4544 3.61465 55.4544 3.00025V-0.0410347C55.4544 -0.655435 55.8231 -1.03432 56.3453 -1.03432C56.8675 -1.03432 57.2259 -0.655435 57.2259 -0.0410347V3.00025Z" fill="white"/>
            <path d="M62.9907 5.11992V-2.17096H61.6595L60.1747 -0.880715V0.552885L61.6595 -0.737356V5.11992H62.9907Z" fill="white"/>
            <path d="M69.6771 3.01048V-0.0615158C69.6771 -1.45416 68.6531 -2.2324 67.4653 -2.2324C66.2775 -2.2324 65.2432 -1.45416 65.2432 -0.0615158V3.01048C65.2432 4.40313 66.2775 5.18137 67.4653 5.18137C68.6531 5.18137 69.6771 4.40313 69.6771 3.01048ZM68.3459 3.00025C68.3459 3.61465 67.9875 3.98328 67.4653 3.98328C66.9431 3.98328 66.5744 3.61465 66.5744 3.00025V-0.0410347C66.5744 -0.655435 66.9431 -1.03432 67.4653 -1.03432C67.9875 -1.03432 68.3459 -0.655435 68.3459 -0.0410347V3.00025Z" fill="white"/>
            <path d="M74.1107 5.11992V-2.17096H72.7795L71.2947 -0.880715V0.552885L72.7795 -0.737356V5.11992H74.1107Z" fill="white"/>
            <path d="M80.7971 3.01048V-0.0615158C80.7971 -1.45416 79.7731 -2.2324 78.5853 -2.2324C77.3975 -2.2324 76.3632 -1.45416 76.3632 -0.0615158V3.01048C76.3632 4.40313 77.3975 5.18137 78.5853 5.18137C79.7731 5.18137 80.7971 4.40313 80.7971 3.01048ZM79.4659 3.00025C79.4659 3.61465 79.1075 3.98328 78.5853 3.98328C78.0631 3.98328 77.6944 3.61465 77.6944 3.00025V-0.0410347C77.6944 -0.655435 78.0631 -1.03432 78.5853 -1.03432C79.1075 -1.03432 79.4659 -0.655435 79.4659 -0.0410347V3.00025Z" fill="white"/>
            <path d="M-37.0893 15.3599V8.06904H-38.4205L-39.9053 9.35928V10.7929L-38.4205 9.50264V15.3599H-37.0893Z" fill="white"/>
            <path d="M-30.4029 13.2505V10.1785C-30.4029 8.78584 -31.4269 8.0076 -32.6147 8.0076C-33.8026 8.0076 -34.8368 8.78584 -34.8368 10.1785V13.2505C-34.8368 14.6431 -33.8026 15.4214 -32.6147 15.4214C-31.4269 15.4214 -30.4029 14.6431 -30.4029 13.2505ZM-31.7341 13.2402C-31.7341 13.8546 -32.0925 14.2233 -32.6147 14.2233C-33.137 14.2233 -33.5056 13.8546 -33.5056 13.2402V10.199C-33.5056 9.58457 -33.137 9.20569 -32.6147 9.20569C-32.0925 9.20569 -31.7341 9.58457 -31.7341 10.199V13.2402Z" fill="white"/>
            <path d="M-25.9693 15.3599V8.06904H-27.3005L-28.7853 9.35928V10.7929L-27.3005 9.50264V15.3599H-25.9693Z" fill="white"/>
            <path d="M-19.2829 13.2505V10.1785C-19.2829 8.78584 -20.3069 8.0076 -21.4947 8.0076C-22.6826 8.0076 -23.7168 8.78584 -23.7168 10.1785V13.2505C-23.7168 14.6431 -22.6826 15.4214 -21.4947 15.4214C-20.3069 15.4214 -19.2829 14.6431 -19.2829 13.2505ZM-20.6141 13.2402C-20.6141 13.8546 -20.9725 14.2233 -21.4947 14.2233C-22.017 14.2233 -22.3856 13.8546 -22.3856 13.2402V10.199C-22.3856 9.58457 -22.017 9.20569 -21.4947 9.20569C-20.9725 9.20569 -20.6141 9.58457 -20.6141 10.199V13.2402Z" fill="white"/>
            <path d="M-14.8493 15.3599V8.06904H-16.1805L-17.6653 9.35928V10.7929L-16.1805 9.50264V15.3599H-14.8493Z" fill="white"/>
            <path d="M-8.16287 13.2505V10.1785C-8.16287 8.78584 -9.18687 8.0076 -10.3747 8.0076C-11.5625 8.0076 -12.5968 8.78584 -12.5968 10.1785V13.2505C-12.5968 14.6431 -11.5625 15.4214 -10.3747 15.4214C-9.18687 15.4214 -8.16287 14.6431 -8.16287 13.2505ZM-9.49407 13.2402C-9.49407 13.8546 -9.85247 14.2233 -10.3747 14.2233C-10.8969 14.2233 -11.2656 13.8546 -11.2656 13.2402V10.199C-11.2656 9.58457 -10.8969 9.20569 -10.3747 9.20569C-9.85247 9.20569 -9.49407 9.58457 -9.49407 10.199V13.2402Z" fill="white"/>
            <path d="M-3.72927 15.3599V8.06904H-5.06047L-6.54527 9.35928V10.7929L-5.06047 9.50264V15.3599H-3.72927Z" fill="white"/>
            <path d="M2.95713 13.2505V10.1785C2.95713 8.78584 1.93313 8.0076 0.745289 8.0076C-0.442551 8.0076 -1.47679 8.78584 -1.47679 10.1785V13.2505C-1.47679 14.6431 -0.442551 15.4214 0.745289 15.4214C1.93313 15.4214 2.95713 14.6431 2.95713 13.2505ZM1.62593 13.2402C1.62593 13.8546 1.26753 14.2233 0.745289 14.2233C0.223049 14.2233 -0.145592 13.8546 -0.145592 13.2402V10.199C-0.145592 9.58457 0.223049 9.20569 0.745289 9.20569C1.26753 9.20569 1.62593 9.58457 1.62593 10.199V13.2402Z" fill="white"/>
            <path d="M7.39073 15.3599V8.06904H6.05953L4.57473 9.35928V10.7929L6.05953 9.50264V15.3599H7.39073Z" fill="white"/>
            <path d="M14.0771 13.2505V10.1785C14.0771 8.78584 13.0531 8.0076 11.8653 8.0076C10.6774 8.0076 9.64321 8.78584 9.64321 10.1785V13.2505C9.64321 14.6431 10.6774 15.4214 11.8653 15.4214C13.0531 15.4214 14.0771 14.6431 14.0771 13.2505ZM12.7459 13.2402C12.7459 13.8546 12.3875 14.2233 11.8653 14.2233C11.343 14.2233 10.9744 13.8546 10.9744 13.2402V10.199C10.9744 9.58457 11.343 9.20569 11.8653 9.20569C12.3875 9.20569 12.7459 9.58457 12.7459 10.199V13.2402Z" fill="white"/>
            <path d="M18.5107 15.3599V8.06904H17.1795L15.6947 9.35928V10.7929L17.1795 9.50264V15.3599H18.5107Z" fill="white"/>
            <path d="M25.1971 13.2505V10.1785C25.1971 8.78584 24.1731 8.0076 22.9853 8.0076C21.7974 8.0076 20.7632 8.78584 20.7632 10.1785V13.2505C20.7632 14.6431 21.7974 15.4214 22.9853 15.4214C24.1731 15.4214 25.1971 14.6431 25.1971 13.2505ZM23.8659 13.2402C23.8659 13.8546 23.5075 14.2233 22.9853 14.2233C22.463 14.2233 22.0944 13.8546 22.0944 13.2402V10.199C22.0944 9.58457 22.463 9.20569 22.9853 9.20569C23.5075 9.20569 23.8659 9.58457 23.8659 10.199V13.2402Z" fill="white"/>
            <path d="M29.6307 15.3599V8.06904H28.2995L26.8147 9.35928V10.7929L28.2995 9.50264V15.3599H29.6307Z" fill="white"/>
            <path d="M36.3171 13.2505V10.1785C36.3171 8.78584 35.2931 8.0076 34.1053 8.0076C32.9174 8.0076 31.8832 8.78584 31.8832 10.1785V13.2505C31.8832 14.6431 32.9174 15.4214 34.1053 15.4214C35.2931 15.4214 36.3171 14.6431 36.3171 13.2505ZM34.9859 13.2402C34.9859 13.8546 34.6275 14.2233 34.1053 14.2233C33.583 14.2233 33.2144 13.8546 33.2144 13.2402V10.199C33.2144 9.58457 33.583 9.20569 34.1053 9.20569C34.6275 9.20569 34.9859 9.58457 34.9859 10.199V13.2402Z" fill="white"/>
            <path d="M40.7507 15.3599V8.06904H39.4195L37.9347 9.35928V10.7929L39.4195 9.50264V15.3599H40.7507Z" fill="white"/>
            <path d="M47.4371 13.2505V10.1785C47.4371 8.78584 46.4131 8.0076 45.2253 8.0076C44.0375 8.0076 43.0032 8.78584 43.0032 10.1785V13.2505C43.0032 14.6431 44.0375 15.4214 45.2253 15.4214C46.4131 15.4214 47.4371 14.6431 47.4371 13.2505ZM46.1059 13.2402C46.1059 13.8546 45.7475 14.2233 45.2253 14.2233C44.7031 14.2233 44.3344 13.8546 44.3344 13.2402V10.199C44.3344 9.58457 44.7031 9.20569 45.2253 9.20569C45.7475 9.20569 46.1059 9.58457 46.1059 10.199V13.2402Z" fill="white"/>
            <path d="M51.8707 15.3599V8.06904H50.5395L49.0547 9.35928V10.7929L50.5395 9.50264V15.3599H51.8707Z" fill="white"/>
            <path d="M58.5571 13.2505V10.1785C58.5571 8.78584 57.5331 8.0076 56.3453 8.0076C55.1575 8.0076 54.1232 8.78584 54.1232 10.1785V13.2505C54.1232 14.6431 55.1575 15.4214 56.3453 15.4214C57.5331 15.4214 58.5571 14.6431 58.5571 13.2505ZM57.2259 13.2402C57.2259 13.8546 56.8675 14.2233 56.3453 14.2233C55.8231 14.2233 55.4544 13.8546 55.4544 13.2402V10.199C55.4544 9.58457 55.8231 9.20569 56.3453 9.20569C56.8675 9.20569 57.2259 9.58457 57.2259 10.199V13.2402Z" fill="white"/>
            <path d="M62.9907 15.3599V8.06904H61.6595L60.1747 9.35928V10.7929L61.6595 9.50264V15.3599H62.9907Z" fill="white"/>
            <path d="M69.6771 13.2505V10.1785C69.6771 8.78584 68.6531 8.0076 67.4653 8.0076C66.2775 8.0076 65.2432 8.78584 65.2432 10.1785V13.2505C65.2432 14.6431 66.2775 15.4214 67.4653 15.4214C68.6531 15.4214 69.6771 14.6431 69.6771 13.2505ZM68.3459 13.2402C68.3459 13.8546 67.9875 14.2233 67.4653 14.2233C66.9431 14.2233 66.5744 13.8546 66.5744 13.2402V10.199C66.5744 9.58457 66.9431 9.20569 67.4653 9.20569C67.9875 9.20569 68.3459 9.58457 68.3459 10.199V13.2402Z" fill="white"/>
            <path d="M74.1107 15.3599V8.06904H72.7795L71.2947 9.35928V10.7929L72.7795 9.50264V15.3599H74.1107Z" fill="white"/>
            <path d="M80.7971 13.2505V10.1785C80.7971 8.78584 79.7731 8.0076 78.5853 8.0076C77.3975 8.0076 76.3632 8.78584 76.3632 10.1785V13.2505C76.3632 14.6431 77.3975 15.4214 78.5853 15.4214C79.7731 15.4214 80.7971 14.6431 80.7971 13.2505ZM79.4659 13.2402C79.4659 13.8546 79.1075 14.2233 78.5853 14.2233C78.0631 14.2233 77.6944 13.8546 77.6944 13.2402V10.199C77.6944 9.58457 78.0631 9.20569 78.5853 9.20569C79.1075 9.20569 79.4659 9.58457 79.4659 10.199V13.2402Z" fill="white"/>
            <path d="M-37.0893 25.5999V18.309H-38.4205L-39.9053 19.5993V21.0329L-38.4205 19.7426V25.5999H-37.0893Z" fill="white"/>
            <path d="M-30.4029 23.4905V20.4185C-30.4029 19.0258 -31.4269 18.2476 -32.6147 18.2476C-33.8026 18.2476 -34.8368 19.0258 -34.8368 20.4185V23.4905C-34.8368 24.8831 -33.8026 25.6614 -32.6147 25.6614C-31.4269 25.6614 -30.4029 24.8831 -30.4029 23.4905ZM-31.7341 23.4802C-31.7341 24.0946 -32.0925 24.4633 -32.6147 24.4633C-33.137 24.4633 -33.5056 24.0946 -33.5056 23.4802V20.439C-33.5056 19.8246 -33.137 19.4457 -32.6147 19.4457C-32.0925 19.4457 -31.7341 19.8246 -31.7341 20.439V23.4802Z" fill="white"/>
            <path d="M-25.9693 25.5999V18.309H-27.3005L-28.7853 19.5993V21.0329L-27.3005 19.7426V25.5999H-25.9693Z" fill="white"/>
            <path d="M-19.2829 23.4905V20.4185C-19.2829 19.0258 -20.3069 18.2476 -21.4947 18.2476C-22.6826 18.2476 -23.7168 19.0258 -23.7168 20.4185V23.4905C-23.7168 24.8831 -22.6826 25.6614 -21.4947 25.6614C-20.3069 25.6614 -19.2829 24.8831 -19.2829 23.4905ZM-20.6141 23.4802C-20.6141 24.0946 -20.9725 24.4633 -21.4947 24.4633C-22.017 24.4633 -22.3856 24.0946 -22.3856 23.4802V20.439C-22.3856 19.8246 -22.017 19.4457 -21.4947 19.4457C-20.9725 19.4457 -20.6141 19.8246 -20.6141 20.439V23.4802Z" fill="white"/>
            <path d="M-14.8493 25.5999V18.309H-16.1805L-17.6653 19.5993V21.0329L-16.1805 19.7426V25.5999H-14.8493Z" fill="white"/>
            <path d="M-8.16287 23.4905V20.4185C-8.16287 19.0258 -9.18687 18.2476 -10.3747 18.2476C-11.5625 18.2476 -12.5968 19.0258 -12.5968 20.4185V23.4905C-12.5968 24.8831 -11.5625 25.6614 -10.3747 25.6614C-9.18687 25.6614 -8.16287 24.8831 -8.16287 23.4905ZM-9.49407 23.4802C-9.49407 24.0946 -9.85247 24.4633 -10.3747 24.4633C-10.8969 24.4633 -11.2656 24.0946 -11.2656 23.4802V20.439C-11.2656 19.8246 -10.8969 19.4457 -10.3747 19.4457C-9.85247 19.4457 -9.49407 19.8246 -9.49407 20.439V23.4802Z" fill="white"/>
            <path d="M-3.72927 25.5999V18.309H-5.06047L-6.54527 19.5993V21.0329L-5.06047 19.7426V25.5999H-3.72927Z" fill="white"/>
            <path d="M2.95713 23.4905V20.4185C2.95713 19.0258 1.93313 18.2476 0.745289 18.2476C-0.442551 18.2476 -1.47679 19.0258 -1.47679 20.4185V23.4905C-1.47679 24.8831 -0.442551 25.6614 0.745289 25.6614C1.93313 25.6614 2.95713 24.8831 2.95713 23.4905ZM1.62593 23.4802C1.62593 24.0946 1.26753 24.4633 0.745289 24.4633C0.223049 24.4633 -0.145592 24.0946 -0.145592 23.4802V20.439C-0.145592 19.8246 0.223049 19.4457 0.745289 19.4457C1.26753 19.4457 1.62593 19.8246 1.62593 20.439V23.4802Z" fill="white"/>
            <path d="M7.39073 25.5999V18.309H6.05953L4.57473 19.5993V21.0329L6.05953 19.7426V25.5999H7.39073Z" fill="white"/>
            <path d="M14.0771 23.4905V20.4185C14.0771 19.0258 13.0531 18.2476 11.8653 18.2476C10.6774 18.2476 9.64321 19.0258 9.64321 20.4185V23.4905C9.64321 24.8831 10.6774 25.6614 11.8653 25.6614C13.0531 25.6614 14.0771 24.8831 14.0771 23.4905ZM12.7459 23.4802C12.7459 24.0946 12.3875 24.4633 11.8653 24.4633C11.343 24.4633 10.9744 24.0946 10.9744 23.4802V20.439C10.9744 19.8246 11.343 19.4457 11.8653 19.4457C12.3875 19.4457 12.7459 19.8246 12.7459 20.439V23.4802Z" fill="white"/>
            <path d="M18.5107 25.5999V18.309H17.1795L15.6947 19.5993V21.0329L17.1795 19.7426V25.5999H18.5107Z" fill="white"/>
            <path d="M25.1971 23.4905V20.4185C25.1971 19.0258 24.1731 18.2476 22.9853 18.2476C21.7974 18.2476 20.7632 19.0258 20.7632 20.4185V23.4905C20.7632 24.8831 21.7974 25.6614 22.9853 25.6614C24.1731 25.6614 25.1971 24.8831 25.1971 23.4905ZM23.8659 23.4802C23.8659 24.0946 23.5075 24.4633 22.9853 24.4633C22.463 24.4633 22.0944 24.0946 22.0944 23.4802V20.439C22.0944 19.8246 22.463 19.4457 22.9853 19.4457C23.5075 19.4457 23.8659 19.8246 23.8659 20.439V23.4802Z" fill="white"/>
            <path d="M29.6307 25.5999V18.309H28.2995L26.8147 19.5993V21.0329L28.2995 19.7426V25.5999H29.6307Z" fill="white"/>
            <path d="M36.3171 23.4905V20.4185C36.3171 19.0258 35.2931 18.2476 34.1053 18.2476C32.9174 18.2476 31.8832 19.0258 31.8832 20.4185V23.4905C31.8832 24.8831 32.9174 25.6614 34.1053 25.6614C35.2931 25.6614 36.3171 24.8831 36.3171 23.4905ZM34.9859 23.4802C34.9859 24.0946 34.6275 24.4633 34.1053 24.4633C33.583 24.4633 33.2144 24.0946 33.2144 23.4802V20.439C33.2144 19.8246 33.583 19.4457 34.1053 19.4457C34.6275 19.4457 34.9859 19.8246 34.9859 20.439V23.4802Z" fill="white"/>
            <path d="M40.7507 25.5999V18.309H39.4195L37.9347 19.5993V21.0329L39.4195 19.7426V25.5999H40.7507Z" fill="white"/>
            <path d="M47.4371 23.4905V20.4185C47.4371 19.0258 46.4131 18.2476 45.2253 18.2476C44.0375 18.2476 43.0032 19.0258 43.0032 20.4185V23.4905C43.0032 24.8831 44.0375 25.6614 45.2253 25.6614C46.4131 25.6614 47.4371 24.8831 47.4371 23.4905ZM46.1059 23.4802C46.1059 24.0946 45.7475 24.4633 45.2253 24.4633C44.7031 24.4633 44.3344 24.0946 44.3344 23.4802V20.439C44.3344 19.8246 44.7031 19.4457 45.2253 19.4457C45.7475 19.4457 46.1059 19.8246 46.1059 20.439V23.4802Z" fill="white"/>
            <path d="M51.8707 25.5999V18.309H50.5395L49.0547 19.5993V21.0329L50.5395 19.7426V25.5999H51.8707Z" fill="white"/>
            <path d="M58.5571 23.4905V20.4185C58.5571 19.0258 57.5331 18.2476 56.3453 18.2476C55.1575 18.2476 54.1232 19.0258 54.1232 20.4185V23.4905C54.1232 24.8831 55.1575 25.6614 56.3453 25.6614C57.5331 25.6614 58.5571 24.8831 58.5571 23.4905ZM57.2259 23.4802C57.2259 24.0946 56.8675 24.4633 56.3453 24.4633C55.8231 24.4633 55.4544 24.0946 55.4544 23.4802V20.439C55.4544 19.8246 55.8231 19.4457 56.3453 19.4457C56.8675 19.4457 57.2259 19.8246 57.2259 20.439V23.4802Z" fill="white"/>
            <path d="M62.9907 25.5999V18.309H61.6595L60.1747 19.5993V21.0329L61.6595 19.7426V25.5999H62.9907Z" fill="white"/>
            <path d="M69.6771 23.4905V20.4185C69.6771 19.0258 68.6531 18.2476 67.4653 18.2476C66.2775 18.2476 65.2432 19.0258 65.2432 20.4185V23.4905C65.2432 24.8831 66.2775 25.6614 67.4653 25.6614C68.6531 25.6614 69.6771 24.8831 69.6771 23.4905ZM68.3459 23.4802C68.3459 24.0946 67.9875 24.4633 67.4653 24.4633C66.9431 24.4633 66.5744 24.0946 66.5744 23.4802V20.439C66.5744 19.8246 66.9431 19.4457 67.4653 19.4457C67.9875 19.4457 68.3459 19.8246 68.3459 20.439V23.4802Z" fill="white"/>
            <path d="M74.1107 25.5999V18.309H72.7795L71.2947 19.5993V21.0329L72.7795 19.7426V25.5999H74.1107Z" fill="white"/>
            <path d="M80.7971 23.4905V20.4185C80.7971 19.0258 79.7731 18.2476 78.5853 18.2476C77.3975 18.2476 76.3632 19.0258 76.3632 20.4185V23.4905C76.3632 24.8831 77.3975 25.6614 78.5853 25.6614C79.7731 25.6614 80.7971 24.8831 80.7971 23.4905ZM79.4659 23.4802C79.4659 24.0946 79.1075 24.4633 78.5853 24.4633C78.0631 24.4633 77.6944 24.0946 77.6944 23.4802V20.439C77.6944 19.8246 78.0631 19.4457 78.5853 19.4457C79.1075 19.4457 79.4659 19.8246 79.4659 20.439V23.4802Z" fill="white"/>
            <path d="M-37.0893 35.8399V28.549H-38.4205L-39.9053 29.8393V31.2729L-38.4205 29.9826V35.8399H-37.0893Z" fill="white"/>
            <path d="M-30.4029 33.7305V30.6585C-30.4029 29.2658 -31.4269 28.4876 -32.6147 28.4876C-33.8026 28.4876 -34.8368 29.2658 -34.8368 30.6585V33.7305C-34.8368 35.1231 -33.8026 35.9014 -32.6147 35.9014C-31.4269 35.9014 -30.4029 35.1231 -30.4029 33.7305ZM-31.7341 33.7202C-31.7341 34.3346 -32.0925 34.7033 -32.6147 34.7033C-33.137 34.7033 -33.5056 34.3346 -33.5056 33.7202V30.679C-33.5056 30.0646 -33.137 29.6857 -32.6147 29.6857C-32.0925 29.6857 -31.7341 30.0646 -31.7341 30.679V33.7202Z" fill="white"/>
            <path d="M-25.9693 35.8399V28.549H-27.3005L-28.7853 29.8393V31.2729L-27.3005 29.9826V35.8399H-25.9693Z" fill="white"/>
            <path d="M-19.2829 33.7305V30.6585C-19.2829 29.2658 -20.3069 28.4876 -21.4947 28.4876C-22.6826 28.4876 -23.7168 29.2658 -23.7168 30.6585V33.7305C-23.7168 35.1231 -22.6826 35.9014 -21.4947 35.9014C-20.3069 35.9014 -19.2829 35.1231 -19.2829 33.7305ZM-20.6141 33.7202C-20.6141 34.3346 -20.9725 34.7033 -21.4947 34.7033C-22.017 34.7033 -22.3856 34.3346 -22.3856 33.7202V30.679C-22.3856 30.0646 -22.017 29.6857 -21.4947 29.6857C-20.9725 29.6857 -20.6141 30.0646 -20.6141 30.679V33.7202Z" fill="white"/>
            <path d="M-14.8493 35.8399V28.549H-16.1805L-17.6653 29.8393V31.2729L-16.1805 29.9826V35.8399H-14.8493Z" fill="white"/>
            <path d="M-8.16287 33.7305V30.6585C-8.16287 29.2658 -9.18687 28.4876 -10.3747 28.4876C-11.5625 28.4876 -12.5968 29.2658 -12.5968 30.6585V33.7305C-12.5968 35.1231 -11.5625 35.9014 -10.3747 35.9014C-9.18687 35.9014 -8.16287 35.1231 -8.16287 33.7305ZM-9.49407 33.7202C-9.49407 34.3346 -9.85247 34.7033 -10.3747 34.7033C-10.8969 34.7033 -11.2656 34.3346 -11.2656 33.7202V30.679C-11.2656 30.0646 -10.8969 29.6857 -10.3747 29.6857C-9.85247 29.6857 -9.49407 30.0646 -9.49407 30.679V33.7202Z" fill="white"/>
            <path d="M-3.72927 35.8399V28.549H-5.06047L-6.54527 29.8393V31.2729L-5.06047 29.9826V35.8399H-3.72927Z" fill="white"/>
            <path d="M2.95713 33.7305V30.6585C2.95713 29.2658 1.93313 28.4876 0.745289 28.4876C-0.442551 28.4876 -1.47679 29.2658 -1.47679 30.6585V33.7305C-1.47679 35.1231 -0.442551 35.9014 0.745289 35.9014C1.93313 35.9014 2.95713 35.1231 2.95713 33.7305ZM1.62593 33.7202C1.62593 34.3346 1.26753 34.7033 0.745289 34.7033C0.223049 34.7033 -0.145592 34.3346 -0.145592 33.7202V30.679C-0.145592 30.0646 0.223049 29.6857 0.745289 29.6857C1.26753 29.6857 1.62593 30.0646 1.62593 30.679V33.7202Z" fill="white"/>
            <path d="M7.39073 35.8399V28.549H6.05953L4.57473 29.8393V31.2729L6.05953 29.9826V35.8399H7.39073Z" fill="white"/>
            <path d="M14.0771 33.7305V30.6585C14.0771 29.2658 13.0531 28.4876 11.8653 28.4876C10.6774 28.4876 9.64321 29.2658 9.64321 30.6585V33.7305C9.64321 35.1231 10.6774 35.9014 11.8653 35.9014C13.0531 35.9014 14.0771 35.1231 14.0771 33.7305ZM12.7459 33.7202C12.7459 34.3346 12.3875 34.7033 11.8653 34.7033C11.343 34.7033 10.9744 34.3346 10.9744 33.7202V30.679C10.9744 30.0646 11.343 29.6857 11.8653 29.6857C12.3875 29.6857 12.7459 30.0646 12.7459 30.679V33.7202Z" fill="white"/>
            <path d="M18.5107 35.8399V28.549H17.1795L15.6947 29.8393V31.2729L17.1795 29.9826V35.8399H18.5107Z" fill="white"/>
            <path d="M25.1971 33.7305V30.6585C25.1971 29.2658 24.1731 28.4876 22.9853 28.4876C21.7974 28.4876 20.7632 29.2658 20.7632 30.6585V33.7305C20.7632 35.1231 21.7974 35.9014 22.9853 35.9014C24.1731 35.9014 25.1971 35.1231 25.1971 33.7305ZM23.8659 33.7202C23.8659 34.3346 23.5075 34.7033 22.9853 34.7033C22.463 34.7033 22.0944 34.3346 22.0944 33.7202V30.679C22.0944 30.0646 22.463 29.6857 22.9853 29.6857C23.5075 29.6857 23.8659 30.0646 23.8659 30.679V33.7202Z" fill="white"/>
            <path d="M29.6307 35.8399V28.549H28.2995L26.8147 29.8393V31.2729L28.2995 29.9826V35.8399H29.6307Z" fill="white"/>
            <path d="M36.3171 33.7305V30.6585C36.3171 29.2658 35.2931 28.4876 34.1053 28.4876C32.9174 28.4876 31.8832 29.2658 31.8832 30.6585V33.7305C31.8832 35.1231 32.9174 35.9014 34.1053 35.9014C35.2931 35.9014 36.3171 35.1231 36.3171 33.7305ZM34.9859 33.7202C34.9859 34.3346 34.6275 34.7033 34.1053 34.7033C33.583 34.7033 33.2144 34.3346 33.2144 33.7202V30.679C33.2144 30.0646 33.583 29.6857 34.1053 29.6857C34.6275 29.6857 34.9859 30.0646 34.9859 30.679V33.7202Z" fill="white"/>
            <path d="M40.7507 35.8399V28.549H39.4195L37.9347 29.8393V31.2729L39.4195 29.9826V35.8399H40.7507Z" fill="white"/>
            <path d="M47.4371 33.7305V30.6585C47.4371 29.2658 46.4131 28.4876 45.2253 28.4876C44.0375 28.4876 43.0032 29.2658 43.0032 30.6585V33.7305C43.0032 35.1231 44.0375 35.9014 45.2253 35.9014C46.4131 35.9014 47.4371 35.1231 47.4371 33.7305ZM46.1059 33.7202C46.1059 34.3346 45.7475 34.7033 45.2253 34.7033C44.7031 34.7033 44.3344 34.3346 44.3344 33.7202V30.679C44.3344 30.0646 44.7031 29.6857 45.2253 29.6857C45.7475 29.6857 46.1059 30.0646 46.1059 30.679V33.7202Z" fill="white"/>
            <path d="M51.8707 35.8399V28.549H50.5395L49.0547 29.8393V31.2729L50.5395 29.9826V35.8399H51.8707Z" fill="white"/>
            <path d="M58.5571 33.7305V30.6585C58.5571 29.2658 57.5331 28.4876 56.3453 28.4876C55.1575 28.4876 54.1232 29.2658 54.1232 30.6585V33.7305C54.1232 35.1231 55.1575 35.9014 56.3453 35.9014C57.5331 35.9014 58.5571 35.1231 58.5571 33.7305ZM57.2259 33.7202C57.2259 34.3346 56.8675 34.7033 56.3453 34.7033C55.8231 34.7033 55.4544 34.3346 55.4544 33.7202V30.679C55.4544 30.0646 55.8231 29.6857 56.3453 29.6857C56.8675 29.6857 57.2259 30.0646 57.2259 30.679V33.7202Z" fill="white"/>
            <path d="M62.9907 35.8399V28.549H61.6595L60.1747 29.8393V31.2729L61.6595 29.9826V35.8399H62.9907Z" fill="white"/>
            <path d="M69.6771 33.7305V30.6585C69.6771 29.2658 68.6531 28.4876 67.4653 28.4876C66.2775 28.4876 65.2432 29.2658 65.2432 30.6585V33.7305C65.2432 35.1231 66.2775 35.9014 67.4653 35.9014C68.6531 35.9014 69.6771 35.1231 69.6771 33.7305ZM68.3459 33.7202C68.3459 34.3346 67.9875 34.7033 67.4653 34.7033C66.9431 34.7033 66.5744 34.3346 66.5744 33.7202V30.679C66.5744 30.0646 66.9431 29.6857 67.4653 29.6857C67.9875 29.6857 68.3459 30.0646 68.3459 30.679V33.7202Z" fill="white"/>
            <path d="M74.1107 35.8399V28.549H72.7795L71.2947 29.8393V31.2729L72.7795 29.9826V35.8399H74.1107Z" fill="white"/>
            <path d="M80.7971 33.7305V30.6585C80.7971 29.2658 79.7731 28.4876 78.5853 28.4876C77.3975 28.4876 76.3632 29.2658 76.3632 30.6585V33.7305C76.3632 35.1231 77.3975 35.9014 78.5853 35.9014C79.7731 35.9014 80.7971 35.1231 80.7971 33.7305ZM79.4659 33.7202C79.4659 34.3346 79.1075 34.7033 78.5853 34.7033C78.0631 34.7033 77.6944 34.3346 77.6944 33.7202V30.679C77.6944 30.0646 78.0631 29.6857 78.5853 29.6857C79.1075 29.6857 79.4659 30.0646 79.4659 30.679V33.7202Z" fill="white"/>
            <path d="M-37.0893 46.0799V38.789H-38.4205L-39.9053 40.0793V41.5129L-38.4205 40.2226V46.0799H-37.0893Z" fill="white"/>
            <path d="M-30.4029 43.9705V40.8985C-30.4029 39.5058 -31.4269 38.7276 -32.6147 38.7276C-33.8026 38.7276 -34.8368 39.5058 -34.8368 40.8985V43.9705C-34.8368 45.3631 -33.8026 46.1414 -32.6147 46.1414C-31.4269 46.1414 -30.4029 45.3631 -30.4029 43.9705ZM-31.7341 43.9602C-31.7341 44.5746 -32.0925 44.9433 -32.6147 44.9433C-33.137 44.9433 -33.5056 44.5746 -33.5056 43.9602V40.919C-33.5056 40.3046 -33.137 39.9257 -32.6147 39.9257C-32.0925 39.9257 -31.7341 40.3046 -31.7341 40.919V43.9602Z" fill="white"/>
            <path d="M-25.9693 46.0799V38.789H-27.3005L-28.7853 40.0793V41.5129L-27.3005 40.2226V46.0799H-25.9693Z" fill="white"/>
            <path d="M-19.2829 43.9705V40.8985C-19.2829 39.5058 -20.3069 38.7276 -21.4947 38.7276C-22.6826 38.7276 -23.7168 39.5058 -23.7168 40.8985V43.9705C-23.7168 45.3631 -22.6826 46.1414 -21.4947 46.1414C-20.3069 46.1414 -19.2829 45.3631 -19.2829 43.9705ZM-20.6141 43.9602C-20.6141 44.5746 -20.9725 44.9433 -21.4947 44.9433C-22.017 44.9433 -22.3856 44.5746 -22.3856 43.9602V40.919C-22.3856 40.3046 -22.017 39.9257 -21.4947 39.9257C-20.9725 39.9257 -20.6141 40.3046 -20.6141 40.919V43.9602Z" fill="white"/>
            <path d="M-14.8493 46.0799V38.789H-16.1805L-17.6653 40.0793V41.5129L-16.1805 40.2226V46.0799H-14.8493Z" fill="white"/>
            <path d="M-8.16287 43.9705V40.8985C-8.16287 39.5058 -9.18687 38.7276 -10.3747 38.7276C-11.5625 38.7276 -12.5968 39.5058 -12.5968 40.8985V43.9705C-12.5968 45.3631 -11.5625 46.1414 -10.3747 46.1414C-9.18687 46.1414 -8.16287 45.3631 -8.16287 43.9705ZM-9.49407 43.9602C-9.49407 44.5746 -9.85247 44.9433 -10.3747 44.9433C-10.8969 44.9433 -11.2656 44.5746 -11.2656 43.9602V40.919C-11.2656 40.3046 -10.8969 39.9257 -10.3747 39.9257C-9.85247 39.9257 -9.49407 40.3046 -9.49407 40.919V43.9602Z" fill="white"/>
            <path d="M-3.72927 46.0799V38.789H-5.06047L-6.54527 40.0793V41.5129L-5.06047 40.2226V46.0799H-3.72927Z" fill="white"/>
            <path d="M2.95713 43.9705V40.8985C2.95713 39.5058 1.93313 38.7276 0.745289 38.7276C-0.442551 38.7276 -1.47679 39.5058 -1.47679 40.8985V43.9705C-1.47679 45.3631 -0.442551 46.1414 0.745289 46.1414C1.93313 46.1414 2.95713 45.3631 2.95713 43.9705ZM1.62593 43.9602C1.62593 44.5746 1.26753 44.9433 0.745289 44.9433C0.223049 44.9433 -0.145592 44.5746 -0.145592 43.9602V40.919C-0.145592 40.3046 0.223049 39.9257 0.745289 39.9257C1.26753 39.9257 1.62593 40.3046 1.62593 40.919V43.9602Z" fill="white"/>
            <path d="M7.39073 46.0799V38.789H6.05953L4.57473 40.0793V41.5129L6.05953 40.2226V46.0799H7.39073Z" fill="white"/>
            <path d="M14.0771 43.9705V40.8985C14.0771 39.5058 13.0531 38.7276 11.8653 38.7276C10.6774 38.7276 9.64321 39.5058 9.64321 40.8985V43.9705C9.64321 45.3631 10.6774 46.1414 11.8653 46.1414C13.0531 46.1414 14.0771 45.3631 14.0771 43.9705ZM12.7459 43.9602C12.7459 44.5746 12.3875 44.9433 11.8653 44.9433C11.343 44.9433 10.9744 44.5746 10.9744 43.9602V40.919C10.9744 40.3046 11.343 39.9257 11.8653 39.9257C12.3875 39.9257 12.7459 40.3046 12.7459 40.919V43.9602Z" fill="white"/>
            <path d="M18.5107 46.0799V38.789H17.1795L15.6947 40.0793V41.5129L17.1795 40.2226V46.0799H18.5107Z" fill="white"/>
            <path d="M25.1971 43.9705V40.8985C25.1971 39.5058 24.1731 38.7276 22.9853 38.7276C21.7974 38.7276 20.7632 39.5058 20.7632 40.8985V43.9705C20.7632 45.3631 21.7974 46.1414 22.9853 46.1414C24.1731 46.1414 25.1971 45.3631 25.1971 43.9705ZM23.8659 43.9602C23.8659 44.5746 23.5075 44.9433 22.9853 44.9433C22.463 44.9433 22.0944 44.5746 22.0944 43.9602V40.919C22.0944 40.3046 22.463 39.9257 22.9853 39.9257C23.5075 39.9257 23.8659 40.3046 23.8659 40.919V43.9602Z" fill="white"/>
            <path d="M29.6307 46.0799V38.789H28.2995L26.8147 40.0793V41.5129L28.2995 40.2226V46.0799H29.6307Z" fill="white"/>
            <path d="M36.3171 43.9705V40.8985C36.3171 39.5058 35.2931 38.7276 34.1053 38.7276C32.9174 38.7276 31.8832 39.5058 31.8832 40.8985V43.9705C31.8832 45.3631 32.9174 46.1414 34.1053 46.1414C35.2931 46.1414 36.3171 45.3631 36.3171 43.9705ZM34.9859 43.9602C34.9859 44.5746 34.6275 44.9433 34.1053 44.9433C33.583 44.9433 33.2144 44.5746 33.2144 43.9602V40.919C33.2144 40.3046 33.583 39.9257 34.1053 39.9257C34.6275 39.9257 34.9859 40.3046 34.9859 40.919V43.9602Z" fill="white"/>
            <path d="M40.7507 46.0799V38.789H39.4195L37.9347 40.0793V41.5129L39.4195 40.2226V46.0799H40.7507Z" fill="white"/>
            <path d="M47.4371 43.9705V40.8985C47.4371 39.5058 46.4131 38.7276 45.2253 38.7276C44.0375 38.7276 43.0032 39.5058 43.0032 40.8985V43.9705C43.0032 45.3631 44.0375 46.1414 45.2253 46.1414C46.4131 46.1414 47.4371 45.3631 47.4371 43.9705ZM46.1059 43.9602C46.1059 44.5746 45.7475 44.9433 45.2253 44.9433C44.7031 44.9433 44.3344 44.5746 44.3344 43.9602V40.919C44.3344 40.3046 44.7031 39.9257 45.2253 39.9257C45.7475 39.9257 46.1059 40.3046 46.1059 40.919V43.9602Z" fill="white"/>
            <path d="M51.8707 46.0799V38.789H50.5395L49.0547 40.0793V41.5129L50.5395 40.2226V46.0799H51.8707Z" fill="white"/>
            <path d="M58.5571 43.9705V40.8985C58.5571 39.5058 57.5331 38.7276 56.3453 38.7276C55.1575 38.7276 54.1232 39.5058 54.1232 40.8985V43.9705C54.1232 45.3631 55.1575 46.1414 56.3453 46.1414C57.5331 46.1414 58.5571 45.3631 58.5571 43.9705ZM57.2259 43.9602C57.2259 44.5746 56.8675 44.9433 56.3453 44.9433C55.8231 44.9433 55.4544 44.5746 55.4544 43.9602V40.919C55.4544 40.3046 55.8231 39.9257 56.3453 39.9257C56.8675 39.9257 57.2259 40.3046 57.2259 40.919V43.9602Z" fill="white"/>
            <path d="M62.9907 46.0799V38.789H61.6595L60.1747 40.0793V41.5129L61.6595 40.2226V46.0799H62.9907Z" fill="white"/>
            <path d="M69.6771 43.9705V40.8985C69.6771 39.5058 68.6531 38.7276 67.4653 38.7276C66.2775 38.7276 65.2432 39.5058 65.2432 40.8985V43.9705C65.2432 45.3631 66.2775 46.1414 67.4653 46.1414C68.6531 46.1414 69.6771 45.3631 69.6771 43.9705ZM68.3459 43.9602C68.3459 44.5746 67.9875 44.9433 67.4653 44.9433C66.9431 44.9433 66.5744 44.5746 66.5744 43.9602V40.919C66.5744 40.3046 66.9431 39.9257 67.4653 39.9257C67.9875 39.9257 68.3459 40.3046 68.3459 40.919V43.9602Z" fill="white"/>
            <path d="M74.1107 46.0799V38.789H72.7795L71.2947 40.0793V41.5129L72.7795 40.2226V46.0799H74.1107Z" fill="white"/>
            <path d="M80.7971 43.9705V40.8985C80.7971 39.5058 79.7731 38.7276 78.5853 38.7276C77.3975 38.7276 76.3632 39.5058 76.3632 40.8985V43.9705C76.3632 45.3631 77.3975 46.1414 78.5853 46.1414C79.7731 46.1414 80.7971 45.3631 80.7971 43.9705ZM79.4659 43.9602C79.4659 44.5746 79.1075 44.9433 78.5853 44.9433C78.0631 44.9433 77.6944 44.5746 77.6944 43.9602V40.919C77.6944 40.3046 78.0631 39.9257 78.5853 39.9257C79.1075 39.9257 79.4659 40.3046 79.4659 40.919V43.9602Z" fill="white"/>
            <path d="M-37.0893 56.3199V49.029H-38.4205L-39.9053 50.3193V51.7529L-38.4205 50.4626V56.3199H-37.0893Z" fill="white"/>
            <path d="M-30.4029 54.2105V51.1385C-30.4029 49.7458 -31.4269 48.9676 -32.6147 48.9676C-33.8026 48.9676 -34.8368 49.7458 -34.8368 51.1385V54.2105C-34.8368 55.6031 -33.8026 56.3814 -32.6147 56.3814C-31.4269 56.3814 -30.4029 55.6031 -30.4029 54.2105ZM-31.7341 54.2002C-31.7341 54.8147 -32.0925 55.1833 -32.6147 55.1833C-33.137 55.1833 -33.5056 54.8147 -33.5056 54.2002V51.159C-33.5056 50.5446 -33.137 50.1657 -32.6147 50.1657C-32.0925 50.1657 -31.7341 50.5446 -31.7341 51.159V54.2002Z" fill="white"/>
            <path d="M-25.9693 56.3199V49.029H-27.3005L-28.7853 50.3193V51.7529L-27.3005 50.4626V56.3199H-25.9693Z" fill="white"/>
            <path d="M-19.2829 54.2105V51.1385C-19.2829 49.7458 -20.3069 48.9676 -21.4947 48.9676C-22.6826 48.9676 -23.7168 49.7458 -23.7168 51.1385V54.2105C-23.7168 55.6031 -22.6826 56.3814 -21.4947 56.3814C-20.3069 56.3814 -19.2829 55.6031 -19.2829 54.2105ZM-20.6141 54.2002C-20.6141 54.8147 -20.9725 55.1833 -21.4947 55.1833C-22.017 55.1833 -22.3856 54.8147 -22.3856 54.2002V51.159C-22.3856 50.5446 -22.017 50.1657 -21.4947 50.1657C-20.9725 50.1657 -20.6141 50.5446 -20.6141 51.159V54.2002Z" fill="white"/>
            <path d="M-14.8493 56.3199V49.029H-16.1805L-17.6653 50.3193V51.7529L-16.1805 50.4626V56.3199H-14.8493Z" fill="white"/>
            <path d="M-8.16287 54.2105V51.1385C-8.16287 49.7458 -9.18687 48.9676 -10.3747 48.9676C-11.5625 48.9676 -12.5968 49.7458 -12.5968 51.1385V54.2105C-12.5968 55.6031 -11.5625 56.3814 -10.3747 56.3814C-9.18687 56.3814 -8.16287 55.6031 -8.16287 54.2105ZM-9.49407 54.2002C-9.49407 54.8147 -9.85247 55.1833 -10.3747 55.1833C-10.8969 55.1833 -11.2656 54.8147 -11.2656 54.2002V51.159C-11.2656 50.5446 -10.8969 50.1657 -10.3747 50.1657C-9.85247 50.1657 -9.49407 50.5446 -9.49407 51.159V54.2002Z" fill="white"/>
            <path d="M-3.72927 56.3199V49.029H-5.06047L-6.54527 50.3193V51.7529L-5.06047 50.4626V56.3199H-3.72927Z" fill="white"/>
            <path d="M2.95713 54.2105V51.1385C2.95713 49.7458 1.93313 48.9676 0.745289 48.9676C-0.442551 48.9676 -1.47679 49.7458 -1.47679 51.1385V54.2105C-1.47679 55.6031 -0.442551 56.3814 0.745289 56.3814C1.93313 56.3814 2.95713 55.6031 2.95713 54.2105ZM1.62593 54.2002C1.62593 54.8147 1.26753 55.1833 0.745289 55.1833C0.223049 55.1833 -0.145592 54.8147 -0.145592 54.2002V51.159C-0.145592 50.5446 0.223049 50.1657 0.745289 50.1657C1.26753 50.1657 1.62593 50.5446 1.62593 51.159V54.2002Z" fill="white"/>
            <path d="M7.39073 56.3199V49.029H6.05953L4.57473 50.3193V51.7529L6.05953 50.4626V56.3199H7.39073Z" fill="white"/>
            <path d="M14.0771 54.2105V51.1385C14.0771 49.7458 13.0531 48.9676 11.8653 48.9676C10.6774 48.9676 9.64321 49.7458 9.64321 51.1385V54.2105C9.64321 55.6031 10.6774 56.3814 11.8653 56.3814C13.0531 56.3814 14.0771 55.6031 14.0771 54.2105ZM12.7459 54.2002C12.7459 54.8147 12.3875 55.1833 11.8653 55.1833C11.343 55.1833 10.9744 54.8147 10.9744 54.2002V51.159C10.9744 50.5446 11.343 50.1657 11.8653 50.1657C12.3875 50.1657 12.7459 50.5446 12.7459 51.159V54.2002Z" fill="white"/>
            <path d="M18.5107 56.3199V49.029H17.1795L15.6947 50.3193V51.7529L17.1795 50.4626V56.3199H18.5107Z" fill="white"/>
            <path d="M25.1971 54.2105V51.1385C25.1971 49.7458 24.1731 48.9676 22.9853 48.9676C21.7974 48.9676 20.7632 49.7458 20.7632 51.1385V54.2105C20.7632 55.6031 21.7974 56.3814 22.9853 56.3814C24.1731 56.3814 25.1971 55.6031 25.1971 54.2105ZM23.8659 54.2002C23.8659 54.8147 23.5075 55.1833 22.9853 55.1833C22.463 55.1833 22.0944 54.8147 22.0944 54.2002V51.159C22.0944 50.5446 22.463 50.1657 22.9853 50.1657C23.5075 50.1657 23.8659 50.5446 23.8659 51.159V54.2002Z" fill="white"/>
            <path d="M29.6307 56.3199V49.029H28.2995L26.8147 50.3193V51.7529L28.2995 50.4626V56.3199H29.6307Z" fill="white"/>
            <path d="M36.3171 54.2105V51.1385C36.3171 49.7458 35.2931 48.9676 34.1053 48.9676C32.9174 48.9676 31.8832 49.7458 31.8832 51.1385V54.2105C31.8832 55.6031 32.9174 56.3814 34.1053 56.3814C35.2931 56.3814 36.3171 55.6031 36.3171 54.2105ZM34.9859 54.2002C34.9859 54.8147 34.6275 55.1833 34.1053 55.1833C33.583 55.1833 33.2144 54.8147 33.2144 54.2002V51.159C33.2144 50.5446 33.583 50.1657 34.1053 50.1657C34.6275 50.1657 34.9859 50.5446 34.9859 51.159V54.2002Z" fill="white"/>
            <path d="M40.7507 56.3199V49.029H39.4195L37.9347 50.3193V51.7529L39.4195 50.4626V56.3199H40.7507Z" fill="white"/>
            <path d="M47.4371 54.2105V51.1385C47.4371 49.7458 46.4131 48.9676 45.2253 48.9676C44.0375 48.9676 43.0032 49.7458 43.0032 51.1385V54.2105C43.0032 55.6031 44.0375 56.3814 45.2253 56.3814C46.4131 56.3814 47.4371 55.6031 47.4371 54.2105ZM46.1059 54.2002C46.1059 54.8147 45.7475 55.1833 45.2253 55.1833C44.7031 55.1833 44.3344 54.8147 44.3344 54.2002V51.159C44.3344 50.5446 44.7031 50.1657 45.2253 50.1657C45.7475 50.1657 46.1059 50.5446 46.1059 51.159V54.2002Z" fill="white"/>
            <path d="M51.8707 56.3199V49.029H50.5395L49.0547 50.3193V51.7529L50.5395 50.4626V56.3199H51.8707Z" fill="white"/>
            <path d="M58.5571 54.2105V51.1385C58.5571 49.7458 57.5331 48.9676 56.3453 48.9676C55.1575 48.9676 54.1232 49.7458 54.1232 51.1385V54.2105C54.1232 55.6031 55.1575 56.3814 56.3453 56.3814C57.5331 56.3814 58.5571 55.6031 58.5571 54.2105ZM57.2259 54.2002C57.2259 54.8147 56.8675 55.1833 56.3453 55.1833C55.8231 55.1833 55.4544 54.8147 55.4544 54.2002V51.159C55.4544 50.5446 55.8231 50.1657 56.3453 50.1657C56.8675 50.1657 57.2259 50.5446 57.2259 51.159V54.2002Z" fill="white"/>
            <path d="M62.9907 56.3199V49.029H61.6595L60.1747 50.3193V51.7529L61.6595 50.4626V56.3199H62.9907Z" fill="white"/>
            <path d="M69.6771 54.2105V51.1385C69.6771 49.7458 68.6531 48.9676 67.4653 48.9676C66.2775 48.9676 65.2432 49.7458 65.2432 51.1385V54.2105C65.2432 55.6031 66.2775 56.3814 67.4653 56.3814C68.6531 56.3814 69.6771 55.6031 69.6771 54.2105ZM68.3459 54.2002C68.3459 54.8147 67.9875 55.1833 67.4653 55.1833C66.9431 55.1833 66.5744 54.8147 66.5744 54.2002V51.159C66.5744 50.5446 66.9431 50.1657 67.4653 50.1657C67.9875 50.1657 68.3459 50.5446 68.3459 51.159V54.2002Z" fill="white"/>
            <path d="M74.1107 56.3199V49.029H72.7795L71.2947 50.3193V51.7529L72.7795 50.4626V56.3199H74.1107Z" fill="white"/>
            <path d="M80.7971 54.2105V51.1385C80.7971 49.7458 79.7731 48.9676 78.5853 48.9676C77.3975 48.9676 76.3632 49.7458 76.3632 51.1385V54.2105C76.3632 55.6031 77.3975 56.3814 78.5853 56.3814C79.7731 56.3814 80.7971 55.6031 80.7971 54.2105ZM79.4659 54.2002C79.4659 54.8147 79.1075 55.1833 78.5853 55.1833C78.0631 55.1833 77.6944 54.8147 77.6944 54.2002V51.159C77.6944 50.5446 78.0631 50.1657 78.5853 50.1657C79.1075 50.1657 79.4659 50.5446 79.4659 51.159V54.2002Z" fill="white"/>
            <path d="M-37.0893 66.5599V59.2691H-38.4205L-39.9053 60.5593V61.9929L-38.4205 60.7026V66.5599H-37.0893Z" fill="white"/>
            <path d="M-30.4029 64.4505V61.3785C-30.4029 59.9858 -31.4269 59.2076 -32.6147 59.2076C-33.8026 59.2076 -34.8368 59.9858 -34.8368 61.3785V64.4505C-34.8368 65.8431 -33.8026 66.6214 -32.6147 66.6214C-31.4269 66.6214 -30.4029 65.8431 -30.4029 64.4505ZM-31.7341 64.4402C-31.7341 65.0546 -32.0925 65.4233 -32.6147 65.4233C-33.137 65.4233 -33.5056 65.0546 -33.5056 64.4402V61.399C-33.5056 60.7846 -33.137 60.4057 -32.6147 60.4057C-32.0925 60.4057 -31.7341 60.7846 -31.7341 61.399V64.4402Z" fill="white"/>
            <path d="M-25.9693 66.5599V59.2691H-27.3005L-28.7853 60.5593V61.9929L-27.3005 60.7026V66.5599H-25.9693Z" fill="white"/>
            <path d="M-19.2829 64.4505V61.3785C-19.2829 59.9858 -20.3069 59.2076 -21.4947 59.2076C-22.6826 59.2076 -23.7168 59.9858 -23.7168 61.3785V64.4505C-23.7168 65.8431 -22.6826 66.6214 -21.4947 66.6214C-20.3069 66.6214 -19.2829 65.8431 -19.2829 64.4505ZM-20.6141 64.4402C-20.6141 65.0546 -20.9725 65.4233 -21.4947 65.4233C-22.017 65.4233 -22.3856 65.0546 -22.3856 64.4402V61.399C-22.3856 60.7846 -22.017 60.4057 -21.4947 60.4057C-20.9725 60.4057 -20.6141 60.7846 -20.6141 61.399V64.4402Z" fill="white"/>
            <path d="M-14.8493 66.5599V59.2691H-16.1805L-17.6653 60.5593V61.9929L-16.1805 60.7026V66.5599H-14.8493Z" fill="white"/>
            <path d="M-8.16287 64.4505V61.3785C-8.16287 59.9858 -9.18687 59.2076 -10.3747 59.2076C-11.5625 59.2076 -12.5968 59.9858 -12.5968 61.3785V64.4505C-12.5968 65.8431 -11.5625 66.6214 -10.3747 66.6214C-9.18687 66.6214 -8.16287 65.8431 -8.16287 64.4505ZM-9.49407 64.4402C-9.49407 65.0546 -9.85247 65.4233 -10.3747 65.4233C-10.8969 65.4233 -11.2656 65.0546 -11.2656 64.4402V61.399C-11.2656 60.7846 -10.8969 60.4057 -10.3747 60.4057C-9.85247 60.4057 -9.49407 60.7846 -9.49407 61.399V64.4402Z" fill="white"/>
            <path d="M-3.72927 66.5599V59.2691H-5.06047L-6.54527 60.5593V61.9929L-5.06047 60.7026V66.5599H-3.72927Z" fill="white"/>
            <path d="M2.95713 64.4505V61.3785C2.95713 59.9858 1.93313 59.2076 0.745289 59.2076C-0.442551 59.2076 -1.47679 59.9858 -1.47679 61.3785V64.4505C-1.47679 65.8431 -0.442551 66.6214 0.745289 66.6214C1.93313 66.6214 2.95713 65.8431 2.95713 64.4505ZM1.62593 64.4402C1.62593 65.0546 1.26753 65.4233 0.745289 65.4233C0.223049 65.4233 -0.145592 65.0546 -0.145592 64.4402V61.399C-0.145592 60.7846 0.223049 60.4057 0.745289 60.4057C1.26753 60.4057 1.62593 60.7846 1.62593 61.399V64.4402Z" fill="white"/>
            <path d="M7.39073 66.5599V59.2691H6.05953L4.57473 60.5593V61.9929L6.05953 60.7026V66.5599H7.39073Z" fill="white"/>
            <path d="M14.0771 64.4505V61.3785C14.0771 59.9858 13.0531 59.2076 11.8653 59.2076C10.6774 59.2076 9.64321 59.9858 9.64321 61.3785V64.4505C9.64321 65.8431 10.6774 66.6214 11.8653 66.6214C13.0531 66.6214 14.0771 65.8431 14.0771 64.4505ZM12.7459 64.4402C12.7459 65.0546 12.3875 65.4233 11.8653 65.4233C11.343 65.4233 10.9744 65.0546 10.9744 64.4402V61.399C10.9744 60.7846 11.343 60.4057 11.8653 60.4057C12.3875 60.4057 12.7459 60.7846 12.7459 61.399V64.4402Z" fill="white"/>
            <path d="M18.5107 66.5599V59.2691H17.1795L15.6947 60.5593V61.9929L17.1795 60.7026V66.5599H18.5107Z" fill="white"/>
            <path d="M25.1971 64.4505V61.3785C25.1971 59.9858 24.1731 59.2076 22.9853 59.2076C21.7974 59.2076 20.7632 59.9858 20.7632 61.3785V64.4505C20.7632 65.8431 21.7974 66.6214 22.9853 66.6214C24.1731 66.6214 25.1971 65.8431 25.1971 64.4505ZM23.8659 64.4402C23.8659 65.0546 23.5075 65.4233 22.9853 65.4233C22.463 65.4233 22.0944 65.0546 22.0944 64.4402V61.399C22.0944 60.7846 22.463 60.4057 22.9853 60.4057C23.5075 60.4057 23.8659 60.7846 23.8659 61.399V64.4402Z" fill="white"/>
            <path d="M29.6307 66.5599V59.2691H28.2995L26.8147 60.5593V61.9929L28.2995 60.7026V66.5599H29.6307Z" fill="white"/>
            <path d="M36.3171 64.4505V61.3785C36.3171 59.9858 35.2931 59.2076 34.1053 59.2076C32.9174 59.2076 31.8832 59.9858 31.8832 61.3785V64.4505C31.8832 65.8431 32.9174 66.6214 34.1053 66.6214C35.2931 66.6214 36.3171 65.8431 36.3171 64.4505ZM34.9859 64.4402C34.9859 65.0546 34.6275 65.4233 34.1053 65.4233C33.583 65.4233 33.2144 65.0546 33.2144 64.4402V61.399C33.2144 60.7846 33.583 60.4057 34.1053 60.4057C34.6275 60.4057 34.9859 60.7846 34.9859 61.399V64.4402Z" fill="white"/>
            <path d="M40.7507 66.5599V59.2691H39.4195L37.9347 60.5593V61.9929L39.4195 60.7026V66.5599H40.7507Z" fill="white"/>
            <path d="M47.4371 64.4505V61.3785C47.4371 59.9858 46.4131 59.2076 45.2253 59.2076C44.0375 59.2076 43.0032 59.9858 43.0032 61.3785V64.4505C43.0032 65.8431 44.0375 66.6214 45.2253 66.6214C46.4131 66.6214 47.4371 65.8431 47.4371 64.4505ZM46.1059 64.4402C46.1059 65.0546 45.7475 65.4233 45.2253 65.4233C44.7031 65.4233 44.3344 65.0546 44.3344 64.4402V61.399C44.3344 60.7846 44.7031 60.4057 45.2253 60.4057C45.7475 60.4057 46.1059 60.7846 46.1059 61.399V64.4402Z" fill="white"/>
            <path d="M51.8707 66.5599V59.2691H50.5395L49.0547 60.5593V61.9929L50.5395 60.7026V66.5599H51.8707Z" fill="white"/>
            <path d="M58.5571 64.4505V61.3785C58.5571 59.9858 57.5331 59.2076 56.3453 59.2076C55.1575 59.2076 54.1232 59.9858 54.1232 61.3785V64.4505C54.1232 65.8431 55.1575 66.6214 56.3453 66.6214C57.5331 66.6214 58.5571 65.8431 58.5571 64.4505ZM57.2259 64.4402C57.2259 65.0546 56.8675 65.4233 56.3453 65.4233C55.8231 65.4233 55.4544 65.0546 55.4544 64.4402V61.399C55.4544 60.7846 55.8231 60.4057 56.3453 60.4057C56.8675 60.4057 57.2259 60.7846 57.2259 61.399V64.4402Z" fill="white"/>
            <path d="M62.9907 66.5599V59.2691H61.6595L60.1747 60.5593V61.9929L61.6595 60.7026V66.5599H62.9907Z" fill="white"/>
            <path d="M69.6771 64.4505V61.3785C69.6771 59.9858 68.6531 59.2076 67.4653 59.2076C66.2775 59.2076 65.2432 59.9858 65.2432 61.3785V64.4505C65.2432 65.8431 66.2775 66.6214 67.4653 66.6214C68.6531 66.6214 69.6771 65.8431 69.6771 64.4505ZM68.3459 64.4402C68.3459 65.0546 67.9875 65.4233 67.4653 65.4233C66.9431 65.4233 66.5744 65.0546 66.5744 64.4402V61.399C66.5744 60.7846 66.9431 60.4057 67.4653 60.4057C67.9875 60.4057 68.3459 60.7846 68.3459 61.399V64.4402Z" fill="white"/>
            <path d="M74.1107 66.5599V59.2691H72.7795L71.2947 60.5593V61.9929L72.7795 60.7026V66.5599H74.1107Z" fill="white"/>
            <path d="M80.7971 64.4505V61.3785C80.7971 59.9858 79.7731 59.2076 78.5853 59.2076C77.3975 59.2076 76.3632 59.9858 76.3632 61.3785V64.4505C76.3632 65.8431 77.3975 66.6214 78.5853 66.6214C79.7731 66.6214 80.7971 65.8431 80.7971 64.4505ZM79.4659 64.4402C79.4659 65.0546 79.1075 65.4233 78.5853 65.4233C78.0631 65.4233 77.6944 65.0546 77.6944 64.4402V61.399C77.6944 60.7846 78.0631 60.4057 78.5853 60.4057C79.1075 60.4057 79.4659 60.7846 79.4659 61.399V64.4402Z" fill="white"/>
            <path d="M-37.0893 76.7999V69.5091H-38.4205L-39.9053 70.7993V72.2329L-38.4205 70.9426V76.7999H-37.0893Z" fill="white"/>
            <path d="M-30.4029 74.6905V71.6185C-30.4029 70.2258 -31.4269 69.4476 -32.6147 69.4476C-33.8026 69.4476 -34.8368 70.2258 -34.8368 71.6185V74.6905C-34.8368 76.0831 -33.8026 76.8614 -32.6147 76.8614C-31.4269 76.8614 -30.4029 76.0831 -30.4029 74.6905ZM-31.7341 74.6803C-31.7341 75.2947 -32.0925 75.6633 -32.6147 75.6633C-33.137 75.6633 -33.5056 75.2947 -33.5056 74.6803V71.639C-33.5056 71.0246 -33.137 70.6457 -32.6147 70.6457C-32.0925 70.6457 -31.7341 71.0246 -31.7341 71.639V74.6803Z" fill="white"/>
            <path d="M-25.9693 76.7999V69.5091H-27.3005L-28.7853 70.7993V72.2329L-27.3005 70.9426V76.7999H-25.9693Z" fill="white"/>
            <path d="M-19.2829 74.6905V71.6185C-19.2829 70.2258 -20.3069 69.4476 -21.4947 69.4476C-22.6826 69.4476 -23.7168 70.2258 -23.7168 71.6185V74.6905C-23.7168 76.0831 -22.6826 76.8614 -21.4947 76.8614C-20.3069 76.8614 -19.2829 76.0831 -19.2829 74.6905ZM-20.6141 74.6803C-20.6141 75.2947 -20.9725 75.6633 -21.4947 75.6633C-22.017 75.6633 -22.3856 75.2947 -22.3856 74.6803V71.639C-22.3856 71.0246 -22.017 70.6457 -21.4947 70.6457C-20.9725 70.6457 -20.6141 71.0246 -20.6141 71.639V74.6803Z" fill="white"/>
            <path d="M-14.8493 76.7999V69.5091H-16.1805L-17.6653 70.7993V72.2329L-16.1805 70.9426V76.7999H-14.8493Z" fill="white"/>
            <path d="M-8.16287 74.6905V71.6185C-8.16287 70.2258 -9.18687 69.4476 -10.3747 69.4476C-11.5625 69.4476 -12.5968 70.2258 -12.5968 71.6185V74.6905C-12.5968 76.0831 -11.5625 76.8614 -10.3747 76.8614C-9.18687 76.8614 -8.16287 76.0831 -8.16287 74.6905ZM-9.49407 74.6803C-9.49407 75.2947 -9.85247 75.6633 -10.3747 75.6633C-10.8969 75.6633 -11.2656 75.2947 -11.2656 74.6803V71.639C-11.2656 71.0246 -10.8969 70.6457 -10.3747 70.6457C-9.85247 70.6457 -9.49407 71.0246 -9.49407 71.639V74.6803Z" fill="white"/>
            <path d="M-3.72927 76.7999V69.5091H-5.06047L-6.54527 70.7993V72.2329L-5.06047 70.9426V76.7999H-3.72927Z" fill="white"/>
            <path d="M2.95713 74.6905V71.6185C2.95713 70.2258 1.93313 69.4476 0.745289 69.4476C-0.442551 69.4476 -1.47679 70.2258 -1.47679 71.6185V74.6905C-1.47679 76.0831 -0.442551 76.8614 0.745289 76.8614C1.93313 76.8614 2.95713 76.0831 2.95713 74.6905ZM1.62593 74.6803C1.62593 75.2947 1.26753 75.6633 0.745289 75.6633C0.223049 75.6633 -0.145592 75.2947 -0.145592 74.6803V71.639C-0.145592 71.0246 0.223049 70.6457 0.745289 70.6457C1.26753 70.6457 1.62593 71.0246 1.62593 71.639V74.6803Z" fill="white"/>
            <path d="M7.39073 76.7999V69.5091H6.05953L4.57473 70.7993V72.2329L6.05953 70.9426V76.7999H7.39073Z" fill="white"/>
            <path d="M14.0771 74.6905V71.6185C14.0771 70.2258 13.0531 69.4476 11.8653 69.4476C10.6774 69.4476 9.64321 70.2258 9.64321 71.6185V74.6905C9.64321 76.0831 10.6774 76.8614 11.8653 76.8614C13.0531 76.8614 14.0771 76.0831 14.0771 74.6905ZM12.7459 74.6803C12.7459 75.2947 12.3875 75.6633 11.8653 75.6633C11.343 75.6633 10.9744 75.2947 10.9744 74.6803V71.639C10.9744 71.0246 11.343 70.6457 11.8653 70.6457C12.3875 70.6457 12.7459 71.0246 12.7459 71.639V74.6803Z" fill="white"/>
            <path d="M18.5107 76.7999V69.5091H17.1795L15.6947 70.7993V72.2329L17.1795 70.9426V76.7999H18.5107Z" fill="white"/>
            <path d="M25.1971 74.6905V71.6185C25.1971 70.2258 24.1731 69.4476 22.9853 69.4476C21.7974 69.4476 20.7632 70.2258 20.7632 71.6185V74.6905C20.7632 76.0831 21.7974 76.8614 22.9853 76.8614C24.1731 76.8614 25.1971 76.0831 25.1971 74.6905ZM23.8659 74.6803C23.8659 75.2947 23.5075 75.6633 22.9853 75.6633C22.463 75.6633 22.0944 75.2947 22.0944 74.6803V71.639C22.0944 71.0246 22.463 70.6457 22.9853 70.6457C23.5075 70.6457 23.8659 71.0246 23.8659 71.639V74.6803Z" fill="white"/>
            <path d="M29.6307 76.7999V69.5091H28.2995L26.8147 70.7993V72.2329L28.2995 70.9426V76.7999H29.6307Z" fill="white"/>
            <path d="M36.3171 74.6905V71.6185C36.3171 70.2258 35.2931 69.4476 34.1053 69.4476C32.9174 69.4476 31.8832 70.2258 31.8832 71.6185V74.6905C31.8832 76.0831 32.9174 76.8614 34.1053 76.8614C35.2931 76.8614 36.3171 76.0831 36.3171 74.6905ZM34.9859 74.6803C34.9859 75.2947 34.6275 75.6633 34.1053 75.6633C33.583 75.6633 33.2144 75.2947 33.2144 74.6803V71.639C33.2144 71.0246 33.583 70.6457 34.1053 70.6457C34.6275 70.6457 34.9859 71.0246 34.9859 71.639V74.6803Z" fill="white"/>
            <path d="M40.7507 76.7999V69.5091H39.4195L37.9347 70.7993V72.2329L39.4195 70.9426V76.7999H40.7507Z" fill="white"/>
            <path d="M47.4371 74.6905V71.6185C47.4371 70.2258 46.4131 69.4476 45.2253 69.4476C44.0375 69.4476 43.0032 70.2258 43.0032 71.6185V74.6905C43.0032 76.0831 44.0375 76.8614 45.2253 76.8614C46.4131 76.8614 47.4371 76.0831 47.4371 74.6905ZM46.1059 74.6803C46.1059 75.2947 45.7475 75.6633 45.2253 75.6633C44.7031 75.6633 44.3344 75.2947 44.3344 74.6803V71.639C44.3344 71.0246 44.7031 70.6457 45.2253 70.6457C45.7475 70.6457 46.1059 71.0246 46.1059 71.639V74.6803Z" fill="white"/>
            <path d="M51.8707 76.7999V69.5091H50.5395L49.0547 70.7993V72.2329L50.5395 70.9426V76.7999H51.8707Z" fill="white"/>
            <path d="M58.5571 74.6905V71.6185C58.5571 70.2258 57.5331 69.4476 56.3453 69.4476C55.1575 69.4476 54.1232 70.2258 54.1232 71.6185V74.6905C54.1232 76.0831 55.1575 76.8614 56.3453 76.8614C57.5331 76.8614 58.5571 76.0831 58.5571 74.6905ZM57.2259 74.6803C57.2259 75.2947 56.8675 75.6633 56.3453 75.6633C55.8231 75.6633 55.4544 75.2947 55.4544 74.6803V71.639C55.4544 71.0246 55.8231 70.6457 56.3453 70.6457C56.8675 70.6457 57.2259 71.0246 57.2259 71.639V74.6803Z" fill="white"/>
            <path d="M62.9907 76.7999V69.5091H61.6595L60.1747 70.7993V72.2329L61.6595 70.9426V76.7999H62.9907Z" fill="white"/>
            <path d="M69.6771 74.6905V71.6185C69.6771 70.2258 68.6531 69.4476 67.4653 69.4476C66.2775 69.4476 65.2432 70.2258 65.2432 71.6185V74.6905C65.2432 76.0831 66.2775 76.8614 67.4653 76.8614C68.6531 76.8614 69.6771 76.0831 69.6771 74.6905ZM68.3459 74.6803C68.3459 75.2947 67.9875 75.6633 67.4653 75.6633C66.9431 75.6633 66.5744 75.2947 66.5744 74.6803V71.639C66.5744 71.0246 66.9431 70.6457 67.4653 70.6457C67.9875 70.6457 68.3459 71.0246 68.3459 71.639V74.6803Z" fill="white"/>
            <path d="M74.1107 76.7999V69.5091H72.7795L71.2947 70.7993V72.2329L72.7795 70.9426V76.7999H74.1107Z" fill="white"/>
            <path d="M80.7971 74.6905V71.6185C80.7971 70.2258 79.7731 69.4476 78.5853 69.4476C77.3975 69.4476 76.3632 70.2258 76.3632 71.6185V74.6905C76.3632 76.0831 77.3975 76.8614 78.5853 76.8614C79.7731 76.8614 80.7971 76.0831 80.7971 74.6905ZM79.4659 74.6803C79.4659 75.2947 79.1075 75.6633 78.5853 75.6633C78.0631 75.6633 77.6944 75.2947 77.6944 74.6803V71.639C77.6944 71.0246 78.0631 70.6457 78.5853 70.6457C79.1075 70.6457 79.4659 71.0246 79.4659 71.639V74.6803Z" fill="white"/>
        </g>
    </g>
    <path d="M10.24 20.48C15.8954 20.48 20.48 15.8954 20.48 10.24C20.48 4.5846 15.8954 0 10.24 0C4.5846 0 0 4.5846 0 10.24C0 15.8954 4.5846 20.48 10.24 20.48Z" fill="url(#paint2_linear)"/>
    <defs>
        <linearGradient id="paint0_linear" x1="0" y1="32" x2="64" y2="32" gradientUnits="userSpaceOnUse">
            <stop stop-color="#0ACFFE"/>
            <stop offset="1" stop-color="#495AFF"/>
        </linearGradient>
        <linearGradient id="paint1_linear" x1="0" y1="32" x2="64" y2="32" gradientUnits="userSpaceOnUse">
            <stop stop-color="#0ACFFE"/>
            <stop offset="1" stop-color="#495AFF"/>
        </linearGradient>
        <linearGradient id="paint2_linear" x1="0" y1="10.24" x2="20.48" y2="10.24" gradientUnits="userSpaceOnUse">
            <stop stop-color="#0ACFFE"/>
            <stop offset="1" stop-color="#495AFF"/>
        </linearGradient>
    </defs>
</svg>
