<svg width="64" height="64" viewBox="0 0 64 64" fill="none" xmlns="http://www.w3.org/2000/svg">
    <circle cx="32" cy="32" r="31.75" fill="white" stroke="white" stroke-width="0.5"/>
    <path d="M28.8427 28.8275C30.9175 29.335 33.0841 29.335 35.1589 28.8275C35.7386 26.4699 36.9526 24.3159 38.6694 22.5992C40.3861 20.8825 42.5401 19.6684 44.8977 19.0887C45.3756 17.1344 45.4031 15.0969 44.9781 13.1303C44.5531 11.1638 43.6867 9.3195 42.4445 7.73685C41.2022 6.1542 39.6165 4.87457 37.8071 3.99463C35.9978 3.11469 34.0121 2.65744 32.0002 2.65744C29.9882 2.65744 28.0025 3.11469 26.1932 3.99463C24.3838 4.87457 22.7981 6.1542 21.5559 7.73685C20.3136 9.3195 19.4472 11.1638 19.0222 13.1303C18.5973 15.0969 18.6248 17.1344 19.1027 19.0887C21.4607 19.6679 23.6151 20.8817 25.3321 22.5985C27.0492 24.3153 28.2632 26.4695 28.8427 28.8275Z" fill="#7ABDF7"/>
    <path d="M35.1596 35.14C33.0848 34.6325 30.9182 34.6325 28.8434 35.14C28.2633 37.497 27.0491 39.6503 25.3324 41.3664C23.6156 43.0825 21.4619 44.2959 19.1046 44.875C18.6267 46.8294 18.5992 48.8668 19.0242 50.8334C19.4492 52.8 20.3155 54.6442 21.5578 56.2269C22.8001 57.8095 24.3858 59.0892 26.1951 59.9691C28.0045 60.8491 29.9901 61.3063 32.0021 61.3063C34.0141 61.3063 35.9997 60.8491 37.8091 59.9691C39.6184 59.0892 41.2041 57.8095 42.4464 56.2269C43.6887 54.6442 44.555 52.8 44.98 50.8334C45.405 48.8668 45.3775 46.8294 44.8996 44.875C42.5416 44.2959 40.3872 43.0821 38.6701 41.3653C36.9531 39.6484 35.739 37.4942 35.1596 35.1362V35.14Z" fill="#0D74F5"/>
    <path d="M48.0556 18.7062C46.9923 18.7041 45.9326 18.83 44.8994 19.0812C44.3201 21.4387 43.1063 23.5926 41.3897 25.3091C39.6732 27.0257 37.5193 28.2395 35.1619 28.8187C34.6544 30.8932 34.6544 33.0593 35.1619 35.1337C37.5198 35.7133 39.674 36.9277 41.3906 38.6449C43.1072 40.3622 44.3207 42.5168 44.8994 44.875C46.7232 45.321 48.6209 45.3751 50.4672 45.0337C52.3135 44.6923 54.0664 43.9632 55.6102 42.8946C57.154 41.8259 58.4536 40.442 59.4232 38.8342C60.3928 37.2263 61.0104 35.4311 61.2352 33.567C61.4599 31.7029 61.2868 29.8124 60.7272 28.0201C60.1676 26.2279 59.2342 24.5747 57.9887 23.1697C56.7432 21.7647 55.2138 20.6398 53.5016 19.8694C51.7894 19.0989 49.9332 18.7003 48.0556 18.7V18.7062Z" fill="#4494F7"/>
    <path d="M28.8419 35.14C29.3509 33.0658 29.3509 30.8993 28.8419 28.825C26.4844 28.2456 24.3305 27.0317 22.6138 25.3152C20.897 23.5987 19.683 21.445 19.1032 19.0875C17.1488 18.6096 15.1114 18.5821 13.1448 19.0071C11.1782 19.4321 9.33393 20.2984 7.75129 21.5407C6.16864 22.783 4.88901 24.3687 4.00906 26.178C3.12912 27.9874 2.67187 29.973 2.67188 31.985C2.67187 33.997 3.12912 35.9826 4.00906 37.792C4.88901 39.6013 6.16864 41.187 7.75129 42.4293C9.33393 43.6716 11.1782 44.5379 13.1448 44.9629C15.1114 45.3879 17.1488 45.3604 19.1032 44.8825C19.6821 42.5241 20.8959 40.3694 22.6127 38.6519C24.3295 36.9344 26.4838 35.7199 28.8419 35.14Z" fill="#005CF4"/>
    <path d="M35.1582 28.8275C37.5158 28.2478 39.6698 27.0338 41.3865 25.317C43.1032 23.6003 44.3173 21.4464 44.897 19.0888C42.5393 19.6685 40.3854 20.8825 38.6687 22.5992C36.9519 24.3159 35.7379 26.4699 35.1582 28.8275Z" fill="#186EF9"/>
    <path d="M35.1582 35.14C35.7379 37.4972 36.952 39.6507 38.6687 41.3668C40.3855 43.083 42.5395 44.2962 44.897 44.875C44.317 42.5175 43.1029 40.3637 41.3862 38.647C39.6695 36.9303 37.5157 35.7162 35.1582 35.1362V35.14Z" fill="#0246F2"/>
    <path d="M28.8423 28.8275C28.2626 26.4699 27.0485 24.3159 25.3318 22.5992C23.6151 20.8825 21.4611 19.6685 19.1035 19.0888C19.6832 21.4464 20.8972 23.6003 22.614 25.317C24.3307 27.0338 26.4847 28.2478 28.8423 28.8275Z" fill="#0046F8"/>
    <path d="M28.8423 35.14C26.4852 35.7196 24.3318 36.9332 22.6151 38.6492C20.8984 40.3652 19.6841 42.5182 19.1035 44.875C21.4613 44.2955 23.6153 43.0816 25.3321 41.3648C27.0489 39.648 28.2628 37.494 28.8423 35.1362V35.14Z" fill="#0729F1"/>
    <path d="M28.8427 28.8275C30.9175 29.335 33.0841 29.335 35.1589 28.8275C35.7386 26.4699 36.9526 24.3159 38.6694 22.5992C40.3861 20.8825 42.5401 19.6684 44.8977 19.0887C45.3756 17.1344 45.4031 15.0969 44.9781 13.1303C44.5531 11.1638 43.6867 9.3195 42.4445 7.73685C41.2022 6.1542 39.6165 4.87457 37.8071 3.99463C35.9978 3.11469 34.0121 2.65744 32.0002 2.65744C29.9882 2.65744 28.0025 3.11469 26.1932 3.99463C24.3838 4.87457 22.7981 6.1542 21.5559 7.73685C20.3136 9.3195 19.4472 11.1638 19.0222 13.1303C18.5973 15.0969 18.6248 17.1344 19.1027 19.0887C21.4607 19.6679 23.6151 20.8817 25.3321 22.5985C27.0492 24.3153 28.2632 26.4695 28.8427 28.8275Z" fill="#7ABDF7"/>
    <path d="M35.1596 35.14C33.0848 34.6325 30.9182 34.6325 28.8434 35.14C28.2633 37.497 27.0491 39.6503 25.3324 41.3664C23.6156 43.0825 21.4619 44.2959 19.1046 44.875C18.6267 46.8294 18.5992 48.8668 19.0242 50.8334C19.4492 52.8 20.3155 54.6442 21.5578 56.2269C22.8001 57.8095 24.3858 59.0892 26.1951 59.9691C28.0045 60.8491 29.9901 61.3063 32.0021 61.3063C34.0141 61.3063 35.9997 60.8491 37.8091 59.9691C39.6184 59.0892 41.2041 57.8095 42.4464 56.2269C43.6887 54.6442 44.555 52.8 44.98 50.8334C45.405 48.8668 45.3775 46.8294 44.8996 44.875C42.5416 44.2959 40.3872 43.0821 38.6701 41.3653C36.9531 39.6484 35.739 37.4942 35.1596 35.1362V35.14Z" fill="#0D74F5"/>
    <path d="M48.0556 18.7062C46.9923 18.7041 45.9326 18.83 44.8994 19.0812C44.3201 21.4387 43.1063 23.5926 41.3897 25.3091C39.6732 27.0257 37.5193 28.2395 35.1619 28.8187C34.6544 30.8932 34.6544 33.0593 35.1619 35.1337C37.5198 35.7133 39.674 36.9277 41.3906 38.6449C43.1072 40.3622 44.3207 42.5168 44.8994 44.875C46.7232 45.321 48.6209 45.3751 50.4672 45.0337C52.3135 44.6923 54.0664 43.9632 55.6102 42.8946C57.154 41.8259 58.4536 40.442 59.4232 38.8342C60.3928 37.2263 61.0104 35.4311 61.2352 33.567C61.4599 31.7029 61.2868 29.8124 60.7272 28.0201C60.1676 26.2279 59.2342 24.5747 57.9887 23.1697C56.7432 21.7647 55.2138 20.6398 53.5016 19.8694C51.7894 19.0989 49.9332 18.7003 48.0556 18.7V18.7062Z" fill="#4494F7"/>
    <path d="M28.8419 35.14C29.3509 33.0658 29.3509 30.8993 28.8419 28.825C26.4844 28.2456 24.3305 27.0317 22.6138 25.3152C20.897 23.5987 19.683 21.445 19.1032 19.0875C17.1488 18.6096 15.1114 18.5821 13.1448 19.0071C11.1782 19.4321 9.33393 20.2984 7.75129 21.5407C6.16864 22.783 4.88901 24.3687 4.00906 26.178C3.12912 27.9874 2.67187 29.973 2.67188 31.985C2.67187 33.997 3.12912 35.9826 4.00906 37.792C4.88901 39.6013 6.16864 41.187 7.75129 42.4293C9.33393 43.6716 11.1782 44.5379 13.1448 44.9629C15.1114 45.3879 17.1488 45.3604 19.1032 44.8825C19.6821 42.5241 20.8959 40.3694 22.6127 38.6519C24.3295 36.9344 26.4838 35.7199 28.8419 35.14Z" fill="#005CF4"/>
    <path d="M35.1582 28.8275C37.5158 28.2478 39.6698 27.0338 41.3865 25.317C43.1032 23.6003 44.3173 21.4464 44.897 19.0888C42.5393 19.6685 40.3854 20.8825 38.6687 22.5992C36.9519 24.3159 35.7379 26.4699 35.1582 28.8275Z" fill="#186EF9"/>
    <path d="M35.1582 35.14C35.7379 37.4972 36.952 39.6507 38.6687 41.3668C40.3855 43.083 42.5395 44.2962 44.897 44.875C44.317 42.5175 43.1029 40.3637 41.3862 38.647C39.6695 36.9303 37.5157 35.7162 35.1582 35.1362V35.14Z" fill="#0246F2"/>
    <path d="M28.8423 28.8275C28.2626 26.4699 27.0485 24.3159 25.3318 22.5992C23.6151 20.8825 21.4611 19.6685 19.1035 19.0888C19.6832 21.4464 20.8972 23.6003 22.614 25.317C24.3307 27.0338 26.4847 28.2478 28.8423 28.8275Z" fill="#0046F8"/>
    <path d="M28.8423 35.14C26.4852 35.7196 24.3318 36.9332 22.6151 38.6492C20.8984 40.3652 19.6841 42.5182 19.1035 44.875C21.4613 44.2955 23.6153 43.0816 25.3321 41.3648C27.0489 39.648 28.2628 37.494 28.8423 35.1362V35.14Z" fill="#0729F1"/>
</svg>