<svg width="15" height="15" viewBox="0 0 15 15" fill="none" xmlns="http://www.w3.org/2000/svg">
    <path fill-rule="evenodd" clip-rule="evenodd" d="M14 7.5C14 11.0899 11.0899 14 7.5 14C3.91015 14 1 11.0899 1 7.5C1 3.91015 3.91015 1 7.5 1C11.0899 1 14 3.91015 14 7.5ZM15 7.5C15 11.6421 11.6421 15 7.5 15C3.35786 15 0 11.6421 0 7.5C0 3.35786 3.35786 0 7.5 0C11.6421 0 15 3.35786 15 7.5ZM5.46187 3.67875C5.98688 3.10125 6.72188 2.8125 7.66688 2.8125C8.50688 2.8125 9.17625 3.03562 9.68813 3.50813C10.1738 3.95437 10.4231 4.57125 10.4231 5.35875C10.4231 5.94937 10.2525 6.46125 9.92438 6.89437C9.79313 7.05188 9.43875 7.39313 8.86125 7.905C8.5725 8.15438 8.37563 8.39062 8.24438 8.62687C8.07375 8.91562 7.995 9.23063 7.995 9.585V9.88688H6.945V9.585C6.945 9.15188 7.02375 8.77125 7.18125 8.44312C7.365 8.04937 7.79813 7.55062 8.50688 6.92062C8.71688 6.71063 8.87438 6.55313 8.95312 6.44813C9.21562 6.12 9.34688 5.77875 9.34688 5.41125C9.34688 4.88625 9.18938 4.47938 8.90063 4.19063C8.59875 3.87563 8.16563 3.73125 7.61438 3.73125C6.95813 3.73125 6.4725 3.94125 6.1575 4.37437C5.86875 4.74187 5.72438 5.24062 5.72438 5.88375H4.6875C4.6875 4.965 4.93687 4.23 5.46187 3.67875ZM6.90563 11.0287C7.06313 10.8713 7.24688 10.8056 7.47 10.8056C7.69313 10.8056 7.89 10.8713 8.0475 11.0287C8.19188 11.1731 8.27063 11.3569 8.27063 11.58C8.27063 11.8162 8.19188 12 8.03438 12.1444C7.87688 12.2888 7.69313 12.3675 7.47 12.3675C7.24688 12.3675 7.06313 12.2888 6.90563 12.1444C6.74813 11.9869 6.6825 11.8031 6.6825 11.58C6.6825 11.3569 6.74813 11.1731 6.90563 11.0287Z" fill="black"/>
</svg>