<?xml version="1.0" encoding="UTF-8"?>
<svg width="62" height="36" viewBox="0 0 62 36" fill="none" xmlns="http://www.w3.org/2000/svg">
    <path d="M61.9885 17.362C62.0769 19.8319 61.6556 22.2935 60.7508 24.5933C59.846 26.8932 58.4772 28.982 56.7296 30.7296C54.982 32.4772 52.8932 33.846 50.5933 34.7508C48.2935 35.6556 45.8319 36.0769 43.362 35.9885C33.6354 35.6553 26 27.4777 26 17.7511V13.8604H38.6446V17.9942C38.6687 19.0175 38.9926 20.0112 39.5762 20.852C40.1598 21.6929 40.9773 22.344 41.9275 22.7245C42.8777 23.105 43.9186 23.1983 44.9213 22.9927C45.924 22.7871 46.8443 22.2918 47.568 21.568C48.2918 20.8443 48.7871 19.924 48.9927 18.9213C49.1983 17.9186 49.105 16.8777 48.7245 15.9275C48.344 14.9773 47.6929 14.1598 46.852 13.5762C46.0112 12.9926 45.0175 12.6687 43.9942 12.6446H39.8604V0H43.7365C53.4777 0 61.6456 7.63053 61.9885 17.362Z" fill="url(#paint0_linear)"/>
    <mask id="mask0" mask-type="alpha" maskUnits="userSpaceOnUse" x="26" y="0" width="36" height="36">
        <path d="M61.9885 17.362C62.0769 19.8319 61.6556 22.2935 60.7508 24.5933C59.846 26.8932 58.4772 28.982 56.7296 30.7296C54.982 32.4772 52.8932 33.846 50.5933 34.7508C48.2935 35.6556 45.8319 36.0769 43.362 35.9885C33.6354 35.6553 26 27.4777 26 17.7511V13.8604H38.6446V17.9942C38.6687 19.0175 38.9926 20.0112 39.5762 20.852C40.1598 21.6929 40.9773 22.344 41.9275 22.7245C42.8777 23.105 43.9186 23.1983 44.9213 22.9927C45.924 22.7871 46.8443 22.2918 47.568 21.568C48.2918 20.8443 48.7871 19.924 48.9927 18.9213C49.1983 17.9186 49.105 16.8777 48.7245 15.9275C48.344 14.9773 47.6929 14.1598 46.852 13.5762C46.0112 12.9926 45.0175 12.6687 43.9942 12.6446H39.8604V0H43.7365C53.4777 0 61.6456 7.63053 61.9885 17.362Z" fill="url(#paint1_linear)"/>
    </mask>
    <g mask="url(#mask0)">
        <g opacity="0.3">
            <path d="M5.13722 -2.88004V-6.98116H4.38842L3.55322 -6.2554V-5.449L4.38842 -6.17476V-2.88004H5.13722Z" fill="white"/>
            <path d="M8.89832 -4.0666V-5.7946C8.89832 -6.57796 8.32232 -7.01572 7.65416 -7.01572C6.986 -7.01572 6.40424 -6.57796 6.40424 -5.7946V-4.0666C6.40424 -3.28324 6.986 -2.84548 7.65416 -2.84548C8.32232 -2.84548 8.89832 -3.28324 8.89832 -4.0666ZM8.14952 -4.07236C8.14952 -3.72676 7.94792 -3.5194 7.65416 -3.5194C7.3604 -3.5194 7.15304 -3.72676 7.15304 -4.07236V-5.78308C7.15304 -6.12868 7.3604 -6.3418 7.65416 -6.3418C7.94792 -6.3418 8.14952 -6.12868 8.14952 -5.78308V-4.07236Z" fill="white"/>
            <path d="M11.3922 -2.88004V-6.98116H10.6434L9.80822 -6.2554V-5.449L10.6434 -6.17476V-2.88004H11.3922Z" fill="white"/>
            <path d="M15.1533 -4.0666V-5.7946C15.1533 -6.57796 14.5773 -7.01572 13.9092 -7.01572C13.241 -7.01572 12.6592 -6.57796 12.6592 -5.7946V-4.0666C12.6592 -3.28324 13.241 -2.84548 13.9092 -2.84548C14.5773 -2.84548 15.1533 -3.28324 15.1533 -4.0666ZM14.4045 -4.07236C14.4045 -3.72676 14.2029 -3.5194 13.9092 -3.5194C13.6154 -3.5194 13.408 -3.72676 13.408 -4.07236V-5.78308C13.408 -6.12868 13.6154 -6.3418 13.9092 -6.3418C14.2029 -6.3418 14.4045 -6.12868 14.4045 -5.78308V-4.07236Z" fill="white"/>
            <path d="M17.6472 -2.88004V-6.98116H16.8984L16.0632 -6.2554V-5.449L16.8984 -6.17476V-2.88004H17.6472Z" fill="white"/>
            <path d="M21.4083 -4.0666V-5.7946C21.4083 -6.57796 20.8323 -7.01572 20.1642 -7.01572C19.496 -7.01572 18.9142 -6.57796 18.9142 -5.7946V-4.0666C18.9142 -3.28324 19.496 -2.84548 20.1642 -2.84548C20.8323 -2.84548 21.4083 -3.28324 21.4083 -4.0666ZM20.6595 -4.07236C20.6595 -3.72676 20.4579 -3.5194 20.1642 -3.5194C19.8704 -3.5194 19.663 -3.72676 19.663 -4.07236V-5.78308C19.663 -6.12868 19.8704 -6.3418 20.1642 -6.3418C20.4579 -6.3418 20.6595 -6.12868 20.6595 -5.78308V-4.07236Z" fill="white"/>
            <path d="M23.9022 -2.88004V-6.98116H23.1534L22.3182 -6.2554V-5.449L23.1534 -6.17476V-2.88004H23.9022Z" fill="white"/>
            <path d="M27.6633 -4.0666V-5.7946C27.6633 -6.57796 27.0873 -7.01572 26.4192 -7.01572C25.751 -7.01572 25.1692 -6.57796 25.1692 -5.7946V-4.0666C25.1692 -3.28324 25.751 -2.84548 26.4192 -2.84548C27.0873 -2.84548 27.6633 -3.28324 27.6633 -4.0666ZM26.9145 -4.07236C26.9145 -3.72676 26.7129 -3.5194 26.4192 -3.5194C26.1254 -3.5194 25.918 -3.72676 25.918 -4.07236V-5.78308C25.918 -6.12868 26.1254 -6.3418 26.4192 -6.3418C26.7129 -6.3418 26.9145 -6.12868 26.9145 -5.78308V-4.07236Z" fill="white"/>
            <path d="M30.1572 -2.88004V-6.98116H29.4084L28.5732 -6.2554V-5.449L29.4084 -6.17476V-2.88004H30.1572Z" fill="white"/>
            <path d="M33.9183 -4.0666V-5.7946C33.9183 -6.57796 33.3423 -7.01572 32.6742 -7.01572C32.006 -7.01572 31.4242 -6.57796 31.4242 -5.7946V-4.0666C31.4242 -3.28324 32.006 -2.84548 32.6742 -2.84548C33.3423 -2.84548 33.9183 -3.28324 33.9183 -4.0666ZM33.1695 -4.07236C33.1695 -3.72676 32.9679 -3.5194 32.6742 -3.5194C32.3804 -3.5194 32.173 -3.72676 32.173 -4.07236V-5.78308C32.173 -6.12868 32.3804 -6.3418 32.6742 -6.3418C32.9679 -6.3418 33.1695 -6.12868 33.1695 -5.78308V-4.07236Z" fill="white"/>
            <path d="M36.4122 -2.88004V-6.98116H35.6634L34.8282 -6.2554V-5.449L35.6634 -6.17476V-2.88004H36.4122Z" fill="white"/>
            <path d="M40.1733 -4.0666V-5.7946C40.1733 -6.57796 39.5973 -7.01572 38.9292 -7.01572C38.261 -7.01572 37.6792 -6.57796 37.6792 -5.7946V-4.0666C37.6792 -3.28324 38.261 -2.84548 38.9292 -2.84548C39.5973 -2.84548 40.1733 -3.28324 40.1733 -4.0666ZM39.4245 -4.07236C39.4245 -3.72676 39.2229 -3.5194 38.9292 -3.5194C38.6354 -3.5194 38.428 -3.72676 38.428 -4.07236V-5.78308C38.428 -6.12868 38.6354 -6.3418 38.9292 -6.3418C39.2229 -6.3418 39.4245 -6.12868 39.4245 -5.78308V-4.07236Z" fill="white"/>
            <path d="M42.6672 -2.88004V-6.98116H41.9184L41.0832 -6.2554V-5.449L41.9184 -6.17476V-2.88004H42.6672Z" fill="white"/>
            <path d="M46.4283 -4.0666V-5.7946C46.4283 -6.57796 45.8523 -7.01572 45.1842 -7.01572C44.516 -7.01572 43.9342 -6.57796 43.9342 -5.7946V-4.0666C43.9342 -3.28324 44.516 -2.84548 45.1842 -2.84548C45.8523 -2.84548 46.4283 -3.28324 46.4283 -4.0666ZM45.6795 -4.07236C45.6795 -3.72676 45.4779 -3.5194 45.1842 -3.5194C44.8904 -3.5194 44.683 -3.72676 44.683 -4.07236V-5.78308C44.683 -6.12868 44.8904 -6.3418 45.1842 -6.3418C45.4779 -6.3418 45.6795 -6.12868 45.6795 -5.78308V-4.07236Z" fill="white"/>
            <path d="M48.9222 -2.88004V-6.98116H48.1734L47.3382 -6.2554V-5.449L48.1734 -6.17476V-2.88004H48.9222Z" fill="white"/>
            <path d="M52.6833 -4.0666V-5.7946C52.6833 -6.57796 52.1073 -7.01572 51.4392 -7.01572C50.771 -7.01572 50.1892 -6.57796 50.1892 -5.7946V-4.0666C50.1892 -3.28324 50.771 -2.84548 51.4392 -2.84548C52.1073 -2.84548 52.6833 -3.28324 52.6833 -4.0666ZM51.9345 -4.07236C51.9345 -3.72676 51.7329 -3.5194 51.4392 -3.5194C51.1454 -3.5194 50.938 -3.72676 50.938 -4.07236V-5.78308C50.938 -6.12868 51.1454 -6.3418 51.4392 -6.3418C51.7329 -6.3418 51.9345 -6.12868 51.9345 -5.78308V-4.07236Z" fill="white"/>
            <path d="M55.1772 -2.88004V-6.98116H54.4284L53.5932 -6.2554V-5.449L54.4284 -6.17476V-2.88004H55.1772Z" fill="white"/>
            <path d="M58.9383 -4.0666V-5.7946C58.9383 -6.57796 58.3623 -7.01572 57.6942 -7.01572C57.026 -7.01572 56.4442 -6.57796 56.4442 -5.7946V-4.0666C56.4442 -3.28324 57.026 -2.84548 57.6942 -2.84548C58.3623 -2.84548 58.9383 -3.28324 58.9383 -4.0666ZM58.1895 -4.07236C58.1895 -3.72676 57.9879 -3.5194 57.6942 -3.5194C57.4004 -3.5194 57.1931 -3.72676 57.1931 -4.07236V-5.78308C57.1931 -6.12868 57.4004 -6.3418 57.6942 -6.3418C57.9879 -6.3418 58.1895 -6.12868 58.1895 -5.78308V-4.07236Z" fill="white"/>
            <path d="M61.4322 -2.88004V-6.98116H60.6834L59.8482 -6.2554V-5.449L60.6834 -6.17476V-2.88004H61.4322Z" fill="white"/>
            <path d="M65.1933 -4.0666V-5.7946C65.1933 -6.57796 64.6173 -7.01572 63.9492 -7.01572C63.281 -7.01572 62.6992 -6.57796 62.6992 -5.7946V-4.0666C62.6992 -3.28324 63.281 -2.84548 63.9492 -2.84548C64.6173 -2.84548 65.1933 -3.28324 65.1933 -4.0666ZM64.4445 -4.07236C64.4445 -3.72676 64.2429 -3.5194 63.9492 -3.5194C63.6554 -3.5194 63.448 -3.72676 63.448 -4.07236V-5.78308C63.448 -6.12868 63.6554 -6.3418 63.9492 -6.3418C64.2429 -6.3418 64.4445 -6.12868 64.4445 -5.78308V-4.07236Z" fill="white"/>
            <path d="M67.6872 -2.88004V-6.98116H66.9384L66.1032 -6.2554V-5.449L66.9384 -6.17476V-2.88004H67.6872Z" fill="white"/>
            <path d="M71.4483 -4.0666V-5.7946C71.4483 -6.57796 70.8723 -7.01572 70.2042 -7.01572C69.536 -7.01572 68.9542 -6.57796 68.9542 -5.7946V-4.0666C68.9542 -3.28324 69.536 -2.84548 70.2042 -2.84548C70.8723 -2.84548 71.4483 -3.28324 71.4483 -4.0666ZM70.6995 -4.07236C70.6995 -3.72676 70.4979 -3.5194 70.2042 -3.5194C69.9104 -3.5194 69.703 -3.72676 69.703 -4.07236V-5.78308C69.703 -6.12868 69.9104 -6.3418 70.2042 -6.3418C70.4979 -6.3418 70.6995 -6.12868 70.6995 -5.78308V-4.07236Z" fill="white"/>
            <path d="M5.13722 2.87996V-1.22116H4.38842L3.55322 -0.495404V0.310996L4.38842 -0.414764V2.87996H5.13722Z" fill="white"/>
            <path d="M8.89832 1.6934V-0.0346045C8.89832 -0.817964 8.32232 -1.25572 7.65416 -1.25572C6.986 -1.25572 6.40424 -0.817964 6.40424 -0.0346045V1.6934C6.40424 2.47676 6.986 2.91452 7.65416 2.91452C8.32232 2.91452 8.89832 2.47676 8.89832 1.6934ZM8.14952 1.68764C8.14952 2.03324 7.94792 2.2406 7.65416 2.2406C7.3604 2.2406 7.15304 2.03324 7.15304 1.68764V-0.0230837C7.15304 -0.368684 7.3604 -0.581805 7.65416 -0.581805C7.94792 -0.581805 8.14952 -0.368684 8.14952 -0.0230837V1.68764Z" fill="white"/>
            <path d="M11.3922 2.87996V-1.22116H10.6434L9.80822 -0.495404V0.310996L10.6434 -0.414764V2.87996H11.3922Z" fill="white"/>
            <path d="M15.1533 1.6934V-0.0346045C15.1533 -0.817964 14.5773 -1.25572 13.9092 -1.25572C13.241 -1.25572 12.6592 -0.817964 12.6592 -0.0346045V1.6934C12.6592 2.47676 13.241 2.91452 13.9092 2.91452C14.5773 2.91452 15.1533 2.47676 15.1533 1.6934ZM14.4045 1.68764C14.4045 2.03324 14.2029 2.2406 13.9092 2.2406C13.6154 2.2406 13.408 2.03324 13.408 1.68764V-0.0230837C13.408 -0.368684 13.6154 -0.581805 13.9092 -0.581805C14.2029 -0.581805 14.4045 -0.368684 14.4045 -0.0230837V1.68764Z" fill="white"/>
            <path d="M17.6472 2.87996V-1.22116H16.8984L16.0632 -0.495404V0.310996L16.8984 -0.414764V2.87996H17.6472Z" fill="white"/>
            <path d="M21.4083 1.6934V-0.0346045C21.4083 -0.817964 20.8323 -1.25572 20.1642 -1.25572C19.496 -1.25572 18.9142 -0.817964 18.9142 -0.0346045V1.6934C18.9142 2.47676 19.496 2.91452 20.1642 2.91452C20.8323 2.91452 21.4083 2.47676 21.4083 1.6934ZM20.6595 1.68764C20.6595 2.03324 20.4579 2.2406 20.1642 2.2406C19.8704 2.2406 19.663 2.03324 19.663 1.68764V-0.0230837C19.663 -0.368684 19.8704 -0.581805 20.1642 -0.581805C20.4579 -0.581805 20.6595 -0.368684 20.6595 -0.0230837V1.68764Z" fill="white"/>
            <path d="M23.9022 2.87996V-1.22116H23.1534L22.3182 -0.495404V0.310996L23.1534 -0.414764V2.87996H23.9022Z" fill="white"/>
            <path d="M27.6633 1.6934V-0.0346045C27.6633 -0.817964 27.0873 -1.25572 26.4192 -1.25572C25.751 -1.25572 25.1692 -0.817964 25.1692 -0.0346045V1.6934C25.1692 2.47676 25.751 2.91452 26.4192 2.91452C27.0873 2.91452 27.6633 2.47676 27.6633 1.6934ZM26.9145 1.68764C26.9145 2.03324 26.7129 2.2406 26.4192 2.2406C26.1254 2.2406 25.918 2.03324 25.918 1.68764V-0.0230837C25.918 -0.368684 26.1254 -0.581805 26.4192 -0.581805C26.7129 -0.581805 26.9145 -0.368684 26.9145 -0.0230837V1.68764Z" fill="white"/>
            <path d="M30.1572 2.87996V-1.22116H29.4084L28.5732 -0.495404V0.310996L29.4084 -0.414764V2.87996H30.1572Z" fill="white"/>
            <path d="M33.9183 1.6934V-0.0346045C33.9183 -0.817964 33.3423 -1.25572 32.6742 -1.25572C32.006 -1.25572 31.4242 -0.817964 31.4242 -0.0346045V1.6934C31.4242 2.47676 32.006 2.91452 32.6742 2.91452C33.3423 2.91452 33.9183 2.47676 33.9183 1.6934ZM33.1695 1.68764C33.1695 2.03324 32.9679 2.2406 32.6742 2.2406C32.3804 2.2406 32.173 2.03324 32.173 1.68764V-0.0230837C32.173 -0.368684 32.3804 -0.581805 32.6742 -0.581805C32.9679 -0.581805 33.1695 -0.368684 33.1695 -0.0230837V1.68764Z" fill="white"/>
            <path d="M36.4122 2.87996V-1.22116H35.6634L34.8282 -0.495404V0.310996L35.6634 -0.414764V2.87996H36.4122Z" fill="white"/>
            <path d="M40.1733 1.6934V-0.0346045C40.1733 -0.817964 39.5973 -1.25572 38.9292 -1.25572C38.261 -1.25572 37.6792 -0.817964 37.6792 -0.0346045V1.6934C37.6792 2.47676 38.261 2.91452 38.9292 2.91452C39.5973 2.91452 40.1733 2.47676 40.1733 1.6934ZM39.4245 1.68764C39.4245 2.03324 39.2229 2.2406 38.9292 2.2406C38.6354 2.2406 38.428 2.03324 38.428 1.68764V-0.0230837C38.428 -0.368684 38.6354 -0.581805 38.9292 -0.581805C39.2229 -0.581805 39.4245 -0.368684 39.4245 -0.0230837V1.68764Z" fill="white"/>
            <path d="M42.6672 2.87996V-1.22116H41.9184L41.0832 -0.495404V0.310996L41.9184 -0.414764V2.87996H42.6672Z" fill="white"/>
            <path d="M46.4283 1.6934V-0.0346045C46.4283 -0.817964 45.8523 -1.25572 45.1842 -1.25572C44.516 -1.25572 43.9342 -0.817964 43.9342 -0.0346045V1.6934C43.9342 2.47676 44.516 2.91452 45.1842 2.91452C45.8523 2.91452 46.4283 2.47676 46.4283 1.6934ZM45.6795 1.68764C45.6795 2.03324 45.4779 2.2406 45.1842 2.2406C44.8904 2.2406 44.683 2.03324 44.683 1.68764V-0.0230837C44.683 -0.368684 44.8904 -0.581805 45.1842 -0.581805C45.4779 -0.581805 45.6795 -0.368684 45.6795 -0.0230837V1.68764Z" fill="white"/>
            <path d="M48.9222 2.87996V-1.22116H48.1734L47.3382 -0.495404V0.310996L48.1734 -0.414764V2.87996H48.9222Z" fill="white"/>
            <path d="M52.6833 1.6934V-0.0346045C52.6833 -0.817964 52.1073 -1.25572 51.4392 -1.25572C50.771 -1.25572 50.1892 -0.817964 50.1892 -0.0346045V1.6934C50.1892 2.47676 50.771 2.91452 51.4392 2.91452C52.1073 2.91452 52.6833 2.47676 52.6833 1.6934ZM51.9345 1.68764C51.9345 2.03324 51.7329 2.2406 51.4392 2.2406C51.1454 2.2406 50.938 2.03324 50.938 1.68764V-0.0230837C50.938 -0.368684 51.1454 -0.581805 51.4392 -0.581805C51.7329 -0.581805 51.9345 -0.368684 51.9345 -0.0230837V1.68764Z" fill="white"/>
            <path d="M55.1772 2.87996V-1.22116H54.4284L53.5932 -0.495404V0.310996L54.4284 -0.414764V2.87996H55.1772Z" fill="white"/>
            <path d="M58.9383 1.6934V-0.0346045C58.9383 -0.817964 58.3623 -1.25572 57.6942 -1.25572C57.026 -1.25572 56.4442 -0.817964 56.4442 -0.0346045V1.6934C56.4442 2.47676 57.026 2.91452 57.6942 2.91452C58.3623 2.91452 58.9383 2.47676 58.9383 1.6934ZM58.1895 1.68764C58.1895 2.03324 57.9879 2.2406 57.6942 2.2406C57.4004 2.2406 57.1931 2.03324 57.1931 1.68764V-0.0230837C57.1931 -0.368684 57.4004 -0.581805 57.6942 -0.581805C57.9879 -0.581805 58.1895 -0.368684 58.1895 -0.0230837V1.68764Z" fill="white"/>
            <path d="M61.4322 2.87996V-1.22116H60.6834L59.8482 -0.495404V0.310996L60.6834 -0.414764V2.87996H61.4322Z" fill="white"/>
            <path d="M65.1933 1.6934V-0.0346045C65.1933 -0.817964 64.6173 -1.25572 63.9492 -1.25572C63.281 -1.25572 62.6992 -0.817964 62.6992 -0.0346045V1.6934C62.6992 2.47676 63.281 2.91452 63.9492 2.91452C64.6173 2.91452 65.1933 2.47676 65.1933 1.6934ZM64.4445 1.68764C64.4445 2.03324 64.2429 2.2406 63.9492 2.2406C63.6554 2.2406 63.448 2.03324 63.448 1.68764V-0.0230837C63.448 -0.368684 63.6554 -0.581805 63.9492 -0.581805C64.2429 -0.581805 64.4445 -0.368684 64.4445 -0.0230837V1.68764Z" fill="white"/>
            <path d="M67.6872 2.87996V-1.22116H66.9384L66.1032 -0.495404V0.310996L66.9384 -0.414764V2.87996H67.6872Z" fill="white"/>
            <path d="M71.4483 1.6934V-0.0346045C71.4483 -0.817964 70.8723 -1.25572 70.2042 -1.25572C69.536 -1.25572 68.9542 -0.817964 68.9542 -0.0346045V1.6934C68.9542 2.47676 69.536 2.91452 70.2042 2.91452C70.8723 2.91452 71.4483 2.47676 71.4483 1.6934ZM70.6995 1.68764C70.6995 2.03324 70.4979 2.2406 70.2042 2.2406C69.9104 2.2406 69.703 2.03324 69.703 1.68764V-0.0230837C69.703 -0.368684 69.9104 -0.581805 70.2042 -0.581805C70.4979 -0.581805 70.6995 -0.368684 70.6995 -0.0230837V1.68764Z" fill="white"/>
            <path d="M5.13722 8.63995V4.53884H4.38842L3.55322 5.2646V6.07099L4.38842 5.34523V8.63995H5.13722Z" fill="white"/>
            <path d="M8.89832 7.4534V5.72539C8.89832 4.94203 8.32232 4.50428 7.65416 4.50428C6.986 4.50428 6.40424 4.94203 6.40424 5.72539V7.4534C6.40424 8.23676 6.986 8.67451 7.65416 8.67451C8.32232 8.67451 8.89832 8.23676 8.89832 7.4534ZM8.14952 7.44764C8.14952 7.79324 7.94792 8.00059 7.65416 8.00059C7.3604 8.00059 7.15304 7.79324 7.15304 7.44764V5.73692C7.15304 5.39132 7.3604 5.1782 7.65416 5.1782C7.94792 5.1782 8.14952 5.39132 8.14952 5.73692V7.44764Z" fill="white"/>
            <path d="M11.3922 8.63995V4.53884H10.6434L9.80822 5.2646V6.07099L10.6434 5.34523V8.63995H11.3922Z" fill="white"/>
            <path d="M15.1533 7.4534V5.72539C15.1533 4.94203 14.5773 4.50428 13.9092 4.50428C13.241 4.50428 12.6592 4.94203 12.6592 5.72539V7.4534C12.6592 8.23676 13.241 8.67451 13.9092 8.67451C14.5773 8.67451 15.1533 8.23676 15.1533 7.4534ZM14.4045 7.44764C14.4045 7.79324 14.2029 8.00059 13.9092 8.00059C13.6154 8.00059 13.408 7.79324 13.408 7.44764V5.73692C13.408 5.39132 13.6154 5.1782 13.9092 5.1782C14.2029 5.1782 14.4045 5.39132 14.4045 5.73692V7.44764Z" fill="white"/>
            <path d="M17.6472 8.63995V4.53884H16.8984L16.0632 5.2646V6.07099L16.8984 5.34523V8.63995H17.6472Z" fill="white"/>
            <path d="M21.4083 7.4534V5.72539C21.4083 4.94203 20.8323 4.50428 20.1642 4.50428C19.496 4.50428 18.9142 4.94203 18.9142 5.72539V7.4534C18.9142 8.23676 19.496 8.67451 20.1642 8.67451C20.8323 8.67451 21.4083 8.23676 21.4083 7.4534ZM20.6595 7.44764C20.6595 7.79324 20.4579 8.00059 20.1642 8.00059C19.8704 8.00059 19.663 7.79324 19.663 7.44764V5.73692C19.663 5.39132 19.8704 5.1782 20.1642 5.1782C20.4579 5.1782 20.6595 5.39132 20.6595 5.73692V7.44764Z" fill="white"/>
            <path d="M23.9022 8.63995V4.53884H23.1534L22.3182 5.2646V6.07099L23.1534 5.34523V8.63995H23.9022Z" fill="white"/>
            <path d="M27.6633 7.4534V5.72539C27.6633 4.94203 27.0873 4.50428 26.4192 4.50428C25.751 4.50428 25.1692 4.94203 25.1692 5.72539V7.4534C25.1692 8.23676 25.751 8.67451 26.4192 8.67451C27.0873 8.67451 27.6633 8.23676 27.6633 7.4534ZM26.9145 7.44764C26.9145 7.79324 26.7129 8.00059 26.4192 8.00059C26.1254 8.00059 25.918 7.79324 25.918 7.44764V5.73692C25.918 5.39132 26.1254 5.1782 26.4192 5.1782C26.7129 5.1782 26.9145 5.39132 26.9145 5.73692V7.44764Z" fill="white"/>
            <path d="M30.1572 8.63995V4.53884H29.4084L28.5732 5.2646V6.07099L29.4084 5.34523V8.63995H30.1572Z" fill="white"/>
            <path d="M33.9183 7.4534V5.72539C33.9183 4.94203 33.3423 4.50428 32.6742 4.50428C32.006 4.50428 31.4242 4.94203 31.4242 5.72539V7.4534C31.4242 8.23676 32.006 8.67451 32.6742 8.67451C33.3423 8.67451 33.9183 8.23676 33.9183 7.4534ZM33.1695 7.44764C33.1695 7.79324 32.9679 8.00059 32.6742 8.00059C32.3804 8.00059 32.173 7.79324 32.173 7.44764V5.73692C32.173 5.39132 32.3804 5.1782 32.6742 5.1782C32.9679 5.1782 33.1695 5.39132 33.1695 5.73692V7.44764Z" fill="white"/>
            <path d="M36.4122 8.63995V4.53884H35.6634L34.8282 5.2646V6.07099L35.6634 5.34523V8.63995H36.4122Z" fill="white"/>
            <path d="M40.1733 7.4534V5.72539C40.1733 4.94203 39.5973 4.50428 38.9292 4.50428C38.261 4.50428 37.6792 4.94203 37.6792 5.72539V7.4534C37.6792 8.23676 38.261 8.67451 38.9292 8.67451C39.5973 8.67451 40.1733 8.23676 40.1733 7.4534ZM39.4245 7.44764C39.4245 7.79324 39.2229 8.00059 38.9292 8.00059C38.6354 8.00059 38.428 7.79324 38.428 7.44764V5.73692C38.428 5.39132 38.6354 5.1782 38.9292 5.1782C39.2229 5.1782 39.4245 5.39132 39.4245 5.73692V7.44764Z" fill="white"/>
            <path d="M42.6672 8.63995V4.53884H41.9184L41.0832 5.2646V6.07099L41.9184 5.34523V8.63995H42.6672Z" fill="white"/>
            <path d="M46.4283 7.4534V5.72539C46.4283 4.94203 45.8523 4.50428 45.1842 4.50428C44.516 4.50428 43.9342 4.94203 43.9342 5.72539V7.4534C43.9342 8.23676 44.516 8.67451 45.1842 8.67451C45.8523 8.67451 46.4283 8.23676 46.4283 7.4534ZM45.6795 7.44764C45.6795 7.79324 45.4779 8.00059 45.1842 8.00059C44.8904 8.00059 44.683 7.79324 44.683 7.44764V5.73692C44.683 5.39132 44.8904 5.1782 45.1842 5.1782C45.4779 5.1782 45.6795 5.39132 45.6795 5.73692V7.44764Z" fill="white"/>
            <path d="M48.9222 8.63995V4.53884H48.1734L47.3382 5.2646V6.07099L48.1734 5.34523V8.63995H48.9222Z" fill="white"/>
            <path d="M52.6833 7.4534V5.72539C52.6833 4.94203 52.1073 4.50428 51.4392 4.50428C50.771 4.50428 50.1892 4.94203 50.1892 5.72539V7.4534C50.1892 8.23676 50.771 8.67451 51.4392 8.67451C52.1073 8.67451 52.6833 8.23676 52.6833 7.4534ZM51.9345 7.44764C51.9345 7.79324 51.7329 8.00059 51.4392 8.00059C51.1454 8.00059 50.938 7.79324 50.938 7.44764V5.73692C50.938 5.39132 51.1454 5.1782 51.4392 5.1782C51.7329 5.1782 51.9345 5.39132 51.9345 5.73692V7.44764Z" fill="white"/>
            <path d="M55.1772 8.63995V4.53884H54.4284L53.5932 5.2646V6.07099L54.4284 5.34523V8.63995H55.1772Z" fill="white"/>
            <path d="M58.9383 7.4534V5.72539C58.9383 4.94203 58.3623 4.50428 57.6942 4.50428C57.026 4.50428 56.4442 4.94203 56.4442 5.72539V7.4534C56.4442 8.23676 57.026 8.67451 57.6942 8.67451C58.3623 8.67451 58.9383 8.23676 58.9383 7.4534ZM58.1895 7.44764C58.1895 7.79324 57.9879 8.00059 57.6942 8.00059C57.4004 8.00059 57.1931 7.79324 57.1931 7.44764V5.73692C57.1931 5.39132 57.4004 5.1782 57.6942 5.1782C57.9879 5.1782 58.1895 5.39132 58.1895 5.73692V7.44764Z" fill="white"/>
            <path d="M61.4322 8.63995V4.53884H60.6834L59.8482 5.2646V6.07099L60.6834 5.34523V8.63995H61.4322Z" fill="white"/>
            <path d="M65.1933 7.4534V5.72539C65.1933 4.94203 64.6173 4.50428 63.9492 4.50428C63.281 4.50428 62.6992 4.94203 62.6992 5.72539V7.4534C62.6992 8.23676 63.281 8.67451 63.9492 8.67451C64.6173 8.67451 65.1933 8.23676 65.1933 7.4534ZM64.4445 7.44764C64.4445 7.79324 64.2429 8.00059 63.9492 8.00059C63.6554 8.00059 63.448 7.79324 63.448 7.44764V5.73692C63.448 5.39132 63.6554 5.1782 63.9492 5.1782C64.2429 5.1782 64.4445 5.39132 64.4445 5.73692V7.44764Z" fill="white"/>
            <path d="M67.6872 8.63995V4.53884H66.9384L66.1032 5.2646V6.07099L66.9384 5.34523V8.63995H67.6872Z" fill="white"/>
            <path d="M71.4483 7.4534V5.72539C71.4483 4.94203 70.8723 4.50428 70.2042 4.50428C69.536 4.50428 68.9542 4.94203 68.9542 5.72539V7.4534C68.9542 8.23676 69.536 8.67451 70.2042 8.67451C70.8723 8.67451 71.4483 8.23676 71.4483 7.4534ZM70.6995 7.44764C70.6995 7.79324 70.4979 8.00059 70.2042 8.00059C69.9104 8.00059 69.703 7.79324 69.703 7.44764V5.73692C69.703 5.39132 69.9104 5.1782 70.2042 5.1782C70.4979 5.1782 70.6995 5.39132 70.6995 5.73692V7.44764Z" fill="white"/>
            <path d="M5.13722 14.4V10.2988H4.38842L3.55322 11.0246V11.831L4.38842 11.1052V14.4H5.13722Z" fill="white"/>
            <path d="M8.89832 13.2134V11.4854C8.89832 10.702 8.32232 10.2643 7.65416 10.2643C6.986 10.2643 6.40424 10.702 6.40424 11.4854V13.2134C6.40424 13.9968 6.986 14.4345 7.65416 14.4345C8.32232 14.4345 8.89832 13.9968 8.89832 13.2134ZM8.14952 13.2076C8.14952 13.5532 7.94792 13.7606 7.65416 13.7606C7.3604 13.7606 7.15304 13.5532 7.15304 13.2076V11.4969C7.15304 11.1513 7.3604 10.9382 7.65416 10.9382C7.94792 10.9382 8.14952 11.1513 8.14952 11.4969V13.2076Z" fill="white"/>
            <path d="M11.3922 14.4V10.2988H10.6434L9.80822 11.0246V11.831L10.6434 11.1052V14.4H11.3922Z" fill="white"/>
            <path d="M15.1533 13.2134V11.4854C15.1533 10.702 14.5773 10.2643 13.9092 10.2643C13.241 10.2643 12.6592 10.702 12.6592 11.4854V13.2134C12.6592 13.9968 13.241 14.4345 13.9092 14.4345C14.5773 14.4345 15.1533 13.9968 15.1533 13.2134ZM14.4045 13.2076C14.4045 13.5532 14.2029 13.7606 13.9092 13.7606C13.6154 13.7606 13.408 13.5532 13.408 13.2076V11.4969C13.408 11.1513 13.6154 10.9382 13.9092 10.9382C14.2029 10.9382 14.4045 11.1513 14.4045 11.4969V13.2076Z" fill="white"/>
            <path d="M17.6472 14.4V10.2988H16.8984L16.0632 11.0246V11.831L16.8984 11.1052V14.4H17.6472Z" fill="white"/>
            <path d="M21.4083 13.2134V11.4854C21.4083 10.702 20.8323 10.2643 20.1642 10.2643C19.496 10.2643 18.9142 10.702 18.9142 11.4854V13.2134C18.9142 13.9968 19.496 14.4345 20.1642 14.4345C20.8323 14.4345 21.4083 13.9968 21.4083 13.2134ZM20.6595 13.2076C20.6595 13.5532 20.4579 13.7606 20.1642 13.7606C19.8704 13.7606 19.663 13.5532 19.663 13.2076V11.4969C19.663 11.1513 19.8704 10.9382 20.1642 10.9382C20.4579 10.9382 20.6595 11.1513 20.6595 11.4969V13.2076Z" fill="white"/>
            <path d="M23.9022 14.4V10.2988H23.1534L22.3182 11.0246V11.831L23.1534 11.1052V14.4H23.9022Z" fill="white"/>
            <path d="M27.6633 13.2134V11.4854C27.6633 10.702 27.0873 10.2643 26.4192 10.2643C25.751 10.2643 25.1692 10.702 25.1692 11.4854V13.2134C25.1692 13.9968 25.751 14.4345 26.4192 14.4345C27.0873 14.4345 27.6633 13.9968 27.6633 13.2134ZM26.9145 13.2076C26.9145 13.5532 26.7129 13.7606 26.4192 13.7606C26.1254 13.7606 25.918 13.5532 25.918 13.2076V11.4969C25.918 11.1513 26.1254 10.9382 26.4192 10.9382C26.7129 10.9382 26.9145 11.1513 26.9145 11.4969V13.2076Z" fill="white"/>
            <path d="M30.1572 14.4V10.2988H29.4084L28.5732 11.0246V11.831L29.4084 11.1052V14.4H30.1572Z" fill="white"/>
            <path d="M33.9183 13.2134V11.4854C33.9183 10.702 33.3423 10.2643 32.6742 10.2643C32.006 10.2643 31.4242 10.702 31.4242 11.4854V13.2134C31.4242 13.9968 32.006 14.4345 32.6742 14.4345C33.3423 14.4345 33.9183 13.9968 33.9183 13.2134ZM33.1695 13.2076C33.1695 13.5532 32.9679 13.7606 32.6742 13.7606C32.3804 13.7606 32.173 13.5532 32.173 13.2076V11.4969C32.173 11.1513 32.3804 10.9382 32.6742 10.9382C32.9679 10.9382 33.1695 11.1513 33.1695 11.4969V13.2076Z" fill="white"/>
            <path d="M36.4122 14.4V10.2988H35.6634L34.8282 11.0246V11.831L35.6634 11.1052V14.4H36.4122Z" fill="white"/>
            <path d="M40.1733 13.2134V11.4854C40.1733 10.702 39.5973 10.2643 38.9292 10.2643C38.261 10.2643 37.6792 10.702 37.6792 11.4854V13.2134C37.6792 13.9968 38.261 14.4345 38.9292 14.4345C39.5973 14.4345 40.1733 13.9968 40.1733 13.2134ZM39.4245 13.2076C39.4245 13.5532 39.2229 13.7606 38.9292 13.7606C38.6354 13.7606 38.428 13.5532 38.428 13.2076V11.4969C38.428 11.1513 38.6354 10.9382 38.9292 10.9382C39.2229 10.9382 39.4245 11.1513 39.4245 11.4969V13.2076Z" fill="white"/>
            <path d="M42.6672 14.4V10.2988H41.9184L41.0832 11.0246V11.831L41.9184 11.1052V14.4H42.6672Z" fill="white"/>
            <path d="M46.4283 13.2134V11.4854C46.4283 10.702 45.8523 10.2643 45.1842 10.2643C44.516 10.2643 43.9342 10.702 43.9342 11.4854V13.2134C43.9342 13.9968 44.516 14.4345 45.1842 14.4345C45.8523 14.4345 46.4283 13.9968 46.4283 13.2134ZM45.6795 13.2076C45.6795 13.5532 45.4779 13.7606 45.1842 13.7606C44.8904 13.7606 44.683 13.5532 44.683 13.2076V11.4969C44.683 11.1513 44.8904 10.9382 45.1842 10.9382C45.4779 10.9382 45.6795 11.1513 45.6795 11.4969V13.2076Z" fill="white"/>
            <path d="M48.9222 14.4V10.2988H48.1734L47.3382 11.0246V11.831L48.1734 11.1052V14.4H48.9222Z" fill="white"/>
            <path d="M52.6833 13.2134V11.4854C52.6833 10.702 52.1073 10.2643 51.4392 10.2643C50.771 10.2643 50.1892 10.702 50.1892 11.4854V13.2134C50.1892 13.9968 50.771 14.4345 51.4392 14.4345C52.1073 14.4345 52.6833 13.9968 52.6833 13.2134ZM51.9345 13.2076C51.9345 13.5532 51.7329 13.7606 51.4392 13.7606C51.1454 13.7606 50.938 13.5532 50.938 13.2076V11.4969C50.938 11.1513 51.1454 10.9382 51.4392 10.9382C51.7329 10.9382 51.9345 11.1513 51.9345 11.4969V13.2076Z" fill="white"/>
            <path d="M55.1772 14.4V10.2988H54.4284L53.5932 11.0246V11.831L54.4284 11.1052V14.4H55.1772Z" fill="white"/>
            <path d="M58.9383 13.2134V11.4854C58.9383 10.702 58.3623 10.2643 57.6942 10.2643C57.026 10.2643 56.4442 10.702 56.4442 11.4854V13.2134C56.4442 13.9968 57.026 14.4345 57.6942 14.4345C58.3623 14.4345 58.9383 13.9968 58.9383 13.2134ZM58.1895 13.2076C58.1895 13.5532 57.9879 13.7606 57.6942 13.7606C57.4004 13.7606 57.1931 13.5532 57.1931 13.2076V11.4969C57.1931 11.1513 57.4004 10.9382 57.6942 10.9382C57.9879 10.9382 58.1895 11.1513 58.1895 11.4969V13.2076Z" fill="white"/>
            <path d="M61.4322 14.4V10.2988H60.6834L59.8482 11.0246V11.831L60.6834 11.1052V14.4H61.4322Z" fill="white"/>
            <path d="M65.1933 13.2134V11.4854C65.1933 10.702 64.6173 10.2643 63.9492 10.2643C63.281 10.2643 62.6992 10.702 62.6992 11.4854V13.2134C62.6992 13.9968 63.281 14.4345 63.9492 14.4345C64.6173 14.4345 65.1933 13.9968 65.1933 13.2134ZM64.4445 13.2076C64.4445 13.5532 64.2429 13.7606 63.9492 13.7606C63.6554 13.7606 63.448 13.5532 63.448 13.2076V11.4969C63.448 11.1513 63.6554 10.9382 63.9492 10.9382C64.2429 10.9382 64.4445 11.1513 64.4445 11.4969V13.2076Z" fill="white"/>
            <path d="M67.6872 14.4V10.2988H66.9384L66.1032 11.0246V11.831L66.9384 11.1052V14.4H67.6872Z" fill="white"/>
            <path d="M71.4483 13.2134V11.4854C71.4483 10.702 70.8723 10.2643 70.2042 10.2643C69.536 10.2643 68.9542 10.702 68.9542 11.4854V13.2134C68.9542 13.9968 69.536 14.4345 70.2042 14.4345C70.8723 14.4345 71.4483 13.9968 71.4483 13.2134ZM70.6995 13.2076C70.6995 13.5532 70.4979 13.7606 70.2042 13.7606C69.9104 13.7606 69.703 13.5532 69.703 13.2076V11.4969C69.703 11.1513 69.9104 10.9382 70.2042 10.9382C70.4979 10.9382 70.6995 11.1513 70.6995 11.4969V13.2076Z" fill="white"/>
            <path d="M5.13722 20.16V16.0588H4.38842L3.55322 16.7846V17.591L4.38842 16.8652V20.16H5.13722Z" fill="white"/>
            <path d="M8.89832 18.9734V17.2454C8.89832 16.462 8.32232 16.0243 7.65416 16.0243C6.986 16.0243 6.40424 16.462 6.40424 17.2454V18.9734C6.40424 19.7568 6.986 20.1945 7.65416 20.1945C8.32232 20.1945 8.89832 19.7568 8.89832 18.9734ZM8.14952 18.9676C8.14952 19.3132 7.94792 19.5206 7.65416 19.5206C7.3604 19.5206 7.15304 19.3132 7.15304 18.9676V17.2569C7.15304 16.9113 7.3604 16.6982 7.65416 16.6982C7.94792 16.6982 8.14952 16.9113 8.14952 17.2569V18.9676Z" fill="white"/>
            <path d="M11.3922 20.16V16.0588H10.6434L9.80822 16.7846V17.591L10.6434 16.8652V20.16H11.3922Z" fill="white"/>
            <path d="M15.1533 18.9734V17.2454C15.1533 16.462 14.5773 16.0243 13.9092 16.0243C13.241 16.0243 12.6592 16.462 12.6592 17.2454V18.9734C12.6592 19.7568 13.241 20.1945 13.9092 20.1945C14.5773 20.1945 15.1533 19.7568 15.1533 18.9734ZM14.4045 18.9676C14.4045 19.3132 14.2029 19.5206 13.9092 19.5206C13.6154 19.5206 13.408 19.3132 13.408 18.9676V17.2569C13.408 16.9113 13.6154 16.6982 13.9092 16.6982C14.2029 16.6982 14.4045 16.9113 14.4045 17.2569V18.9676Z" fill="white"/>
            <path d="M17.6472 20.16V16.0588H16.8984L16.0632 16.7846V17.591L16.8984 16.8652V20.16H17.6472Z" fill="white"/>
            <path d="M21.4083 18.9734V17.2454C21.4083 16.462 20.8323 16.0243 20.1642 16.0243C19.496 16.0243 18.9142 16.462 18.9142 17.2454V18.9734C18.9142 19.7568 19.496 20.1945 20.1642 20.1945C20.8323 20.1945 21.4083 19.7568 21.4083 18.9734ZM20.6595 18.9676C20.6595 19.3132 20.4579 19.5206 20.1642 19.5206C19.8704 19.5206 19.663 19.3132 19.663 18.9676V17.2569C19.663 16.9113 19.8704 16.6982 20.1642 16.6982C20.4579 16.6982 20.6595 16.9113 20.6595 17.2569V18.9676Z" fill="white"/>
            <path d="M23.9022 20.16V16.0588H23.1534L22.3182 16.7846V17.591L23.1534 16.8652V20.16H23.9022Z" fill="white"/>
            <path d="M27.6633 18.9734V17.2454C27.6633 16.462 27.0873 16.0243 26.4192 16.0243C25.751 16.0243 25.1692 16.462 25.1692 17.2454V18.9734C25.1692 19.7568 25.751 20.1945 26.4192 20.1945C27.0873 20.1945 27.6633 19.7568 27.6633 18.9734ZM26.9145 18.9676C26.9145 19.3132 26.7129 19.5206 26.4192 19.5206C26.1254 19.5206 25.918 19.3132 25.918 18.9676V17.2569C25.918 16.9113 26.1254 16.6982 26.4192 16.6982C26.7129 16.6982 26.9145 16.9113 26.9145 17.2569V18.9676Z" fill="white"/>
            <path d="M30.1572 20.16V16.0588H29.4084L28.5732 16.7846V17.591L29.4084 16.8652V20.16H30.1572Z" fill="white"/>
            <path d="M33.9183 18.9734V17.2454C33.9183 16.462 33.3423 16.0243 32.6742 16.0243C32.006 16.0243 31.4242 16.462 31.4242 17.2454V18.9734C31.4242 19.7568 32.006 20.1945 32.6742 20.1945C33.3423 20.1945 33.9183 19.7568 33.9183 18.9734ZM33.1695 18.9676C33.1695 19.3132 32.9679 19.5206 32.6742 19.5206C32.3804 19.5206 32.173 19.3132 32.173 18.9676V17.2569C32.173 16.9113 32.3804 16.6982 32.6742 16.6982C32.9679 16.6982 33.1695 16.9113 33.1695 17.2569V18.9676Z" fill="white"/>
            <path d="M36.4122 20.16V16.0588H35.6634L34.8282 16.7846V17.591L35.6634 16.8652V20.16H36.4122Z" fill="white"/>
            <path d="M40.1733 18.9734V17.2454C40.1733 16.462 39.5973 16.0243 38.9292 16.0243C38.261 16.0243 37.6792 16.462 37.6792 17.2454V18.9734C37.6792 19.7568 38.261 20.1945 38.9292 20.1945C39.5973 20.1945 40.1733 19.7568 40.1733 18.9734ZM39.4245 18.9676C39.4245 19.3132 39.2229 19.5206 38.9292 19.5206C38.6354 19.5206 38.428 19.3132 38.428 18.9676V17.2569C38.428 16.9113 38.6354 16.6982 38.9292 16.6982C39.2229 16.6982 39.4245 16.9113 39.4245 17.2569V18.9676Z" fill="white"/>
            <path d="M42.6672 20.16V16.0588H41.9184L41.0832 16.7846V17.591L41.9184 16.8652V20.16H42.6672Z" fill="white"/>
            <path d="M46.4283 18.9734V17.2454C46.4283 16.462 45.8523 16.0243 45.1842 16.0243C44.516 16.0243 43.9342 16.462 43.9342 17.2454V18.9734C43.9342 19.7568 44.516 20.1945 45.1842 20.1945C45.8523 20.1945 46.4283 19.7568 46.4283 18.9734ZM45.6795 18.9676C45.6795 19.3132 45.4779 19.5206 45.1842 19.5206C44.8904 19.5206 44.683 19.3132 44.683 18.9676V17.2569C44.683 16.9113 44.8904 16.6982 45.1842 16.6982C45.4779 16.6982 45.6795 16.9113 45.6795 17.2569V18.9676Z" fill="white"/>
            <path d="M48.9222 20.16V16.0588H48.1734L47.3382 16.7846V17.591L48.1734 16.8652V20.16H48.9222Z" fill="white"/>
            <path d="M52.6833 18.9734V17.2454C52.6833 16.462 52.1073 16.0243 51.4392 16.0243C50.771 16.0243 50.1892 16.462 50.1892 17.2454V18.9734C50.1892 19.7568 50.771 20.1945 51.4392 20.1945C52.1073 20.1945 52.6833 19.7568 52.6833 18.9734ZM51.9345 18.9676C51.9345 19.3132 51.7329 19.5206 51.4392 19.5206C51.1454 19.5206 50.938 19.3132 50.938 18.9676V17.2569C50.938 16.9113 51.1454 16.6982 51.4392 16.6982C51.7329 16.6982 51.9345 16.9113 51.9345 17.2569V18.9676Z" fill="white"/>
            <path d="M55.1772 20.16V16.0588H54.4284L53.5932 16.7846V17.591L54.4284 16.8652V20.16H55.1772Z" fill="white"/>
            <path d="M58.9383 18.9734V17.2454C58.9383 16.462 58.3623 16.0243 57.6942 16.0243C57.026 16.0243 56.4442 16.462 56.4442 17.2454V18.9734C56.4442 19.7568 57.026 20.1945 57.6942 20.1945C58.3623 20.1945 58.9383 19.7568 58.9383 18.9734ZM58.1895 18.9676C58.1895 19.3132 57.9879 19.5206 57.6942 19.5206C57.4004 19.5206 57.1931 19.3132 57.1931 18.9676V17.2569C57.1931 16.9113 57.4004 16.6982 57.6942 16.6982C57.9879 16.6982 58.1895 16.9113 58.1895 17.2569V18.9676Z" fill="white"/>
            <path d="M61.4322 20.16V16.0588H60.6834L59.8482 16.7846V17.591L60.6834 16.8652V20.16H61.4322Z" fill="white"/>
            <path d="M65.1933 18.9734V17.2454C65.1933 16.462 64.6173 16.0243 63.9492 16.0243C63.281 16.0243 62.6992 16.462 62.6992 17.2454V18.9734C62.6992 19.7568 63.281 20.1945 63.9492 20.1945C64.6173 20.1945 65.1933 19.7568 65.1933 18.9734ZM64.4445 18.9676C64.4445 19.3132 64.2429 19.5206 63.9492 19.5206C63.6554 19.5206 63.448 19.3132 63.448 18.9676V17.2569C63.448 16.9113 63.6554 16.6982 63.9492 16.6982C64.2429 16.6982 64.4445 16.9113 64.4445 17.2569V18.9676Z" fill="white"/>
            <path d="M67.6872 20.16V16.0588H66.9384L66.1032 16.7846V17.591L66.9384 16.8652V20.16H67.6872Z" fill="white"/>
            <path d="M71.4483 18.9734V17.2454C71.4483 16.462 70.8723 16.0243 70.2042 16.0243C69.536 16.0243 68.9542 16.462 68.9542 17.2454V18.9734C68.9542 19.7568 69.536 20.1945 70.2042 20.1945C70.8723 20.1945 71.4483 19.7568 71.4483 18.9734ZM70.6995 18.9676C70.6995 19.3132 70.4979 19.5206 70.2042 19.5206C69.9104 19.5206 69.703 19.3132 69.703 18.9676V17.2569C69.703 16.9113 69.9104 16.6982 70.2042 16.6982C70.4979 16.6982 70.6995 16.9113 70.6995 17.2569V18.9676Z" fill="white"/>
            <path d="M5.13722 25.92V21.8188H4.38842L3.55322 22.5446V23.351L4.38842 22.6252V25.92H5.13722Z" fill="white"/>
            <path d="M8.89832 24.7334V23.0054C8.89832 22.222 8.32232 21.7843 7.65416 21.7843C6.986 21.7843 6.40424 22.222 6.40424 23.0054V24.7334C6.40424 25.5168 6.986 25.9545 7.65416 25.9545C8.32232 25.9545 8.89832 25.5168 8.89832 24.7334ZM8.14952 24.7276C8.14952 25.0732 7.94792 25.2806 7.65416 25.2806C7.3604 25.2806 7.15304 25.0732 7.15304 24.7276V23.0169C7.15304 22.6713 7.3604 22.4582 7.65416 22.4582C7.94792 22.4582 8.14952 22.6713 8.14952 23.0169V24.7276Z" fill="white"/>
            <path d="M11.3922 25.92V21.8188H10.6434L9.80822 22.5446V23.351L10.6434 22.6252V25.92H11.3922Z" fill="white"/>
            <path d="M15.1533 24.7334V23.0054C15.1533 22.222 14.5773 21.7843 13.9092 21.7843C13.241 21.7843 12.6592 22.222 12.6592 23.0054V24.7334C12.6592 25.5168 13.241 25.9545 13.9092 25.9545C14.5773 25.9545 15.1533 25.5168 15.1533 24.7334ZM14.4045 24.7276C14.4045 25.0732 14.2029 25.2806 13.9092 25.2806C13.6154 25.2806 13.408 25.0732 13.408 24.7276V23.0169C13.408 22.6713 13.6154 22.4582 13.9092 22.4582C14.2029 22.4582 14.4045 22.6713 14.4045 23.0169V24.7276Z" fill="white"/>
            <path d="M17.6472 25.92V21.8188H16.8984L16.0632 22.5446V23.351L16.8984 22.6252V25.92H17.6472Z" fill="white"/>
            <path d="M21.4083 24.7334V23.0054C21.4083 22.222 20.8323 21.7843 20.1642 21.7843C19.496 21.7843 18.9142 22.222 18.9142 23.0054V24.7334C18.9142 25.5168 19.496 25.9545 20.1642 25.9545C20.8323 25.9545 21.4083 25.5168 21.4083 24.7334ZM20.6595 24.7276C20.6595 25.0732 20.4579 25.2806 20.1642 25.2806C19.8704 25.2806 19.663 25.0732 19.663 24.7276V23.0169C19.663 22.6713 19.8704 22.4582 20.1642 22.4582C20.4579 22.4582 20.6595 22.6713 20.6595 23.0169V24.7276Z" fill="white"/>
            <path d="M23.9022 25.92V21.8188H23.1534L22.3182 22.5446V23.351L23.1534 22.6252V25.92H23.9022Z" fill="white"/>
            <path d="M27.6633 24.7334V23.0054C27.6633 22.222 27.0873 21.7843 26.4192 21.7843C25.751 21.7843 25.1692 22.222 25.1692 23.0054V24.7334C25.1692 25.5168 25.751 25.9545 26.4192 25.9545C27.0873 25.9545 27.6633 25.5168 27.6633 24.7334ZM26.9145 24.7276C26.9145 25.0732 26.7129 25.2806 26.4192 25.2806C26.1254 25.2806 25.918 25.0732 25.918 24.7276V23.0169C25.918 22.6713 26.1254 22.4582 26.4192 22.4582C26.7129 22.4582 26.9145 22.6713 26.9145 23.0169V24.7276Z" fill="white"/>
            <path d="M30.1572 25.92V21.8188H29.4084L28.5732 22.5446V23.351L29.4084 22.6252V25.92H30.1572Z" fill="white"/>
            <path d="M33.9183 24.7334V23.0054C33.9183 22.222 33.3423 21.7843 32.6742 21.7843C32.006 21.7843 31.4242 22.222 31.4242 23.0054V24.7334C31.4242 25.5168 32.006 25.9545 32.6742 25.9545C33.3423 25.9545 33.9183 25.5168 33.9183 24.7334ZM33.1695 24.7276C33.1695 25.0732 32.9679 25.2806 32.6742 25.2806C32.3804 25.2806 32.173 25.0732 32.173 24.7276V23.0169C32.173 22.6713 32.3804 22.4582 32.6742 22.4582C32.9679 22.4582 33.1695 22.6713 33.1695 23.0169V24.7276Z" fill="white"/>
            <path d="M36.4122 25.92V21.8188H35.6634L34.8282 22.5446V23.351L35.6634 22.6252V25.92H36.4122Z" fill="white"/>
            <path d="M40.1733 24.7334V23.0054C40.1733 22.222 39.5973 21.7843 38.9292 21.7843C38.261 21.7843 37.6792 22.222 37.6792 23.0054V24.7334C37.6792 25.5168 38.261 25.9545 38.9292 25.9545C39.5973 25.9545 40.1733 25.5168 40.1733 24.7334ZM39.4245 24.7276C39.4245 25.0732 39.2229 25.2806 38.9292 25.2806C38.6354 25.2806 38.428 25.0732 38.428 24.7276V23.0169C38.428 22.6713 38.6354 22.4582 38.9292 22.4582C39.2229 22.4582 39.4245 22.6713 39.4245 23.0169V24.7276Z" fill="white"/>
            <path d="M42.6672 25.92V21.8188H41.9184L41.0832 22.5446V23.351L41.9184 22.6252V25.92H42.6672Z" fill="white"/>
            <path d="M46.4283 24.7334V23.0054C46.4283 22.222 45.8523 21.7843 45.1842 21.7843C44.516 21.7843 43.9342 22.222 43.9342 23.0054V24.7334C43.9342 25.5168 44.516 25.9545 45.1842 25.9545C45.8523 25.9545 46.4283 25.5168 46.4283 24.7334ZM45.6795 24.7276C45.6795 25.0732 45.4779 25.2806 45.1842 25.2806C44.8904 25.2806 44.683 25.0732 44.683 24.7276V23.0169C44.683 22.6713 44.8904 22.4582 45.1842 22.4582C45.4779 22.4582 45.6795 22.6713 45.6795 23.0169V24.7276Z" fill="white"/>
            <path d="M48.9222 25.92V21.8188H48.1734L47.3382 22.5446V23.351L48.1734 22.6252V25.92H48.9222Z" fill="white"/>
            <path d="M52.6833 24.7334V23.0054C52.6833 22.222 52.1073 21.7843 51.4392 21.7843C50.771 21.7843 50.1892 22.222 50.1892 23.0054V24.7334C50.1892 25.5168 50.771 25.9545 51.4392 25.9545C52.1073 25.9545 52.6833 25.5168 52.6833 24.7334ZM51.9345 24.7276C51.9345 25.0732 51.7329 25.2806 51.4392 25.2806C51.1454 25.2806 50.938 25.0732 50.938 24.7276V23.0169C50.938 22.6713 51.1454 22.4582 51.4392 22.4582C51.7329 22.4582 51.9345 22.6713 51.9345 23.0169V24.7276Z" fill="white"/>
            <path d="M55.1772 25.92V21.8188H54.4284L53.5932 22.5446V23.351L54.4284 22.6252V25.92H55.1772Z" fill="white"/>
            <path d="M58.9383 24.7334V23.0054C58.9383 22.222 58.3623 21.7843 57.6942 21.7843C57.026 21.7843 56.4442 22.222 56.4442 23.0054V24.7334C56.4442 25.5168 57.026 25.9545 57.6942 25.9545C58.3623 25.9545 58.9383 25.5168 58.9383 24.7334ZM58.1895 24.7276C58.1895 25.0732 57.9879 25.2806 57.6942 25.2806C57.4004 25.2806 57.1931 25.0732 57.1931 24.7276V23.0169C57.1931 22.6713 57.4004 22.4582 57.6942 22.4582C57.9879 22.4582 58.1895 22.6713 58.1895 23.0169V24.7276Z" fill="white"/>
            <path d="M61.4322 25.92V21.8188H60.6834L59.8482 22.5446V23.351L60.6834 22.6252V25.92H61.4322Z" fill="white"/>
            <path d="M65.1933 24.7334V23.0054C65.1933 22.222 64.6173 21.7843 63.9492 21.7843C63.281 21.7843 62.6992 22.222 62.6992 23.0054V24.7334C62.6992 25.5168 63.281 25.9545 63.9492 25.9545C64.6173 25.9545 65.1933 25.5168 65.1933 24.7334ZM64.4445 24.7276C64.4445 25.0732 64.2429 25.2806 63.9492 25.2806C63.6554 25.2806 63.448 25.0732 63.448 24.7276V23.0169C63.448 22.6713 63.6554 22.4582 63.9492 22.4582C64.2429 22.4582 64.4445 22.6713 64.4445 23.0169V24.7276Z" fill="white"/>
            <path d="M67.6872 25.92V21.8188H66.9384L66.1032 22.5446V23.351L66.9384 22.6252V25.92H67.6872Z" fill="white"/>
            <path d="M71.4483 24.7334V23.0054C71.4483 22.222 70.8723 21.7843 70.2042 21.7843C69.536 21.7843 68.9542 22.222 68.9542 23.0054V24.7334C68.9542 25.5168 69.536 25.9545 70.2042 25.9545C70.8723 25.9545 71.4483 25.5168 71.4483 24.7334ZM70.6995 24.7276C70.6995 25.0732 70.4979 25.2806 70.2042 25.2806C69.9104 25.2806 69.703 25.0732 69.703 24.7276V23.0169C69.703 22.6713 69.9104 22.4582 70.2042 22.4582C70.4979 22.4582 70.6995 22.6713 70.6995 23.0169V24.7276Z" fill="white"/>
            <path d="M5.13722 31.68V27.5788H4.38842L3.55322 28.3046V29.111L4.38842 28.3852V31.68H5.13722Z" fill="white"/>
            <path d="M8.89832 30.4934V28.7654C8.89832 27.982 8.32232 27.5443 7.65416 27.5443C6.986 27.5443 6.40424 27.982 6.40424 28.7654V30.4934C6.40424 31.2768 6.986 31.7145 7.65416 31.7145C8.32232 31.7145 8.89832 31.2768 8.89832 30.4934ZM8.14952 30.4876C8.14952 30.8332 7.94792 31.0406 7.65416 31.0406C7.3604 31.0406 7.15304 30.8332 7.15304 30.4876V28.7769C7.15304 28.4313 7.3604 28.2182 7.65416 28.2182C7.94792 28.2182 8.14952 28.4313 8.14952 28.7769V30.4876Z" fill="white"/>
            <path d="M11.3922 31.68V27.5788H10.6434L9.80822 28.3046V29.111L10.6434 28.3852V31.68H11.3922Z" fill="white"/>
            <path d="M15.1533 30.4934V28.7654C15.1533 27.982 14.5773 27.5443 13.9092 27.5443C13.241 27.5443 12.6592 27.982 12.6592 28.7654V30.4934C12.6592 31.2768 13.241 31.7145 13.9092 31.7145C14.5773 31.7145 15.1533 31.2768 15.1533 30.4934ZM14.4045 30.4876C14.4045 30.8332 14.2029 31.0406 13.9092 31.0406C13.6154 31.0406 13.408 30.8332 13.408 30.4876V28.7769C13.408 28.4313 13.6154 28.2182 13.9092 28.2182C14.2029 28.2182 14.4045 28.4313 14.4045 28.7769V30.4876Z" fill="white"/>
            <path d="M17.6472 31.68V27.5788H16.8984L16.0632 28.3046V29.111L16.8984 28.3852V31.68H17.6472Z" fill="white"/>
            <path d="M21.4083 30.4934V28.7654C21.4083 27.982 20.8323 27.5443 20.1642 27.5443C19.496 27.5443 18.9142 27.982 18.9142 28.7654V30.4934C18.9142 31.2768 19.496 31.7145 20.1642 31.7145C20.8323 31.7145 21.4083 31.2768 21.4083 30.4934ZM20.6595 30.4876C20.6595 30.8332 20.4579 31.0406 20.1642 31.0406C19.8704 31.0406 19.663 30.8332 19.663 30.4876V28.7769C19.663 28.4313 19.8704 28.2182 20.1642 28.2182C20.4579 28.2182 20.6595 28.4313 20.6595 28.7769V30.4876Z" fill="white"/>
            <path d="M23.9022 31.68V27.5788H23.1534L22.3182 28.3046V29.111L23.1534 28.3852V31.68H23.9022Z" fill="white"/>
            <path d="M27.6633 30.4934V28.7654C27.6633 27.982 27.0873 27.5443 26.4192 27.5443C25.751 27.5443 25.1692 27.982 25.1692 28.7654V30.4934C25.1692 31.2768 25.751 31.7145 26.4192 31.7145C27.0873 31.7145 27.6633 31.2768 27.6633 30.4934ZM26.9145 30.4876C26.9145 30.8332 26.7129 31.0406 26.4192 31.0406C26.1254 31.0406 25.918 30.8332 25.918 30.4876V28.7769C25.918 28.4313 26.1254 28.2182 26.4192 28.2182C26.7129 28.2182 26.9145 28.4313 26.9145 28.7769V30.4876Z" fill="white"/>
            <path d="M30.1572 31.68V27.5788H29.4084L28.5732 28.3046V29.111L29.4084 28.3852V31.68H30.1572Z" fill="white"/>
            <path d="M33.9183 30.4934V28.7654C33.9183 27.982 33.3423 27.5443 32.6742 27.5443C32.006 27.5443 31.4242 27.982 31.4242 28.7654V30.4934C31.4242 31.2768 32.006 31.7145 32.6742 31.7145C33.3423 31.7145 33.9183 31.2768 33.9183 30.4934ZM33.1695 30.4876C33.1695 30.8332 32.9679 31.0406 32.6742 31.0406C32.3804 31.0406 32.173 30.8332 32.173 30.4876V28.7769C32.173 28.4313 32.3804 28.2182 32.6742 28.2182C32.9679 28.2182 33.1695 28.4313 33.1695 28.7769V30.4876Z" fill="white"/>
            <path d="M36.4122 31.68V27.5788H35.6634L34.8282 28.3046V29.111L35.6634 28.3852V31.68H36.4122Z" fill="white"/>
            <path d="M40.1733 30.4934V28.7654C40.1733 27.982 39.5973 27.5443 38.9292 27.5443C38.261 27.5443 37.6792 27.982 37.6792 28.7654V30.4934C37.6792 31.2768 38.261 31.7145 38.9292 31.7145C39.5973 31.7145 40.1733 31.2768 40.1733 30.4934ZM39.4245 30.4876C39.4245 30.8332 39.2229 31.0406 38.9292 31.0406C38.6354 31.0406 38.428 30.8332 38.428 30.4876V28.7769C38.428 28.4313 38.6354 28.2182 38.9292 28.2182C39.2229 28.2182 39.4245 28.4313 39.4245 28.7769V30.4876Z" fill="white"/>
            <path d="M42.6672 31.68V27.5788H41.9184L41.0832 28.3046V29.111L41.9184 28.3852V31.68H42.6672Z" fill="white"/>
            <path d="M46.4283 30.4934V28.7654C46.4283 27.982 45.8523 27.5443 45.1842 27.5443C44.516 27.5443 43.9342 27.982 43.9342 28.7654V30.4934C43.9342 31.2768 44.516 31.7145 45.1842 31.7145C45.8523 31.7145 46.4283 31.2768 46.4283 30.4934ZM45.6795 30.4876C45.6795 30.8332 45.4779 31.0406 45.1842 31.0406C44.8904 31.0406 44.683 30.8332 44.683 30.4876V28.7769C44.683 28.4313 44.8904 28.2182 45.1842 28.2182C45.4779 28.2182 45.6795 28.4313 45.6795 28.7769V30.4876Z" fill="white"/>
            <path d="M48.9222 31.68V27.5788H48.1734L47.3382 28.3046V29.111L48.1734 28.3852V31.68H48.9222Z" fill="white"/>
            <path d="M52.6833 30.4934V28.7654C52.6833 27.982 52.1073 27.5443 51.4392 27.5443C50.771 27.5443 50.1892 27.982 50.1892 28.7654V30.4934C50.1892 31.2768 50.771 31.7145 51.4392 31.7145C52.1073 31.7145 52.6833 31.2768 52.6833 30.4934ZM51.9345 30.4876C51.9345 30.8332 51.7329 31.0406 51.4392 31.0406C51.1454 31.0406 50.938 30.8332 50.938 30.4876V28.7769C50.938 28.4313 51.1454 28.2182 51.4392 28.2182C51.7329 28.2182 51.9345 28.4313 51.9345 28.7769V30.4876Z" fill="white"/>
            <path d="M55.1772 31.68V27.5788H54.4284L53.5932 28.3046V29.111L54.4284 28.3852V31.68H55.1772Z" fill="white"/>
            <path d="M58.9383 30.4934V28.7654C58.9383 27.982 58.3623 27.5443 57.6942 27.5443C57.026 27.5443 56.4442 27.982 56.4442 28.7654V30.4934C56.4442 31.2768 57.026 31.7145 57.6942 31.7145C58.3623 31.7145 58.9383 31.2768 58.9383 30.4934ZM58.1895 30.4876C58.1895 30.8332 57.9879 31.0406 57.6942 31.0406C57.4004 31.0406 57.1931 30.8332 57.1931 30.4876V28.7769C57.1931 28.4313 57.4004 28.2182 57.6942 28.2182C57.9879 28.2182 58.1895 28.4313 58.1895 28.7769V30.4876Z" fill="white"/>
            <path d="M61.4322 31.68V27.5788H60.6834L59.8482 28.3046V29.111L60.6834 28.3852V31.68H61.4322Z" fill="white"/>
            <path d="M65.1933 30.4934V28.7654C65.1933 27.982 64.6173 27.5443 63.9492 27.5443C63.281 27.5443 62.6992 27.982 62.6992 28.7654V30.4934C62.6992 31.2768 63.281 31.7145 63.9492 31.7145C64.6173 31.7145 65.1933 31.2768 65.1933 30.4934ZM64.4445 30.4876C64.4445 30.8332 64.2429 31.0406 63.9492 31.0406C63.6554 31.0406 63.448 30.8332 63.448 30.4876V28.7769C63.448 28.4313 63.6554 28.2182 63.9492 28.2182C64.2429 28.2182 64.4445 28.4313 64.4445 28.7769V30.4876Z" fill="white"/>
            <path d="M67.6872 31.68V27.5788H66.9384L66.1032 28.3046V29.111L66.9384 28.3852V31.68H67.6872Z" fill="white"/>
            <path d="M71.4483 30.4934V28.7654C71.4483 27.982 70.8723 27.5443 70.2042 27.5443C69.536 27.5443 68.9542 27.982 68.9542 28.7654V30.4934C68.9542 31.2768 69.536 31.7145 70.2042 31.7145C70.8723 31.7145 71.4483 31.2768 71.4483 30.4934ZM70.6995 30.4876C70.6995 30.8332 70.4979 31.0406 70.2042 31.0406C69.9104 31.0406 69.703 30.8332 69.703 30.4876V28.7769C69.703 28.4313 69.9104 28.2182 70.2042 28.2182C70.4979 28.2182 70.6995 28.4313 70.6995 28.7769V30.4876Z" fill="white"/>
            <path d="M5.13722 37.44V33.3388H4.38842L3.55322 34.0646V34.871L4.38842 34.1452V37.44H5.13722Z" fill="white"/>
            <path d="M8.89832 36.2534V34.5254C8.89832 33.742 8.32232 33.3043 7.65416 33.3043C6.986 33.3043 6.40424 33.742 6.40424 34.5254V36.2534C6.40424 37.0368 6.986 37.4745 7.65416 37.4745C8.32232 37.4745 8.89832 37.0368 8.89832 36.2534ZM8.14952 36.2476C8.14952 36.5932 7.94792 36.8006 7.65416 36.8006C7.3604 36.8006 7.15304 36.5932 7.15304 36.2476V34.5369C7.15304 34.1913 7.3604 33.9782 7.65416 33.9782C7.94792 33.9782 8.14952 34.1913 8.14952 34.5369V36.2476Z" fill="white"/>
            <path d="M11.3922 37.44V33.3388H10.6434L9.80822 34.0646V34.871L10.6434 34.1452V37.44H11.3922Z" fill="white"/>
            <path d="M15.1533 36.2534V34.5254C15.1533 33.742 14.5773 33.3043 13.9092 33.3043C13.241 33.3043 12.6592 33.742 12.6592 34.5254V36.2534C12.6592 37.0368 13.241 37.4745 13.9092 37.4745C14.5773 37.4745 15.1533 37.0368 15.1533 36.2534ZM14.4045 36.2476C14.4045 36.5932 14.2029 36.8006 13.9092 36.8006C13.6154 36.8006 13.408 36.5932 13.408 36.2476V34.5369C13.408 34.1913 13.6154 33.9782 13.9092 33.9782C14.2029 33.9782 14.4045 34.1913 14.4045 34.5369V36.2476Z" fill="white"/>
            <path d="M17.6472 37.44V33.3388H16.8984L16.0632 34.0646V34.871L16.8984 34.1452V37.44H17.6472Z" fill="white"/>
            <path d="M21.4083 36.2534V34.5254C21.4083 33.742 20.8323 33.3043 20.1642 33.3043C19.496 33.3043 18.9142 33.742 18.9142 34.5254V36.2534C18.9142 37.0368 19.496 37.4745 20.1642 37.4745C20.8323 37.4745 21.4083 37.0368 21.4083 36.2534ZM20.6595 36.2476C20.6595 36.5932 20.4579 36.8006 20.1642 36.8006C19.8704 36.8006 19.663 36.5932 19.663 36.2476V34.5369C19.663 34.1913 19.8704 33.9782 20.1642 33.9782C20.4579 33.9782 20.6595 34.1913 20.6595 34.5369V36.2476Z" fill="white"/>
            <path d="M23.9022 37.44V33.3388H23.1534L22.3182 34.0646V34.871L23.1534 34.1452V37.44H23.9022Z" fill="white"/>
            <path d="M27.6633 36.2534V34.5254C27.6633 33.742 27.0873 33.3043 26.4192 33.3043C25.751 33.3043 25.1692 33.742 25.1692 34.5254V36.2534C25.1692 37.0368 25.751 37.4745 26.4192 37.4745C27.0873 37.4745 27.6633 37.0368 27.6633 36.2534ZM26.9145 36.2476C26.9145 36.5932 26.7129 36.8006 26.4192 36.8006C26.1254 36.8006 25.918 36.5932 25.918 36.2476V34.5369C25.918 34.1913 26.1254 33.9782 26.4192 33.9782C26.7129 33.9782 26.9145 34.1913 26.9145 34.5369V36.2476Z" fill="white"/>
            <path d="M30.1572 37.44V33.3388H29.4084L28.5732 34.0646V34.871L29.4084 34.1452V37.44H30.1572Z" fill="white"/>
            <path d="M33.9183 36.2534V34.5254C33.9183 33.742 33.3423 33.3043 32.6742 33.3043C32.006 33.3043 31.4242 33.742 31.4242 34.5254V36.2534C31.4242 37.0368 32.006 37.4745 32.6742 37.4745C33.3423 37.4745 33.9183 37.0368 33.9183 36.2534ZM33.1695 36.2476C33.1695 36.5932 32.9679 36.8006 32.6742 36.8006C32.3804 36.8006 32.173 36.5932 32.173 36.2476V34.5369C32.173 34.1913 32.3804 33.9782 32.6742 33.9782C32.9679 33.9782 33.1695 34.1913 33.1695 34.5369V36.2476Z" fill="white"/>
            <path d="M36.4122 37.44V33.3388H35.6634L34.8282 34.0646V34.871L35.6634 34.1452V37.44H36.4122Z" fill="white"/>
            <path d="M40.1733 36.2534V34.5254C40.1733 33.742 39.5973 33.3043 38.9292 33.3043C38.261 33.3043 37.6792 33.742 37.6792 34.5254V36.2534C37.6792 37.0368 38.261 37.4745 38.9292 37.4745C39.5973 37.4745 40.1733 37.0368 40.1733 36.2534ZM39.4245 36.2476C39.4245 36.5932 39.2229 36.8006 38.9292 36.8006C38.6354 36.8006 38.428 36.5932 38.428 36.2476V34.5369C38.428 34.1913 38.6354 33.9782 38.9292 33.9782C39.2229 33.9782 39.4245 34.1913 39.4245 34.5369V36.2476Z" fill="white"/>
            <path d="M42.6672 37.44V33.3388H41.9184L41.0832 34.0646V34.871L41.9184 34.1452V37.44H42.6672Z" fill="white"/>
            <path d="M46.4283 36.2534V34.5254C46.4283 33.742 45.8523 33.3043 45.1842 33.3043C44.516 33.3043 43.9342 33.742 43.9342 34.5254V36.2534C43.9342 37.0368 44.516 37.4745 45.1842 37.4745C45.8523 37.4745 46.4283 37.0368 46.4283 36.2534ZM45.6795 36.2476C45.6795 36.5932 45.4779 36.8006 45.1842 36.8006C44.8904 36.8006 44.683 36.5932 44.683 36.2476V34.5369C44.683 34.1913 44.8904 33.9782 45.1842 33.9782C45.4779 33.9782 45.6795 34.1913 45.6795 34.5369V36.2476Z" fill="white"/>
            <path d="M48.9222 37.44V33.3388H48.1734L47.3382 34.0646V34.871L48.1734 34.1452V37.44H48.9222Z" fill="white"/>
            <path d="M52.6833 36.2534V34.5254C52.6833 33.742 52.1073 33.3043 51.4392 33.3043C50.771 33.3043 50.1892 33.742 50.1892 34.5254V36.2534C50.1892 37.0368 50.771 37.4745 51.4392 37.4745C52.1073 37.4745 52.6833 37.0368 52.6833 36.2534ZM51.9345 36.2476C51.9345 36.5932 51.7329 36.8006 51.4392 36.8006C51.1454 36.8006 50.938 36.5932 50.938 36.2476V34.5369C50.938 34.1913 51.1454 33.9782 51.4392 33.9782C51.7329 33.9782 51.9345 34.1913 51.9345 34.5369V36.2476Z" fill="white"/>
            <path d="M55.1772 37.44V33.3388H54.4284L53.5932 34.0646V34.871L54.4284 34.1452V37.44H55.1772Z" fill="white"/>
            <path d="M58.9383 36.2534V34.5254C58.9383 33.742 58.3623 33.3043 57.6942 33.3043C57.026 33.3043 56.4442 33.742 56.4442 34.5254V36.2534C56.4442 37.0368 57.026 37.4745 57.6942 37.4745C58.3623 37.4745 58.9383 37.0368 58.9383 36.2534ZM58.1895 36.2476C58.1895 36.5932 57.9879 36.8006 57.6942 36.8006C57.4004 36.8006 57.1931 36.5932 57.1931 36.2476V34.5369C57.1931 34.1913 57.4004 33.9782 57.6942 33.9782C57.9879 33.9782 58.1895 34.1913 58.1895 34.5369V36.2476Z" fill="white"/>
            <path d="M61.4322 37.44V33.3388H60.6834L59.8482 34.0646V34.871L60.6834 34.1452V37.44H61.4322Z" fill="white"/>
            <path d="M65.1933 36.2534V34.5254C65.1933 33.742 64.6173 33.3043 63.9492 33.3043C63.281 33.3043 62.6992 33.742 62.6992 34.5254V36.2534C62.6992 37.0368 63.281 37.4745 63.9492 37.4745C64.6173 37.4745 65.1933 37.0368 65.1933 36.2534ZM64.4445 36.2476C64.4445 36.5932 64.2429 36.8006 63.9492 36.8006C63.6554 36.8006 63.448 36.5932 63.448 36.2476V34.5369C63.448 34.1913 63.6554 33.9782 63.9492 33.9782C64.2429 33.9782 64.4445 34.1913 64.4445 34.5369V36.2476Z" fill="white"/>
            <path d="M67.6872 37.44V33.3388H66.9384L66.1032 34.0646V34.871L66.9384 34.1452V37.44H67.6872Z" fill="white"/>
            <path d="M71.4483 36.2534V34.5254C71.4483 33.742 70.8723 33.3043 70.2042 33.3043C69.536 33.3043 68.9542 33.742 68.9542 34.5254V36.2534C68.9542 37.0368 69.536 37.4745 70.2042 37.4745C70.8723 37.4745 71.4483 37.0368 71.4483 36.2534ZM70.6995 36.2476C70.6995 36.5932 70.4979 36.8006 70.2042 36.8006C69.9104 36.8006 69.703 36.5932 69.703 36.2476V34.5369C69.703 34.1913 69.9104 33.9782 70.2042 33.9782C70.4979 33.9782 70.6995 34.1913 70.6995 34.5369V36.2476Z" fill="white"/>
            <path d="M5.13722 43.2V39.0988H4.38842L3.55322 39.8246V40.631L4.38842 39.9052V43.2H5.13722Z" fill="white"/>
            <path d="M8.89832 42.0134V40.2854C8.89832 39.502 8.32232 39.0643 7.65416 39.0643C6.986 39.0643 6.40424 39.502 6.40424 40.2854V42.0134C6.40424 42.7968 6.986 43.2345 7.65416 43.2345C8.32232 43.2345 8.89832 42.7968 8.89832 42.0134ZM8.14952 42.0076C8.14952 42.3532 7.94792 42.5606 7.65416 42.5606C7.3604 42.5606 7.15304 42.3532 7.15304 42.0076V40.2969C7.15304 39.9513 7.3604 39.7382 7.65416 39.7382C7.94792 39.7382 8.14952 39.9513 8.14952 40.2969V42.0076Z" fill="white"/>
            <path d="M11.3922 43.2V39.0988H10.6434L9.80822 39.8246V40.631L10.6434 39.9052V43.2H11.3922Z" fill="white"/>
            <path d="M15.1533 42.0134V40.2854C15.1533 39.502 14.5773 39.0643 13.9092 39.0643C13.241 39.0643 12.6592 39.502 12.6592 40.2854V42.0134C12.6592 42.7968 13.241 43.2345 13.9092 43.2345C14.5773 43.2345 15.1533 42.7968 15.1533 42.0134ZM14.4045 42.0076C14.4045 42.3532 14.2029 42.5606 13.9092 42.5606C13.6154 42.5606 13.408 42.3532 13.408 42.0076V40.2969C13.408 39.9513 13.6154 39.7382 13.9092 39.7382C14.2029 39.7382 14.4045 39.9513 14.4045 40.2969V42.0076Z" fill="white"/>
            <path d="M17.6472 43.2V39.0988H16.8984L16.0632 39.8246V40.631L16.8984 39.9052V43.2H17.6472Z" fill="white"/>
            <path d="M21.4083 42.0134V40.2854C21.4083 39.502 20.8323 39.0643 20.1642 39.0643C19.496 39.0643 18.9142 39.502 18.9142 40.2854V42.0134C18.9142 42.7968 19.496 43.2345 20.1642 43.2345C20.8323 43.2345 21.4083 42.7968 21.4083 42.0134ZM20.6595 42.0076C20.6595 42.3532 20.4579 42.5606 20.1642 42.5606C19.8704 42.5606 19.663 42.3532 19.663 42.0076V40.2969C19.663 39.9513 19.8704 39.7382 20.1642 39.7382C20.4579 39.7382 20.6595 39.9513 20.6595 40.2969V42.0076Z" fill="white"/>
            <path d="M23.9022 43.2V39.0988H23.1534L22.3182 39.8246V40.631L23.1534 39.9052V43.2H23.9022Z" fill="white"/>
            <path d="M27.6633 42.0134V40.2854C27.6633 39.502 27.0873 39.0643 26.4192 39.0643C25.751 39.0643 25.1692 39.502 25.1692 40.2854V42.0134C25.1692 42.7968 25.751 43.2345 26.4192 43.2345C27.0873 43.2345 27.6633 42.7968 27.6633 42.0134ZM26.9145 42.0076C26.9145 42.3532 26.7129 42.5606 26.4192 42.5606C26.1254 42.5606 25.918 42.3532 25.918 42.0076V40.2969C25.918 39.9513 26.1254 39.7382 26.4192 39.7382C26.7129 39.7382 26.9145 39.9513 26.9145 40.2969V42.0076Z" fill="white"/>
            <path d="M30.1572 43.2V39.0988H29.4084L28.5732 39.8246V40.631L29.4084 39.9052V43.2H30.1572Z" fill="white"/>
            <path d="M33.9183 42.0134V40.2854C33.9183 39.502 33.3423 39.0643 32.6742 39.0643C32.006 39.0643 31.4242 39.502 31.4242 40.2854V42.0134C31.4242 42.7968 32.006 43.2345 32.6742 43.2345C33.3423 43.2345 33.9183 42.7968 33.9183 42.0134ZM33.1695 42.0076C33.1695 42.3532 32.9679 42.5606 32.6742 42.5606C32.3804 42.5606 32.173 42.3532 32.173 42.0076V40.2969C32.173 39.9513 32.3804 39.7382 32.6742 39.7382C32.9679 39.7382 33.1695 39.9513 33.1695 40.2969V42.0076Z" fill="white"/>
            <path d="M36.4122 43.2V39.0988H35.6634L34.8282 39.8246V40.631L35.6634 39.9052V43.2H36.4122Z" fill="white"/>
            <path d="M40.1733 42.0134V40.2854C40.1733 39.502 39.5973 39.0643 38.9292 39.0643C38.261 39.0643 37.6792 39.502 37.6792 40.2854V42.0134C37.6792 42.7968 38.261 43.2345 38.9292 43.2345C39.5973 43.2345 40.1733 42.7968 40.1733 42.0134ZM39.4245 42.0076C39.4245 42.3532 39.2229 42.5606 38.9292 42.5606C38.6354 42.5606 38.428 42.3532 38.428 42.0076V40.2969C38.428 39.9513 38.6354 39.7382 38.9292 39.7382C39.2229 39.7382 39.4245 39.9513 39.4245 40.2969V42.0076Z" fill="white"/>
            <path d="M42.6672 43.2V39.0988H41.9184L41.0832 39.8246V40.631L41.9184 39.9052V43.2H42.6672Z" fill="white"/>
            <path d="M46.4283 42.0134V40.2854C46.4283 39.502 45.8523 39.0643 45.1842 39.0643C44.516 39.0643 43.9342 39.502 43.9342 40.2854V42.0134C43.9342 42.7968 44.516 43.2345 45.1842 43.2345C45.8523 43.2345 46.4283 42.7968 46.4283 42.0134ZM45.6795 42.0076C45.6795 42.3532 45.4779 42.5606 45.1842 42.5606C44.8904 42.5606 44.683 42.3532 44.683 42.0076V40.2969C44.683 39.9513 44.8904 39.7382 45.1842 39.7382C45.4779 39.7382 45.6795 39.9513 45.6795 40.2969V42.0076Z" fill="white"/>
            <path d="M48.9222 43.2V39.0988H48.1734L47.3382 39.8246V40.631L48.1734 39.9052V43.2H48.9222Z" fill="white"/>
            <path d="M52.6833 42.0134V40.2854C52.6833 39.502 52.1073 39.0643 51.4392 39.0643C50.771 39.0643 50.1892 39.502 50.1892 40.2854V42.0134C50.1892 42.7968 50.771 43.2345 51.4392 43.2345C52.1073 43.2345 52.6833 42.7968 52.6833 42.0134ZM51.9345 42.0076C51.9345 42.3532 51.7329 42.5606 51.4392 42.5606C51.1454 42.5606 50.938 42.3532 50.938 42.0076V40.2969C50.938 39.9513 51.1454 39.7382 51.4392 39.7382C51.7329 39.7382 51.9345 39.9513 51.9345 40.2969V42.0076Z" fill="white"/>
            <path d="M55.1772 43.2V39.0988H54.4284L53.5932 39.8246V40.631L54.4284 39.9052V43.2H55.1772Z" fill="white"/>
            <path d="M58.9383 42.0134V40.2854C58.9383 39.502 58.3623 39.0643 57.6942 39.0643C57.026 39.0643 56.4442 39.502 56.4442 40.2854V42.0134C56.4442 42.7968 57.026 43.2345 57.6942 43.2345C58.3623 43.2345 58.9383 42.7968 58.9383 42.0134ZM58.1895 42.0076C58.1895 42.3532 57.9879 42.5606 57.6942 42.5606C57.4004 42.5606 57.1931 42.3532 57.1931 42.0076V40.2969C57.1931 39.9513 57.4004 39.7382 57.6942 39.7382C57.9879 39.7382 58.1895 39.9513 58.1895 40.2969V42.0076Z" fill="white"/>
            <path d="M61.4322 43.2V39.0988H60.6834L59.8482 39.8246V40.631L60.6834 39.9052V43.2H61.4322Z" fill="white"/>
            <path d="M65.1933 42.0134V40.2854C65.1933 39.502 64.6173 39.0643 63.9492 39.0643C63.281 39.0643 62.6992 39.502 62.6992 40.2854V42.0134C62.6992 42.7968 63.281 43.2345 63.9492 43.2345C64.6173 43.2345 65.1933 42.7968 65.1933 42.0134ZM64.4445 42.0076C64.4445 42.3532 64.2429 42.5606 63.9492 42.5606C63.6554 42.5606 63.448 42.3532 63.448 42.0076V40.2969C63.448 39.9513 63.6554 39.7382 63.9492 39.7382C64.2429 39.7382 64.4445 39.9513 64.4445 40.2969V42.0076Z" fill="white"/>
            <path d="M67.6872 43.2V39.0988H66.9384L66.1032 39.8246V40.631L66.9384 39.9052V43.2H67.6872Z" fill="white"/>
            <path d="M71.4483 42.0134V40.2854C71.4483 39.502 70.8723 39.0643 70.2042 39.0643C69.536 39.0643 68.9542 39.502 68.9542 40.2854V42.0134C68.9542 42.7968 69.536 43.2345 70.2042 43.2345C70.8723 43.2345 71.4483 42.7968 71.4483 42.0134ZM70.6995 42.0076C70.6995 42.3532 70.4979 42.5606 70.2042 42.5606C69.9104 42.5606 69.703 42.3532 69.703 42.0076V40.2969C69.703 39.9513 69.9104 39.7382 70.2042 39.7382C70.4979 39.7382 70.6995 39.9513 70.6995 40.2969V42.0076Z" fill="white"/>
        </g>
    </g>
    <path d="M31.76 11.52C34.9412 11.52 37.52 8.94116 37.52 5.76C37.52 2.57884 34.9412 0 31.76 0C28.5788 0 26 2.57884 26 5.76C26 8.94116 28.5788 11.52 31.76 11.52Z" fill="url(#paint2_linear)"/>
    <path d="M5.44885 30.5511C2.12008 27.2224 0.25 22.7076 0.25 18C0.25 13.2924 2.12008 8.77763 5.44885 5.44885C8.77763 2.12008 13.2924 0.25 18 0.25C22.7076 0.25 27.2224 2.12008 30.5511 5.44885C33.8799 8.77763 35.75 13.2924 35.75 18C35.75 22.7076 33.8799 27.2224 30.5511 30.5511C27.2224 33.8799 22.7076 35.75 18 35.75C13.2924 35.75 8.77763 33.8799 5.44885 30.5511Z" fill="#26A17B" stroke="white" stroke-width="0.5"/>
    <path d="M20.1622 19.5559V19.5536C20.0384 19.5626 19.4005 19.6009 17.9774 19.6009C16.8412 19.6009 16.0413 19.5671 15.76 19.5536V19.557C11.386 19.3646 8.12128 18.603 8.12128 17.6918C8.12128 16.7816 11.386 16.02 15.76 15.8243V18.7988C16.0458 18.819 16.8648 18.8674 17.9965 18.8674C19.3544 18.8674 20.035 18.8111 20.1622 18.7999V15.8265C24.5272 16.0211 27.784 16.7828 27.784 17.6918C27.784 18.603 24.5272 19.3624 20.1622 19.5559ZM20.1622 15.5171V12.8554H26.2529V8.79639H9.66928V12.8554H15.76V15.516C10.81 15.7433 7.0874 16.7243 7.0874 17.8988C7.0874 19.0733 10.81 20.0531 15.76 20.2815V28.8113H20.1622V20.2793C25.1043 20.052 28.8179 19.0721 28.8179 17.8988C28.8179 16.7254 25.1043 15.7455 20.1622 15.5171Z" fill="white"/>
    <defs>
        <linearGradient id="paint0_linear" x1="26" y1="18" x2="62" y2="18" gradientUnits="userSpaceOnUse">
            <stop stop-color="#0ACFFE"/>
            <stop offset="1" stop-color="#495AFF"/>
        </linearGradient>
        <linearGradient id="paint1_linear" x1="26" y1="18" x2="62" y2="18" gradientUnits="userSpaceOnUse">
            <stop stop-color="#0ACFFE"/>
            <stop offset="1" stop-color="#495AFF"/>
        </linearGradient>
        <linearGradient id="paint2_linear" x1="26" y1="5.76" x2="37.52" y2="5.76" gradientUnits="userSpaceOnUse">
            <stop stop-color="#0ACFFE"/>
            <stop offset="1" stop-color="#495AFF"/>
        </linearGradient>
    </defs>
</svg>
