<svg width="64" height="64" viewBox="0 0 64 64" fill="none" xmlns="http://www.w3.org/2000/svg">
    <g clip-path="url(#clip0)">
        <path d="M9.54936 54.4506C3.59508 48.4964 0.25 40.4206 0.25 32C0.25 23.5794 3.59508 15.5036 9.54936 9.54936C15.5036 3.59508 23.5794 0.25 32 0.25C40.4206 0.25 48.4964 3.59508 54.4506 9.54936C60.4049 15.5036 63.75 23.5794 63.75 32C63.75 40.4206 60.4049 48.4964 54.4506 54.4506C48.4964 60.4049 40.4206 63.75 32 63.75C23.5794 63.75 15.5036 60.4049 9.54936 54.4506Z" fill="#26A17B" stroke="white" stroke-width="0.5"/>
        <path d="M35.8446 34.766V34.762C35.6246 34.778 34.4906 34.846 31.9606 34.846C29.9406 34.846 28.5186 34.786 28.0186 34.762V34.768C20.2426 34.426 14.4386 33.072 14.4386 31.452C14.4386 29.834 20.2426 28.48 28.0186 28.132V33.42C28.5266 33.456 29.9826 33.542 31.9946 33.542C34.4086 33.542 35.6186 33.442 35.8446 33.422V28.136C43.6046 28.482 49.3946 29.836 49.3946 31.452C49.3946 33.072 43.6046 34.422 35.8446 34.766ZM35.8446 27.586V22.854H46.6726V15.638H17.1906V22.854H28.0186V27.584C19.2186 27.988 12.6006 29.732 12.6006 31.82C12.6006 33.908 19.2186 35.65 28.0186 36.056V51.22H35.8446V36.052C44.6306 35.648 51.2326 33.906 51.2326 31.82C51.2326 29.734 44.6306 27.992 35.8446 27.586Z" fill="white"/>
    </g>
    <defs>
        <clipPath id="clip0">
            <rect width="64" height="64" fill="white"/>
        </clipPath>
    </defs>
</svg>
