<svg width="62" height="36" viewBox="0 0 62 36" fill="none" xmlns="http://www.w3.org/2000/svg">
    <path d="M26 18C26 27.9412 34.0587 36 44 36C53.9412 36 62 27.9412 62 18C62 8.05875 53.9412 0 44 0C34.0587 0 26 8.05875 26 18Z" fill="#295999"/>
    <path d="M51.6156 28.8483H35.6924L38.4618 20.3077L35.8038 21L36.0385 18.9375L38.9234 18.1751L42.8433 5.53833H47.5079L44.3429 16.4486L47.2308 15.4616L46.7695 17.5383L43.5385 18.6922L41.6924 24.9232H52.7695L51.6156 28.8483Z" fill="white"/>
    <path d="M5.44885 30.5511C2.12008 27.2224 0.25 22.7076 0.25 18C0.25 13.2924 2.12008 8.77763 5.44885 5.44885C8.77763 2.12008 13.2924 0.25 18 0.25C22.7076 0.25 27.2224 2.12008 30.5511 5.44885C33.8799 8.77763 35.75 13.2924 35.75 18C35.75 22.7076 33.8799 27.2224 30.5511 30.5511C27.2224 33.8799 22.7076 35.75 18 35.75C13.2924 35.75 8.77763 33.8799 5.44885 30.5511Z" fill="#26A17B" stroke="white" stroke-width="0.5"/>
    <path d="M20.1622 19.5559V19.5536C20.0384 19.5626 19.4005 19.6009 17.9774 19.6009C16.8412 19.6009 16.0413 19.5671 15.76 19.5536V19.557C11.386 19.3646 8.12128 18.603 8.12128 17.6918C8.12128 16.7816 11.386 16.02 15.76 15.8243V18.7988C16.0458 18.819 16.8648 18.8674 17.9965 18.8674C19.3544 18.8674 20.035 18.8111 20.1622 18.7999V15.8265C24.5272 16.0211 27.784 16.7828 27.784 17.6918C27.784 18.603 24.5272 19.3624 20.1622 19.5559ZM20.1622 15.5171V12.8554H26.2529V8.79639H9.66928V12.8554H15.76V15.516C10.81 15.7433 7.0874 16.7243 7.0874 17.8988C7.0874 19.0733 10.81 20.0531 15.76 20.2815V28.8113H20.1622V20.2793C25.1043 20.052 28.8179 19.0721 28.8179 17.8988C28.8179 16.7254 25.1043 15.7455 20.1622 15.5171Z" fill="white"/>
</svg>
