<svg width="62" height="36" viewBox="0 0 62 36" fill="none" xmlns="http://www.w3.org/2000/svg">
    <path d="M26 18C26 27.9412 34.0588 36 44 36C53.9412 36 62 27.9412 62 18C62 8.0588 53.9412 0 44 0C34.0588 0 26 8.0588 26 18Z" fill="#627EEA"/>
    <path d="M44.5596 4.5V14.478L52.994 18.2476L44.5596 4.5Z" fill="white" fill-opacity="0.602"/>
    <path d="M44.5598 4.5L36.125 18.2476L44.5598 14.4796V4.5Z" fill="white"/>
    <path d="M44.5596 24.7141V31.4941L53 19.8181L44.5596 24.7141Z" fill="white" fill-opacity="0.602"/>
    <path d="M44.5598 31.4939V24.7139L36.125 19.8159L44.5602 31.4923L44.5598 31.4939Z" fill="white"/>
    <path d="M44.5596 23.1452L52.994 18.2476L44.5596 14.4812V23.1452Z" fill="white" fill-opacity="0.2"/>
    <path d="M36.1254 18.2476L44.5598 23.1452V14.4812L36.125 18.246L36.1254 18.2476Z" fill="white" fill-opacity="0.602"/>
    <path d="M5.44885 30.5511C2.12008 27.2224 0.25 22.7076 0.25 18C0.25 13.2924 2.12008 8.77763 5.44885 5.44885C8.77763 2.12008 13.2924 0.25 18 0.25C22.7076 0.25 27.2224 2.12008 30.5511 5.44885C33.8799 8.77763 35.75 13.2924 35.75 18C35.75 22.7076 33.8799 27.2224 30.5511 30.5511C27.2224 33.8799 22.7076 35.75 18 35.75C13.2924 35.75 8.77763 33.8799 5.44885 30.5511Z" fill="#26A17B" stroke="white" stroke-width="0.5"/>
    <path d="M20.1622 19.5559V19.5536C20.0384 19.5626 19.4005 19.6009 17.9774 19.6009C16.8412 19.6009 16.0413 19.5671 15.76 19.5536V19.557C11.386 19.3646 8.12128 18.603 8.12128 17.6918C8.12128 16.7816 11.386 16.02 15.76 15.8243V18.7988C16.0458 18.819 16.8648 18.8674 17.9965 18.8674C19.3544 18.8674 20.035 18.8111 20.1622 18.7999V15.8265C24.5272 16.0211 27.784 16.7828 27.784 17.6918C27.784 18.603 24.5272 19.3624 20.1622 19.5559ZM20.1622 15.5171V12.8554H26.2529V8.79639H9.66928V12.8554H15.76V15.516C10.81 15.7433 7.0874 16.7243 7.0874 17.8988C7.0874 19.0733 10.81 20.0531 15.76 20.2815V28.8113H20.1622V20.2793C25.1043 20.052 28.8179 19.0721 28.8179 17.8988C28.8179 16.7254 25.1043 15.7455 20.1622 15.5171Z" fill="white"/>
</svg>
