<svg width="62" height="36" viewBox="0 0 62 36" fill="none" xmlns="http://www.w3.org/2000/svg">
    <path d="M26 18C26 22.7739 27.8964 27.3523 31.2721 30.7279C34.6477 34.1036 39.2261 36 44 36C48.7739 36 53.3523 34.1036 56.7279 30.7279C60.1036 27.3523 62 22.7739 62 18C62 13.2261 60.1036 8.64773 56.7279 5.27208C53.3523 1.89642 48.7739 0 44 0C39.2261 0 34.6477 1.89642 31.2721 5.27208C27.8964 8.64773 26 13.2261 26 18H26Z" fill="white"/>
    <path opacity="0.8" d="M39.2406 15.5488C39.2336 16.1532 39.3263 16.7546 39.5151 17.3288C39.5728 17.4632 39.6018 17.6081 39.6004 17.7542C39.5989 17.9004 39.5671 18.0447 39.5068 18.1779C39.4465 18.3111 39.3591 18.4302 39.2502 18.5278C39.1413 18.6253 39.0133 18.6991 38.8743 18.7444C38.7354 18.7897 38.5885 18.8056 38.443 18.791C38.2975 18.7764 38.1567 18.7317 38.0295 18.6597C37.9023 18.5876 37.7915 18.4899 37.7042 18.3726C37.6168 18.2554 37.5549 18.1213 37.5222 17.9788C37.0483 16.5381 37.0227 14.9875 37.4487 13.5319C37.8748 12.0764 38.7325 10.7843 39.9085 9.82658C41.0844 8.86882 42.5233 8.29043 44.035 8.16784C45.5467 8.04524 47.06 8.38422 48.3749 9.13996C49.6899 9.89571 50.7445 11.0327 51.3996 12.4005C52.0546 13.7684 52.2792 15.3029 52.0436 16.8011C51.808 18.2994 51.1234 19.6908 50.0801 20.7917C49.0369 21.8926 47.6842 22.651 46.2008 22.9667C45.5812 23.0838 44.9533 23.151 44.323 23.1679C43.6908 23.1998 43.0899 23.4529 42.6253 23.8828C42.1607 24.3128 41.8619 24.8923 41.7812 25.5201C41.7092 25.9611 41.5999 26.3963 41.4977 26.8322C41.441 27.0914 41.2863 27.3186 41.066 27.4664C40.8457 27.6143 40.5768 27.6712 40.3154 27.6255C40.1811 27.6065 40.052 27.5604 39.936 27.49C39.82 27.4197 39.7195 27.3265 39.6406 27.2161C39.5617 27.1058 39.506 26.9805 39.4769 26.848C39.4478 26.7155 39.4459 26.5785 39.4714 26.4452C39.6494 25.497 39.8609 24.5546 40.0634 23.6108C40.6493 20.8748 41.2367 18.1393 41.8255 15.4041C41.8502 15.2688 41.9016 15.1398 41.9767 15.0246C42.0518 14.9094 42.1491 14.8103 42.2629 14.7331C42.3768 14.6559 42.5048 14.6022 42.6397 14.5751C42.7745 14.5479 42.9134 14.548 43.0482 14.5751C43.183 14.6023 43.3111 14.6561 43.4249 14.7333C43.5387 14.8105 43.636 14.9097 43.711 15.0249C43.7861 15.1402 43.8374 15.2692 43.862 15.4045C43.8866 15.5398 43.884 15.6787 43.8544 15.813C43.5291 17.3558 43.1929 18.891 42.8618 20.4293C42.8136 20.655 42.7679 20.8793 42.7197 21.1069C42.6959 21.2194 42.7377 21.2708 42.8528 21.2458C43.6885 21.0619 44.5512 21.0741 45.3979 20.9648C46.379 20.8248 47.3024 20.417 48.0668 19.7863C48.8312 19.1555 49.4068 18.3262 49.7305 17.3895C50.0542 16.4528 50.1133 15.4451 49.9015 14.477C49.6896 13.5089 49.2149 12.6179 48.5296 11.9021C47.8443 11.1862 46.9748 10.6731 46.0169 10.4193C45.0589 10.1655 44.0495 10.1806 43.0997 10.4632C42.1498 10.7458 41.2962 11.2847 40.6327 12.0209C39.9692 12.757 39.5216 13.6619 39.3389 14.6359C39.2856 14.9376 39.2527 15.2426 39.2406 15.5488Z" fill="black"/>
    <path opacity="0.8" d="M43.6666 26.5968C43.6666 26.2633 43.7991 25.9435 44.0349 25.7076C44.2707 25.4718 44.5906 25.3394 44.924 25.3394C45.2575 25.3394 45.5774 25.4718 45.8132 25.7076C46.049 25.9435 46.1815 26.2633 46.1815 26.5968C46.184 26.7654 46.1523 26.9328 46.0883 27.0888C46.0243 27.2448 45.9294 27.3862 45.8092 27.5045C45.6891 27.6229 45.5462 27.7156 45.3892 27.7771C45.2322 27.8386 45.0643 27.8677 44.8958 27.8626C44.7311 27.8629 44.5681 27.8301 44.4164 27.7662C44.2648 27.7022 44.1275 27.6084 44.0128 27.4903C43.8981 27.3722 43.8084 27.2322 43.7489 27.0787C43.6894 26.9252 43.6614 26.7613 43.6666 26.5968Z" fill="#CB2B83"/>
    <path d="M5.44885 30.5511C2.12008 27.2224 0.25 22.7076 0.25 18C0.25 13.2924 2.12008 8.77763 5.44885 5.44885C8.77763 2.12008 13.2924 0.25 18 0.25C22.7076 0.25 27.2224 2.12008 30.5511 5.44885C33.8799 8.77763 35.75 13.2924 35.75 18C35.75 22.7076 33.8799 27.2224 30.5511 30.5511C27.2224 33.8799 22.7076 35.75 18 35.75C13.2924 35.75 8.77763 33.8799 5.44885 30.5511Z" fill="#26A17B" stroke="white" stroke-width="0.5"/>
    <path d="M20.1622 19.5559V19.5536C20.0384 19.5626 19.4005 19.6009 17.9774 19.6009C16.8412 19.6009 16.0413 19.5671 15.76 19.5536V19.557C11.386 19.3646 8.12128 18.603 8.12128 17.6918C8.12128 16.7816 11.386 16.02 15.76 15.8243V18.7988C16.0458 18.819 16.8648 18.8674 17.9965 18.8674C19.3544 18.8674 20.035 18.8111 20.1622 18.7999V15.8265C24.5272 16.0211 27.784 16.7828 27.784 17.6918C27.784 18.603 24.5272 19.3624 20.1622 19.5559ZM20.1622 15.5171V12.8554H26.2529V8.79639H9.66928V12.8554H15.76V15.516C10.81 15.7433 7.0874 16.7243 7.0874 17.8988C7.0874 19.0733 10.81 20.0531 15.76 20.2815V28.8113H20.1622V20.2793C25.1043 20.052 28.8179 19.0721 28.8179 17.8988C28.8179 16.7254 25.1043 15.7455 20.1622 15.5171Z" fill="white"/>
</svg>
