<svg width="62" height="37" viewBox="0 0 62 37" fill="none" xmlns="http://www.w3.org/2000/svg">
    <path d="M61.4609 23.3546C59.0572 32.9971 49.2888 38.8651 39.6436 36.4614C30.0025 34.0577 24.1331 24.2892 26.5396 14.6482C28.9419 5.00155 38.7103 -0.865066 48.3514 1.53863C57.9966 3.94232 63.8646 13.7108 61.4609 23.3546Z" fill="#F7931A"/>
    <path d="M52.022 16.4384C52.382 14.0264 50.5432 12.7276 48.026 11.8636L48.8429 8.59592L46.8491 8.09885L46.0543 11.2821C45.5234 11.1517 44.9912 11.0266 44.4578 10.9068L45.2581 7.70285L43.2657 7.20715L42.4488 10.4748C42.0154 10.3765 41.5903 10.2782 41.1763 10.1758L41.1791 10.1661L38.4306 9.48069L37.9003 11.6061C37.9003 11.6061 39.3791 11.9439 39.3472 11.9661C40.1544 12.1655 40.3012 12.6999 40.2763 13.1222L39.3458 16.8468C39.4012 16.8607 39.4746 16.8801 39.5535 16.9119L39.3431 16.8607L38.0401 22.0779C37.9405 22.3216 37.6898 22.6899 37.1263 22.5487C37.1457 22.5792 35.678 22.1887 35.678 22.1887L34.688 24.4664L37.2814 25.1116C37.7646 25.2335 38.2368 25.3595 38.7034 25.4785L37.8781 28.785L39.8692 29.2807L40.6861 26.0088C41.214 26.1516 41.7434 26.2887 42.2743 26.4201L41.4601 29.6767L43.454 30.1724L44.2778 26.8728C47.6771 27.5139 50.2331 27.255 51.3089 24.1867C52.1757 21.7152 51.266 20.2904 49.4771 19.3613C50.7786 19.0608 51.7617 18.2065 52.022 16.4398V16.4384ZM47.4666 22.8145C46.8518 25.2847 42.6841 23.9499 41.3328 23.6148L42.4266 19.2339C43.778 19.5704 48.1118 20.2378 47.4666 22.8145ZM48.0841 16.4038C47.522 18.651 44.0535 17.5087 42.9278 17.229L43.9206 13.2552C45.0463 13.5362 48.6698 14.0582 48.0841 16.4038Z" fill="white"/>
    <path d="M5.44885 30.5511C2.12008 27.2224 0.25 22.7076 0.25 18C0.25 13.2924 2.12008 8.77763 5.44885 5.44885C8.77763 2.12008 13.2924 0.25 18 0.25C22.7076 0.25 27.2224 2.12008 30.5511 5.44885C33.8799 8.77763 35.75 13.2924 35.75 18C35.75 22.7076 33.8799 27.2224 30.5511 30.5511C27.2224 33.8799 22.7076 35.75 18 35.75C13.2924 35.75 8.77763 33.8799 5.44885 30.5511Z" fill="#26A17B" stroke="white" stroke-width="0.5"/>
    <path d="M20.1622 19.5559V19.5536C20.0384 19.5626 19.4005 19.6009 17.9774 19.6009C16.8412 19.6009 16.0413 19.5671 15.76 19.5536V19.557C11.386 19.3646 8.12128 18.603 8.12128 17.6918C8.12128 16.7816 11.386 16.02 15.76 15.8243V18.7988C16.0458 18.819 16.8648 18.8674 17.9965 18.8674C19.3544 18.8674 20.035 18.8111 20.1622 18.7999V15.8265C24.5272 16.0211 27.784 16.7828 27.784 17.6918C27.784 18.603 24.5272 19.3624 20.1622 19.5559ZM20.1622 15.5171V12.8554H26.2529V8.79639H9.66928V12.8554H15.76V15.516C10.81 15.7433 7.0874 16.7243 7.0874 17.8988C7.0874 19.0733 10.81 20.0531 15.76 20.2815V28.8113H20.1622V20.2793C25.1043 20.052 28.8179 19.0721 28.8179 17.8988C28.8179 16.7254 25.1043 15.7455 20.1622 15.5171Z" fill="white"/>
</svg>
