<svg width="62" height="36" viewBox="0 0 62 36" fill="none" xmlns="http://www.w3.org/2000/svg">
    <circle cx="44" cy="18" r="17.75" fill="white" stroke="white" stroke-width="0.5"/>
    <path d="M42.2238 16.2154C43.3908 16.5009 44.6095 16.5009 45.7766 16.2154C46.1027 14.8892 46.7856 13.6777 47.7513 12.712C48.7169 11.7463 49.9285 11.0634 51.2547 10.7374C51.5235 9.63802 51.539 8.49196 51.2999 7.38576C51.0609 6.27956 50.5735 5.24216 49.8748 4.35192C49.176 3.46168 48.284 2.74189 47.2663 2.24692C46.2485 1.75195 45.1316 1.49475 43.9998 1.49475C42.8681 1.49475 41.7512 1.75195 40.7334 2.24692C39.7157 2.74189 38.8237 3.46168 38.1249 4.35192C37.4261 5.24216 36.9388 6.27956 36.6998 7.38576C36.4607 8.49196 36.4762 9.63802 36.745 10.7374C38.0714 11.0631 39.2832 11.7459 40.2491 12.7116C41.2149 13.6773 41.8978 14.8891 42.2238 16.2154Z" fill="#7ABDF7"/>
    <path d="M45.7769 19.7663C44.6098 19.4809 43.3911 19.4809 42.224 19.7663C41.8977 21.0922 41.2148 22.3034 40.2491 23.2687C39.2834 24.234 38.0719 24.9165 36.746 25.2423C36.4772 26.3416 36.4617 27.4877 36.7007 28.5939C36.9398 29.7001 37.4271 30.7375 38.1259 31.6277C38.8247 32.518 39.7166 33.2378 40.7344 33.7327C41.7522 34.2277 42.8691 34.4849 44.0008 34.4849C45.1326 34.4849 46.2495 34.2277 47.2672 33.7327C48.285 33.2378 49.177 32.518 49.8757 31.6277C50.5745 30.7375 51.0618 29.7001 51.3009 28.5939C51.54 27.4877 51.5245 26.3416 51.2557 25.2423C49.9293 24.9165 48.7174 24.2338 47.7516 23.2681C46.7858 22.3023 46.1028 21.0906 45.7769 19.7642V19.7663Z" fill="#0D74F5"/>
    <path d="M53.0313 10.5223C52.4332 10.5211 51.8371 10.5919 51.2559 10.7333C50.93 12.0593 50.2473 13.2709 49.2817 14.2364C48.3162 15.202 47.1046 15.8847 45.7785 16.2106C45.4931 17.3775 45.4931 18.5959 45.7785 19.7628C47.1049 20.0888 48.3166 20.7719 49.2822 21.7378C50.2478 22.7038 50.9304 23.9158 51.2559 25.2422C52.2818 25.4931 53.3493 25.5235 54.3878 25.3315C55.4263 25.1395 56.4123 24.7294 57.2807 24.1283C58.1491 23.5271 58.8801 22.7487 59.4256 21.8443C59.971 20.9399 60.3183 19.93 60.4448 18.8815C60.5712 17.8329 60.4738 16.7695 60.159 15.7614C59.8443 14.7532 59.3192 13.8233 58.6186 13.033C57.918 12.2427 57.0578 11.61 56.0946 11.1766C55.1315 10.7432 54.0874 10.519 53.0313 10.5188V10.5223Z" fill="#4494F7"/>
    <path d="M42.2236 19.7662C42.5099 18.5995 42.5099 17.3808 42.2236 16.214C40.8975 15.8881 39.6859 15.2053 38.7202 14.2398C37.7546 13.2742 37.0717 12.0628 36.7455 10.7367C35.6462 10.4679 34.5001 10.4524 33.3939 10.6915C32.2877 10.9305 31.2503 11.4178 30.3601 12.1166C29.4699 12.8154 28.7501 13.7074 28.2551 14.7251C27.7601 15.7429 27.5029 16.8598 27.5029 17.9915C27.5029 19.1233 27.7601 20.2402 28.2551 21.258C28.7501 22.2757 29.4699 23.1677 30.3601 23.8665C31.2503 24.5652 32.2877 25.0526 33.3939 25.2916C34.5001 25.5307 35.6462 25.5152 36.7455 25.2464C37.0712 23.9198 37.7539 22.7077 38.7196 21.7417C39.6853 20.7756 40.8971 20.0924 42.2236 19.7662Z" fill="#005CF4"/>
    <path d="M45.7769 16.2153C47.103 15.8893 48.3146 15.2064 49.2803 14.2407C50.2459 13.275 50.9288 12.0635 51.2549 10.7373C49.9287 11.0634 48.7172 11.7463 47.7515 12.7119C46.7858 13.6776 46.1029 14.8892 45.7769 16.2153Z" fill="#186EF9"/>
    <path d="M45.7769 19.7663C46.1029 21.0922 46.7858 22.3035 47.7515 23.2689C48.7172 24.2342 49.9288 24.9167 51.2549 25.2422C50.9287 23.9161 50.2457 22.7046 49.2801 21.739C48.3145 20.7733 47.1029 20.0904 45.7769 19.7642V19.7663Z" fill="#0246F2"/>
    <path d="M42.2241 16.2153C41.8981 14.8892 41.2152 13.6776 40.2495 12.7119C39.2838 11.7463 38.0723 11.0634 36.7461 10.7373C37.0722 12.0635 37.7551 13.275 38.7207 14.2407C39.6864 15.2064 40.898 15.8893 42.2241 16.2153Z" fill="#0046F8"/>
    <path d="M42.2241 19.7663C40.8983 20.0923 39.687 20.7749 38.7214 21.7402C37.7557 22.7054 37.0727 23.9165 36.7461 25.2422C38.0723 24.9163 39.284 24.2334 40.2497 23.2677C41.2154 22.3021 41.8982 21.0904 42.2241 19.7642V19.7663Z" fill="#0729F1"/>
    <path d="M42.2238 16.2154C43.3908 16.5009 44.6095 16.5009 45.7766 16.2154C46.1027 14.8892 46.7856 13.6777 47.7513 12.712C48.7169 11.7463 49.9285 11.0634 51.2547 10.7374C51.5235 9.63802 51.539 8.49196 51.2999 7.38576C51.0609 6.27956 50.5735 5.24216 49.8748 4.35192C49.176 3.46168 48.284 2.74189 47.2663 2.24692C46.2485 1.75195 45.1316 1.49475 43.9998 1.49475C42.8681 1.49475 41.7512 1.75195 40.7334 2.24692C39.7157 2.74189 38.8237 3.46168 38.1249 4.35192C37.4261 5.24216 36.9388 6.27956 36.6998 7.38576C36.4607 8.49196 36.4762 9.63802 36.745 10.7374C38.0714 11.0631 39.2832 11.7459 40.2491 12.7116C41.2149 13.6773 41.8978 14.8891 42.2238 16.2154Z" fill="#7ABDF7"/>
    <path d="M45.7769 19.7663C44.6098 19.4809 43.3911 19.4809 42.224 19.7663C41.8977 21.0922 41.2148 22.3034 40.2491 23.2687C39.2834 24.234 38.0719 24.9165 36.746 25.2423C36.4772 26.3416 36.4617 27.4877 36.7007 28.5939C36.9398 29.7001 37.4271 30.7375 38.1259 31.6277C38.8247 32.518 39.7166 33.2378 40.7344 33.7327C41.7522 34.2277 42.8691 34.4849 44.0008 34.4849C45.1326 34.4849 46.2495 34.2277 47.2672 33.7327C48.285 33.2378 49.177 32.518 49.8757 31.6277C50.5745 30.7375 51.0618 29.7001 51.3009 28.5939C51.54 27.4877 51.5245 26.3416 51.2557 25.2423C49.9293 24.9165 48.7174 24.2338 47.7516 23.2681C46.7858 22.3023 46.1028 21.0906 45.7769 19.7642V19.7663Z" fill="#0D74F5"/>
    <path d="M53.0313 10.5223C52.4332 10.5211 51.8371 10.5919 51.2559 10.7333C50.93 12.0593 50.2473 13.2709 49.2817 14.2364C48.3162 15.202 47.1046 15.8847 45.7785 16.2106C45.4931 17.3775 45.4931 18.5959 45.7785 19.7628C47.1049 20.0888 48.3166 20.7719 49.2822 21.7378C50.2478 22.7038 50.9304 23.9158 51.2559 25.2422C52.2818 25.4931 53.3493 25.5235 54.3878 25.3315C55.4263 25.1395 56.4123 24.7294 57.2807 24.1283C58.1491 23.5271 58.8801 22.7487 59.4256 21.8443C59.971 20.9399 60.3183 19.93 60.4448 18.8815C60.5712 17.8329 60.4738 16.7695 60.159 15.7614C59.8443 14.7532 59.3192 13.8233 58.6186 13.033C57.918 12.2427 57.0578 11.61 56.0946 11.1766C55.1315 10.7432 54.0874 10.519 53.0313 10.5188V10.5223Z" fill="#4494F7"/>
    <path d="M42.2236 19.7662C42.5099 18.5995 42.5099 17.3808 42.2236 16.214C40.8975 15.8881 39.6859 15.2053 38.7202 14.2398C37.7546 13.2742 37.0717 12.0628 36.7455 10.7367C35.6462 10.4679 34.5001 10.4524 33.3939 10.6915C32.2877 10.9305 31.2503 11.4178 30.3601 12.1166C29.4699 12.8154 28.7501 13.7074 28.2551 14.7251C27.7601 15.7429 27.5029 16.8598 27.5029 17.9915C27.5029 19.1233 27.7601 20.2402 28.2551 21.258C28.7501 22.2757 29.4699 23.1677 30.3601 23.8665C31.2503 24.5652 32.2877 25.0526 33.3939 25.2916C34.5001 25.5307 35.6462 25.5152 36.7455 25.2464C37.0712 23.9198 37.7539 22.7077 38.7196 21.7417C39.6853 20.7756 40.8971 20.0924 42.2236 19.7662Z" fill="#005CF4"/>
    <path d="M45.7769 16.2153C47.103 15.8893 48.3146 15.2064 49.2803 14.2407C50.2459 13.275 50.9288 12.0635 51.2549 10.7373C49.9287 11.0634 48.7172 11.7463 47.7515 12.7119C46.7858 13.6776 46.1029 14.8892 45.7769 16.2153Z" fill="#186EF9"/>
    <path d="M45.7769 19.7663C46.1029 21.0922 46.7858 22.3035 47.7515 23.2689C48.7172 24.2342 49.9288 24.9167 51.2549 25.2422C50.9287 23.9161 50.2457 22.7046 49.2801 21.739C48.3145 20.7733 47.1029 20.0904 45.7769 19.7642V19.7663Z" fill="#0246F2"/>
    <path d="M42.2241 16.2153C41.8981 14.8892 41.2152 13.6776 40.2495 12.7119C39.2838 11.7463 38.0723 11.0634 36.7461 10.7373C37.0722 12.0635 37.7551 13.275 38.7207 14.2407C39.6864 15.2064 40.898 15.8893 42.2241 16.2153Z" fill="#0046F8"/>
    <path d="M42.2241 19.7663C40.8983 20.0923 39.687 20.7749 38.7214 21.7402C37.7557 22.7054 37.0727 23.9165 36.7461 25.2422C38.0723 24.9163 39.284 24.2334 40.2497 23.2677C41.2154 22.3021 41.8982 21.0904 42.2241 19.7642V19.7663Z" fill="#0729F1"/>
    <path d="M5.44885 30.5511C2.12008 27.2224 0.25 22.7076 0.25 18C0.25 13.2924 2.12008 8.77763 5.44885 5.44885C8.77763 2.12008 13.2924 0.25 18 0.25C22.7076 0.25 27.2224 2.12008 30.5511 5.44885C33.8799 8.77763 35.75 13.2924 35.75 18C35.75 22.7076 33.8799 27.2224 30.5511 30.5511C27.2224 33.8799 22.7076 35.75 18 35.75C13.2924 35.75 8.77763 33.8799 5.44885 30.5511Z" fill="#26A17B" stroke="white" stroke-width="0.5"/>
    <path d="M20.1622 19.5559V19.5536C20.0384 19.5626 19.4005 19.6009 17.9774 19.6009C16.8412 19.6009 16.0413 19.5671 15.76 19.5536V19.557C11.386 19.3646 8.12128 18.603 8.12128 17.6918C8.12128 16.7816 11.386 16.02 15.76 15.8243V18.7988C16.0458 18.819 16.8648 18.8674 17.9965 18.8674C19.3544 18.8674 20.035 18.8111 20.1622 18.7999V15.8265C24.5272 16.0211 27.784 16.7828 27.784 17.6918C27.784 18.603 24.5272 19.3624 20.1622 19.5559ZM20.1622 15.5171V12.8554H26.2529V8.79639H9.66928V12.8554H15.76V15.516C10.81 15.7433 7.0874 16.7243 7.0874 17.8988C7.0874 19.0733 10.81 20.0531 15.76 20.2815V28.8113H20.1622V20.2793C25.1043 20.052 28.8179 19.0721 28.8179 17.8988C28.8179 16.7254 25.1043 15.7455 20.1622 15.5171Z" fill="white"/>
</svg>
